<svg xmlns="http://www.w3.org/2000/svg" xmlns:xlink="http://www.w3.org/1999/xlink" fill="none" version="1.1" width="108" height="140" viewBox="0 0 108 140"><defs><mask id="master_svg0_10_2216" style="mask-type:alpha" maskUnits="userSpaceOnUse"><g><rect x="0" y="0" width="108" height="140" rx="8" fill="#FFFFFF" fill-opacity="1"/></g></mask></defs><g mask="url(#master_svg0_10_2216)"><g style="opacity:0.10000000149011612;"><g><path d="M10.722836032104492,116.04160563964844Q13.232436032104491,118.07599563964844,14.593886032104493,123.69188563964843L15.565786032104493,123.45628563964844Q14.124666032104493,117.51197563964844,11.352556032104491,115.26478663964843Q8.486786032104492,112.94168563964844,4.336263032104492,114.54451663964844L4.696509032104492,115.47737563964844Q8.306876032104492,114.08313963964844,10.722836032104492,116.04160563964844Z" fill-rule="evenodd" fill="#588E7E" fill-opacity="1"/></g><g><path d="M20.01935159301758,97.46035947753906Q24.05845159301758,105.79903947753907,22.988351593017576,123.75833947753907L23.986551593017577,123.81783947753905Q25.07225159301758,105.59793947753906,20.91935159301758,97.02441947753906Q16.66668159301758,88.24500947753906,7.040348293017578,89.46774047753907L7.166354893017578,90.45977047753907Q16.079931593017577,89.32757047753907,20.01935159301758,97.46035947753906Z" fill-rule="evenodd" fill="#588E7E" fill-opacity="1"/></g><g><path d="M17.172629253173827,94.22308529663086Q15.547328253173829,104.82158529663086,16.952480253173828,124.89348529663086L17.95003825317383,124.82358529663085Q16.552671253173827,104.86288529663086,18.161078253173827,94.37458529663085Q19.72653825317383,84.16636529663086,24.031178253173827,83.17226729663086L23.806158253173827,82.19791229663086Q18.840868253173827,83.34458629663087,17.172629253173827,94.22308529663086Z" fill-rule="evenodd" fill="#588E7E" fill-opacity="1"/></g><g><path d="M23.654550075683595,94.71382583984375Q17.719850075683595,101.31658583984375,16.090282075683593,123.10863583984374L17.087498075683595,123.18313583984374Q18.691630075683594,101.73130583984376,24.398280075683594,95.38230583984375Q29.890990075683593,89.27125583984375,39.5444900756836,97.62056583984375L40.198690075683594,96.86421583984375Q29.803190075683595,87.87310583984375,23.654550075683595,94.71382583984375Z" fill-rule="evenodd" fill="#588E7E" fill-opacity="1"/></g><g><path d="M36.42447367553711,113.27635038012696Q27.58670367553711,109.00077838012696,19.59841967553711,123.76430838012695L20.47792767553711,124.24010838012696Q28.01144367553711,110.31711838012696,35.98897367553711,114.17653838012696L36.42447367553711,113.27635038012696Z" fill-rule="evenodd" fill="#588E7E" fill-opacity="1"/></g><g><path d="M4.827537899169922,69.14064001367187Q19.32832789916992,82.26978901367187,20.400627899169923,123.80108901367188L21.400327899169923,123.77528901367188Q20.316927899169922,81.81598901367187,5.498717899169922,68.39934601367187L4.827537899169922,69.14064001367187Z" fill-rule="evenodd" fill="#588E7E" fill-opacity="1"/></g><g><path d="M38.12851390991211,99.8257330090332C36.827623909912106,100.1696530090332,35.74062390991211,101.2286630090332,35.38084390991211,102.50251300903321C34.91001690991211,101.57231300903321,34.43205190991211,100.61923300903321,34.30618570991211,99.5839230090332C34.18031970991211,98.5486030090332,34.47236290991211,97.3975630090332,35.30653390991211,96.7380330090332C36.036503909912106,96.1610230090332,37.06125390991211,96.0550930090332,37.96644390991211,96.2576830090332C38.87164390991211,96.4602730090332,39.68333390991211,96.9343630090332,40.46183390991211,97.42533300903321C40.67298390991211,95.94453300903321,41.13942390991211,94.6891830090332,42.28319390991211,94.08684100903321C43.42696390991211,93.4844950090332,44.51506390991211,93.5836180090332,45.622663909912106,94.2197290090332C46.73016390991211,94.85584300903321,47.56106390991211,95.85956300903321,48.30966390991211,96.8812630090332C47.04086390991211,96.6802930090332,45.71916390991211,96.7854130090332,44.49146390991211,97.1843430090332C44.23370390991211,97.2682130090332,43.94632390991211,97.3991930090332,43.87502390991211,97.6559730090332C43.75848390991211,98.0753330090332,44.31156390991211,98.3705130090332,44.75306390991211,98.3525430090332C45.718563909912106,98.3127930090332,46.59966390991211,97.6164930090332,47.56026390991211,97.7006330090332C48.37986390991211,97.77252300903321,49.04486390991211,98.4198030090332,49.36566390991211,99.1602030090332C49.68656390991211,99.9003330090332,49.72686390991211,100.7273330090332,49.76276390991211,101.5341730090332C48.64916390991211,100.73631300903321,47.29996390991211,100.25596300903321,45.91626390991211,100.1652830090332C45.64866390991211,100.1478530090332,45.31856390991211,100.1794430090332,45.20366390991211,100.4190730090332C45.07416390991211,100.6889330090332,45.32806390991211,100.97458300903321,45.56856390991211,101.1515830090332C46.20726390991211,101.6215930090332,46.92346390991211,101.99002300903321,47.68226390991211,102.2389130090332C48.14566390991211,102.39086300903321,48.648363909912106,102.5120330090332,48.98836390991211,102.85459300903321C49.39096390991211,103.2600630090332,49.46716390991211,103.8981030090332,49.32836390991211,104.45300300903321C49.18966390991211,105.0080030090332,48.86746390991211,105.5014030090332,48.55046390991211,105.9831030090332C48.11686390991211,104.6483030090332,46.88646390991211,103.6042530090332,45.47536390991211,103.37415300903321C45.35056390991211,104.0242030090332,45.78386390991211,104.6382030090332,46.24486390991211,105.11260300903321C46.70576390991211,105.5872030090332,47.24186390991211,106.0504030090332,47.40146390991211,106.6892030090332C47.54566390991211,107.2671030090332,47.34366390991211,107.89040300903321,46.99806390991211,108.3860030090332C46.65256390991211,108.8816030090332,46.174863909912105,109.2726030090332,45.70406390991211,109.6566030090332L45.19726390991211,109.7366030090332C43.92384390991211,109.5596030090332,42.67971390991211,109.1988030090332,41.51702390991211,108.6689030090332C41.845533909912106,107.7401030090332,42.11427390991211,106.7916030090332,42.32130390991211,105.83090300903321C42.383003909912105,105.5439030090332,42.43867390991211,105.2400030090332,42.34187390991211,104.9647030090332C42.24534390991211,104.6894030090332,41.94096390991211,104.4642030090332,41.65632390991211,104.5543030090332C41.41090390991211,104.63190300903321,41.28421390991211,104.89390300903321,41.198103909912106,105.1324030090332C40.78568390991211,106.27400300903321,40.65323390991211,107.5083030090332,40.81530390991211,108.7016030090332C40.09081390991211,108.6381030090332,39.417613909912106,108.1940030090332,39.08772390991211,107.56170300903321C38.75783390991211,106.9291030090332,38.781153909912106,106.12850300903321,39.14805390991211,105.5063030090332C39.38250390991211,105.1085030090332,39.73707390991211,104.7945030090332,40.05790390991211,104.45900300903321C40.37874390991211,104.1235030090332,40.67983390991211,103.7399030090332,40.76265390991211,103.2891930090332C40.84518390991211,102.8385230090332,40.64172390991211,102.3127030090332,40.20489390991211,102.15966300903321C39.62245390991211,101.9554330090332,39.03288390991211,102.4752630090332,38.70272390991211,102.9959230090332C38.01553390991211,104.07920300903321,37.72020390991211,105.3933030090332,37.88171390991211,106.6495030090332C37.01189390991211,106.0507030090332,36.47662390991211,105.0140030090332,36.49526390991211,103.9648030090332C36.51391390991211,102.9155830090332,37.08648390991211,101.8832630090332,37.97741390991211,101.2915430090332C38.25684390991211,101.1058330090332,38.57439390991211,100.9525230090332,38.76689390991211,100.6807530090332C38.95939390991211,100.4089930090332,38.95089390991211,99.9629530090332,38.64952390991211,99.8221630090332C38.48993390991211,99.7475530090332,38.29989390991211,99.7799530090332,38.12796390991211,99.8254330090332L38.12851390991211,99.8257330090332Z" fill="#00C78B" fill-opacity="1"/></g><g><path d="M6.542809497070312,118.77273537597657C7.617209497070313,119.57849537597656,8.221809497070312,120.96618537597656,8.071809497070312,122.28058537597656C8.861009497070313,121.59518537597657,9.665609497070312,120.89128537597657,10.175109497070313,119.97959537597656C10.684609497070312,119.06791537597657,10.85130949707031,117.89235537597656,10.328909497070313,116.96923537597657C9.872109497070312,116.16157537597657,8.962709497070312,115.67986537597656,8.047709497070313,115.52845537597656C7.132309497070313,115.37705537597657,6.200509497070312,115.51239537597657,5.293209497070313,115.67604537597656C5.659809497070313,114.22546537597657,5.7042094970703126,112.88816537597657,4.873309497070313,111.90186537597656C4.042459497070313,110.91584037597656,2.9971394970703127,110.60051137597657,1.7299794970703122,110.77505807597656C0.46280949707031294,110.94960537597656,-0.6878105029296879,111.56828937597656,-1.7693205029296877,112.23435537597656C-0.5180705029296879,112.52327537597657,0.6665594970703124,113.11526537597656,1.6520994970703127,113.94444537597656C1.8591294970703123,114.11845537597657,2.075489497070312,114.34746537597657,2.0439494970703125,114.61214537597657C1.9926794970703128,115.04430537597656,1.3682794970703123,115.11046537597656,0.9662794970703121,114.92856537597656C0.08712949707031292,114.53044537597657,-0.4645905029296875,113.55559537597657,-1.3865205029296872,113.27402537597656C-2.1729705029296875,113.03385537597656,-3.0348405029296877,113.38431537597656,-3.6128905029296874,113.94989537597657C-4.190950502929687,114.51547537597656,-4.542220502929688,115.26623537597656,-4.881976502929687,116.00009537597656C-3.5476305029296875,115.67795537597657,-2.1156605029296873,115.73813537597657,-0.7996905029296872,116.17219537597656C-0.5452105029296872,116.25606537597656,-0.25125050292968787,116.40909537597656,-0.2358905029296876,116.67405537597656C-0.2186205029296877,116.97250537597657,-0.5622105029296876,117.14214537597657,-0.8517905029296875,117.21594537597656C-1.6215205029296875,117.41200537597656,-2.4249805029296874,117.48525537597656,-3.2224105029296877,117.43188537597656C-3.7094205029296874,117.39920537597656,-4.2208305029296875,117.32323537597657,-4.665890502929687,117.51330537597656C-5.192664502929688,117.73822537597657,-5.505546502929688,118.30054537597657,-5.587538102929687,118.86667537597657C-5.669529302929687,119.43280537597656,-5.558471202929687,120.01036537597656,-5.4479615029296875,120.57512537597657C-4.539750502929687,119.50114537597656,-3.0038505029296876,118.99465537597656,-1.609450502929688,119.30971537597657C-1.7408005029296874,119.95862537597657,-2.3750705029296877,120.36490537597656,-2.9821905029296873,120.63177537597656C-3.5893105029296875,120.89858537597657,-4.261690502929687,121.12708537597656,-4.651905502929687,121.65918537597656C-5.004824502929687,122.14038537597656,-5.054183502929687,122.79338537597656,-4.922285502929688,123.38178537597656C-4.790386502929687,123.97028537597656,-4.496420502929688,124.51108537597656,-4.206030502929687,125.04288537597657L-3.7670005029296876,125.30678537597656C-2.5204105029296877,125.61958537597656,-1.2310305029296877,125.75118537597656,0.04681949707031219,125.69558537597656C0.09508949707031267,124.71228537597656,0.20613949707031232,123.73308537597656,0.3791794970703126,122.76588537597657C0.4307294970703124,122.47688537597656,0.4948994970703122,122.17468537597657,0.6887694970703127,121.95568537597656C0.8826394970703122,121.73678537597657,1.250089497070313,121.64228537597657,1.4796094970703129,121.83238537597656C1.6773294970703123,121.99608537597656,1.6954194970703123,122.28628537597656,1.6847294970703128,122.53928537597656C1.6334494970703126,123.75078537597656,1.2873894970703121,124.94378537597656,0.6846494970703123,125.98828537597656C1.3797994970703122,126.20068537597656,2.1717394970703126,126.04148537597656,2.717429497070313,125.57908537597656C3.263129497070313,125.11668537597656,3.5455694970703124,124.36648537597657,3.4419194970703124,123.65298537597656C3.375559497070313,123.19668537597656,3.166329497070313,122.77318537597657,2.9968594970703126,122.34238537597656C2.8271194970703117,121.91158537597656,2.693849497070312,121.44348537597656,2.7884594970703134,120.99498537597657C2.883059497070313,120.54654537597656,3.2713494970703128,120.13590537597656,3.733689497070312,120.15768537597657C4.350679497070313,120.18654537597656,4.699509497070313,120.88878537597657,4.807809497070313,121.49448537597657C5.033209497070313,122.75518537597657,4.807809497070313,124.08268537597657,4.181209497070313,125.18588537597657C5.214209497070312,124.95678537597657,6.103509497070313,124.19708537597657,6.484409497070313,123.21818537597656C6.865209497070312,122.23918537597656,6.727009497070313,121.06908537597656,6.126209497070313,120.18735537597657C5.937809497070312,119.91096537597656,5.702009497070312,119.64982537597656,5.626909497070313,119.32605537597657C5.551709497070313,119.00200537597657,5.728909497070312,118.59245537597656,6.061209497070312,118.57475537597657Q6.237309497070312,118.56549537597657,6.420009497070312,118.57262537597656L6.542809497070312,118.77273537597657Z" fill="#00C78B" fill-opacity="1"/></g><g><path d="M22.194714821777342,78.65776852416992C20.432314821777343,77.78016852416992,19.204914821777344,75.92654852416992,19.092484821777344,73.97192852416993C18.119284821777345,75.18614852416992,17.128260821777342,76.43166852416992,16.617940821777342,77.89856852416992C16.107620821777342,79.36556852416992,16.161641821777344,81.12216852416992,17.152117821777345,82.32246852416992C18.018644821777343,83.37256852416992,19.459664821777345,83.82426852416992,20.826634821777343,83.79296852416992C22.193614821777345,83.76166852416992,23.512334821777344,83.30906852416993,24.788274821777343,82.82196852416992C24.620994821777344,85.03386852416992,24.893024821777345,86.99256852416993,26.347154821777345,88.19976852416993C27.801354821777345,89.40686852416992,29.398654821777342,89.57866852416993,31.194254821777342,88.97666852416992C32.990154821777345,88.37456852416992,34.504954821777346,87.15846852416992,35.90725482177734,85.89196852416993C34.017954821777344,85.81486852416992,32.149154821777344,85.27836852416992,30.509854821777346,84.34246852416992C30.165654821777345,84.14586852416993,29.793854821777344,83.87216852416992,29.773054821777343,83.47846852416993C29.73875482177734,82.83556852416993,30.628554821777342,82.56756852416993,31.257854821777343,82.72196852416992C32.63445482177734,83.05996852416992,33.680654821777345,84.32746852416992,35.089854821777344,84.48436852416992C36.291954821777345,84.61806852416993,37.45495482177734,83.87116852416992,38.151754821777345,82.88916852416992C38.84855482177734,81.90726852416992,39.169954821777345,80.71806852416992,39.47845482177735,79.55666852416992C37.62245482177734,80.39206852416993,35.528054821777346,80.69736852416992,33.50865482177734,80.42726852416992C33.117954821777346,80.37496852416993,32.65285482177734,80.23306852416992,32.563754821777344,79.85156852416992C32.463354821777344,79.42216852416992,32.91965482177734,79.08096852416992,33.321654821777344,78.89386852416992C34.389754821777345,78.39696852416992,35.537854821777344,78.06986852416992,36.708854821777344,77.92886852416993C37.42395482177734,77.84246852416992,38.18545482177734,77.81256852416992,38.78385482177734,77.41386852416993C39.491854821777345,76.94196852416992,39.804754821777344,76.03764852416992,39.781454821777345,75.19104852416993C39.75815482177734,74.34443852416992,39.45155482177734,73.53431852416992,39.148754821777345,72.74272852416992C38.10045482177735,74.55547852416993,35.998054821777345,75.71414852416993,33.894454821777344,75.63844852416992C33.92195482177735,74.65813852416993,34.74045482177735,73.89240852416992,35.55465482177735,73.33716852416993C36.368754821777344,72.78193852416992,37.287454821777345,72.26482852416993,37.72015482177734,71.38336852416992C38.11145482177734,70.58604852416993,38.019054821777345,69.62207852416992,37.67925482177735,68.80188852416993C37.33975482177735,67.98169852416993,36.77685482177735,67.27505952416992,36.221554821777346,66.58067452416992L35.51785482177735,66.31707982416992C33.62935482177734,66.20407392416992,31.724354821777343,66.36664172416992,29.882954821777346,66.79852152416993C30.060154821777346,68.24310852416993,30.145354821777346,69.69859852416992,30.137754821777342,71.15380852416992C30.135554821777344,71.58841852416992,30.118554821777344,72.04588852416992,29.892054821777343,72.41786852416992C29.66555482177734,72.78983852416992,29.156054821777346,73.02837852416992,28.774854821777346,72.81461852416992C28.446654821777344,72.63053852416992,28.347354821777344,72.21335852416992,28.299354821777342,71.84192852416992C28.069054821777343,70.06430852416992,28.271154821777344,68.23303852416993,28.88345482177734,66.54718052416992C27.820854821777345,66.42872652416992,26.711054821777346,66.87830752416993,26.035144821777344,67.70094852416992C25.359194821777344,68.52358852416992,25.138174821777344,69.69342852416992,25.468064821777343,70.70340852416992C25.678934821777343,71.34932852416992,26.08944482177734,71.90837852416992,26.444054821777343,72.48893852416992C26.798854821777343,73.06949852416992,27.110054821777343,73.71404852416993,27.085654821777343,74.39263852416993C27.061254821777343,75.07122852416992,26.600854821777343,75.77541852416992,25.924084821777342,75.87099852416992C25.021084821777343,75.99843852416993,24.338284821777343,75.07204852416993,24.028414821777343,74.21999852416992C23.384004821777346,72.44699852416993,23.377154821777346,70.45261852416992,24.008944821777344,68.67526852416992C22.567114821777345,69.29231852416993,21.466944821777343,70.64241852416993,21.160374821777346,72.17142852416993C20.853794821777342,73.70043852416993,21.349034821777344,75.36613852416993,22.442894821777344,76.48446852416993C22.785934821777346,76.83526852416992,23.193974821777346,77.15026852416992,23.384554821777343,77.60096852416993C23.575144821777343,78.05166852416993,23.420754821777344,78.69676852416993,22.942794821777344,78.81386852416992C22.689414821777344,78.87586852416992,22.426444821777345,78.77356852416992,22.193084821777344,78.65756852416992L22.194714821777342,78.65776852416992Z" fill="#00C78B" fill-opacity="1"/></g><g><path d="M41.27105938720703,111.13493885986328C41.88475938720703,109.26417885986328,43.71155938720703,107.89664885986328,45.888859387207035,107.67798885986328C44.314559387207034,106.73334885986328,42.701359387207035,105.77210785986328,40.94115938720703,105.32007585986328C39.18068938720703,104.86804385986328,37.21399938720703,105.01536645986329,36.07269938720703,106.10377885986328C35.07426938720703,107.05603885986328,34.87216938720703,108.57169885986328,35.19766938720703,109.98579885986328C35.523169387207034,111.39961885986328,36.31318938720703,112.74182885986328,37.13310938720703,114.03800885986328C34.60672938720703,113.98000885986328,32.45850938720703,114.36395885986329,31.408252387207032,115.93276885986327C30.35799638720703,117.50146885986328,30.50360738720703,119.16446885986328,31.56345838720703,120.99306885986329C32.62330938720703,122.82126885986328,34.31468938720703,124.32686885986328,36.03896938720703,125.71296885986328C35.724169387207034,123.75236885986328,35.93092938720703,121.78896885986327,36.63649938720703,120.04266885986328C36.78456938720703,119.67586885986329,37.01408938720703,119.27666885986328,37.45311938720703,119.23446885986328C38.16991938720703,119.16556885986328,38.66077938720703,120.07286885986328,38.62046938720703,120.73266885986328C38.532439387207035,122.17596885986327,37.32724938720703,123.32536885986329,37.45009938720703,124.79286885986328C37.55484938720703,126.04466885986328,38.64321938720703,127.21006885986328,39.89721938720703,127.88046885986329C41.15095938720703,128.55116885986328,42.55855938720703,128.82156885986328,43.93205938720703,129.0805688598633C42.59685938720703,127.20216885986328,41.807959387207035,125.04906885986328,41.682959387207035,122.94386885986329C41.65875938720703,122.53646885986328,41.71965938720703,122.04736885986328,42.13045938720703,121.93546885986328C42.59275938720703,121.80936885986328,43.07405938720703,122.26386885986328,43.37015938720703,122.67046885986328C44.15695938720703,123.75066885986328,44.76925938720703,124.92266885986328,45.17705938720703,126.12796885986327C45.42605938720703,126.86396885986328,45.621759387207035,127.65126885986328,46.19765938720703,128.2500688598633C46.87965938720703,128.95856885986328,47.96445938720703,129.2354688598633,48.91265938720703,129.16746885986328C49.86095938720703,129.0993688598633,50.708259387207036,128.7396688598633,51.53535938720703,128.38486885986327C49.27105938720703,127.39366885986328,47.51935938720703,125.27666885986328,47.15765938720703,123.09446885986328C48.267459387207026,123.07186885986329,49.30375938720703,123.87946885986328,50.10195938720703,124.69366885986328C50.90025938720703,125.50786885986328,51.67795938720703,126.43236885986329,52.762759387207026,126.83456885986328C53.74355938720703,127.19836885986328,54.80975938720703,127.05216885986329,55.661159387207036,126.65786885986329C56.51265938720703,126.26326885986327,57.188559387207036,125.64376885986329,57.85275938720703,125.03246885986329L58.00005938720703,124.29016885986329C57.72605938720703,122.32846885986328,57.13785938720703,120.36426885986329,56.26035938720703,118.47986885986327C54.67125938720703,118.73886885986329,53.05005938720703,118.90276885986329,51.40975938720703,118.97086885986329C50.919659387207034,118.99106885986328,50.400859387207035,118.99756885986328,49.933859387207036,118.78216885986328C49.46685938720703,118.56706885986328,49.09015938720703,118.05186885986328,49.249759387207035,117.64586885986328C49.38735938720703,117.29616885986329,49.835959387207026,117.17176885986328,50.24405938720703,117.10256885986328C52.197059387207034,116.77146885986328,54.30215938720703,116.88526885986329,56.33085938720703,117.43176885986328C56.23845938720703,116.32516885986328,55.49615938720703,115.19936885986328,54.426159387207036,114.54233885986328C53.35615938720703,113.88525885986328,51.99185938720703,113.71724885986328,50.92435938720703,114.11154885986328C50.24185938720703,114.36369885986328,49.69945938720703,114.81763885986328,49.121059387207026,115.21516885986328C48.54275938720703,115.61276885986328,47.88295938720703,115.96896885986328,47.11355938720703,115.97906885986328C46.34405938720703,115.98906885986328,45.45315938720703,115.54906885986328,45.20165938720703,114.85303885986328C44.866359387207034,113.92446885986328,45.76435938720703,113.16908885986328,46.65805938720703,112.80392885986328C48.51785938720703,112.04418885986328,50.76225938720703,111.93308885986328,52.89815938720703,112.49485885986329C51.89705938720703,111.03364885986328,50.14285938720703,109.96483885986328,48.355459387207034,109.72711885986328C46.56815938720703,109.48939885986329,44.79805938720703,110.08901885986329,43.77085938720703,111.28008885986328C43.44885938720703,111.65369885986328,43.18075938720703,112.09265885986328,42.713759387207034,112.31349885986329C42.246759387207035,112.53434885986329,41.48745938720703,112.40825885986328,41.25405938720703,111.91919885986329C41.13035938720703,111.65996885986328,41.18965938720703,111.38247885986328,41.27105938720703,111.13493885986328L41.27105938720703,111.13493885986328Z" fill="#00C78B" fill-opacity="1"/></g><g transform="matrix(0.8646759390830994,0.5023300647735596,-0.5075904130935669,0.8615984916687012,24.840879405216015,9.785531935538074)"><path d="M12.49913525390625,65.38965685272217C13.030135253906248,67.27745685272217,12.496635253906248,69.43005685272217,11.150435253906249,70.83135685272217C12.67893525390625,70.72775685272217,14.24173525390625,70.61585685272217,15.64673525390625,70.00155685272216C17.05183525390625,69.38695685272216,18.29323525390625,68.16235685272217,18.50863525390625,66.62435685272217C18.69723525390625,65.27885685272217,18.06963525390625,63.91495685272217,17.14023525390625,62.93095685272217C16.21093525390625,61.94695685272217,15.007035253906249,61.282956852722165,13.806235253906252,60.67355685272217C15.52523525390625,59.304396852722164,16.76883525390625,57.78301685272217,16.68173525390625,55.899626852722164C16.59473525390625,54.016236852722166,15.66023525390625,52.726186852722165,14.03123525390625,51.81204685272217C12.402235253906252,50.89791185272217,10.51293525390625,50.60492785272217,8.66223525390625,50.42815685272217C9.85983525390625,51.86906685272217,10.70943525390625,53.60459685272217,11.11623525390625,55.44132685272217C11.20163525390625,55.82706685272217,11.24923525390625,56.284816852722166,10.976935253906252,56.566066852722166C10.532135253906251,57.02491685272217,9.74703525390625,56.55161685272217,9.44183525390625,55.98474685272217C8.77443525390625,54.74488685272217,9.00193525390625,53.12065685272217,8.18103525390625,51.97872685272217C7.48083525390625,51.004847852722165,6.166335253906251,50.65376185272217,4.990135253906249,50.803796852722165C3.81387525390625,50.953835852722165,2.7361952539062493,51.519886852722166,1.6872552539062502,52.07666685272217C3.52563525390625,52.87759685272217,5.13713525390625,54.21102685272217,6.28023525390625,55.87807685272217C6.50133525390625,56.20052685272217,6.706635253906249,56.63835685272217,6.4885352539062495,56.961076852722165C6.24273525390625,57.32444685272217,5.692235253906251,57.21941685272217,5.28933525390625,57.05000685272217C4.21927525390625,56.59989685272217,3.2198752539062507,55.97655685272217,2.3406552539062497,55.211096852722164C1.8035852539062498,54.743516852722166,1.2766552539062497,54.20392685272217,0.5898552539062498,54.03288685272217C-0.22285474609375022,53.83074685272217,-1.08812474609375,54.21074685272217,-1.6881447460937502,54.798896852722166C-2.28816474609375,55.387046852722165,-2.67385474609375,56.159056852722166,-3.04859474609375,56.91552685272217C-1.0352847460937502,56.463226852722165,1.20192525390625,57.22732685272217,2.5423952539062498,58.824816852722165C1.8115252539062503,59.46616685272217,0.7116652539062498,59.380776852722164,-0.23188474609375032,59.156816852722166C-1.1757147460937496,58.932846852722164,-2.16087474609375,58.60630685272217,-3.08910474609375,58.882926852722164C-3.92836474609375,59.133086852722165,-4.56780474609375,59.85135685272217,-4.93871374609375,60.65445685272217C-5.30962174609375,61.45755685272217,-5.45004574609375,62.34765685272217,-5.58636474609375,63.22445685272217L-5.31126374609375,63.91955685272217C-4.14078474609375,65.38415685272217,-2.75870474609375,66.67485685272217,-1.2233447460937503,67.73735685272217C-0.29073474609374994,66.63255685272216,0.7111252539062498,65.58795685272217,1.7740252539062498,64.61165685272216C2.0915552539062503,64.32005685272216,2.43536525390625,64.02375685272217,2.856085253906249,63.93945685272217C3.27681525390625,63.85515685272217,3.788145253906251,64.06875685272217,3.8855952539062493,64.49295685272217C3.969635253906249,64.85855685272217,3.7320352539062505,65.21285685272217,3.4938852539062495,65.49875685272217C2.3543352539062496,66.86715685272216,0.8887752539062497,67.95425685272217,-0.7432147460937504,68.64115685272216C-0.12430474609374986,69.50205685272216,0.9385952539062501,70.01465685272217,1.98507525390625,69.95655685272217C3.03154525390625,69.89845685272218,4.028485253906251,69.27185685272217,4.544235253906249,68.34785685272217C4.873735253906251,67.75695685272217,5.00813525390625,67.07825685272216,5.19483525390625,66.42575685272217C5.38153525390625,65.77345685272216,5.64373525390625,65.10945685272216,6.153235253906249,64.66975685272217C6.6626352539062506,64.23005685272217,7.480235253906249,64.09305685272217,7.998735253906251,64.52655685272217C8.69043525390625,65.10435685272216,8.46983525390625,66.23155685272216,8.05593525390625,67.03385685272217C7.19423525390625,68.70355685272217,5.74913525390625,70.05425685272218,4.03751525390625,70.78855685272217C5.44253525390625,71.43235685272217,7.1539352539062495,71.33035685272216,8.46893525390625,70.52425685272217C9.78393525390625,69.71815685272216,10.66653525390625,68.23025685272216,10.75383525390625,66.67185685272217C10.78113525390625,66.18295685272217,10.73953525390625,65.67065685272217,10.94073525390625,65.22625685272217C11.14193525390625,64.78215685272217,11.713535253906251,64.46025685272217,12.115635253906252,64.73275685272216C12.328835253906249,64.87735685272217,12.42903525390625,65.13955685272217,12.49913525390625,65.38965685272217L12.49913525390625,65.38965685272217Z" fill="#00C78B" fill-opacity="1"/></g><g transform="matrix(0.3924817442893982,0.9197597503662109,-0.9217197299003601,0.3878566026687622,74.12011168368792,39.60007743851929)"><path d="M26.876994717407225,83.36112865722656C29.34969471740723,82.95571865722656,32.00429471740723,83.96787865722656,33.58699471740722,85.91959865722656C33.677794717407224,83.92597865722657,33.76339471740722,81.88657865722656,33.187894717407225,79.97646865722656C32.61249471740723,78.06635865722656,31.238794717407227,76.27679165722657,29.318394717407227,75.76783265722656C27.638294717407227,75.32269965722656,25.815994717407225,75.93136365722657,24.432294717407228,76.98708865722656C23.048594717407227,78.04307865722656,22.03069471740723,79.50201865722656,21.082594717407225,80.96506865722657C19.594994717407225,78.53586865722656,17.845194717407225,76.69890865722657,15.442244717407226,76.53017265722656C13.039284717407227,76.36143365722656,11.266294717407227,77.37825865722657,9.869224717407226,79.35026865722656C8.472154717407227,81.32227865722656,7.825543717407227,83.72352865722657,7.332139117407227,86.09249865722656C9.334924717407226,84.75788865722656,11.661284717407227,83.91747865722657,14.051174717407227,83.66518865722657C14.553024717407226,83.61231865722657,15.141024717407227,83.61916865722657,15.458054717407226,84.01362865722656C15.975724717407227,84.65790865722656,15.260964717407226,85.60295865722657,14.496874717407227,85.91329865722656C12.826114717407226,86.59179865722656,10.797974717407227,86.05489865722656,9.229704717407227,86.94659865722656C7.891788717407227,87.70729865722656,7.255266717407227,89.35629865722656,7.274623149407226,90.90099865722657C7.293977517407226,92.44569865722656,7.855531717407226,93.92489865722656,8.409724717407226,95.36599865722656C9.693674717407227,93.10609865722657,11.620404717407226,91.21989865722657,13.902064717407226,89.98939865722656C14.343404717407227,89.75129865722656,14.928674717407226,89.55079865722657,15.306764717407226,89.88169865722656C15.732294717407227,90.25429865722657,15.518574717407226,90.95109865722657,15.245154717407226,91.44689865722657C14.518414717407227,92.76449865722657,13.582034717407225,93.96489865722657,12.482364717407226,94.98859865722656C11.810954717407228,95.61389865722657,11.049314717407226,96.21519865722657,10.732544717407226,97.07859865722656C10.357724717407226,98.10039865722656,10.714284717407226,99.27689865722657,11.373424717407227,100.14109865722656C12.032574717407226,101.00539865722656,12.956144717407227,101.62009865722656,13.861714717407226,102.21779865722657C13.580664717407227,99.54449865722657,14.875514717407228,96.76329865722656,17.098014717407224,95.26709865722657C17.805394717407225,96.30889865722656,17.537194717407225,97.71929865722656,17.11573471740723,98.90739865722657C16.694294717407224,100.09539865722657,16.13655471740723,101.32179865722657,16.352454717407227,102.56429865722656C16.547914717407227,103.68769865722656,17.366494717407228,104.62289865722656,18.331494717407224,105.22309865722656C19.296494717407228,105.82319865722656,20.405994717407225,106.13769865722657,21.498894717407225,106.44529865722656L22.42109471740723,106.19299865722657C24.449994717407225,104.89679865722655,26.288994717407228,103.30089865722655,27.860794717407227,101.47239865722656C26.594294717407227,100.10029865722656,25.414494717407226,98.64769865722656,24.330394717407227,97.12599865722656C24.006494717407225,96.67159865722657,23.680494717407228,96.18229865722657,23.634694717407225,95.62519865722656C23.588894717407225,95.06799865722657,23.934294717407226,94.43819865722656,24.487094717407228,94.37549865722656C24.963094717407227,94.32149865722656,25.378194717407226,94.68179865722657,25.70639471740723,95.03269865722656C27.277394717407226,96.71179865722657,28.443294717407227,98.77099865722656,29.077894717407226,100.98569865722656C30.260494717407227,100.31339865722657,31.065694717407226,99.01419865722656,31.144294717407227,97.65089865722656C31.222794717407226,96.28779865722656,30.572594717407227,94.90359865722657,29.475094717407227,94.09859865722656C28.773494717407228,93.58359865722656,27.931394717407226,93.30849865722656,27.130794717407227,92.96939865722656C26.330094717407228,92.63029865722656,25.525694717407227,92.19199865722656,25.041594717407225,91.46669865722656C24.557394717407227,90.74159865722656,24.502894717407226,89.66309865722656,25.127994717407226,89.05659865722656C25.961894717407226,88.24769865722656,27.360294717407225,88.70129865722656,28.318194717407227,89.35709865722656C30.311994717407227,90.72159865722656,31.815694717407226,92.79409865722656,32.49879471740722,95.11889865722657C33.52019471740722,93.39649865722656,33.63959471740723,91.16639865722657,32.80789471740722,89.34399865722656C31.97619471740723,87.52149865722656,30.216594717407226,86.15739865722657,28.251194717407227,85.81139865722656C27.634794717407228,85.70289865722657,26.978394717407227,85.68049865722656,26.443794717407226,85.35338865722656C25.909294717407228,85.02659865722656,25.583994717407226,84.23904865722656,25.988594717407228,83.75912865722657C26.202794717407226,83.50491865722657,26.550394717407226,83.41424865722657,26.877494717407227,83.36082865722656L26.876994717407225,83.36112865722656Z" fill="#00C78B" fill-opacity="1"/></g><g></g><g></g><g></g><g></g><g transform="matrix(0.8646759390830994,0.5023300647735596,-0.5075904130935669,0.8615984916687012,24.506858196422286,10.159444573912424)"></g><g transform="matrix(0.3924817740917206,0.9197597503662109,-0.9217197299003601,0.3878566026687622,73.20159372654962,40.13111239715499)"></g><g><rect x="7.919776916503906" y="123.13896179199219" width="22.402259826660156" height="3.638031482696533" rx="0" fill="#242424" fill-opacity="1"/></g><g><path d="M9.58647346496582,126.10794067382812L12.15644346496582,140.00004067382812L26.08457346496582,140.00004067382812L28.58487346496582,126.10794067382812L9.58647346496582,126.10794067382812Z" fill="#242424" fill-opacity="1"/></g><g style="opacity:0.30000001192092896;"><path d="M9.710420608520508,126.77699279785156L28.43432060852051,126.77699279785156L28.167820608520508,128.42609279785157L10.015351608520508,128.42609279785157L9.710420608520508,126.77699279785156Z" fill="#242424" fill-opacity="1"/></g><g style="opacity:0.30000001192092896;"><path d="M11.461299896240234,129.64386749267578L13.586489896240234,138.92983749267577Q16.962389896240232,139.2917374926758,17.004889896240236,138.92983749267577Q17.047399896240236,138.56793749267578,15.271009896240233,129.64386749267578L11.461299896240234,129.64386749267578L11.461299896240234,129.64386749267578Z" fill="#FFFFFF" fill-opacity="1"/></g></g></g></svg>