<svg xmlns="http://www.w3.org/2000/svg" xmlns:xlink="http://www.w3.org/1999/xlink" fill="none" version="1.1" width="32" height="32" viewBox="0 0 32 32"><g><g><rect x="0" y="0" width="32" height="32" rx="6" fill="#00C78B" fill-opacity="1"/></g><g><path d="M17.75,9.25Q17.75,9.18859,17.74398,9.12748Q17.73796,9.06637,17.72598,9.00614Q17.714,8.945908,17.696170000000002,8.887144Q17.678350000000002,8.82838,17.65485,8.771646Q17.631349999999998,8.714912,17.6024,8.660754Q17.57345,8.606597,17.53934,8.555537Q17.50522,8.504478,17.46626,8.457008Q17.42731,8.409539,17.383879999999998,8.366116Q17.34046,8.322694,17.29299,8.283737Q17.24552,8.24478,17.19446,8.210663Q17.1434,8.176546,17.08925,8.147598Q17.03509,8.118651,16.97835,8.0951506Q16.92162,8.0716505,16.86286,8.0538246Q16.804090000000002,8.0359986,16.743859999999998,8.0240184Q16.68363,8.0120382,16.62252,8.00601909Q16.561410000000002,8,16.5,8Q16.438589999999998,8,16.37748,8.00601909Q16.31637,8.0120382,16.256140000000002,8.0240184Q16.195909999999998,8.0359986,16.13714,8.0538246Q16.07838,8.0716505,16.021639999999998,8.0951506Q15.96491,8.118651,15.91075,8.147598Q15.8566,8.176546,15.80554,8.210663Q15.754480000000001,8.24478,15.70701,8.283737Q15.65954,8.322694,15.616119999999999,8.366116Q15.57269,8.409539,15.53374,8.457008Q15.49478,8.504478,15.46066,8.555537Q15.426549999999999,8.606597,15.3976,8.660754Q15.368649999999999,8.714912,15.34515,8.771646Q15.32165,8.82838,15.30382,8.887144Q15.286,8.945908,15.27402,9.00614Q15.262039999999999,9.06637,15.25602,9.12748Q15.25,9.18859,15.25,9.25L15.25,14.25L10.25,14.25Q10.18859,14.25,10.12748,14.25602Q10.06637,14.262039999999999,10.00614,14.27402Q9.945908,14.286,9.887144,14.30382Q9.82838,14.32165,9.771646,14.34515Q9.714912,14.368649999999999,9.660754,14.3976Q9.606597,14.426549999999999,9.555537,14.46066Q9.504478,14.49478,9.457008,14.53374Q9.409539,14.57269,9.366116,14.616119999999999Q9.322694,14.65954,9.283737,14.70701Q9.24478,14.754480000000001,9.210663,14.80554Q9.176546,14.8566,9.147598,14.91075Q9.118651,14.96491,9.0951506,15.02164Q9.0716505,15.07838,9.0538246,15.137139999999999Q9.0359986,15.19591,9.0240184,15.25614Q9.0120382,15.31637,9.00601909,15.37748Q9,15.43859,9,15.5Q9,15.56141,9.00601909,15.62252Q9.0120382,15.68363,9.0240184,15.74386Q9.0359986,15.80409,9.0538246,15.862860000000001Q9.0716505,15.92162,9.0951506,15.978349999999999Q9.118651,16.03509,9.147598,16.08924Q9.176546,16.1434,9.210663,16.19446Q9.24478,16.24552,9.283737,16.29299Q9.322694,16.34046,9.366116,16.383879999999998Q9.409539,16.42731,9.457008,16.46626Q9.504478,16.50522,9.555537,16.53934Q9.606597,16.57345,9.660754,16.6024Q9.714912,16.631349999999998,9.771646,16.65485Q9.82838,16.678350000000002,9.887144,16.696170000000002Q9.945908,16.714,10.00614,16.72598Q10.06637,16.73796,10.12748,16.74398Q10.18859,16.75,10.25,16.75L15.25,16.75L15.25,21.75Q15.25,21.8114,15.25602,21.872500000000002Q15.262039999999999,21.9336,15.27402,21.9939Q15.286,22.0541,15.30382,22.1129Q15.32165,22.171599999999998,15.34515,22.2284Q15.368649999999999,22.2851,15.3976,22.339199999999998Q15.426549999999999,22.3934,15.46066,22.444499999999998Q15.49478,22.4955,15.53374,22.543Q15.57269,22.5905,15.616119999999999,22.6339Q15.65954,22.677300000000002,15.70701,22.7163Q15.754480000000001,22.755200000000002,15.80554,22.7893Q15.8566,22.8235,15.91075,22.8524Q15.96491,22.8813,16.021639999999998,22.9048Q16.07838,22.9283,16.13714,22.946199999999997Q16.195909999999998,22.964,16.256140000000002,22.976Q16.31637,22.988,16.37748,22.994Q16.438589999999998,23,16.5,23Q16.561410000000002,23,16.62252,22.994Q16.68363,22.988,16.743859999999998,22.976Q16.804090000000002,22.964,16.86286,22.946199999999997Q16.92162,22.9283,16.97835,22.9048Q17.03509,22.8813,17.08924,22.8524Q17.1434,22.8235,17.19446,22.7893Q17.24552,22.755200000000002,17.29299,22.7163Q17.34046,22.677300000000002,17.383879999999998,22.6339Q17.42731,22.5905,17.46626,22.543Q17.50522,22.4955,17.53934,22.444499999999998Q17.57345,22.3934,17.6024,22.339199999999998Q17.631349999999998,22.2851,17.65485,22.2284Q17.678350000000002,22.171599999999998,17.696170000000002,22.1129Q17.714,22.0541,17.72598,21.9939Q17.73796,21.9336,17.74398,21.872500000000002Q17.75,21.8114,17.75,21.75L17.75,16.75L22.75,16.75Q22.8114,16.75,22.872500000000002,16.74398Q22.9336,16.73796,22.9939,16.72598Q23.0541,16.714,23.1129,16.696170000000002Q23.171599999999998,16.678350000000002,23.2284,16.65485Q23.2851,16.631349999999998,23.339199999999998,16.6024Q23.3934,16.57345,23.444499999999998,16.53934Q23.4955,16.50522,23.543,16.46626Q23.5905,16.42731,23.6339,16.383879999999998Q23.677300000000002,16.34046,23.7163,16.29299Q23.755200000000002,16.24552,23.7893,16.19446Q23.8235,16.1434,23.8524,16.08925Q23.8813,16.03509,23.9048,15.978349999999999Q23.9283,15.92162,23.946199999999997,15.862860000000001Q23.964,15.80409,23.976,15.74386Q23.988,15.68363,23.994,15.62252Q24,15.56141,24,15.5Q24,15.43859,23.994,15.37748Q23.988,15.31637,23.976,15.25614Q23.964,15.19591,23.946199999999997,15.137139999999999Q23.9283,15.07838,23.9048,15.02164Q23.8813,14.96491,23.8524,14.91075Q23.8235,14.8566,23.7893,14.80554Q23.755200000000002,14.754480000000001,23.7163,14.70701Q23.677300000000002,14.65954,23.6339,14.616119999999999Q23.5905,14.57269,23.543,14.53374Q23.4955,14.49478,23.444499999999998,14.46066Q23.3934,14.426549999999999,23.339199999999998,14.3976Q23.2851,14.368649999999999,23.2284,14.34515Q23.171599999999998,14.32165,23.1129,14.30382Q23.0541,14.286,22.9939,14.27402Q22.9336,14.262039999999999,22.872500000000002,14.25602Q22.8114,14.25,22.75,14.25L17.75,14.25L17.75,9.25Z" fill-rule="evenodd" fill="#FFFFFF" fill-opacity="1"/></g></g></svg>