<svg xmlns="http://www.w3.org/2000/svg" xmlns:xlink="http://www.w3.org/1999/xlink" fill="none" version="1.1" width="12" height="12" viewBox="0 0 12 12"><defs><clipPath id="master_svg0_11_1343"><rect x="0" y="0" width="12" height="12" rx="0"/></clipPath></defs><g clip-path="url(#master_svg0_11_1343)"><g><path d="M9.585366757812501,5.193452109375Q9.585366757812501,5.317922109375,9.573166757812501,5.441782109375Q9.560966757812501,5.565652109375,9.5366867578125,5.687722109375001Q9.5123967578125,5.809792109375,9.4762667578125,5.9289021093750005Q9.4401367578125,6.048002109375,9.3925067578125,6.162992109375001Q9.3448767578125,6.2779821093749995,9.2862067578125,6.3877521093750005Q9.2275267578125,6.497522109375,9.158376757812501,6.6010121093750005Q9.0892267578125,6.704502109375,9.0102667578125,6.800712109375Q8.9313067578125,6.896922109375,8.8432967578125,6.984932109375Q8.755286757812499,7.072942109375,8.6590667578125,7.151902109375Q8.5628567578125,7.230862109375,8.4593667578125,7.300012109375Q8.3558767578125,7.369162109375,8.2461067578125,7.427832109375Q8.1363367578125,7.486512109375,8.0213367578125,7.534142109375Q7.9063467578125,7.581772109375,7.7872367578125,7.617902109375Q7.6681367578124995,7.654032109375,7.5460567578125,7.678312109375Q7.4239867578125,7.702592109375,7.3001167578125,7.714792109375Q7.1762467578125,7.726992109375,7.0517767578125,7.726992109375Q6.9273167578125,7.726992109375,6.8034467578125,7.714792109375Q6.6795767578125,7.702592109375,6.5575067578125,7.678312109375Q6.4354267578125,7.654032109375,6.3163167578124995,7.617902109375Q6.1972067578125,7.581772109375,6.0822167578125,7.534142109375Q5.9672267578125,7.486512109375,5.8574567578125,7.427832109375Q5.7476867578125,7.369162109375,5.6441967578125,7.300012109375Q5.5407067578125,7.230862109375,5.4444897578125,7.151902109375Q5.3482757578125,7.072942109375,5.2602637578125,6.984932109375Q5.1722527578125,6.896922109375,5.0932917578125,6.800712109375Q5.0143307578125,6.704502109375,4.9451797578125,6.6010121093750005Q4.8760297578125,6.497522109375,4.8173567578125,6.3877521093750005Q4.7586827578125,6.2779821093749995,4.7110517578125,6.162992109375001Q4.6634197578125,6.048002109375,4.6272897578125,5.9289021093750005Q4.5911584578125,5.809792109375,4.5668760578125,5.687722109375001Q4.5425937578125,5.565652109375,4.5303938578125,5.441782109375Q4.5181939598125,5.317922109375,4.5181939598125,5.193452109375Q4.5181939598125,5.068992109374999,4.5303938578125,4.945122109375Q4.5425937578125,4.821252109375,4.5668760578125,4.699182109375Q4.5911584578125,4.577112109375,4.6272897578125,4.458002109375Q4.6634197578125,4.338902109375,4.7110517578125,4.223912109375Q4.7586827578125,4.1089221093749995,4.8173567578125,3.999152109375Q4.8760297578125,3.889382109375,4.9451797578125,3.785892109375Q5.0143307578125,3.682402109375,5.0932917578125,3.586191109375Q5.1722527578125,3.489979109375,5.2602637578125,3.401969109375Q5.3482757578125,3.3139591093750003,5.4444897578125,3.234999109375Q5.5407067578125,3.156040109375,5.6441967578125,3.086891109375Q5.7476867578125,3.017742109375,5.8574567578125,2.959069109375Q5.9672267578125,2.900397109375,6.0822167578125,2.852766109375Q6.1972067578125,2.805136109375,6.3163167578124995,2.769005109375Q6.4354267578125,2.732875209375,6.5575067578125,2.708593409375Q6.6795767578125,2.684311509375,6.8034467578125,2.672111809375Q6.9273167578125,2.659912109375,7.0517767578125,2.659912109375Q7.1762467578125,2.659912109375,7.3001167578125,2.672111809375Q7.4239867578125,2.684311509375,7.5460567578125,2.708593409375Q7.6681367578124995,2.732875209375,7.7872367578125,2.769005109375Q7.9063467578125,2.805136109375,8.0213367578125,2.852766109375Q8.1363367578125,2.900397109375,8.2461067578125,2.959069109375Q8.3558767578125,3.017742109375,8.4593667578125,3.086890109375Q8.5628567578125,3.156040109375,8.6590667578125,3.234999109375Q8.755286757812499,3.3139591093750003,8.8432967578125,3.401969109375Q8.9313067578125,3.489979109375,9.0102667578125,3.586191109375Q9.0892267578125,3.682402109375,9.158376757812501,3.785892109375Q9.2275267578125,3.889382109375,9.2862067578125,3.999152109375Q9.3448767578125,4.1089221093749995,9.3925067578125,4.223912109375Q9.4401367578125,4.338902109375,9.4762667578125,4.458002109375Q9.5123967578125,4.577112109375,9.5366867578125,4.699182109375Q9.560966757812501,4.821252109375,9.573166757812501,4.945122109375Q9.585366757812501,5.068992109374999,9.585366757812501,5.193452109375Z" fill="#FFB637" fill-opacity="1"/></g><g><path d="M10.5004580078125,1.49582015625C9.5539380078125,0.54402315625,8.2659780078125,0.01049549625,6.9236880078125,0.01418039995C5.5812380078125,0.01037256625,4.2930880078125,0.54391015625,3.3464880078125,1.49582015625C2.3945780078125,2.44242015625,1.8610380078125,3.73057015625,1.8648480078125,5.07302015625C1.8612680078125,6.26629015625,2.2828580078125,7.42182015625,3.0540280078125,8.33243015625L2.1895480078125,9.19691015625L0.7364690078125,7.74383015625C0.5679450078125,7.58130015625,0.2993660078125,7.58688015625,0.1377360078125,7.75627015625C-0.0316507921875,7.91790015625,-0.0372289921875,8.18648015625,0.1253010078125,8.35500015625L1.5792980078125,9.80670015625L0.2699180078125,11.11836015625C0.1014303078125,11.28606015625,0.1014303078125,11.55866015625,0.2699180078125,11.72636015625C0.4375450078125,11.89486015625,0.7102360078125,11.89486015625,0.8778630078125,11.72636015625L2.1909280078125,10.41326015625L3.6440080078125,11.86636015625C3.8125380078125,12.02886015625,4.0811180078125,12.02326015625,4.2427480078125,11.85386015625C4.4121280078125,11.69226015625,4.4177080078125,11.42366015625,4.2551780078125,11.25516015625L2.8020980078125,9.80209015625L3.6665780078125,8.93761015625C4.5771880078125,9.70878015625,5.7327180078125,10.13036015625,6.9259880078125,10.12676015625C8.2682780078125,10.13046015625,9.5562480078125,9.59695015625,10.5027580078125,8.64515015625C11.4539580078125,7.69874015625,11.9871580078125,6.41117015625,11.9834580078125,5.06933015625C11.9857580078125,3.72798015625,11.4518580078125,2.44135015625,10.5004580078125,1.49582015625ZM6.9236880078125,9.27244015625C4.6059680078125,9.26940015625,2.7281380078125,7.39074015625,2.7261080078125,5.07302015625C2.7291480078125,2.75602015625,4.6066880078125,0.87848015625,6.9236880078125,0.87543515625C9.2406880078125,0.87848015625,11.1182580078125,2.75602015625,11.1212580078125,5.07302015625C11.1192580078125,7.39074015625,9.2414080078125,9.26940015625,6.9236880078125,9.27244015625Z" fill="#333333" fill-opacity="1"/></g></g></svg>