<svg xmlns="http://www.w3.org/2000/svg" xmlns:xlink="http://www.w3.org/1999/xlink" fill="none" version="1.1" width="12" height="12" viewBox="0 0 12 12"><defs><clipPath id="master_svg0_11_594"><rect x="0" y="0" width="12" height="12" rx="0"/></clipPath></defs><g clip-path="url(#master_svg0_11_594)"><g><g><g><path d="M7.504973612060547,6.74981203125Q7.504973612060547,6.87585203125,7.492713612060547,7.00129203125Q7.4804636120605466,7.12673203125,7.456073612060547,7.25036203125Q7.431683612060547,7.37398203125,7.395393612060547,7.49460203125Q7.359093612060547,7.61522203125,7.311253612060547,7.73167203125Q7.263413612060547,7.84812203125,7.204473612060547,7.95928203125Q7.145543612060547,8.07044203125,7.076083612060547,8.17525203125Q7.0066236120605465,8.280052031250001,6.927313612060547,8.37749203125Q6.8480036120605465,8.47492203125,6.759593612060547,8.56405203125Q6.671193612060547,8.653182031250001,6.574553612060547,8.73314203125Q6.477903612060547,8.81310203125,6.3739536120605464,8.88313203125Q6.270003612060547,8.953162031249999,6.159743612060547,9.01258203125Q6.049483612060547,9.07199203125,5.933983612060547,9.12023203125Q5.818473612060547,9.168472031250001,5.698843612060546,9.20505203125Q5.579203612060547,9.241642031249999,5.456583612060546,9.26623203125Q5.333963612060547,9.29083203125,5.209543612060546,9.30318203125Q5.085123612060547,9.315532031250001,4.960103612060546,9.315532031250001Q4.835083612060547,9.315532031250001,4.7106636120605465,9.30318203125Q4.586243612060547,9.29083203125,4.463623612060546,9.26623203125Q4.341003612060547,9.241642031249999,4.2213636120605464,9.20505203125Q4.101723612060547,9.168472031250001,3.986223612060547,9.12023203125Q3.870713612060547,9.07199203125,3.760463612060547,9.01258203125Q3.6502036120605466,8.953162031249999,3.546253612060547,8.88313203125Q3.442293612060547,8.81310203125,3.345654612060547,8.73314203125Q3.249011612060547,8.653182031250001,3.160608612060547,8.56405203125Q3.072204612060547,8.47492203125,2.992892612060547,8.37749203125Q2.913579612060547,8.280052031250001,2.844121612060547,8.17525203125Q2.774663612060547,8.07044203125,2.715728612060547,7.95928203125Q2.6567936120605466,7.84812203125,2.608950612060547,7.73167203125Q2.561106612060547,7.61522203125,2.524814612060547,7.49460203125Q2.488523012060547,7.37398203125,2.464132512060547,7.25036203125Q2.439742112060547,7.12673203125,2.427487812060547,7.00129203125Q2.415233612060547,6.87585203125,2.415233612060547,6.74981203125Q2.415233612060547,6.62376203125,2.427487812060547,6.49832203125Q2.439742112060547,6.3728820312500005,2.464132512060547,6.24926203125Q2.488523012060547,6.12563203125,2.524814612060547,6.00502203125Q2.561106612060547,5.88440203125,2.608950612060547,5.76795203125Q2.6567936120605466,5.65149203125,2.715728612060547,5.54033203125Q2.774663612060547,5.42917203125,2.844121612060547,5.32437203125Q2.913579612060547,5.21956203125,2.992892612060547,5.12212903125Q3.072204612060547,5.02469403125,3.160608612060547,4.93556603125Q3.249011612060547,4.84643803125,3.345654612060547,4.76647503125Q3.442293612060547,4.68651203125,3.546253612060547,4.61648503125Q3.6502036120605466,4.54645703125,3.760463612060547,4.48704003125Q3.870713612060547,4.42762203125,3.986223612060547,4.37938603125Q4.101723612060547,4.33115103125,4.2213636120605464,4.29456103125Q4.341003612060547,4.25797213125,4.463623612060546,4.23338173125Q4.586243612060547,4.20879143125,4.7106636120605465,4.19643673125Q4.835083612060547,4.18408203125,4.960103612060546,4.18408203125Q5.085123612060547,4.18408203125,5.209543612060546,4.19643673125Q5.333963612060547,4.20879143125,5.456583612060546,4.23338173125Q5.579203612060547,4.25797213125,5.698843612060546,4.29456103125Q5.818473612060547,4.33115103125,5.933983612060547,4.37938603125Q6.049483612060547,4.42762203125,6.159743612060547,4.48704003125Q6.270003612060547,4.54645703125,6.3739536120605464,4.61648503125Q6.477903612060547,4.68651203125,6.574553612060547,4.76647503125Q6.671193612060547,4.84643803125,6.759593612060547,4.93556603125Q6.8480036120605465,5.02469403125,6.927313612060547,5.12212903125Q7.0066236120605465,5.21956203125,7.076083612060547,5.32437203125Q7.145543612060547,5.42917203125,7.204473612060547,5.54033203125Q7.263413612060547,5.65149203125,7.311253612060547,5.76795203125Q7.359093612060547,5.88440203125,7.395393612060547,6.00502203125Q7.431683612060547,6.12563203125,7.456073612060547,6.24926203125Q7.4804636120605466,6.3728820312500005,7.492713612060547,6.49832203125Q7.504973612060547,6.62376203125,7.504973612060547,6.74981203125Z" fill="#00C78B" fill-opacity="1"/></g><g><path d="M1.4911106042480469,10.500553125C2.945620604248047,11.967153125,5.1333006042480465,12.405953125,7.033820604248047,11.612153125C8.933910604248046,10.818953125,10.172900604248047,8.948953125,10.172900604248047,6.874293125C10.177400604248048,5.663943125,9.753440604248047,4.491683125,8.977270604248046,3.568313125L9.846760604248047,2.692163125L10.459400604248048,2.074483125L11.775700604248048,0.744111125C11.944100604248048,0.574331125,11.944100604248048,0.299066125,11.775700604248048,0.129286125C11.607300604248048,-0.040491375,11.334300604248046,-0.040491375,11.165900604248048,0.129286125L9.846290604248047,1.459663125L9.233640604248047,2.077343125L8.361780604248047,2.954913125C6.280050604248047,1.171523125,3.172530604248047,1.365683125,1.3251306042480469,3.394563125C-0.5222663957519531,5.423433125,-0.4489673957519531,8.561573125,1.4911106042480469,10.500553125ZM5.086920604248047,2.618043125C7.418700604248047,2.617953125,9.309040604248047,4.523363125,9.309040604248047,6.873823125C9.309130604248047,9.224203125,7.419210604248047,11.129653125,5.087860604248047,11.129653125C2.756590604248047,11.129653125,0.8666746042480469,9.224503125,0.8666746042480469,6.874293125C0.8687526042480469,4.525053125,2.756770604248047,2.620923125,5.086920604248047,2.618043125Z" fill="#333333" fill-opacity="1"/></g><g transform="matrix(-0.034359410405159,-0.9993969202041626,0.9993969202041626,-0.03509461134672165,7.898137783231903,15.092807348376937)"><rect x="11.239208221435547" y="3.7294921875" width="3.685121774673462" height="0.7747761011123657" rx="0.38738805055618286" fill="#333333" fill-opacity="1"/></g><g><rect x="8.201000213623047" y="0" width="3.6551859378814697" height="0.7811213135719299" rx="0.39056065678596497" fill="#333333" fill-opacity="1"/></g></g></g></g></svg>