<svg xmlns="http://www.w3.org/2000/svg" xmlns:xlink="http://www.w3.org/1999/xlink" fill="none" version="1.1" width="10" height="10" viewBox="0 0 10 10"><defs><clipPath id="master_svg0_17_02540"><rect x="1.6666666269302368" y="1.6666666269302368" width="6.666666507720947" height="6.666666507720947" rx="0"/></clipPath></defs><g><g><ellipse cx="5" cy="5" rx="5" ry="5" fill="#FFB637" fill-opacity="1"/></g><g clip-path="url(#master_svg0_17_02540)"><g><path d="M6.991750533180237,4.551847759742737Q6.991750533180237,4.620997759742737,6.9849705331802365,4.689807759742736Q6.978190533180237,4.758627759742737,6.9647005331802365,4.826447759742737Q6.951210533180237,4.894257759742737,6.931140533180237,4.960427759742737Q6.9110705331802365,5.026597759742737,6.884600533180237,5.090487759742737Q6.8581405331802365,5.154367759742737,6.825550533180237,5.215347759742737Q6.792950533180237,5.276337759742737,6.754530533180237,5.333827759742737Q6.716120533180237,5.391317759742737,6.672250533180237,5.444767759742737Q6.628380533180237,5.498227759742736,6.579490533180237,5.547117759742736Q6.530590533180237,5.596017759742737,6.477140533180236,5.6398777597427365Q6.4236905331802365,5.683747759742737,6.366190533180237,5.722157759742737Q6.308700533180237,5.760577759742737,6.247710533180237,5.793177759742736Q6.186730533180237,5.825767759742737,6.122840533180237,5.852227759742737Q6.058960533180237,5.878687759742737,5.992790533180237,5.8987677597427375Q5.926620533180237,5.918837759742736,5.858800533180236,5.932327759742737Q5.790980533180237,5.945817759742736,5.7221605331802365,5.952597759742737Q5.6533505331802365,5.959367759742737,5.584200533180237,5.959367759742737Q5.515050533180236,5.959367759742737,5.446240533180237,5.952597759742737Q5.377420533180237,5.945817759742736,5.3096005331802365,5.932327759742737Q5.241780533180236,5.918837759742736,5.175610533180237,5.8987677597427375Q5.109439533180237,5.878687759742737,5.045554533180237,5.852227759742737Q4.981670533180237,5.825767759742737,4.920686533180237,5.793177759742736Q4.8597035331802365,5.760577759742737,4.802208533180237,5.722157759742737Q4.744713533180237,5.683747759742737,4.691261533180237,5.6398777597427365Q4.637808533180237,5.596017759742737,4.588913533180237,5.547117759742736Q4.540018533180237,5.498227759742736,4.496150533180237,5.444767759742737Q4.452283533180237,5.391317759742737,4.4138665331802365,5.333827759742737Q4.375450533180237,5.276337759742737,4.342853533180237,5.215347759742737Q4.310257533180237,5.154367759742737,4.283795533180236,5.090487759742737Q4.257333533180237,5.026597759742737,4.237260833180237,4.960427759742737Q4.217188133180237,4.894257759742737,4.203697933180237,4.826447759742737Q4.1902077331802365,4.758627759742737,4.183430033180237,4.689807759742736Q4.176652312180237,4.620997759742737,4.176652312180237,4.551847759742737Q4.176652312180237,4.482707759742737,4.183430033180237,4.413887759742737Q4.1902077331802365,4.345077759742737,4.203697933180237,4.277257759742737Q4.217188133180237,4.209437759742737,4.237260833180237,4.143267759742737Q4.257333533180237,4.0770977597427365,4.283795533180236,4.013214759742737Q4.310257533180237,3.949330759742737,4.342853533180237,3.888348759742737Q4.375450533180237,3.8273667597427368,4.4138665331802365,3.7698727597427366Q4.452283533180237,3.712378759742737,4.496150533180237,3.6589277597427365Q4.540018533180237,3.605475759742737,4.588913533180237,3.5565817597427367Q4.637808533180237,3.507686759742737,4.691261533180237,3.463820759742737Q4.744713533180237,3.4199537597427367,4.802208533180237,3.381537759742737Q4.8597035331802365,3.3431217597427367,4.920686533180237,3.310525759742737Q4.981669533180237,3.2779307597427367,5.045554533180237,3.2514687597427367Q5.109439533180237,3.225007559742737,5.175610533180237,3.2049351597427367Q5.241780533180236,3.184862859742737,5.3096005331802365,3.171372859742737Q5.377420533180237,3.1578829597427367,5.446240533180237,3.1511053597427368Q5.515050533180236,3.144327759742737,5.584200533180237,3.144327759742737Q5.6533505331802365,3.144327759742737,5.7221605331802365,3.1511053597427368Q5.790980533180237,3.1578829597427367,5.858800533180236,3.171372859742737Q5.926620533180237,3.184862859742737,5.992790533180237,3.2049351597427367Q6.058960533180237,3.225007559742737,6.122840533180237,3.2514687597427367Q6.186730533180237,3.2779307597427367,6.247710533180237,3.310525759742737Q6.308700533180237,3.3431217597427367,6.366190533180237,3.381537759742737Q6.4236905331802365,3.4199537597427367,6.477140533180236,3.463820759742737Q6.530590533180237,3.507686759742737,6.579490533180237,3.5565817597427367Q6.628380533180237,3.605475759742737,6.672250533180237,3.6589277597427365Q6.716120533180237,3.712378759742737,6.754530533180237,3.7698727597427366Q6.792950533180237,3.8273667597427368,6.825550533180237,3.888348759742737Q6.8581405331802365,3.949330759742737,6.884600533180237,4.013214759742737Q6.9110705331802365,4.0770977597427365,6.931140533180237,4.143267759742737Q6.951210533180237,4.209437759742737,6.9647005331802365,4.277257759742737Q6.978190533180237,4.345077759742737,6.9849705331802365,4.413887759742737Q6.991750533180237,4.482707759742737,6.991750533180237,4.551847759742737Z" fill="#FFFFFF" fill-opacity="1"/></g><g><path d="M7.500038736305237,2.4977431972427366C6.974208736305237,1.968970197242737,6.2586687363052365,1.6725652772427368,5.512958736305237,1.6746124437427368C4.767148736305237,1.6724969772427367,4.051508736305237,1.9689061972427369,3.525618736305237,2.4977431972427366C2.996788736305237,3.0236311972427368,2.700378736305237,3.739271197242737,2.702488736305237,4.485081197242737C2.700498736305237,5.148011197242736,2.9347187363052365,5.789971197242737,3.363148736305237,6.295861197242737L2.882878736305237,6.776131197242737L2.075612736305237,5.968861197242737C1.9819887363052369,5.878571197242737,1.8327777363052369,5.881671197242737,1.7429830363052368,5.975771197242737C1.6488794363052368,6.065561197242737,1.6457804363052368,6.214781197242737,1.7360746363052368,6.308401197242737L2.5438527363052366,7.1149011972427365L1.8164177363052367,7.843611197242737C1.722813336305237,7.936741197242736,1.722813336305237,8.088231197242738,1.8164177363052367,8.181361197242737C1.9095437363052368,8.274971197242737,2.0610387363052367,8.274971197242737,2.154164736305237,8.181361197242737L2.8836487363052368,7.451881197242737L3.6909187363052367,8.259141197242737C3.7845387363052367,8.349441197242736,3.933748736305237,8.346341197242737,4.023538736305237,8.252241197242736C4.117648736305236,8.162441197242737,4.120748736305236,8.013231197242737,4.030448736305237,7.9196111972427365L3.2231887363052367,7.112341197242737L3.7034487363052366,6.632071197242737C4.209348736305237,7.060501197242737,4.851308736305237,7.294721197242737,5.514238736305237,7.292731197242737C6.259948736305237,7.294771197242737,6.975488736305237,6.9983711972427365,7.501318736305237,6.469601197242737C8.029778736305236,5.943811197242737,8.325978736305236,5.228491197242737,8.323928736305238,4.483031197242736C8.325238736305238,3.737841197242737,8.028598736305238,3.023041197242737,7.500038736305237,2.4977431972427366ZM5.512958736305237,6.818091197242737C4.225338736305236,6.816401197242737,3.182098736305237,5.7727011972427364,3.180968736305237,4.485081197242737C3.1826587363052368,3.197861197242737,4.225738736305237,2.154779197242737,5.512958736305237,2.153087197242737C6.800178736305237,2.154779197242737,7.843258736305237,3.197851197242737,7.844948736305237,4.485081197242737C7.843818736305237,5.7727011972427364,6.800578736305237,6.816401197242737,5.512958736305237,6.818091197242737Z" fill="#333333" fill-opacity="1"/></g></g></g></svg>