<svg xmlns="http://www.w3.org/2000/svg" xmlns:xlink="http://www.w3.org/1999/xlink" fill="none" version="1.1" width="10" height="10" viewBox="0 0 10 10"><defs><clipPath id="master_svg0_17_02150"><rect x="1.6666666269302368" y="1.6666666269302368" width="6.666666507720947" height="6.666666507720947" rx="0"/></clipPath></defs><g><g><ellipse cx="5" cy="5" rx="5" ry="5" fill="#00C78B" fill-opacity="1"/></g><g clip-path="url(#master_svg0_17_02150)"><g><g><g><path d="M5.835921840553284,5.416651587867737Q5.835921840553284,5.486681587867737,5.829111840553283,5.556371587867737Q5.822311840553284,5.626061587867737,5.8087618405532835,5.694741587867737Q5.795211840553284,5.763421587867737,5.775041840553284,5.830431587867737Q5.754881840553283,5.897441587867737,5.728301840553284,5.962131587867737Q5.701721840553284,6.026831587867736,5.668981840553284,6.088581587867736Q5.636241840553284,6.150341587867737,5.597651840553284,6.208571587867737Q5.559061840553284,6.266791587867736,5.515001840553284,6.320921587867737Q5.470941840553284,6.375051587867737,5.421821840553283,6.424571587867737Q5.372711840553284,6.474081587867737,5.319021840553283,6.518511587867737Q5.265331840553284,6.5629315878677374,5.207581840553283,6.601831587867737Q5.149831840553284,6.640741587867737,5.088571840553284,6.673751587867737Q5.027321840553284,6.706761587867737,4.963151840553284,6.733561587867737Q4.898981840553284,6.760351587867737,4.832521840553284,6.780681587867736Q4.766051840553284,6.801011587867737,4.6979318405532835,6.814671587867737Q4.629811840553284,6.828331587867737,4.560681840553284,6.835191587867737Q4.491561840553284,6.842061587867737,4.422111840553284,6.842061587867737Q4.352651840553284,6.842061587867737,4.283531840553284,6.835191587867737Q4.214411840553284,6.828331587867737,4.146281840553284,6.814671587867737Q4.078161840553284,6.801011587867737,4.011701840553283,6.780681587867736Q3.9452328405532837,6.760351587867737,3.8810638405532836,6.733561587867737Q3.8168948405532834,6.706761587867737,3.755639840553284,6.673751587867737Q3.6943848405532838,6.640741587867737,3.6366338405532836,6.601831587867737Q3.5788828405532835,6.5629315878677374,3.5251928405532835,6.518511587867737Q3.471501840553284,6.474081587867737,3.4223888405532836,6.424571587867737Q3.3732758405532834,6.375051587867737,3.329212840553284,6.320921587867737Q3.2851508405532837,6.266791587867736,3.246562840553284,6.208571587867737Q3.2079748405532835,6.150341587867737,3.175233840553284,6.088581587867736Q3.1424918405532836,6.026831587867736,3.1159118405532835,5.962131587867737Q3.089332440553284,5.897441587867737,3.0691702405532837,5.830431587867737Q3.049008140553284,5.763421587867737,3.0354579405532838,5.694741587867737Q3.021907640553284,5.626061587867737,3.0150997505532837,5.556371587867737Q3.0082918405532837,5.486681587867737,3.0082918405532837,5.416651587867737Q3.0082918405532837,5.346631587867737,3.0150997505532837,5.276941587867737Q3.021907640553284,5.207251587867737,3.0354579405532838,5.1385715878677365Q3.049008140553284,5.069891587867737,3.0691702405532837,5.002881587867737Q3.089332440553284,4.9358725878677365,3.1159118405532835,4.871176587867737Q3.1424918405532836,4.8064815878677365,3.175233840553284,4.744724587867736Q3.2079748405532835,4.682967587867736,3.246562840553284,4.624743587867737Q3.2851508405532837,4.566519587867737,3.329212840553284,4.512388587867736Q3.3732758405532834,4.4582585878677365,3.4223888405532836,4.408742587867737Q3.471501840553284,4.3592275878677365,3.5251928405532835,4.314803587867737Q3.5788828405532835,4.270379587867737,3.6366338405532836,4.231475587867736Q3.6943848405532838,4.192571587867737,3.755639840553284,4.159561587867737Q3.8168948405532834,4.126551587867737,3.8810638405532836,4.0997535878677365Q3.9452328405532837,4.072956387867737,4.011701840553283,4.052628987867736Q4.078161840553284,4.032301587867737,4.146281840553284,4.018640287867737Q4.214411840553284,4.004978987867736,4.283531840553284,3.998115297867737Q4.352651840553284,3.991251587867737,4.422111840553284,3.991251587867737Q4.491561840553284,3.991251587867737,4.560681840553284,3.998115297867737Q4.629811840553284,4.004978987867736,4.6979318405532835,4.018640287867737Q4.766051840553284,4.032301587867737,4.832521840553284,4.052628987867736Q4.898981840553284,4.072956387867737,4.963151840553284,4.0997535878677365Q5.027321840553284,4.126551587867737,5.088571840553284,4.159561587867737Q5.149831840553284,4.192571587867737,5.207581840553283,4.231475587867736Q5.265331840553284,4.270379587867737,5.319021840553283,4.314803587867737Q5.372711840553284,4.3592275878677365,5.421821840553283,4.408742587867737Q5.470941840553284,4.4582585878677365,5.515001840553284,4.512388587867736Q5.559061840553284,4.566519587867737,5.597651840553284,4.624743587867737Q5.636241840553284,4.682967587867736,5.668981840553284,4.744724587867736Q5.701721840553284,4.8064815878677365,5.728301840553284,4.871176587867737Q5.754881840553283,4.9358725878677365,5.775041840553284,5.002881587867737Q5.795211840553284,5.069891587867737,5.8087618405532835,5.1385715878677365Q5.822311840553284,5.207251587867737,5.829111840553283,5.276941587867737Q5.835921840553284,5.346631587867737,5.835921840553284,5.416651587867737Z" fill="#FFFFFF" fill-opacity="1"/></g><g><path d="M2.4951207468032837,7.500305259742737C3.3031807468032834,8.315125259742736,4.518560746803283,8.558865259742737,5.574400746803284,8.117865259742736C6.630010746803284,7.6772052597427365,7.318330746803284,6.638325259742737,7.318330746803284,5.485735259742737C7.320830746803284,4.813315259742737,7.085300746803283,4.162055259742736,6.654100746803284,3.6490752597427365L7.137150746803283,3.1623252597427367L7.477510746803284,2.819175259742737L8.208770746803284,2.080075259742737C8.302320746803284,1.9857532597427368,8.302320746803284,1.8328282597427368,8.208770746803284,1.7385060597427369C8.115210746803283,1.644184959742737,7.963530746803284,1.644184959742737,7.869980746803284,1.7385060597427369L7.136890746803283,2.477604259742737L6.796520746803283,2.8207552597427368L6.312160746803284,3.308295259742737C5.155640746803284,2.317528259742737,3.4292407468032837,2.425393259742737,2.402909746803284,3.552545259742737C1.3765777468032838,4.679705259742737,1.4172997468032837,6.423105259742737,2.4951207468032837,7.500305259742737ZM4.4927907468032835,3.121145259742737C5.788230746803284,3.121095259742737,6.838410746803284,4.179655259742737,6.838410746803284,5.485475259742737C6.838460746803284,6.791235259742737,5.788510746803284,7.849795259742737,4.493310746803283,7.849795259742737C3.1981607468032838,7.849845259742737,2.1482117468032835,6.791405259742737,2.1482117468032835,5.485735259742737C2.1493657468032836,4.1806052597427374,3.1982707468032836,3.1227452597427368,4.4927907468032835,3.121145259742737Z" fill="#333333" fill-opacity="1"/></g><g transform="matrix(-0.03435984626412392,-0.9993969202041626,0.9992857575416565,-0.03509415686130524,4.446548014903263,11.775632710128074)"><rect x="7.910635590553284" y="3.738566040992737" width="2.0472121238708496" height="0.4303945004940033" rx="0.21519725024700165" fill="#333333" fill-opacity="1"/></g><g><rect x="6.222891449928284" y="1.6666666269302368" width="2.030658721923828" height="0.4339562654495239" rx="0.21697813272476196" fill="#333333" fill-opacity="1"/></g></g></g></g></g></svg>