<svg xmlns="http://www.w3.org/2000/svg" xmlns:xlink="http://www.w3.org/1999/xlink" fill="none" version="1.1" width="328" height="160" viewBox="0 0 328 160"><defs><mask id="master_svg0_1_3196" style="mask-type:alpha" maskUnits="userSpaceOnUse"><g><rect x="0" y="0" width="328" height="160" rx="5" fill="#FFFFFF" fill-opacity="1"/></g></mask></defs><g><g><rect x="0" y="0" width="328" height="160" rx="5" fill="#F0F0F0" fill-opacity="1"/></g><g mask="url(#master_svg0_1_3196)"><g style="opacity:0.20000000298023224;"><g><g><g><path d="M336.45723094482423,67.37261485595704C333.44005094482424,68.17591485595703,330.91895094482425,70.64931485595703,330.0845109448242,73.62451485595703C328.9925009448242,71.45191485595703,327.88394594482423,69.22591485595703,327.5920225448242,66.80781485595703C327.30009894482424,64.38981485595703,327.9774399448242,61.70141485595703,329.9121509448242,60.16102485595703C331.6051809448242,58.813344855957034,333.9819109448242,58.56593485595703,336.0813409448242,59.03911485595703C338.18073094482423,59.512284855957034,340.0633309448242,60.61956485595703,341.8689309448242,61.76627485595703C342.3586309448242,58.30771485595703,343.4405309448242,55.37574485595703,346.0932309448242,53.96891185595703C348.7460309448242,52.56207585595703,351.2696309448242,52.79358885595703,353.8384309448242,54.27928485595703C356.4072309448242,55.76497485595703,358.3343309448242,58.10927485595703,360.0706309448242,60.49553485595703C357.1278309448242,60.026164855957035,354.0623309448242,60.27167485595703,351.21493094482423,61.203414855957035C350.6171309448242,61.39930485595703,349.95063094482424,61.70521485595703,349.7852309448242,62.30496485595703C349.51493094482424,63.28441485595703,350.7977309448242,63.97381485595703,351.8217309448242,63.93181485595703C354.0610309448242,63.83901485595703,356.1045309448242,62.21274485595703,358.33243094482424,62.40926485595703C360.23343094482425,62.57717485595703,361.7757309448242,64.08891485595703,362.5198309448242,65.81821485595702C363.2639309448242,67.54681485595702,363.3574309448242,69.47841485595703,363.4408309448242,71.36281485595703C360.85803094482424,69.49941485595703,357.7288309448242,68.37751485595703,354.5196309448242,68.16571485595703C353.8989309448242,68.12501485595703,353.13313094482425,68.19871485595704,352.86663094482424,68.75841485595703C352.5664309448242,69.38871485595703,353.1554309448242,70.05591485595703,353.71313094482423,70.46931485595704C355.1944309448242,71.56701485595703,356.8556309448242,72.42751485595703,358.6154309448242,73.00881485595703C359.6903309448242,73.36371485595703,360.8561309448242,73.64671485595703,361.64473094482423,74.44681485595703C362.5783309448242,75.39381485595703,362.75523094482423,76.88401485595703,362.4333309448242,78.18011485595703C362.1115309448242,79.47631485595703,361.3642309448242,80.62871485595703,360.6290309448242,81.75381485595703C359.6235309448242,78.63611485595703,356.7698309448242,76.19771485595703,353.4969309448242,75.66031485595704C353.2075309448242,77.17841485595703,354.21243094482423,78.61261485595703,355.2815309448242,79.72051485595703C356.3506309448242,80.82911485595703,357.5940309448242,81.91091485595703,357.96423094482424,83.40301485595703C358.29873094482423,84.75261485595703,357.8300309448242,86.20841485595703,357.0286309448242,87.36591485595703C356.2273309448242,88.52341485595703,355.11933094482424,89.43671485595704,354.0273309448242,90.33341485595703L352.8520309448242,90.52041485595703C349.8984309448242,90.10701485595703,347.01293094482423,89.26431485595702,344.3162309448242,88.02671485595704C345.0782309448242,85.85731485595703,345.7014309448242,83.64211485595703,346.18163094482424,81.39831485595704C346.32473094482424,80.72791485595704,346.45383094482423,80.01821485595703,346.2293309448242,79.37521485595704C346.0055309448242,78.73221485595704,345.2995309448242,78.20621485595703,344.6393309448242,78.41671485595703C344.0701309448242,78.59801485595703,343.7763309448242,79.20981485595703,343.5766309448242,79.76691485595703C342.62003094482424,82.43301485595703,342.3128309448242,85.31601485595704,342.6887309448242,88.10301485595703C341.0084309448242,87.95481485595704,339.44703094482423,86.91751485595702,338.6819309448242,85.44071485595703C337.9168309448242,83.96331485595704,337.9709309448242,82.09341485595704,338.8218309448242,80.64021485595703C339.3656309448242,79.71101485595703,340.1880309448242,78.97761485595703,340.9321309448242,78.19411485595703C341.6762309448242,77.41051485595703,342.37453094482424,76.51441485595703,342.5666309448242,75.46181485595703C342.7580309448242,74.40931485595704,342.2861309448242,73.18121485595702,341.2730309448242,72.82371485595704C339.92213094482423,72.34671485595703,338.5547309448242,73.56081485595703,337.7890309448242,74.77691485595703C336.1951909448242,77.30691485595703,335.5102209448242,80.37621485595703,335.88482094482424,83.31011485595704C333.8674309448242,81.91151485595702,332.6259609448242,79.49031485595702,332.66920094482424,77.03981485595703C332.7124409448242,74.58921485595704,334.04042094482423,72.17821485595704,336.1067809448242,70.79621485595703C336.7548609448242,70.36241485595703,337.4913509448242,70.00431485595703,337.9378309448242,69.36961485595702C338.3843309448242,68.73491485595703,338.3646309448242,67.69311485595703,337.6656309448242,67.36431485595703C337.2954709448242,67.19001485595703,336.85472094482424,67.26571485595703,336.4559509448242,67.37191485595703L336.45723094482423,67.37261485595704Z" fill="#FFFFFF" fill-opacity="1"/><path d="M335.2106609448242,67.26301485595704L335.1158709448242,67.21141485595703L336.3272709448242,66.88871485595703Q337.2866409448242,66.63321485595704,337.87843094482423,66.91181485595703Q338.6394309448242,67.26981485595704,338.72893094482424,68.20451485595703Q338.8056309448242,69.00491485595703,338.3468309448242,69.65731485595703Q337.94133094482424,70.23371485595703,336.8128809448242,70.93831485595703Q336.5224409448242,71.11961485595702,336.3847509448242,71.21181485595703Q333.2349509448242,73.31841485595703,333.1691209448242,77.04861485595703Q333.11368094482424,80.19071485595703,335.28684094482423,82.19481485595703Q335.10389094482423,78.10111485595704,337.3659009448242,74.51041485595704Q338.0843309448242,73.36951485595704,339.0382309448242,72.74671485595704Q340.2732309448242,71.94041485595703,341.43933094482423,72.35221485595703Q342.3730309448242,72.68161485595704,342.82633094482424,73.67441485595702Q343.2365309448242,74.57271485595703,343.0585309448242,75.55161485595703Q342.8033309448242,76.94981485595703,341.29463094482423,78.53841485595703Q341.1330309448242,78.70861485595702,340.8054309448242,79.04141485595703Q339.6498309448242,80.21531485595703,339.2533309448242,80.89281485595703Q337.9990309448242,83.03481485595702,339.12593094482423,85.21071485595704Q340.1079309448242,87.10621485595703,342.11663094482424,87.51621485595703Q341.7147309448242,83.47581485595703,343.1059309448242,79.59821485595702Q343.59873094482424,78.22331485595703,344.4874309448242,77.94041485595703Q345.1896309448242,77.71641485595703,345.8694309448242,78.15601485595704Q346.4693309448242,78.54391485595703,346.7014309448242,79.21031485595702Q346.9860309448242,80.02541485595702,346.6706309448242,81.50291485595703Q345.9904309448242,84.68111485595703,344.93843094482423,87.75841485595703Q348.72283094482424,89.42741485595704,352.84763094482423,90.01481485595704L353.8144309448242,89.86101485595702Q355.8692309448242,88.16221485595703,356.61753094482424,87.08131485595703Q357.9012309448242,85.22711485595704,357.47893094482424,83.52331485595704Q357.19203094482424,82.36711485595703,355.3681309448242,80.52281485595702Q355.06883094482424,80.22021485595704,354.9217309448242,80.06771485595704Q352.60533094482423,77.66731485595703,353.0057309448242,75.56671485595703L353.0970309448242,75.08791485595702L353.57793094482423,75.16691485595703Q356.1702309448242,75.59261485595704,358.23803094482423,77.35931485595702Q359.8955309448242,78.77551485595703,360.73713094482423,80.64411485595703Q361.7039309448242,79.04301485595704,361.94813094482424,78.05961485595702Q362.4623309448242,75.98831485595703,361.2886309448242,74.79781485595703Q360.6946309448242,74.19521485595703,358.9086309448242,73.62831485595703Q358.6081309448242,73.53301485595703,358.4586309448242,73.48361485595703Q355.7202309448242,72.57901485595703,353.4154309448242,70.87101485595703Q351.8568309448242,69.71581485595703,352.4152309448242,68.54351485595703Q352.88473094482424,67.55741485595703,354.55253094482424,67.66671485595703Q359.11683094482424,67.96801485595704,362.8840309448242,70.37951485595703Q362.6763309448242,67.44621485595704,362.0605309448242,66.01581485595703Q360.8191309448242,63.13081485595703,358.28853094482423,62.90733485595703Q357.1959309448242,62.810954855957036,354.9936309448242,63.627614855957034Q352.9498309448242,64.38551485595703,351.84213094482425,64.43141485595703Q350.8361309448242,64.47261485595703,350.0320309448242,63.91151485595703Q349.0184309448242,63.20411485595703,349.30323094482424,62.17206485595703Q349.5664309448242,61.217444855957034,351.0594309448242,60.72820485595703Q354.9544309448242,59.45366485595703,358.9613309448242,59.84843485595703Q356.1323309448242,56.18358485595703,353.58813094482423,54.71210485595703Q349.8432309448242,52.54617385595703,346.3275309448242,54.41063485595703Q343.1790309448242,56.08036485595703,342.3640309448242,61.83637485595703L342.2553309448242,62.60396485595703L341.6009309448242,62.18835485595703Q338.2016309448242,60.02953485595703,335.97141094482424,59.52687485595703Q332.49573094482423,58.743524855957034,330.2235809448242,60.55218485595703Q327.5932601448242,62.64642485595703,328.08841894482424,66.74791485595703Q328.33681794482425,68.80551485595703,330.0111109448242,72.33591485595703Q330.7277509448242,70.67551485595703,332.1021909448242,69.32711485595703Q333.49663094482423,67.95911485595703,335.2106609448242,67.26301485595704ZM336.6721909448242,67.83281485595703L336.5858709448242,67.85581485595704Q334.4504109448242,68.42431485595704,332.8025009448242,70.04101485595703Q331.15574094482423,71.65651485595703,330.56593094482423,73.75951485595704L330.2174009448242,75.00221485595704L329.63777094482424,73.84901485595702Q327.4012709448242,69.39951485595702,327.09562694482423,66.86781485595704Q326.5335419448242,62.21190485595703,329.60071094482424,59.76986485595703Q332.24798094482423,57.66259485595703,336.1912809448242,58.55134485595703Q338.36983094482423,59.04235485595703,341.4930309448242,60.94356485595703Q342.4813309448242,55.31843485595703,345.8590309448242,53.52718485595703Q349.8642309448242,51.40311485595703,354.0888309448242,53.846460855957034Q357.1314309448242,55.60618485595703,360.4749309448242,60.20136485595703L361.1869309448242,61.17991485595703L359.9918309448242,60.989294855957034Q355.6119309448242,60.29069485595703,351.3704309448242,61.67861485595703Q350.3878309448242,62.00061485595703,350.26723094482423,62.43785485595703Q350.1704309448242,62.78866485595703,350.6042309448242,63.091414855957034Q351.13203094482424,63.45971485595703,351.8012309448242,63.43231485595703Q352.75043094482425,63.39291485595703,354.6459309448242,62.69000485595703Q357.0594309448242,61.79503485595703,358.3763309448242,61.911194855957035Q361.5017309448242,62.18725485595703,362.9791309448242,65.62061485595703Q363.7684309448242,67.45421485595703,363.9403309448242,71.34081485595703L363.9859309448242,72.37271485595703L363.1482309448242,71.76831485595703Q359.28533094482424,68.98131485595704,354.4867309448242,68.66461485595703Q353.4960309448242,68.59961485595703,353.31813094482425,68.97341485595703Q353.1136309448242,69.40261485595703,354.0109309448242,70.06761485595703Q356.1865309448242,71.67991485595704,358.7723309448242,72.53401485595703Q358.9163309448242,72.58161485595703,359.2111309448242,72.67521485595702Q361.23303094482424,73.31691485595704,362.0008309448242,74.09581485595703Q363.56793094482424,75.68541485595703,362.9186309448242,78.30061485595704Q362.5728309448242,79.69321485595702,361.0476309448242,82.02731485595703L360.47463094482424,82.90411485595703L360.1531309448242,81.90731485595703Q359.4424309448242,79.70371485595703,357.5884309448242,78.11961485595702Q355.9485309448242,76.71841485595704,353.9483309448242,76.25841485595703Q353.9883309448242,77.66031485595704,355.64133094482423,79.37331485595703Q355.7843309448242,79.52151485595704,356.0791309448242,79.81961485595703Q358.0964309448242,81.85941485595703,358.44953094482423,83.28261485595704Q358.98053094482424,85.42491485595704,357.4397309448242,87.65051485595703Q356.5930309448242,88.87351485595704,354.3446309448242,90.71981485595703L354.23983094482423,90.80591485595704L352.8567309448242,91.02601485595703L352.7827309448242,91.01561485595704Q348.2467309448242,90.38071485595702,344.1077309448242,88.48111485595703L343.6935309448242,88.29101485595703L343.8445309448242,87.86101485595702Q344.97783094482423,84.63401485595703,345.69273094482423,81.29361485595703Q345.94953094482423,80.09061485595703,345.7573309448242,79.54001485595703Q345.4580309448242,78.68041485595703,344.79123094482424,78.89311485595704Q344.3733309448242,79.02621485595704,344.0472309448242,79.93571485595703Q342.6260309448242,83.89701485595702,343.1842309448242,88.03621485595704L343.2678309448242,88.65601485595704L342.6448309448242,88.60111485595704Q339.6179309448242,88.33411485595704,338.23803094482423,85.67071485595703Q336.85760094482424,83.00521485595704,338.39043094482423,80.38751485595704Q338.8497309448242,79.60271485595703,340.09283094482424,78.33981485595703Q340.4140309448242,78.01351485595703,340.56953094482424,77.84981485595704Q341.8731309448242,76.47711485595703,342.07473094482424,75.37211485595702Q342.3713309448242,73.74141485595703,341.10663094482425,73.29521485595703Q339.6391309448242,72.77701485595703,338.2121309448242,75.04331485595704Q335.8185009448242,78.84291485595703,336.38079094482424,83.24681485595703L336.5230509448242,84.36091485595703L335.59995094482423,83.72101485595704Q332.0941109448242,81.29051485595703,332.1692809448242,77.03091485595704Q332.24433094482424,72.77791485595704,335.8288109448242,70.38051485595703Q335.9793509448242,70.27981485595703,336.28326094482424,70.09001485595704Q337.23992094482423,69.49271485595703,337.5288309448242,69.08191485595702Q337.77493094482423,68.73211485595704,337.7335309448242,68.29991485595703Q337.6983309448242,67.93221485595703,337.45277094482424,67.81671485595703Q337.2104109448242,67.70261485595704,336.6721909448242,67.83281485595703Z" fill-rule="evenodd" fill="#000000" fill-opacity="1"/></g></g><g><g><path d="M263.1998228881836,111.62509606933594C265.6917228881836,113.50699606933594,267.0941228881836,116.74809606933593,266.7462228881836,119.81799606933593C268.5766228881836,118.21719606933594,270.44262288818356,116.57319606933594,271.6243228881836,114.44379606933595C272.8060228881836,112.31449606933595,273.1927228881836,109.56889606933593,271.98112288818356,107.41289606933594C270.9215228881836,105.52649606933593,268.8125228881836,104.40139606933593,266.6902228881836,104.04779606933593C264.5672228881836,103.69419606933593,262.4061228881836,104.01029606933594,260.3016228881836,104.39249606933593C261.1519228881836,101.00451606933593,261.2550228881836,97.88111606933593,259.3279228881836,95.57753606933593C257.4008228881836,93.27458006933594,254.9764228881836,92.53809806933593,252.03742288818358,92.94576906933594C249.0985228881836,93.35343906933593,246.4298228881836,94.79843606933593,243.9214428881836,96.35409606933594C246.8235228881836,97.02889606933594,249.5710228881836,98.41154606933594,251.8568228881836,100.34817606933593C252.33702288818358,100.75458606933594,252.83882288818359,101.28946606933593,252.7656228881836,101.90764606933594C252.6467228881836,102.91699606933594,251.1985228881836,103.07149606933594,250.2662228881836,102.64666606933594C248.2271228881836,101.71683606933594,246.94752288818358,99.43996606933594,244.8092928881836,98.78234606933594C242.9852428881836,98.22139606933594,240.9863028881836,99.03992606933593,239.6456128881836,100.36088606933593C238.3049228881836,101.68185606933594,237.4902128881836,103.43529606933593,236.7022028881836,105.14929606933593C239.7969828881836,104.39689606933594,243.1181728881836,104.53749606933593,246.1703228881836,105.55129606933593C246.7605228881836,105.74719606933594,247.44232288818358,106.10459606933594,247.4779228881836,106.72339606933593C247.5180228881836,107.42049606933594,246.7211228881836,107.81669606933593,246.0495228881836,107.98909606933594C244.2642528881836,108.44699606933594,242.40077288818358,108.61809606933593,240.5512828881836,108.49339606933594C239.4217428881836,108.41709606933594,238.2356028881836,108.23959606933593,237.2033728881836,108.68359606933593C235.9816198881836,109.20889606933594,235.2559448881836,110.52219606933593,235.0657811881836,111.84449606933595C234.8756168881836,113.16669606933594,235.1331968881836,114.51569606933595,235.38950488818358,115.83469606933593C237.4959328881836,113.32639606933594,241.0581728881836,112.14339606933594,244.2922328881836,112.87929606933594C243.9875928881836,114.39479606933594,242.5165228881836,115.34379606933594,241.10841288818358,115.96699606933593C239.7003128881836,116.59029606933593,238.14084288818358,117.12389606933594,237.2358128881836,118.36669606933594C236.4172828881836,119.49049606933593,236.3028028881836,121.01559606933594,236.6087128881836,122.38999606933594C236.9146328881836,123.76439606933593,237.59642288818358,125.02749606933594,238.26995288818358,126.26959606933593L239.2881828881836,126.88589606933593C242.1794428881836,127.61659606933594,245.1699228881836,127.92379606933594,248.1336228881836,127.79409606933594C248.2456228881836,125.49749606933594,248.5032228881836,123.21039606933594,248.9045228881836,120.95139606933594C249.0240228881836,120.27659606933594,249.1729228881836,119.57059606933593,249.6225228881836,119.05929606933594C250.0722228881836,118.54789606933593,250.92442288818359,118.32719606933594,251.4567228881836,118.77119606933593C251.9153228881836,119.15339606933594,251.9573228881836,119.83139606933594,251.9325228881836,120.42219606933594C251.8135228881836,123.25179606933594,251.0109228881836,126.03809606933594,249.6130228881836,128.47779606933594C251.2252228881836,128.97389606933592,253.0620228881836,128.60179606933593,254.3277228881836,127.52189606933594C255.5933228881836,126.44199606933594,256.2484228881836,124.68979606933594,256.0080228881836,123.02349606933593C255.85412288818358,121.95749606933595,255.3688228881836,120.96859606933594,254.97572288818358,119.96239606933594C254.5820228881836,118.95619606933593,254.2730228881836,117.86299606933594,254.4924228881836,116.81549606933594C254.7118228881836,115.76799606933594,255.6124228881836,114.80889606933593,256.6847228881836,114.85979606933594C258.1157228881836,114.92719606933593,258.9247228881836,116.56739606933594,259.1759228881836,117.98189606933593C259.69872288818357,120.92659606933594,259.1759228881836,124.02709606933594,257.7226228881836,126.60349606933593C260.1184228881836,126.06859606933594,262.1810228881836,124.29419606933594,263.06442288818357,122.00779606933594C263.9478228881836,119.72129606933593,263.6272228881836,116.98839606933593,262.23382288818357,114.92909606933594C261.7968228881836,114.28349606933594,261.2499228881836,113.67359606933593,261.0756228881836,112.91739606933594C260.9013228881836,112.16059606933594,261.3122228881836,111.20399606933594,262.08302288818356,111.16269606933594Q262.4913228881836,111.14109606933593,262.9152228881836,111.15769606933594L263.1998228881836,111.62509606933594Z" fill="#FFFFFF" fill-opacity="1"/><path d="M262.63012288818356,111.65079606933594L262.8224228881836,111.96659606933594L262.8985228881836,112.02409606933594Q264.6621228881836,113.35599606933593,265.5791228881836,115.47459606933595Q266.4953228881836,117.59159606933594,266.2494228881836,119.76169606933594L266.1041228881836,121.04379606933594L267.07532288818356,120.19439606933594Q270.8245228881836,116.91559606933593,272.0615228881836,114.68639606933594Q274.3374228881836,110.58539606933594,272.4170228881836,107.16789606933594Q270.7606228881836,104.21909606933593,266.7724228881836,103.55459606933594Q264.5681228881836,103.18739606933593,260.9600228881836,103.77189606933594Q262.1650228881836,98.18976606933593,259.7114228881836,95.25671606933594Q256.80222288818356,91.78004606933594,251.9687228881836,92.45051106933593Q248.48862288818358,92.93324726933594,243.6579128881836,95.92918606933594L242.6294528881836,96.56701606933593L243.8082028881836,96.84110606933594Q248.1301228881836,97.84605606933594,251.5336228881836,100.72966606933593Q252.32252288818358,101.39739606933594,252.2691228881836,101.84890606933594Q252.22652288818358,102.21053606933594,251.7106228881836,102.32731606933594Q251.0829228881836,102.46937606933594,250.4735228881836,102.19167606933594Q249.60932288818358,101.79758606933594,248.11872288818358,100.43218606933594Q246.2203228881836,98.69319606933594,244.9562728881836,98.30443606933594Q241.9566128881836,97.38195606933594,239.2946828881836,100.00472606933593Q237.8731728881836,101.40533606933593,236.2479128881836,104.94049606933594L235.81630888818358,105.87929606933594L236.8203228881836,105.63519606933593Q241.4488728881836,104.50989606933594,246.0127228881836,106.02579606933594Q246.9550228881836,106.33849606933593,246.9788228881836,106.75219606933594Q247.0061228881836,107.22739606933594,245.92522288818358,107.50469606933594Q243.3017728881836,108.17769606933594,240.5849028881836,107.99449606933594Q240.4331428881836,107.98429606933594,240.1242028881836,107.95979606933594Q238.0104228881836,107.79219606933594,237.0058328881836,108.22419606933593Q234.9544384881836,109.10629606933594,234.5708728881836,111.77329606933594Q234.3667518881836,113.19259606933593,234.8986848881836,115.93009606933595L235.0985548881836,116.95869606933593L235.7724028881836,116.15629606933594Q237.2612828881836,114.38329606933594,239.57555288818358,113.61489606933594Q241.6225828881836,112.93529606933593,243.6485128881836,113.26309606933594Q243.0827628881836,114.54629606933594,240.9060328881836,115.50979606933593Q240.71855288818358,115.59279606933593,240.3349328881836,115.75689606933594Q237.6954428881836,116.88619606933594,236.8316328881836,118.07229606933593Q235.53245988818358,119.85599606933593,236.1206628881836,122.49859606933595Q236.44393288818358,123.95099606933593,237.83040288818358,126.50789606933594L237.89504288818358,126.62709606933593L239.0932128881836,127.35229606933594L239.1656628881836,127.37059606933593Q243.60547288818358,128.49279606933595,248.15552288818358,128.29359606933593L248.6109228881836,128.27369606933593L248.6331228881836,127.81839606933593Q248.7997228881836,124.39999606933594,249.3968228881836,121.03879606933594Q249.6111228881836,119.82949606933593,249.99802288818358,119.38939606933593Q250.5985228881836,118.70649606933594,251.1365228881836,119.15519606933594Q251.4734228881836,119.43599606933594,251.43292288818358,120.40129606933594Q251.2563228881836,124.60419606933594,249.1792228881836,128.22919606933593L248.8683228881836,128.77179606933595L249.4659228881836,128.95569606933594Q252.37032288818358,129.84929606933594,254.6522228881836,127.90219606933593Q256.9359228881836,125.95359606933593,256.5028228881836,122.95209606933594Q256.3731228881836,122.05349606933594,255.6999228881836,120.41879606933594Q255.5242228881836,119.99229606933594,255.44152288818358,119.78049606933594Q254.7515228881836,118.01719606933594,254.9818228881836,116.91799606933594Q255.32162288818358,115.29569606933595,256.6610228881836,115.35919606933594Q258.2152228881836,115.43239606933594,258.6836228881836,118.06929606933593Q259.4685228881836,122.49049606933593,257.2871228881836,126.35789606933594L256.7352228881836,127.33619606933594L257.8316228881836,127.09149606933593Q261.9954228881836,126.16189606933594,263.5308228881836,122.18799606933594Q265.0640228881836,118.21959606933594,262.6479228881836,114.64889606933593Q262.5468228881836,114.49959606933594,262.3382228881836,114.21119606933594Q261.6758228881836,113.29549606933594,261.5628228881836,112.80509606933595Q261.4668228881836,112.38799606933594,261.6680228881836,112.00349606933594Q261.8390228881836,111.67649606933594,262.1098228881836,111.66199606933594Q262.3664228881836,111.64839606933594,262.63012288818356,111.65079606933594ZM263.57802288818357,111.28469606933594L263.3423228881836,110.89759606933593L263.2028228881836,110.66859606933593L262.9348228881836,110.65809606933594Q262.4879228881836,110.64049606933594,262.0563228881836,110.66339606933593Q261.2169228881836,110.70839606933593,260.7819228881836,111.53999606933594Q260.4093228881836,112.25209606933593,260.5884228881836,113.02969606933594Q260.7469228881836,113.71739606933593,261.5279228881836,114.79719606933594Q261.7275228881836,115.07309606933595,261.8197228881836,115.20929606933593Q263.94282288818357,118.34699606933594,262.5980228881836,121.82759606933594Q261.4655228881836,124.75879606933594,258.6970228881836,125.79589606933594Q260.4100228881836,122.07289606933594,259.6682228881836,117.89449606933593Q259.0602228881836,114.47109606933594,256.7084228881836,114.36029606933593Q255.7199228881836,114.31339606933594,254.9258228881836,115.06189606933594Q254.20692288818358,115.73929606933594,254.00302288818358,116.71299606933593Q253.7116228881836,118.10389606933595,254.51002288818358,120.14429606933594Q254.5961228881836,120.36469606933593,254.7752228881836,120.79959606933593Q255.40112288818358,122.31939606933594,255.5131228881836,123.09489606933593Q255.8674228881836,125.55079606933595,254.00312288818358,127.14149606933594Q252.3791228881836,128.52719606933593,250.3640228881836,128.14989606933594Q252.25912288818358,124.55769606933593,252.43202288818358,120.44319606933594Q252.4933228881836,118.98429606933594,251.77702288818358,118.38719606933594Q251.2109228881836,117.91509606933593,250.4156228881836,118.06569606933594Q249.7134228881836,118.19869606933594,249.2470228881836,118.72909606933594Q248.67522288818358,119.37939606933594,248.4122228881836,120.86389606933594Q247.8440228881836,124.06209606933594,247.6585228881836,127.31099606933594Q243.5239128881836,127.43029606933594,239.4829028881836,126.41929606933593L238.64523288818359,125.91229606933594Q237.3824628881836,123.56489606933593,237.09677288818358,122.28139606933594Q236.60671288818358,120.07969606933594,237.6399928881836,118.66099606933594Q238.3417928881836,117.69729606933593,240.7282728881836,116.67629606933593Q241.1176728881836,116.50969606933594,241.31079288818358,116.42429606933594Q244.3610628881836,115.07409606933594,244.7824228881836,112.97779606933594L244.8784928881836,112.49989606933593L244.4031628881836,112.39169606933594Q241.84168288818358,111.80889606933593,239.26046288818358,112.66589606933593Q237.1917128881836,113.35269606933593,235.7080078881836,114.76589606933594Q235.4165408881836,112.91799606933594,235.5606888881836,111.91569606933594Q235.8644518881836,109.80349606933594,237.4009128881836,109.14289606933593Q238.1781328881836,108.80859606933593,240.0451728881836,108.95669606933593Q240.36004288818359,108.98159606933594,240.5176528881836,108.99229606933594Q243.3947128881836,109.18619606933594,246.1738228881836,108.47339606933593Q248.0516228881836,107.99139606933593,247.9771228881836,106.69469606933593Q247.9143228881836,105.60329606933594,246.3279228881836,105.07679606933594Q241.98708288818358,103.63489606933594,237.5888528881836,104.44839606933594Q238.8876928881836,101.80958606933594,239.9965328881836,100.71705606933594Q242.23324288818358,98.51324606933593,244.6623128881836,99.26025606933594Q245.7110228881836,99.58278606933594,247.44322288818358,101.16957606933593Q249.0504228881836,102.64181606933593,250.05882288818358,103.10169606933594Q250.9750228881836,103.51909606933594,251.9313228881836,103.30259606933593Q253.1369228881836,103.02979606933593,253.2622228881836,101.96639606933594Q253.3787228881836,100.98124606933594,252.1800228881836,99.96668606933594Q249.0543228881836,97.31844606933593,245.1929228881836,96.17301606933594Q249.1960228881836,93.84469606933594,252.1061228881836,93.44102706933593Q256.3908228881836,92.84668604933594,258.94442288818357,95.89835606933593Q261.2317228881836,98.63259606933593,259.8166228881836,104.27079606933594L259.6278228881836,105.02299606933593L260.3909228881836,104.88439606933593Q264.3515228881836,104.16509606933593,266.6080228881836,104.54099606933593Q270.1235228881836,105.12669606933594,271.5452228881836,107.65779606933594Q273.1921228881836,110.58839606933594,271.1871228881836,114.20119606933594Q270.1817228881836,116.01289606933594,267.2997228881836,118.65239606933594Q267.2615228881836,116.84429606933594,266.4968228881836,115.07739606933593Q265.4951228881836,112.76299606933594,263.57802288818357,111.28469606933594Z" fill-rule="evenodd" fill="#000000" fill-opacity="1"/></g></g><g><path d="M301.4249061889648,18.76474755859375Q301.39100618896487,18.77424755859375,301.3563061889648,18.78284755859375Q300.50130618896486,18.99384755859375,299.2739061889648,18.37944755859375L296.28390618896486,16.88254755859375L297.11780618896483,17.02334755859375Q295.3518061889648,15.65694755859375,294.05117618896486,13.678747558593749Q292.3737561889648,11.127447558593751,291.93786618896485,8.26934755859375Q288.10615618896486,13.23634755859375,287.03981618896483,16.32304755859375Q286.13598418896487,18.93934755859375,286.3791571889648,21.51244755859375Q286.6408211889648,24.281247558593748,288.1928961889648,26.17534755859375Q290.95875618896486,29.55034755859375,296.31700618896485,29.426747558593753Q299.7297061889648,29.34804755859375,305.33740618896485,27.191947558593753L306.0746061889648,26.908547558593753L306.01540618896485,27.69614755859375Q305.36070618896485,36.41434755859375,309.4532061889648,39.83544755859375Q314.01870618896487,43.65184755859375,320.21450618896483,41.55984755859375Q324.5542061889648,40.09464755859375,330.0787061889648,35.25394755859375Q323.93310618896487,34.74554755859375,318.53780618896485,31.643547558593752Q316.6491061889648,30.55704755859375,316.5787061889648,29.218247558593752Q316.50430618896485,27.81174755859375,318.02360618896483,27.151747558593748Q319.28380618896483,26.604247558593748,320.64190618896487,26.939847558593748Q322.18640618896484,27.321647558593753,324.85800618896485,29.001847558593752Q327.8115061889648,30.859147558593747,329.46510618896485,31.04454755859375Q331.30780618896483,31.25094755859375,333.1561061889648,30.219147558593747Q334.88650618896486,29.253147558593753,336.10230618896486,27.527747558593752Q337.53570618896487,25.493547558593747,338.83240618896485,20.90204755859375Q332.5119061889649,23.482147558593752,325.67550618896485,22.561147558593753Q323.39280618896487,22.253647558593748,323.0635061889648,20.83414755859375Q322.6763061889649,19.16564755859375,325.09630618896483,18.03164755859375Q328.9154061889648,16.24214755859375,333.10420618896484,15.734047558593751Q333.33450618896484,15.706047558593749,333.7970061889648,15.65524755859375Q336.6029061889648,15.34744755859375,337.69840618896484,14.61244755859375Q339.88110618896485,13.14744755859375,339.79090618896487,9.849647558593752Q339.74570618896485,8.19464755859375,338.70580618896486,5.248547558593749Q336.88590618896484,7.92824755859375,333.8907061889648,9.590547558593752Q330.41710618896485,11.51824755859375,326.6190061889648,11.38064755859375L326.1235061889648,11.36264755859375L326.1373061889648,10.86704755859375Q326.22170618896484,7.82914755859375,330.20440618896487,5.093947558593751Q330.46210618896487,4.916947558593749,330.98590618896486,4.5666475585937505Q334.2519061889648,2.38244755859375,335.06050618896484,0.7237475585937503Q336.25570618896484,-1.7287224414062496,334.9528061889648,-4.89623244140625Q334.19990618896486,-6.72783244140625,331.72820618896486,-9.85533244140625L330.29680618896487,-10.39533144140625Q324.01220618896485,-10.76357344140625,317.8826061889648,-9.37927244140625Q318.4496061889648,-4.49849244140625,318.42390618896485,0.4093475585937494Q318.41310618896483,2.5739475585937495,317.78190618896485,3.6177475585937504Q317.28210618896486,4.4443475585937495,316.3760061889648,4.8006475585937505Q315.36340618896486,5.198947558593751,314.5171061889648,4.7210475585937495Q313.42420618896483,4.103847558593751,313.16420618896484,2.07744755859375Q312.37410618896484,-4.06275244140625,314.32930618896484,-9.90323244140625Q310.98890618896485,-10.02912144140625,308.7961061889648,-7.34169244140625Q306.39970618896484,-4.40478244140625,307.56910618896484,-0.7995524414062505Q307.93390618896484,0.32564755859375083,309.2383061889648,2.3895475585937493Q309.60580618896483,2.9709475585937497,309.7845061889648,3.26574755859375Q311.41750618896486,5.956247558593748,311.34490618896484,7.98914755859375Q311.29510618896484,9.384347558593749,310.46790618896483,10.505247558593751Q309.56550618896483,11.728047558593751,308.22160618896487,11.91914755859375Q306.52640618896487,12.16004755859375,305.08220618896485,10.706347558593752Q303.94160618896484,9.558147558593749,303.28420618896484,7.737847558593749Q301.0952061889648,1.6727475585937501,302.86980618896484,-4.40717244140625Q301.13070618896484,-3.4192724414062496,299.80730618896484,-1.78361244140625Q298.10210618896485,0.32374755859374993,297.59290618896483,2.8810475585937496Q297.08370618896487,5.438547558593751,297.85140618896486,8.03824755859375Q298.6190061889648,10.63814755859375,300.4358061889648,12.50864755859375Q300.60660618896486,12.68444755859375,300.9686061889648,13.034147558593752Q302.33830618896485,14.357047558593749,302.72220618896483,15.27104755859375Q303.14240618896486,16.27164755859375,302.8067061889648,17.32494755859375Q302.52990618896484,18.19384755859375,301.88770618896484,18.57024755859375L302.7075061889648,18.98134755859375L301.4249061889648,18.76474755859375ZM299.8212061889648,17.53394755859375L299.72570618896486,17.48604755859375Q296.77980618896487,16.00864755859375,294.88675618896485,13.12934755859375Q292.9935761889648,10.24984755859375,292.80566618896484,6.96014755859375L292.73097618896486,5.6524475585937495L291.91527618896487,6.6772475585937485Q287.31914618896485,12.451947558593751,286.09462918896486,15.99654755859375Q285.12002918896485,18.81764755859375,285.3835931889648,21.606547558593753Q285.6739621889648,24.67904755859375,287.41940618896484,26.80914755859375Q290.4943661889648,30.561347558593752,296.34010618896485,30.426547558593747Q299.69750618896484,30.349047558593753,304.96850618896485,28.39994755859375Q304.51670618896486,37.01214755859375,308.81180618896485,40.60264755859375Q313.8074061889648,44.77864755859375,320.53440618896485,42.50724755859375Q325.41900618896483,40.85814755859375,331.64180618896484,35.19884755859375L332.54280618896485,34.37934755859375L331.32590618896484,34.32934755859375Q324.74540618896486,34.05904755859375,319.03620618896485,30.77664755859375Q317.6192061889648,29.961447558593747,317.57740618896486,29.165847558593747Q317.53960618896485,28.452247558593747,318.42210618896485,28.06894755859375Q319.37210618896484,27.65614755859375,320.40210618896486,27.91064755859375Q321.7902061889648,28.253847558593748,324.32570618896483,29.84834755859375Q327.47280618896485,31.827447558593747,329.35370618896485,32.03834755859375Q331.5153061889648,32.28034755859375,333.64350618896486,31.092247558593748Q335.57270618896484,30.015347558593753,336.9197061889648,28.103747558593753Q338.60800618896485,25.70794755859375,340.07140618896483,20.15984755859375L340.3398061889649,19.14264755859375L339.38150618896486,19.57694755859375Q332.88250618896484,22.523047558593753,325.8090061889649,21.570147558593753Q324.2109061889648,21.354847558593747,324.0377061889648,20.60814755859375Q323.83340618896483,19.72784755859375,325.5207061889648,18.93714755859375Q329.19480618896483,17.21554755859375,333.22460618896486,16.72674755859375Q333.44930618896484,16.69944755859375,333.90600618896485,16.64934755859375Q336.95610618896484,16.31474755859375,338.25560618896486,15.442847558593751Q340.89580618896485,13.67074755859375,340.79060618896483,9.822347558593751Q340.7336061889648,7.73904755859375,339.29090618896487,3.94024755859375L338.91590618896487,2.9527475585937495L338.38990618896486,3.86874755859375Q336.63560618896486,6.92344755859375,333.40540618896483,8.71614755859375Q330.4195061889649,10.37324755859375,327.18590618896485,10.38964755859375Q327.56370618896483,8.120647558593749,330.7705061889649,5.918247558593752Q331.0234061889648,5.744647558593751,331.54180618896487,5.397947558593749Q335.03240618896484,3.063447558593751,335.95940618896486,1.1619475585937504Q337.3513061889648,-1.6940724414062505,335.8776061889648,-5.27666244140625Q335.05810618896487,-7.2704124414062505,332.4258061889648,-10.58523744140625L332.33990618896485,-10.69337644140625L330.50790618896485,-11.38448844140625L330.43230618896484,-11.38904244140625Q323.73930618896486,-11.79234244140625,317.21810618896484,-10.25210744140625L316.7827061889648,-10.14924944140625L316.83670618896485,-9.70505244140625Q317.4505061889648,-4.66504244140625,317.42390618896485,0.4040475585937493Q317.4145061889648,2.292847558593749,316.92620618896484,3.1002475585937503Q316.60140618896486,3.6374475585937507,316.01000618896484,3.8700475585937504Q315.44050618896483,4.094047558593751,315.00890618896483,3.8502475585937503Q314.35230618896486,3.479547558593749,314.1561061889648,1.95024755859375Q313.35490618896483,-4.27654244140625,315.48520618896487,-10.18288144140625L315.70010618896487,-10.77874144140625L315.07060618896486,-10.84940544140625Q313.09570618896487,-11.07111124140625,311.1867061889648,-10.29237744140625Q309.2777061889648,-9.51367244140625,308.02130618896484,-7.9738924414062495Q306.76490618896486,-6.43411244140625,306.38490618896486,-4.40779244140625Q306.00480618896484,-2.3813324414062507,306.61790618896487,-0.4909524414062503Q307.0214061889648,0.7536475585937499,308.3930061889648,2.9237475585937496Q308.75550618896483,3.4973475585937503,308.92950618896487,3.7842475585937496Q310.4075061889648,6.21944755859375,310.34560618896484,7.953447558593751Q310.30680618896486,9.03944755859375,309.66330618896484,9.91144755859375Q309.00980618896483,10.79694755859375,308.08080618896486,10.929147558593751Q306.88230618896483,11.099447558593749,305.79170618896484,10.00154755859375Q304.80700618896486,9.01044755859375,304.22480618896486,7.398247558593749Q301.95150618896486,1.0997475585937497,304.1808061889648,-5.21575244140625L304.56140618896484,-6.29384244140625L303.5114061889648,-5.84136244140625Q300.89000618896483,-4.71163244140625,299.02990618896484,-2.412622441406249Q297.1695061889648,-0.11345244140625077,296.6122061889648,2.68574755859375Q296.05480618896485,5.485147558593749,296.8923061889648,8.32144755859375Q297.72980618896486,11.15794755859375,299.71850618896485,13.20534755859375Q299.90040618896484,13.392647558593751,300.2739061889648,13.753447558593749Q301.49590618896485,14.933647558593751,301.80020618896486,15.65824755859375Q302.07770618896484,16.31914755859375,301.85390618896486,17.02134755859375Q301.64340618896483,17.68204755859375,301.11680618896486,17.81194755859375Q300.64740618896485,17.92774755859375,299.8212061889648,17.53394755859375Z" fill-rule="evenodd" fill="#000000" fill-opacity="1"/></g><g><path d="M343.7457538696289,93.78629582519531C345.1690538696289,89.4170158251953,349.4061538696289,86.22302582519531,354.4559538696289,85.71230582519532C350.8046538696289,83.50602582519531,347.0630538696289,81.26094582519531,342.9806538696289,80.20518682519531C338.8974538696289,79.14942382519531,334.3360538696289,79.49350982519532,331.6890538696289,82.03558582519531C329.3733538696289,84.2596858251953,328.90465386962893,87.79964582519531,329.6595538696289,91.10239582519532C330.4145538696289,94.40449582519531,332.2468538696289,97.53939582519531,334.1484538696289,100.56669582519531C328.2890138696289,100.43129582519532,323.3065938696289,101.32799582519532,320.8707138696289,104.99199582519532C318.4348328696289,108.6559958251953,318.7725528696289,112.54009582519532,321.23068386962893,116.81079582519531C323.6888338696289,121.08089582519531,327.61167386962893,124.59739582519532,331.6108538696289,127.83459582519532C330.8807538696289,123.25539582519531,331.3602538696289,118.66989582519531,332.9966538696289,114.59119582519531C333.3401538696289,113.73449582519531,333.8724538696289,112.80209582519531,334.8906538696289,112.70359582519532C336.5531538696289,112.54259582519532,337.6916538696289,114.66179582519531,337.5981538696289,116.20279582519531C337.3939538696289,119.57359582519531,334.5987538696289,122.25819582519532,334.8836538696289,125.68559582519532C335.1266538696289,128.60929582519532,337.6509538696289,131.33139582519533,340.5593538696289,132.8971958251953C343.46715386962893,134.46369582519532,346.7317538696289,135.0951958251953,349.9174538696289,135.70009582519532C346.8207538696289,131.3128958251953,344.9910538696289,126.28409582519532,344.7009538696289,121.36709582519532C344.6450538696289,120.41569582519531,344.7862538696289,119.27339582519531,345.7389538696289,119.01199582519531C346.8112538696289,118.7175958251953,347.9274538696289,119.77899582519531,348.6142538696289,120.72859582519531C350.4389538696289,123.25159582519531,351.8591538696289,125.9889958251953,352.8049538696289,128.8038958251953C353.3823538696289,130.52299582519532,353.8364538696289,132.3616958251953,355.1720538696289,133.7601958251953C356.7538538696289,135.41509582519532,359.2698538696289,136.0618958251953,361.4691538696289,135.90289582519532C363.66845386962893,135.7438958251953,365.6336538696289,134.90379582519532,367.5518538696289,134.07509582519532C362.3003538696289,131.75999582519532,358.2376538696289,126.81579582519531,357.3987538696289,121.71879582519531C359.9726538696289,121.66609582519531,362.3760538696289,123.5523958251953,364.2274538696289,125.45409582519531C366.0788538696289,127.35569582519531,367.8825538696289,129.5148958251953,370.3985538696289,130.45429582519532C372.6735538696289,131.30399582519533,375.1463538696289,130.9624958251953,377.1210538696289,130.0414958251953C379.0958538696289,129.1199958251953,380.6636538696289,127.6730958251953,382.2040538696289,126.24529582519531L382.5455538696289,124.51149582519531C381.9101538696289,119.92979582519531,380.5459538696289,115.34229582519532,378.5107538696289,110.94119582519531C374.82515386962893,111.54599582519532,371.0650538696289,111.92889582519531,367.2605538696289,112.08789582519532C366.12405386962894,112.13499582519532,364.9207538696289,112.15019582519531,363.8375538696289,111.64709582519532C362.7544538696289,111.14469582519531,361.88065386962893,109.94139582519531,362.2507538696289,108.99309582519531C362.5700538696289,108.17649582519532,363.6105538696289,107.88579582519532,364.5569538696289,107.72429582519531C369.0865538696289,106.95089582519532,373.9690538696289,107.2167958251953,378.6742538696289,108.49319582519531C378.4598538696289,105.90849582519532,376.7382538696289,103.2792958251953,374.25655386962893,101.74459582519532C371.7748538696289,100.2099958251953,368.6107538696289,99.81759582519531,366.1348538696289,100.73849582519532C364.5518538696289,101.32739582519531,363.2938538696289,102.38759582519532,361.9524538696289,103.31619582519531C360.6111538696289,104.24479582519531,359.0809538696289,105.07669582519532,357.2963538696289,105.10019582519531C355.51175386962893,105.12369582519531,353.4453538696289,104.09589582519531,352.8621538696289,102.47029582519531C352.0843538696289,100.3015958251953,354.1672538696289,98.53729582519532,356.2399538696289,97.68439582519531C360.5532538696289,95.90999582519531,365.7589538696289,95.65049582519532,370.7127538696289,96.96259582519531C368.3907538696289,93.54979582519532,364.3222538696289,91.05349582519531,360.1767538696289,90.49819582519531C356.0313538696289,89.94299582519531,351.9259538696289,91.3434958251953,349.5435538696289,94.12539582519531C348.7968538696289,94.99799582519532,348.1748538696289,96.02319582519532,347.0917538696289,96.53899582519531C346.0086538696289,97.05479582519531,344.2475538696289,96.76029582519531,343.7062538696289,95.61809582519531C343.4194538696289,95.01259582519532,343.5568538696289,94.36449582519532,343.7457538696289,93.78629582519531L343.7457538696289,93.78629582519531Z" fill="#FFFFFF" fill-opacity="1"/><path d="M344.1581538696289,95.40399582519531L344.1581538696289,95.40399582519531Q343.9125538696289,94.88559582519531,344.2210538696289,93.94159582519531Q345.2398538696289,90.81389582519532,348.0418538696289,88.70160582519532Q350.8579538696289,86.57874582519531,354.5062538696289,86.20977582519531L355.9965538696289,86.05904582519531L354.7145538696289,85.28436582519531Q347.3047538696289,80.80698582519531,343.1057538696289,79.72111122519532Q339.7701538696289,78.85860982519532,336.7283538696289,79.27583582519532Q333.3597538696289,79.73789212519532,331.3427538696289,81.67495582519531Q327.7750338696289,85.10156582519531,329.1721738696289,91.21379582519532Q329.9674538696289,94.69229582519532,333.2435538696289,100.05549582519531Q323.5605838696289,100.04279582519531,320.4543338696289,104.71519582519531Q316.8298138696289,110.1670958251953,320.7973438696289,117.06019582519531Q323.6694738696289,122.04949582519532,331.2962538696289,128.22329582519532L332.3099538696289,129.0437958251953L332.1046538696289,127.75589582519531Q331.0094538696289,120.8870958251953,333.4607538696289,114.77739582519531Q334.0584538696289,113.28649582519532,334.93885386962893,113.20119582519531Q335.8185538696289,113.11609582519532,336.4903538696289,114.09739582519532Q337.1651538696289,115.0831958251953,337.0990538696289,116.17259582519532Q337.0109538696289,117.62799582519531,335.7717538696289,120.34389582519532Q334.22055386962893,123.74359582519531,334.3854538696289,125.7269958251953Q334.5728538696289,127.98249582519531,336.3363538696289,130.1188958251953Q337.9299538696289,132.04949582519532,340.3223538696289,133.3373958251953Q343.3315538696289,134.9584958251953,349.8241538696289,136.1912958251953L351.0390538696289,136.42189582519532L350.3259538696289,135.4116958251953Q345.63855386962894,128.7709958251953,345.20015386962893,121.33769582519531Q345.1040538696289,119.70469582519532,345.8712538696289,119.4941958251953Q346.8999538696289,119.2116958251953,348.2091538696289,121.02169582519531Q350.9240538696289,124.77549582519532,352.3309538696289,128.9630958251953Q352.40895386962893,129.1953958251953,352.56155386962894,129.66759582519532Q353.5783538696289,132.8153958251953,354.8105538696289,134.1055958251953Q357.2959538696289,136.70599582519532,361.5051538696289,136.40159582519533Q363.8136538696289,136.2346958251953,367.7501538696289,134.53409582519532L368.8018538696289,134.0796958251953L367.7535538696289,133.6174958251953Q363.9238538696289,131.9292958251953,361.2068538696289,128.6226958251953Q358.7231538696289,125.60009582519531,358.00675386962894,122.24479582519531Q360.6816538696289,122.52889582519532,363.8692538696289,125.80289582519532Q364.1179538696289,126.0583958251953,364.6157538696289,126.58089582519531Q367.9401538696289,130.07009582519532,370.2236538696289,130.92269582519532Q373.6612538696289,132.2065958251953,377.3324538696289,130.49469582519532Q379.3919538696289,129.5335958251953,382.5439538696289,126.61199582519532L382.6631538696289,126.50139582519532L383.0523538696289,124.5258958251953L383.04075386962893,124.4427958251953Q382.0708538696289,117.44889582519531,378.9645538696289,110.73129582519532L378.8049538696289,110.38619582519532L378.4297538696289,110.44779582519531Q372.9284538696289,111.35059582519531,367.2396538696289,111.58829582519532Q365.08965386962893,111.6773958251953,364.0482538696289,111.1936958251953Q363.3305538696289,110.86069582519531,362.9207538696289,110.21839582519532Q362.5413538696289,109.62369582519531,362.7165538696289,109.1748958251953Q362.9801538696289,108.50069582519531,364.6410538696289,108.21719582519532Q371.4571538696289,107.05339582519531,378.5433538696289,108.97579582519532L379.2314538696289,109.16249582519531L379.1725538696289,108.45189582519531Q379.0012538696289,106.38709582519532,377.7339538696289,104.45129582519532Q376.4754538696289,102.52889582519532,374.5195538696289,101.31939582519531Q372.5651538696289,100.11079582519531,370.2550538696289,99.82449582519531Q367.9318538696289,99.53659582519532,365.9605538696289,100.2698958251953Q364.6520538696289,100.75659582519532,362.5118538696289,102.30369582519532Q361.9502538696289,102.70959582519531,361.6678538696289,102.90509582519532Q359.25675386962894,104.57429582519532,357.2897538696289,104.60019582519531Q356.0272538696289,104.61689582519531,354.87385386962893,103.96789582519531Q353.6920538696289,103.30289582519532,353.3327538696289,102.30149582519532Q352.8920538696289,101.07249582519532,353.8661538696289,99.90409582519531Q354.7572538696289,98.83519582519531,356.4302538696289,98.14679582519531Q363.0105538696289,95.43979582519532,370.5847538696289,97.44589582519531L371.8797538696289,97.78889582519531L371.1261538696289,96.68129582519532Q369.3241538696289,94.03289582519531,366.3900538696289,92.23259582519532Q363.4570538696289,90.43309582519531,360.2431538696289,90.00269582519532Q357.0175538696289,89.57065582519532,354.0376538696289,90.58719582519531Q351.0395538696289,91.60989582519531,349.1637538696289,93.80009582519531Q348.9923538696289,94.00039582519531,348.6682538696289,94.40889582519532Q347.6156538696289,95.73569582519531,346.8767538696289,96.08759582519531Q346.1805538696289,96.41909582519531,345.3107538696289,96.21369582519532Q344.44495386962893,96.00919582519532,344.1581538696289,95.40399582519531ZM343.2704538696289,93.63109582519532Q342.8383538696289,94.95379582519531,343.2544538696289,95.83209582519531L343.2544538696289,95.83219582519531Q343.7471538696289,96.87189582519531,345.0808538696289,97.18689582519531Q346.2930538696289,97.47319582519532,347.3067538696289,96.99039582519532Q348.25495386962893,96.53889582519531,349.4516538696289,95.03039582519531Q349.76425386962893,94.63639582519531,349.9232538696289,94.45059582519531Q351.6211538696289,92.46799582519532,354.3604538696289,91.5335958251953Q357.1178538696289,90.59299582519532,360.1104538696289,90.9937958251953Q363.11455386962893,91.3961958251953,365.8670538696289,93.0849958251953Q367.9875538696289,94.38599582519531,369.47235386962893,96.15209582519532Q362.3410538696289,94.63389582519531,356.0496538696289,97.22199582519531Q354.1477538696289,98.00459582519531,353.0980538696289,99.26369582519531Q351.7575538696289,100.87159582519531,352.3915538696289,102.63919582519532Q352.8767538696289,103.9915958251953,354.3835538696289,104.83939582519531Q355.7713538696289,105.62029582519531,357.30295386962894,105.60009582519531Q359.5749538696289,105.57019582519531,362.2370538696289,103.72729582519531Q362.5276538696289,103.52609582519531,363.0976538696289,103.1140958251953Q365.1279538696289,101.6465958251953,366.3091538696289,101.20709582519531Q370.1353538696289,99.78399582519532,373.9935538696289,102.16989582519531Q377.4953538696289,104.33539582519532,378.0867538696289,107.82329582519532Q371.1597538696289,106.08969582519532,364.4727538696289,107.2313958251953Q362.2546538696289,107.61009582519532,361.7850538696289,108.81129582519532Q361.4251538696289,109.73329582519531,362.0776538696289,110.7561958251953Q362.6445538696289,111.6448958251953,363.6269538696289,112.10059582519531Q364.88855386962894,112.68659582519531,367.2814538696289,112.5874958251953Q372.8359538696289,112.35529582519531,378.2147538696289,111.49559582519531Q381.1076538696289,117.87279582519531,382.0387538696289,124.49739582519531L381.7449538696289,125.98869582519532Q378.7892538696289,128.71129582519532,376.9097538696289,129.5883958251953Q373.6185538696289,131.1231958251953,370.5734538696289,129.9858958251953Q368.5054538696289,129.21379582519532,365.3398538696289,125.89109582519532Q364.83785386962893,125.36429582519531,364.5857538696289,125.10529582519531Q360.7352538696289,121.15029582519531,357.3884538696289,121.21889582519532L356.8116538696289,121.23079582519532L356.9053538696289,121.79999582519531Q357.5563538696289,125.75519582519532,360.4342538696289,129.25759582519532Q362.9330538696289,132.29859582519532,366.3268538696289,134.04449582519533Q363.2730538696289,135.27119582519532,361.4330538696289,135.4041958251953Q357.6934538696289,135.6745958251953,355.5336538696289,133.41489582519532Q354.45965386962894,132.29019582519533,353.5130538696289,129.36019582519532Q353.3587538696289,128.88249582519532,353.2788538696289,128.6446958251953Q351.8235538696289,124.31279582519531,349.01945386962893,120.43559582519532Q347.3037538696289,118.06379582519531,345.60665386962893,118.52989582519531Q344.0582538696289,118.95469582519532,344.2018538696289,121.3965958251953Q344.6236538696289,128.5472958251953,348.8194538696289,134.97329582519532Q343.3925538696289,133.8555958251953,340.7963538696289,132.45689582519532Q338.5765538696289,131.26179582519532,337.10755386962893,129.4822958251953Q335.54345386962893,127.5874958251953,335.3819538696289,125.64419582519531Q335.2387538696289,123.92109582519532,336.6814538696289,120.75899582519531Q337.9978538696289,117.87399582519532,338.0972538696289,116.2330958251953Q338.1840538696289,114.80139582519531,337.3155538696289,113.53249582519531Q336.3101538696289,112.06379582519531,334.8425538696289,112.20589582519531Q333.3565538696289,112.34969582519531,332.5326538696289,114.40499582519531Q330.2073538696289,120.2004958251953,330.9425538696289,126.6387958251953Q324.2568138696289,121.06539582519531,321.6640338696289,116.56139582519532Q318.0054438696289,110.20499582519531,321.2870938696289,105.26879582519531Q324.2330338696289,100.83759582519531,334.1369538696289,101.06659582519532L335.0664538696289,101.08809582519531L334.5718538696289,100.30079582519531Q330.9613538696289,94.55289582519531,330.1470538696289,90.99099582519531Q328.8760438696289,85.43063582519531,332.0353538696289,82.39621582519531Q333.8178538696289,80.68441582519532,336.8642538696289,80.26655882519532Q339.7106538696289,79.87612782519531,342.8554538696289,80.6892658251953Q346.5717538696289,81.65033582519531,352.9957538696289,85.42410582519531Q349.9219538696289,86.03197582519532,347.4399538696289,87.90308582519532Q344.3865538696289,90.20489582519531,343.2704538696289,93.63109582519532Z" fill-rule="evenodd" fill="#000000" fill-opacity="1"/></g><g transform="matrix(0.8631438612937927,0.5049580931663513,-0.5049580931663513,0.8631438612937927,7.932571009504954,-125.26880754941021)"><path d="M275.91664329833986,-14.236699999999999L275.91674329833984,-14.236600000000003Q276.33764329833986,-13.950099999999999,276.60734329833986,-12.984099999999998Q277.49734329833984,-9.8097,276.67244329833983,-6.469799999999999Q275.84784329833985,-3.1313999999999993,273.59424329833985,-0.7774000000000001L272.70174329833986,0.1548000000000016L273.98934329833986,0.0671999999999997Q281.2220432983398,-0.4251000000000005,284.60324329833986,-1.9084999999999965Q287.29424329833984,-3.0897000000000006,289.13724329833985,-5.163800000000002Q291.16674329833984,-7.4476999999999975,291.54694329833984,-10.170900000000003Q292.2166432983398,-14.964799999999997,288.23644329833985,-19.1936Q285.94904329833986,-21.6238,281.03134329833983,-24.2083Q287.56404329833987,-29.6756,287.3065432983399,-35.2668Q287.0071432983398,-41.76693,280.8939432983398,-45.20925Q276.45544329833984,-47.708585,268.2218432983398,-48.497719000000004L267.01704329833984,-48.613195L267.78904329833983,-47.681057Q271.96824329833987,-42.63548,273.38764329833987,-36.204499999999996Q273.74054329833984,-34.605199999999996,273.19234329833984,-34.0372Q272.70854329833986,-33.5364,271.85464329833985,-33.9258Q270.92644329833985,-34.349199999999996,270.42604329833983,-35.2817Q269.75144329833984,-36.5394,269.21944329833985,-39.487629999999996Q268.55954329833986,-43.144890000000004,267.4625432983398,-44.67617Q266.20074329833983,-46.43707,263.9247432983398,-47.210624Q261.8604432983399,-47.9122313,259.5787432983399,-47.620183Q256.72064329833984,-47.254349,251.73314329833985,-44.59796L250.82144329833983,-44.11232L251.76794329833984,-43.69852Q258.2175432983398,-40.87898,262.2268432983399,-35.0119Q263.13594329833984,-33.6821,262.70904329833985,-33.0484Q262.2132432983398,-32.313,260.53174329833985,-33.0224Q256.84554329833986,-34.5783,253.81534329833985,-37.2256Q253.64674329833986,-37.3728,253.30754329833985,-37.6762Q251.03694329833985,-39.70682,249.53974329833983,-40.08098Q246.49434329833986,-40.84105,243.77510329833984,-38.166470000000004Q242.30604329833983,-36.7215,240.51646329833983,-33.0966L240.05263329833986,-32.1571L241.07475329833986,-32.3875Q244.44490329833985,-33.1472,247.88414329833984,-31.9687Q251.06774329833985,-30.8777,253.22874329833985,-28.4966Q251.34244329833984,-27.2509,247.62504329833985,-28.1363Q247.33124329833984,-28.2063,246.73574329833986,-28.356Q242.72387329833984,-29.3645,240.72742329833983,-28.7675Q237.73187329833985,-27.8716,236.11901329833984,-24.3673Q235.22092029833985,-22.416,234.57433929833985,-18.2431L234.55358629833984,-18.1091L235.26992929833983,-16.293L235.31650729833984,-16.2345Q239.46993329833984,-11.019399999999997,244.92045329833985,-7.234499999999997L245.29484329833986,-6.974499999999999L245.58824329833985,-7.323300000000003Q248.81974329833986,-11.1646,252.50874329833985,-14.564799999999998Q253.87914329833984,-15.827800000000003,254.78254329833985,-16.0094Q255.38134329833986,-16.1298,255.93814329833984,-15.851599999999998Q256.47764329833984,-15.582099999999997,256.58854329833986,-15.097499999999997Q256.75754329833984,-14.3598,255.78114329833986,-13.183500000000002Q251.81034329833983,-8.3992,246.12664329833984,-5.9986999999999995L245.55044329833984,-5.755299999999998L245.91474329833983,-5.246899999999997Q247.06744329833984,-3.637900000000002,248.90044329833984,-2.751100000000001Q250.73534329833984,-1.8633000000000024,252.68804329833984,-1.9720999999999975Q254.64094329833983,-2.0808999999999997,256.36234329833985,-3.1666000000000025Q258.0823432983398,-4.2515,259.0431432983398,-5.9787000000000035Q259.6758432983398,-7.116999999999997,260.33464329833987,-9.595399999999998Q260.50754329833984,-10.245899999999999,260.59874329833985,-10.5659Q261.37814329833986,-13.2984,262.67194329833984,-14.418999999999997Q263.47994329833983,-15.119,264.53314329833984,-15.2301Q265.60174329833984,-15.3429,266.31114329833986,-14.747799999999998Q267.23214329833985,-13.975900000000003,267.1627432983398,-12.4268Q267.10014329833984,-11.030099999999997,266.32074329833983,-9.514000000000003Q263.27554329833987,-3.5929,257.23124329833985,-0.9906999999999968L256.19934329833984,-0.5465000000000018L257.2200432983398,-0.07719999999999771Q259.78234329833987,1.1009000000000029,262.68534329833983,0.9271000000000029Q265.58874329833986,0.753300000000003,267.9870432983398,-0.721899999999998Q270.38414329833984,-2.196300000000001,271.87954329833985,-4.726399999999998Q273.37404329833987,-7.254800000000003,273.53304329833986,-10.101500000000001Q273.54754329833986,-10.361800000000002,273.56024329833986,-10.880200000000002Q273.60164329833987,-12.5796,273.92394329833985,-13.2939Q274.21674329833985,-13.942500000000003,274.8701432983398,-14.248600000000003Q275.4793432983398,-14.533999999999999,275.91664329833986,-14.236699999999999ZM277.5705432983398,-13.253100000000003Q277.20244329833986,-14.571399999999997,276.47914329833986,-15.063400000000001L276.47904329833983,-15.063499999999998Q275.57084329833987,-15.681199999999997,274.44584329833987,-15.1541Q273.45754329833983,-14.691099999999999,273.01244329833986,-13.705199999999998Q272.60694329833984,-12.8063,272.56054329833984,-10.904600000000002Q272.54824329833986,-10.401800000000001,272.53464329833986,-10.157200000000003Q272.38924329833986,-7.553899999999999,271.0187432983398,-5.235199999999999Q269.64924329833985,-2.918300000000002,267.46314329833984,-1.573599999999999Q265.27854329833986,-0.22990000000000066,262.62564329833987,-0.07110000000000127Q260.56454329833986,0.052300000000002456,258.6955432983398,-0.5681000000000012Q264.27554329833987,-3.350999999999999,267.2100432983398,-9.056800000000003Q268.0893432983398,-10.7671,268.16174329833984,-12.381999999999998Q268.25324329833984,-14.424799999999998,266.95384329833985,-15.5139Q265.91914329833986,-16.382,264.4281432983398,-16.2246Q263.0626432983398,-16.0805,262.01724329833985,-15.174900000000001Q260.49824329833984,-13.859200000000001,259.6371432983398,-10.8401Q259.54334329833983,-10.511400000000002,259.3681432983399,-9.8523Q258.74134329833987,-7.494100000000003,258.16924329833984,-6.464799999999997Q256.34044329833984,-3.177100000000003,252.63234329833983,-2.9705000000000013Q249.23614329833984,-2.7813000000000017,247.10834329833983,-5.3359999999999985Q252.63264329833984,-7.824100000000001,256.55054329833985,-12.544800000000002Q257.8427432983398,-14.101300000000002,257.5633432983399,-15.320700000000002Q257.3470432983398,-16.2656,256.38504329833984,-16.7462Q255.52104329833983,-17.1778,254.58544329833984,-16.9897Q253.40744329833984,-16.7529,251.83094329833983,-15.3001Q248.26374329833985,-12.0122,245.11904329833985,-8.316899999999997Q240.04874329833984,-11.914299999999997,236.14524329833984,-16.7992L235.58341029833986,-18.2236Q236.20170329833985,-22.1552,237.02742329833984,-23.9492Q238.45134329833985,-27.043,241.01392329833985,-27.8094Q242.74683329833985,-28.3276,246.49194329833983,-27.3862Q247.09354329833985,-27.2349,247.39334329833986,-27.1635Q252.02694329833986,-26.0599,254.28554329833983,-28.0487L254.65134329833984,-28.3708L254.33864329833983,-28.7447Q251.91324329833984,-31.6451,248.20824329833985,-32.914699999999996Q245.01593329833983,-34.0086,241.86858329833984,-33.551Q243.30955329833984,-36.3059,244.47633329833985,-37.4535Q246.79594329833984,-39.735079999999996,249.29724329833985,-39.11081Q250.55464329833984,-38.79659,252.64094329833983,-36.9308Q252.98444329833984,-36.623599999999996,253.15744329833984,-36.4725Q256.30864329833986,-33.7195,260.1430432983398,-32.1011Q262.58254329833983,-31.0719,263.53834329833984,-32.4897Q264.34444329833985,-33.6862,263.05254329833986,-35.5761Q259.17554329833985,-41.2495,253.10324329833983,-44.18485Q257.2841432983398,-46.31832,259.70564329833985,-46.62827Q261.7578432983398,-46.89094,263.6029432983398,-46.26381Q265.57494329833986,-45.5936,266.64964329833987,-44.09378Q267.61544329833987,-42.74562,268.23534329833984,-39.31006Q268.7954432983398,-36.2061,269.54494329833983,-34.8089Q270.2046432983399,-33.5793,271.43974329833986,-33.016Q272.93664329833985,-32.3332,273.91194329833985,-33.3428Q274.83264329833986,-34.2968,274.36414329833985,-36.42Q273.02334329833985,-42.49483,269.30664329833985,-47.378031Q276.4677432983398,-46.55401,280.40334329833985,-44.3379Q286.03374329833986,-41.16744,286.30754329833985,-35.2207Q286.55304329833984,-29.8905,279.81374329833983,-24.5043L279.20784329833987,-24.0201L279.8989432983399,-23.6682Q285.1851432983398,-20.9763,287.50824329833983,-18.5082Q291.15994329833984,-14.628500000000003,290.5565432983399,-10.309199999999997Q290.21824329833987,-7.8857,288.38974329833985,-5.828000000000003Q286.69204329833985,-3.9174000000000007,284.2014432983398,-2.8241999999999976Q281.26314329833986,-1.5351,275.13254329833984,-1.022199999999998Q276.91224329833983,-3.2704999999999984,277.6432432983398,-6.229999999999997Q278.53134329833983,-9.825800000000001,277.5705432983398,-13.253100000000003Z" fill-rule="evenodd" fill="#000000" fill-opacity="1"/></g><g transform="matrix(0.3901647925376892,0.9207449555397034,-0.9207449555397034,0.3901647925376892,171.52300797267435,-237.2917722058619)"><path d="M310.6312639404297,28.81105029296875C316.4004639404297,27.86975029296875,322.5937639404297,30.21985029296875,326.2863639404297,34.75135029296875C326.49816394042966,30.12255029296875,326.69786394042967,25.38745029296875,325.35526394042967,20.952650292968748C324.01266394042966,16.51780029296875,320.8078639404297,12.36282029296875,316.3272639404297,11.18112729296875C312.4076639404297,10.14762729296875,308.1559639404297,11.56080929296875,304.9276639404297,14.01196029296875C301.69926394042966,16.46374029296875,299.32446394042967,19.85107029296875,297.1124639404297,23.24795029296875C293.6417639404297,17.60789029296875,289.5593639404297,13.34288029296875,283.9529639404297,12.95111029296875C278.34666394042966,12.55933029296875,274.2101039404297,14.92017029296875,270.9506039404297,19.498740292968748C267.6911039404297,24.077350292968752,266.1825139404297,29.65245029296875,265.0313539404297,35.15265029296875C269.7040439404297,32.05405029296875,275.1316639404297,30.10275029296875,280.7074639404297,29.51705029296875C281.87836394042967,29.39425029296875,283.2501639404297,29.41015029296875,283.9898639404297,30.32605029296875C285.19766394042966,31.82185029296875,283.53006394042967,34.01605029296875,281.7473639404297,34.73665029296875C277.8492639404297,36.31205029296875,273.1174639404297,35.06545029296875,269.4585539404297,37.13565029296875C266.3370639404297,38.901850292968746,264.85200324042967,42.73055029296875,264.8971635134297,46.31695029296875C264.9423189404297,49.90335029296875,266.2524739404297,53.33775029296875,267.54546394042967,56.68375029296875C270.5410239404297,51.43675029296875,275.0362639404297,47.05725029296875,280.35956394042967,44.20035029296875C281.3892639404297,43.64765029296875,282.7547639404297,43.18215029296875,283.6368639404297,43.95045029296875C284.6296639404297,44.81535029296875,284.13106394042967,46.43335029296875,283.49316394042967,47.58445029296875C281.7975639404297,50.64365029296875,279.61296394042967,53.43065029296875,277.0472639404297,55.80735029296875C275.4808639404297,57.25935029296875,273.7038639404297,58.65535029296875,272.9648239404297,60.66005029296875C272.0903239404297,63.03235029296875,272.9222139404297,65.76395029296876,274.4600639404297,67.77045029296875C275.9978639404297,69.77705029296875,278.1526639404297,71.20425029296875,280.2654639404297,72.59205029296875C279.6097639404297,66.38525029296875,282.6307639404297,59.92795029296875,287.8160639404297,56.45415029296875C289.46646394042966,58.87285029296875,288.8406639404297,62.14765029296875,287.8573639404297,64.90595029296875C286.8741639404297,67.66425029296875,285.57286394042967,70.51165029296875,286.0765639404297,73.39655029296875C286.53256394042967,76.00475029296875,288.4425639404297,78.17615029296876,290.6939639404297,79.56955029296876C292.9453639404297,80.96305029296875,295.53396394042966,81.69315029296875,298.0836639404297,82.40745029296875L300.2352639404297,81.82165029296876C304.9689639404297,78.81215029296875,309.25946394042967,75.10675029296875,312.9265639404297,70.86145029296875C309.9717639404297,67.67575029296876,307.21916394042967,64.30305029296875,304.68976394042966,60.77005029296875C303.9341639404297,59.71495029296875,303.1735639404297,58.57905029296875,303.0666639404297,57.28545029296875C302.95986394042967,55.99175029296875,303.7656639404297,54.52965029296875,305.0554639404297,54.38395029296875C306.16596394042966,54.25865029296875,307.1345639404297,55.09505029296875,307.9002639404297,55.90975029296875C311.5655639404297,59.80835029296875,314.28576394042966,64.58925029296876,315.7663639404297,69.73125029296875C318.5252639404297,68.17055029296876,320.4040639404297,65.15395029296874,320.5872639404297,61.98855029296875C320.77036394042966,58.82385029296875,319.2535639404297,55.61015029296875,316.6929639404297,53.74095029296875C315.0559639404297,52.54525029296875,313.0913639404297,51.90675029296875,311.2233639404297,51.11935029296875C309.3554639404297,50.33195029296875,307.47866394042967,49.31435029296875,306.3490639404297,47.63025029296875C305.2195639404297,45.94675029296875,305.09236394042966,43.44285029296875,306.5506639404297,42.03475029296875C308.4962639404297,40.15665029296875,311.7588639404297,41.20985029296875,313.9937639404297,42.73245029296875C318.6454639404297,45.90035029296875,322.1536639404297,50.71235029296875,323.74746394042967,56.11005029296875C326.1305639404297,52.11085029296875,326.40916394042966,46.93325029296875,324.4687639404297,42.70185029296875C322.52826394042967,38.47055029296875,318.42296394042967,35.30335029296875,313.83736394042967,34.50005029296875C312.3993639404297,34.248150292968745,310.8678639404297,34.19605029296875,309.62066394042967,33.43665029296875C308.3734639404297,32.677950292968745,307.61476394042967,30.84935029296875,308.5585639404297,29.73515029296875C309.0584639404297,29.14495029296875,309.8693639404297,28.93435029296875,310.6325639404297,28.81035029296875L310.6312639404297,28.81105029296875Z" fill="#FFFFFF" fill-opacity="1"/><path d="M307.9667639404297,29.69775029296875Q308.0594639404297,29.55085029296875,308.17706394042966,29.41195029296875Q308.8734639404297,28.58965029296875,310.5523639404297,28.31685029296875L313.43476394042966,27.84845029296875L312.97596394042966,28.09925029296875Q316.20986394042967,28.04525029296875,319.4149639404297,29.26145029296875Q323.1998639404297,30.69755029296875,325.83986394042967,33.485750292968746Q325.98366394042966,29.81505029296875,325.90416394042967,27.79895029296875Q325.75406394042966,23.99535029296875,324.87676394042967,21.097550292968748Q323.8426639404297,17.68186029296875,321.6423639404297,15.176920292968749Q319.2679639404297,12.47379029296875,316.1997639404297,11.66459629296875Q310.74156394042967,10.22543229296875,305.2299639404297,14.41018029296875Q301.7364639404297,17.06334029296875,297.5314639404297,23.52075029296875L297.1004639404297,24.18255029296875L296.6866639404297,23.50995029296875Q290.79166394042966,13.93022029296875,283.9181639404297,13.44989029296875Q276.2519639404297,12.91417029296875,271.3579339404297,19.78871029296875Q267.8877239404297,24.663250292968748,265.7746599404297,34.083350292968746Q272.6088239404297,29.86505029296875,280.6552639404297,29.01975029296875Q283.3494639404297,28.73735029296875,284.3788639404297,30.01185029296875Q285.4496639404297,31.33805029296875,284.42026394042966,33.076750292968754Q283.5496639404297,34.54745029296875,281.93476394042966,35.20025029296875Q280.0699639404297,35.95385029296875,276.0664639404297,36.21515029296875Q271.5837939404297,36.50775029296875,269.7047739404297,37.57085029296875Q267.60310394042966,38.75995029296875,266.4437939404297,41.254450292968755Q265.3627449404297,43.58055029296875,265.3971229404297,46.31065029296875Q265.43840894042967,49.58965029296875,267.64430394042967,55.53355029296875Q272.2606239404297,47.97945029296875,280.12316394042966,43.75975029296875Q282.6327639404297,42.41275029296875,283.9652639404297,43.57335029296875Q285.5314639404297,44.93785029296875,283.9304639404297,47.82685029296875Q281.3267639404297,52.52455029296875,277.3870639404297,56.17415029296875Q277.1700639404297,56.37535029296875,276.72866394042967,56.77485029296875Q274.02898394042967,59.21895029296875,273.4339639404297,60.83295029296875Q272.2450039404297,64.05835029296875,274.8569139404297,67.46635029296874Q276.2029639404297,69.22265029296875,279.6893639404297,71.60455029296875Q279.49406394042967,67.35455029296875,281.3974639404297,63.28635029296875Q283.53326394042966,58.72155029296875,287.53776394042967,56.03875029296875L287.9496639404297,55.76285029296875L288.2290639404297,56.17235029296875Q290.3785639404297,59.32245029296875,288.3283639404297,65.07385029296876Q288.19426394042966,65.45005029296874,287.91436394042967,66.20545029296875Q286.1568639404297,70.94955029296875,286.5691639404297,73.31055029296874Q287.1804639404297,76.80695029296875,290.9570639404297,79.14445029296876Q293.1339639404297,80.49175029296875,298.0857639404297,81.88865029296875L300.0306639404297,81.35915029296875Q306.8924639404297,76.98415029296875,312.25516394042967,70.87135029296874Q307.9713639404297,66.21255029296876,304.28326394042966,61.06115029296875Q302.6934639404297,58.84115029296875,302.56836394042966,57.32655029296875Q302.4706639404297,56.14275029296875,303.1162639404297,55.13455029296875Q303.8306639404297,54.01905029296875,304.9993639404297,53.88715029296875Q306.5237639404297,53.71515029296875,308.26466394042967,55.56725029296875Q313.7245639404297,61.37485029296875,316.0598639404297,68.96495029296875Q317.65396394042966,67.90655029296875,318.71826394042967,66.19735029296875Q319.95806394042967,64.20635029296875,320.08806394042966,61.95975029296875Q320.2180639404297,59.71315029296875,319.2168639404297,57.59245029296875Q318.2154639404297,55.47145029296875,316.3981639404297,54.14485029296875Q315.1623639404297,53.24215029296875,312.2466639404297,52.07585029296875Q311.4332639404297,51.75045029296875,311.02916394042967,51.58015029296875Q307.3584639404297,50.03275029296875,305.93386394042966,47.90875029296875Q304.9634639404297,46.46255029296875,304.9794639404297,44.72465029296875Q304.9967639404297,42.84005029296875,306.2033639404297,41.67505029296875Q307.7279639404297,40.20335029296875,310.2444639404297,40.614850292968754Q312.25676394042966,40.94395029296875,314.27536394042966,42.31915029296875Q321.1934639404297,47.03055029296875,323.8670639404297,54.83815029296875Q325.0746639404297,52.35795029296875,325.2301639404297,49.46615029296875Q325.4181639404297,45.97165029296875,324.0142639404297,42.91035029296875Q322.6103639404297,39.84895029296875,319.8395639404297,37.711350292968746Q317.0687639404297,35.57365029296875,313.7510639404297,34.99255029296875Q313.44016394042967,34.938050292968754,312.8007639404297,34.847050292968746Q310.4190639404297,34.50815029296875,309.3606639404297,33.863750292968746Q308.2189639404297,33.16915029296875,307.7930639404297,31.87555029296875Q307.3949639404297,30.66645029296875,307.92976394042967,29.75845029296875L307.8241639404297,29.77565029296875L307.9667639404297,29.69775029296875ZM310.6235639404297,29.31895029296875Q309.3823639404297,29.53605029296875,308.9400639404297,30.05825029296875Q308.4413639404297,30.64705029296875,308.7428639404297,31.56285029296875Q309.0535639404297,32.50635029296875,309.8806639404297,33.009550292968754Q310.76356394042966,33.54715029296875,312.9416639404297,33.85705029296875Q313.59686394042967,33.95035029296875,313.9236639404297,34.00755029296875Q317.4842639404297,34.63125029296875,320.45036394042967,36.91955029296875Q323.4164639404297,39.20785029296875,324.9232639404297,42.493450292968745Q326.4299639404297,45.77905029296875,326.2287639404297,49.51985029296875Q326.0274639404297,53.26065029296875,324.17706394042966,56.36595029296875L323.5917639404297,57.34815029296875L323.2679639404297,56.25165029296875Q320.8291639404297,47.99235029296875,313.7122639404297,43.14565029296875Q311.87676394042967,41.89515029296875,310.08306394042967,41.601750292968745Q308.06156394042966,41.27115029296875,306.8979639404297,42.39445029296875Q305.9928639404297,43.26835029296875,305.9794639404297,44.73385029296875Q305.9662639404297,46.16235029296875,306.7643639404297,47.35175029296875Q308.02236394042967,49.22745029296875,311.41756394042966,50.65865029296875Q311.8132639404297,50.82545029296875,312.6180639404297,51.14735029296875Q315.65056394042966,52.36045029296875,316.98776394042966,53.33715029296875Q319.0109639404297,54.81405029296875,320.1211639404297,57.16545029296875Q321.23116394042967,59.51655029296875,321.0863639404297,62.01745029296875Q320.9416639404297,64.51855029296874,319.5671639404297,66.72595029296875Q318.1928639404297,68.93305029296874,316.0125639404297,70.16645029296875L315.4611639404297,70.47835029296874L315.2858639404297,69.86965029296874Q313.0552639404297,62.12285029296875,307.53596394042967,56.25215029296875Q306.1381639404297,54.76495029296875,305.1115639404297,54.88085029296875Q304.41596394042966,54.95935029296875,303.9583639404297,55.67385029296875Q303.4950639404297,56.39735029296875,303.56496394042966,57.24425029296875Q303.6673639404297,58.48355029296875,305.0963639404297,60.47895029296875Q308.8784639404297,65.76185029296875,313.2931639404297,70.52145029296875L313.59756394042967,70.84965029296875L313.3049639404297,71.18835029296875Q307.7165639404297,77.65775029296876,300.5034639404297,82.24355029296875L300.4395639404297,82.28425029296875L298.0817639404297,82.92615029296876L297.94876394042967,82.88885029296875Q292.7570639404297,81.43455029296875,290.4308639404297,79.99475029296875Q286.2726639404297,77.42115029296875,285.5840639404297,73.48255029296875Q285.1253639404297,70.85545029296875,286.9766639404297,65.85805029296876Q287.25426394042967,65.10885029296875,287.3864639404297,64.73805029296875Q289.1225639404297,59.86765029296875,287.66526394042967,57.16685029296875Q284.2047639404297,59.64595029296875,282.3032639404297,63.71015029296875Q280.2855639404297,68.02275029296875,280.76266394042966,72.53945029296875L280.8736639404297,73.58965029296874L279.9909639404297,73.00995029296875Q275.6708639404297,70.17235029296876,274.0632039404297,68.07465029296876Q271.11618394042966,64.22935029296875,272.4956939404297,60.48705029296875Q273.1757039404297,58.64245029296875,276.0575639404297,56.03355029296875Q276.4943639404297,55.63815029296875,276.7075639404297,55.44055029296875Q280.5297639404297,51.89965029296875,283.0558639404297,47.34215029296875Q284.2647639404297,45.16055029296875,283.3085639404297,44.32745029296875Q282.4969639404297,43.62065029296875,280.5960639404297,44.64095029296875Q272.5230739404297,48.97345029296875,267.9796839404297,56.93165029296875L267.4582039404297,57.84505029296875L267.0790839404297,56.86395029296875Q264.4440639404297,50.04505029296875,264.3972019404297,46.32325029296875Q264.3599579404297,43.36545029296875,265.5369429404297,40.83295029296875Q266.8314539404297,38.047650292968754,269.2123339404297,36.70045029296875Q271.2904339404297,35.52475029296875,276.0013639404297,35.21725029296875Q279.8443639404297,34.96645029296875,281.55996394042967,34.27315029296875Q282.86136394042967,33.74705029296875,283.55976394042966,32.567350292968754Q284.23546394042967,31.42605029296875,283.6008639404297,30.64015029296875Q282.9130639404297,29.78855029296875,280.7597639404297,30.01425029296875Q272.3528739404297,30.89745029296875,265.3076829404297,35.56935029296875L264.2923929404297,36.24255029296875L264.5419579404297,35.05015029296875Q266.7391039404297,24.55245029296875,270.54328394042966,19.208760292968748Q275.7623639404297,11.87753029296875,283.9878639404297,12.45232029296875Q291.1257639404297,12.95112029296875,297.1225639404297,22.32325029296875Q301.17526394042966,16.233890292968752,304.6252639404297,13.61373029296875Q307.2573639404297,11.61526929296875,310.2373639404297,10.80722609296875Q313.5074639404297,9.92051929296875,316.4547639404297,10.69765929296875Q319.8179639404297,11.58464529296875,322.39376394042966,14.51698029296875Q324.7369639404297,17.18472029296875,325.8338639404297,20.80776029296875Q326.7482639404297,23.82805029296875,326.9033639404297,27.75955029296875Q326.9975639404297,30.14725029296875,326.7858639404297,34.77415029296875L326.7260639404297,36.082350292968755L325.8987639404297,35.06715029296875Q323.21416394042967,31.77255029296875,319.0601639404297,30.19635029296875Q314.9062639404297,28.62015029296875,310.7117639404297,29.30455029296875L310.6235639404297,29.31895029296875Z" fill-rule="evenodd" fill="#000000" fill-opacity="1"/></g><g><rect x="268.39351654052734" y="122.82283020019531" width="51.9580192565918" height="8.496959686279297" rx="0" fill="#000000" fill-opacity="1"/></g><g><path d="M272.25911712646484,129.7571563720703L278.21970712646487,162.20335637207032L310.52341712646484,162.20335637207032L316.32251712646485,129.7571563720703L272.25911712646484,129.7571563720703Z" fill="#000000" fill-opacity="1"/></g><g style="opacity:0.30000001192092896;"><path d="M272.54659271240234,131.3197784423828L315.9732927124023,131.3197784423828L315.3550927124023,135.1713984423828L273.2538247124023,135.1713984423828L272.54659271240234,131.3197784423828Z" fill="#000000" fill-opacity="1"/></g><g style="opacity:0.30000001192092896;"><path d="M276.6074447631836,138.01564025878906L281.53644476318357,159.70384025878906Q289.3662447631836,160.54914025878907,289.4648447631836,159.70384025878906Q289.5634447631836,158.85864025878905,285.4433947631836,138.01564025878906L276.6074447631836,138.01564025878906L276.6074447631836,138.01564025878906Z" fill="#FFFFFF" fill-opacity="1"/></g><g><path d="M289.92402040771486,15.652984619140625C289.15700040771486,19.385674619140623,290.4588904077148,23.075744619140625,293.38449040771485,25.514164619140622C289.2180524077148,24.673374619140624,287.20257040771486,18.913124619140625,289.92402040771486,15.652984619140625Z" fill="#FFFFFF" fill-opacity="1"/></g></g><g><path d="M275.30886103515627,105.72646921875Q281.30336103515623,110.61995921875,284.5139610351562,123.95614921875L285.4861610351563,123.72204921875Q282.19676103515627,110.05834921875,275.94126103515623,104.95180921875Q269.59047103515627,99.76749921875,260.31884003515626,103.37309821875L260.68128203515624,104.30510921875Q269.40967103515624,100.91077921875,275.30886103515627,105.72646921875Z" fill-rule="evenodd" fill="#000000" fill-opacity="1"/></g><g><path d="M297.04946103515624,62.555729687500005Q306.49326103515625,82.1891296875,304.00096103515625,124.3094296875L304.99916103515625,124.3685296875Q307.50656103515627,81.9892296875,297.95066103515626,62.122229687499996Q288.29436103515627,42.0472796875,266.4366227351563,44.8431016875L266.5634993351562,45.8350196875Q287.70586103515626,43.1306996875,297.04946103515624,62.555729687500005Z" fill-rule="evenodd" fill="#000000" fill-opacity="1"/></g><g><path d="M305.3868109375,27.85205629296875Q283.4718609375,32.94843029296875,290.0013209375,126.87375029296875L290.9989109375,126.80435029296875Q284.5285609375,33.72837029296875,305.6134109375,28.82606429296875L305.3868109375,27.85205629296875Z" fill-rule="evenodd" fill="#000000" fill-opacity="1"/></g><g><path d="M305.37706103515626,56.8809903125Q291.7640110351563,72.1324703125,288.00143403515625,122.8019703125L288.99868803515625,122.8759703125Q292.73612103515626,72.54527031250001,306.12306103515624,57.5468803125Q319.29416103515626,42.7903803125,342.17166103515626,62.7159703125L342.82846103515624,61.9619703125Q319.20596103515624,41.3874503125,305.37706103515626,56.8809903125Z" fill-rule="evenodd" fill="#000000" fill-opacity="1"/></g><g><path d="M334.21906103515624,100.38952333984375Q314.2870610351562,90.67897333984375,296.05961403515624,124.60237333984375L296.94050803515626,125.07567333984375Q314.7130610351563,91.99880333984375,333.78106103515626,101.28851333984375L334.21906103515624,100.38952333984375Z" fill-rule="evenodd" fill="#000000" fill-opacity="1"/></g><g><path d="M261.66318303515624,-3.79147270703125Q295.50596103515625,27.06565029296875,298.00026103515626,124.35205029296876L298.99986103515624,124.32605029296874Q296.49416103515625,26.61245029296875,262.33693903515626,-4.53042670703125L261.66318303515624,-3.79147270703125Z" fill-rule="evenodd" fill="#000000" fill-opacity="1"/></g></g><g><g><rect x="155" y="136" width="4" height="4" rx="2" fill="#000000" fill-opacity="1"/></g><g style="opacity:0.4000000059604645;"><rect x="169" y="136" width="4" height="4" rx="2" fill="#000000" fill-opacity="1"/></g></g></g></g></svg>