<svg xmlns="http://www.w3.org/2000/svg" xmlns:xlink="http://www.w3.org/1999/xlink" fill="none" version="1.1" width="185.545654296875" height="210.20330810546875" viewBox="0 0 185.545654296875 210.20330810546875"><g><g><path d="M76.3088,153.72646921875Q82.30330000000001,158.61995921875,85.5139,171.95614921875L86.4861,171.72204921875Q83.19669999999999,158.05834921875,76.9412,152.95180921875Q70.59041,147.76749921875,61.318779,151.37309821875L61.681221,152.30510921875Q70.40961,148.91077921875,76.3088,153.72646921875Z" fill-rule="evenodd" fill="#588E7E" fill-opacity="1"/></g><g><path d="M98.04939999999999,110.5557296875Q107.4932,130.18912968749999,105.0009,172.3094296875L105.9991,172.3685296875Q108.5065,129.9892296875,98.95060000000001,110.1222296875Q89.29429999999999,90.0472796875,67.4365617,92.8431016875L67.5634383,93.8350196875Q88.7058,91.1306996875,98.04939999999999,110.5557296875Z" fill-rule="evenodd" fill="#588E7E" fill-opacity="1"/></g><g><path d="M106.3868109375,75.85205629296875Q84.4718609375,80.94843029296875,91.0013209375,174.87375029296874L91.9989109375,174.80435029296876Q85.5285609375,81.72837029296875,106.61341093749999,76.82606429296875L106.3868109375,75.85205629296875Z" fill-rule="evenodd" fill="#588E7E" fill-opacity="1"/></g><g><path d="M106.377,104.8809903125Q92.76395,120.1324703125,89.001373,170.8019703125L89.998627,170.8759703125Q93.73606,120.54527031250001,107.123,105.5468803125Q120.2941,90.7903803125,143.1716,110.7159703125L143.8284,109.9619703125Q120.2059,89.3874503125,106.377,104.8809903125Z" fill-rule="evenodd" fill="#588E7E" fill-opacity="1"/></g><g><path d="M135.219,148.38952333984375Q115.287,138.67897333984376,97.059553,172.60237333984375L97.940447,173.07567333984375Q115.713,139.99880333984376,134.781,149.28851333984375L135.219,148.38952333984375Z" fill-rule="evenodd" fill="#588E7E" fill-opacity="1"/></g><g><path d="M62.663122,44.20852729296875Q96.5059,75.06565029296875,99.0002,172.35205029296876L99.9998,172.32605029296874Q97.4941,74.61245029296875,63.336878,43.46957329296875L62.663122,44.20852729296875Z" fill-rule="evenodd" fill="#588E7E" fill-opacity="1"/></g><g><path d="M139.457299609375,116.37260722656251C136.440119609375,117.1759072265625,133.919019609375,119.6493072265625,133.084579609375,122.6245072265625C131.992569609375,120.4519072265625,130.884014609375,118.2259072265625,130.592091209375,115.8078072265625C130.300167609375,113.3898072265625,130.977508609375,110.7014072265625,132.912219609375,109.1610172265625C134.605249609375,107.8133372265625,136.981979609375,107.5659272265625,139.081409609375,108.03910722656249C141.18079960937501,108.5122772265625,143.063399609375,109.6195572265625,144.868999609375,110.7662672265625C145.358699609375,107.3077072265625,146.440599609375,104.3757372265625,149.093299609375,102.9689042265625C151.746099609375,101.5620682265625,154.269699609375,101.7935812265625,156.838499609375,103.2792772265625C159.407299609375,104.7649672265625,161.334399609375,107.1092672265625,163.070699609375,109.4955272265625C160.127899609375,109.0261572265625,157.062399609375,109.2716672265625,154.214999609375,110.2034072265625C153.617199609375,110.3992972265625,152.950699609375,110.7052072265625,152.785299609375,111.3049572265625C152.514999609375,112.28440722656251,153.797799609375,112.9738072265625,154.821799609375,112.9318072265625C157.061099609375,112.8390072265625,159.104599609375,111.2127372265625,161.332499609375,111.4092572265625C163.233499609375,111.5771672265625,164.77579960937499,113.0889072265625,165.519899609375,114.81820722656249C166.263999609375,116.54680722656249,166.357499609375,118.4784072265625,166.440899609375,120.3628072265625C163.85809960937502,118.4994072265625,160.728899609375,117.3775072265625,157.519699609375,117.1657072265625C156.898999609375,117.1250072265625,156.133199609375,117.1987072265625,155.866699609375,117.7584072265625C155.566499609375,118.3887072265625,156.155499609375,119.0559072265625,156.713199609375,119.4693072265625C158.194499609375,120.5670072265625,159.855699609375,121.4275072265625,161.615499609375,122.0088072265625C162.690399609375,122.3637072265625,163.85619960937498,122.6467072265625,164.644799609375,123.4468072265625C165.578399609375,124.3938072265625,165.75529960937502,125.8840072265625,165.433399609375,127.1801072265625C165.111599609375,128.4763072265625,164.364299609375,129.6287072265625,163.629099609375,130.75380722656251C162.623599609375,127.6361072265625,159.769899609375,125.1977072265625,156.496999609375,124.66030722656251C156.207599609375,126.1784072265625,157.21249960937502,127.6126072265625,158.281599609375,128.7205072265625C159.350699609375,129.82910722656248,160.594099609375,130.9109072265625,160.964299609375,132.4030072265625C161.298799609375,133.7526072265625,160.830099609375,135.20840722656249,160.028699609375,136.3659072265625C159.227399609375,137.52340722656248,158.119399609375,138.4367072265625,157.027399609375,139.33340722656249L155.852099609375,139.5204072265625C152.898499609375,139.1070072265625,150.01299960937502,138.2643072265625,147.316299609375,137.0267072265625C148.078299609375,134.8573072265625,148.701499609375,132.6421072265625,149.181699609375,130.3983072265625C149.324799609375,129.7279072265625,149.45389960937501,129.0182072265625,149.229399609375,128.3752072265625C149.005599609375,127.73220722656251,148.299599609375,127.2062072265625,147.639399609375,127.4167072265625C147.070199609375,127.5980072265625,146.776399609375,128.2098072265625,146.576699609375,128.7669072265625C145.620099609375,131.4330072265625,145.312899609375,134.3160072265625,145.688799609375,137.1030072265625C144.008499609375,136.9548072265625,142.447099609375,135.9175072265625,141.681999609375,134.4407072265625C140.916899609375,132.9633072265625,140.97099960937499,131.0934072265625,141.821899609375,129.6402072265625C142.36569960937499,128.71100722656251,143.188099609375,127.9776072265625,143.932199609375,127.1941072265625C144.676299609375,126.4105072265625,145.374599609375,125.5144072265625,145.566699609375,124.4618072265625C145.758099609375,123.4093072265625,145.286199609375,122.18120722656249,144.273099609375,121.8237072265625C142.922199609375,121.3467072265625,141.554799609375,122.5608072265625,140.789099609375,123.7769072265625C139.195259609375,126.3069072265625,138.510289609375,129.37620722656249,138.884889609375,132.3101072265625C136.867499609375,130.9115072265625,135.626029609375,128.4903072265625,135.669269609375,126.0398072265625C135.712509609375,123.58920722656251,137.040489609375,121.1782072265625,139.106849609375,119.7962072265625C139.754929609375,119.3624072265625,140.491419609375,119.0043072265625,140.937899609375,118.3696072265625C141.384399609375,117.7349072265625,141.364699609375,116.6931072265625,140.665699609375,116.3643072265625C140.295539609375,116.1900072265625,139.854789609375,116.2657072265625,139.456019609375,116.3719072265625L139.457299609375,116.37260722656251Z" fill="#00C78B" fill-opacity="1"/></g><g><path d="M66.1998,160.625111328125C68.6917,162.507011328125,70.0941,165.748111328125,69.7462,168.818011328125C71.5766,167.217211328125,73.4426,165.573211328125,74.6243,163.443811328125C75.806,161.314511328125,76.1927,158.568911328125,74.9811,156.412911328125C73.92150000000001,154.526511328125,71.8125,153.401411328125,69.6902,153.047811328125C67.5672,152.694211328125,65.4061,153.010311328125,63.3016,153.392511328125C64.1519,150.004531328125,64.255,146.881131328125,62.3279,144.577551328125C60.400800000000004,142.274595328125,57.9764,141.538113328125,55.037400000000005,141.945784328125C52.0985,142.353454328125,49.4298,143.798451328125,46.92142,145.354111328125C49.823499999999996,146.028911328125,52.571,147.411561328125,54.8568,149.348191328125C55.337,149.754601328125,55.8388,150.289481328125,55.7656,150.907661328125C55.646699999999996,151.917011328125,54.198499999999996,152.071511328125,53.2662,151.646681328125C51.2271,150.716851328125,49.9475,148.439981328125,47.80927,147.782361328125C45.98522,147.221411328125,43.98628,148.039941328125,42.64559,149.360901328125C41.3049,150.681871328125,40.49019,152.435311328125,39.70218,154.149311328125C42.79696,153.396911328125,46.11815,153.537511328125,49.1703,154.551311328125C49.7605,154.747211328125,50.4423,155.104611328125,50.4779,155.723411328125C50.518,156.420511328125,49.7211,156.816711328125,49.0495,156.989111328125C47.26423,157.447011328125,45.40075,157.618111328125,43.55126,157.493411328125C42.42172,157.417111328125,41.23558,157.239611328125,40.20335,157.683611328125C38.981597,158.208911328125,38.255922,159.522211328125,38.0657583,160.844511328125C37.875594,162.166711328125,38.133174,163.515711328125,38.389482,164.834711328125C40.49591,162.326411328125,44.05815,161.143411328125,47.29221,161.879311328125C46.98757,163.394811328125,45.5165,164.343811328125,44.10839,164.967011328125C42.70029,165.590311328125,41.14082,166.123911328125,40.23579,167.366711328125C39.41726,168.490511328125,39.30278,170.015611328125,39.60869,171.390011328125C39.91461,172.764411328125,40.5964,174.027511328125,41.26993,175.269611328125L42.28816,175.885911328125C45.17942,176.616611328125,48.1699,176.923811328125,51.1336,176.79411132812498C51.245599999999996,174.497511328125,51.5032,172.210411328125,51.9045,169.951411328125C52.024,169.276611328125,52.1729,168.570611328125,52.6225,168.059311328125C53.0722,167.547911328125,53.9244,167.327211328125,54.4567,167.771211328125C54.9153,168.153411328125,54.957300000000004,168.831411328125,54.932500000000005,169.422211328125C54.813500000000005,172.251811328125,54.0109,175.038111328125,52.613,177.477811328125C54.2252,177.97391132812498,56.062,177.601811328125,57.3277,176.521911328125C58.5933,175.442011328125,59.248400000000004,173.689811328125,59.007999999999996,172.023511328125C58.8541,170.957511328125,58.3688,169.968611328125,57.9757,168.962411328125C57.582,167.956211328125,57.272999999999996,166.863011328125,57.4924,165.815511328125C57.7118,164.768011328125,58.6124,163.808911328125,59.6847,163.859811328125C61.115700000000004,163.927211328125,61.9247,165.567411328125,62.1759,166.981911328125C62.6987,169.926611328125,62.1759,173.027111328125,60.7226,175.603511328125C63.1184,175.068611328125,65.181,173.29421132812502,66.0644,171.007811328125C66.9478,168.721311328125,66.6272,165.988411328125,65.2338,163.929111328125C64.7968,163.283511328125,64.2499,162.673611328125,64.07560000000001,161.917411328125C63.9013,161.16061132812501,64.3122,160.204011328125,65.083,160.162711328125Q65.4913,160.141111328125,65.9152,160.157711328125L66.1998,160.625111328125Z" fill="#00C78B" fill-opacity="1"/></g><g><path d="M102.50176640625,66.93294755859375C98.41414640625,64.88314755859375,95.56740640625,60.553847558593745,95.30664640625,55.988647558593755C93.04947640625,58.82454755859375,90.75097640625,61.733647558593745,89.56738240625,65.15974755859375C88.38378640625,68.58594755859374,88.50907740625,72.68874755859375,90.80630640625,75.49224755859376C92.81607640625,77.94464755859374,96.15824640625,78.99974755859375,99.32866640625,78.92664755859374C102.49916640625,78.85344755859376,105.55766640625001,77.79644755859374,108.51696640624999,76.65864755859374C108.12906640625,81.82484755859375,108.75996640625,86.39964755859376,112.13266640625,89.21904755859376C115.50536640625,92.03844755859376,119.21006640625001,92.43974755859375,123.37456640625,91.03354755859375C127.53976640625001,89.62734755859375,131.05306640625,86.78694755859375,134.30556640625,83.82894755859374C129.92346640625,83.64894755859375,125.58916640625,82.39604755859375,121.78716640625001,80.21004755859374C120.98896640625,79.75084755859375,120.12656640624999,79.11174755859375,120.07816640625,78.19204755859374C119.99866640625,76.69044755859375,122.06256640625,76.06464755859375,123.52216640625,76.42524755859375C126.71486640625,77.21454755859375,129.14116640625,80.17504755859375,132.40956640625,80.54144755859375C135.19786640625,80.85374755859375,137.89506640625,79.10914755859375,139.51116640625,76.81574755859376C141.12726640625,74.52234755859375,141.87266640625,71.74494755859375,142.58816640625,69.03234755859376C138.28366640625,70.98364755859376,133.42596640624998,71.69654755859375,128.74246640625,71.06564755859375C127.83616640625,70.94354755859375,126.75746640625,70.61224755859375,126.55076640625,69.72114755859374C126.31796640625001,68.71814755859376,127.37626640625,67.92124755859375,128.30866640624998,67.48434755859375C130.78586640625,66.32364755859375,133.44886640625,65.55984755859375,136.16456640625,65.23034755859375C137.82326640625,65.02874755859375,139.58936640625,64.95874755859376,140.97716640625,64.02764755859374C142.61926640625,62.925447558593746,143.34496640625,60.81334755859375,143.29096640625,58.83604755859375C143.23686640625,56.85874755859375,142.52576640625,54.966547558593746,141.82366640625,53.11774755859375C139.39226640625,57.35154755859375,134.51606640625,60.057747558593746,129.63726640625,59.880947558593746C129.70086640625,57.59134755859375,131.59936640625,55.80294755859375,133.48766640625,54.50614755859375C135.37586640625,53.20934755859375,137.50646640625,52.00154755859375,138.51006640625,49.94284755859375C139.41766640625,48.08064755859375,139.20336640624998,45.82917755859375,138.41536640625,43.91354755859375C137.62796640625,41.99792755859375,136.32226640625,40.34750755859375,135.03436640625,38.72570155859375L133.40236640625,38.11005255859375C129.02226640625,37.84611655859375,124.60396640625001,38.22580855859375,120.33326640625,39.23450755859375C120.74406640625,42.60847755859375,120.94186640625,46.00789755859375,120.92406640625,49.40664755859375C120.91896640625001,50.42174755859375,120.87956640625,51.49024755859375,120.35426640625,52.35904755859375C119.82886640625,53.22774755859375,118.64716640625,53.78494755859375,117.76316640625001,53.28564755859375C117.00186640625,52.85574755859375,116.77166640625,51.88134755859375,116.66036640625,51.01384755859375C116.12606640625,46.86204755859375,116.59486640624999,42.58494755859375,118.01506640625,38.64747355859375C115.55056640625,38.37081455859375,112.97666640625,39.42084755859375,111.40886640625,41.34220755859375C109.84116640625,43.26355755859375,109.32856640625,45.99581755859375,110.09366640625001,48.35474755859375C110.58276640625,49.86334755859375,111.53486640625,51.169047558593746,112.35716640625,52.52504755859375C113.18016640625,53.880947558593746,113.90206640625,55.386347558593755,113.84546640625,56.971247558593745C113.78876640625,58.55614755859375,112.72096640625,60.20084755859375,111.15136640624999,60.424147558593745C109.05696640625,60.72174755859375,107.47336640625,58.55804755859375,106.75466640625,56.56804755859375C105.26006640625,52.42704755859375,105.24416640625,47.76897755859375,106.70946640625,43.61781755859375C103.36546640625,45.05899755859375,100.81376640625,48.21224755859375,100.10276640625,51.78344755859375C99.39166640625,55.35454755859375,100.54026640625,59.24494755859375,103.07726640625,61.85704755859375C103.87296640625,62.676147558593755,104.81926640625,63.41204755859375,105.26136640625,64.46464755859375C105.70336640625,65.51724755859375,105.34526640625,67.02384755859376,104.23676640625,67.29734755859374C103.64906640625,67.44234755859375,103.03916640625,67.20324755859374,102.49796640625,66.93234755859375L102.50176640625,66.93294755859375Z" fill="#00C78B" fill-opacity="1"/></g><g><path d="M146.745898828125,142.78628056640625C148.169198828125,138.41700056640624,152.406298828125,135.22301056640626,157.456098828125,134.71229056640624C153.804798828125,132.50601056640625,150.063198828125,130.26093056640624,145.980798828125,129.20517156640625C141.897598828125,128.14940856640624,137.336198828125,128.49349456640624,134.689198828125,131.03557056640625C132.373498828125,133.25967056640624,131.904798828125,136.79963056640625,132.659698828125,140.10238056640625C133.414698828125,143.40448056640625,135.246998828125,146.53938056640624,137.148598828125,149.56668056640626C131.289158828125,149.43128056640626,126.306738828125,150.32798056640624,123.870858828125,153.99198056640626C121.434977828125,157.65598056640624,121.772697828125,161.54008056640626,124.230828828125,165.81078056640627C126.688978828125,170.08088056640625,130.611818828125,173.59738056640626,134.610998828125,176.83458056640626C133.880898828125,172.25538056640625,134.360398828125,167.66988056640625,135.996798828125,163.59118056640625C136.34029882812501,162.73448056640626,136.872598828125,161.80208056640623,137.890798828125,161.70358056640626C139.553298828125,161.54258056640626,140.691798828125,163.66178056640626,140.598298828125,165.20278056640626C140.394098828125,168.57358056640624,137.598898828125,171.25818056640625,137.883798828125,174.68558056640626C138.126798828125,177.60928056640626,140.651098828125,180.33138056640627,143.55949882812502,181.89718056640623C146.467298828125,183.46368056640625,149.731898828125,184.09518056640624,152.917598828125,184.70008056640626C149.820898828125,180.31288056640625,147.991198828125,175.28408056640626,147.701098828125,170.36708056640626C147.645198828125,169.41568056640625,147.78639882812502,168.27338056640625,148.739098828125,168.01198056640624C149.811398828125,167.71758056640624,150.92759882812499,168.77898056640623,151.614398828125,169.72858056640627C153.439098828125,172.25158056640623,154.859298828125,174.98898056640624,155.80509882812498,177.80388056640624C156.382498828125,179.52298056640626,156.836598828125,181.36168056640625,158.172198828125,182.76018056640623C159.753998828125,184.41508056640626,162.26999882812498,185.06188056640624,164.469298828125,184.90288056640625C166.668598828125,184.74388056640623,168.633798828125,183.90378056640625,170.551998828125,183.07508056640626C165.300498828125,180.75998056640626,161.237798828125,175.81578056640626,160.398898828125,170.71878056640625C162.972798828125,170.66608056640627,165.37619882812498,172.55238056640624,167.227598828125,174.45408056640625C169.078998828125,176.35568056640625,170.882698828125,178.51488056640625,173.398698828125,179.45428056640625C175.673698828125,180.30398056640627,178.146498828125,179.96248056640624,180.121198828125,179.04148056640625C182.095998828125,178.11998056640624,183.663798828125,176.67308056640624,185.20419882812502,175.24528056640625L185.545698828125,173.51148056640625C184.910298828125,168.92978056640624,183.546098828125,164.34228056640626,181.510898828125,159.94118056640625C177.825298828125,160.54598056640626,174.065198828125,160.92888056640624,170.260698828125,161.08788056640626C169.124198828125,161.13498056640626,167.920898828125,161.15018056640625,166.83769882812499,160.64708056640626C165.75459882812498,160.14468056640624,164.880798828125,158.94138056640625,165.250898828125,157.99308056640626C165.570198828125,157.17648056640624,166.610698828125,156.88578056640625,167.557098828125,156.72428056640626C172.086698828125,155.95088056640625,176.969198828125,156.21678056640624,181.674398828125,157.49318056640624C181.459998828125,154.90848056640624,179.738398828125,152.27928056640624,177.256698828125,150.74458056640626C174.774998828125,149.20998056640624,171.61089882812502,148.81758056640626,169.134998828125,149.73848056640625C167.551998828125,150.32738056640625,166.29399882812498,151.38758056640626,164.952598828125,152.31618056640625C163.611298828125,153.24478056640623,162.081098828125,154.07668056640625,160.296498828125,154.10018056640627C158.511898828125,154.12368056640625,156.44549882812498,153.09588056640627,155.862298828125,151.47028056640625C155.084498828125,149.30158056640624,157.167398828125,147.53728056640625,159.24009882812499,146.68438056640625C163.553398828125,144.90998056640626,168.759098828125,144.65048056640626,173.712898828125,145.96258056640625C171.390898828125,142.54978056640624,167.32239882812502,140.05348056640625,163.176898828125,139.49818056640626C159.031498828125,138.94298056640625,154.926098828125,140.34348056640624,152.543698828125,143.12538056640625C151.796998828125,143.99798056640626,151.174998828125,145.02318056640624,150.091898828125,145.53898056640625C149.008798828125,146.05478056640624,147.247698828125,145.76028056640627,146.706398828125,144.61808056640626C146.419598828125,144.01258056640626,146.556998828125,143.36448056640626,146.745898828125,142.78628056640625L146.745898828125,142.78628056640625Z" fill="#00C78B" fill-opacity="1"/></g><g transform="matrix(0.8631438612937927,0.5049580931663513,-0.5049580931663513,0.8631438612937927,5.714863470180717,-19.08613166165742)"><path d="M80.0889814453125,35.8814C81.3228814453125,40.2825,80.08328144531251,45.3012,76.9553814453125,48.5683C80.5068814453125,48.3267,84.1377814453125,48.0659,87.4023814453125,46.6336C90.6669814453125,45.2007,93.5511814453125,42.3457,94.0517814453125,38.7599C94.48998144531251,35.6232,93.0315814453125,32.443200000000004,90.8723814453125,30.1491C88.7131814453125,27.8551,85.9160814453125,26.3071,83.1258814453125,24.8862C87.1199814453125,21.6942,90.0092814453125,18.1472,89.80708144531249,13.7562C89.6048814453125,9.3653,87.43348144531251,6.35766,83.64868144531249,4.226430000000001C79.8638814453125,2.09519,75.4741814453125,1.412125,71.1741814453125,1C73.9566814453125,4.35935,75.93088144531251,8.40558,76.8758814453125,12.6878C77.0743814453125,13.5871,77.1849814453125,14.6543,76.5521814453125,15.31C75.5186814453125,16.3798,73.6946814453125,15.2763,72.9854814453125,13.9547C71.4349814453125,11.0641,71.96348144531251,7.27733,70.0560814453125,4.61503C68.42918144531251,2.3445,65.3751814453125,1.525979,62.6422814453125,1.8757709999999999C59.909381445312505,2.2255700000000003,57.4053814453125,3.54527,54.9682814453125,4.84335C59.2396814453125,6.71065,62.9837814453125,9.81941,65.6396814453125,13.706C66.1535814453125,14.4578,66.6305814453125,15.4785,66.1236814453125,16.2309C65.5525814453125,17.0781,64.2735814453125,16.833199999999998,63.3373814453125,16.438299999999998C60.8512814453125,15.3889,58.5292814453125,13.9356,56.4863814453125,12.151C55.238581445312505,11.0609,54.0142814453125,9.80288,52.4185814453125,9.40411C50.5302814453125,8.93283,48.5198814453125,9.81877,47.1257614453125,11.19C45.7316514453125,12.5612,44.8355214453125,14.3611,43.9648414453125,16.1247C48.6425814453125,15.0702,53.8406814453125,16.8517,56.955181445312505,20.5761C55.256981445312505,22.0713,52.7015814453125,21.8722,50.509281445312496,21.3501C48.3163814453125,20.8279,46.0273814453125,20.0666,43.8707114453125,20.7115C41.9207314453125,21.2948,40.4350414453125,22.9693,39.5732614453125,24.8417C38.7114774453125,26.7141,38.3852084453125,28.7894,38.0684814453125,30.8335L38.7076604453125,32.454C41.4272014453125,35.8687,44.6383614453125,38.8776,48.2056814453125,41.3548C50.3725814453125,38.779,52.7002814453125,36.3438,55.1698814453125,34.0675C55.907681445312505,33.3877,56.706481445312505,32.697,57.6839814453125,32.5004C58.6614814453125,32.3039,59.849581445312495,32.8019,60.0759814453125,33.7909C60.271281445312496,34.6431,59.7191814453125,35.4693,59.1658814453125,36.1358C56.5181814453125,39.326,53.1130814453125,41.8605,49.321181445312504,43.4619C50.7591814453125,45.4691,53.2287814453125,46.6642,55.6602814453125,46.5287C58.0916814453125,46.3932,60.4079814453125,44.9323,61.6061814453125,42.7782C62.3719814453125,41.4006,62.684181445312504,39.8183,63.117981445312495,38.297C63.5516814453125,36.7763,64.1609814453125,35.2283,65.3445814453125,34.203C66.5281814453125,33.1778,68.4279814453125,32.8585,69.6324814453125,33.8691C71.2396814453125,35.2162,70.7270814453125,37.8441,69.7654814453125,39.7146C67.7632814453125,43.6076,64.4058814453125,46.7564,60.4289814453125,48.4685C63.6935814453125,49.9695,67.6697814453125,49.7316,70.7251814453125,47.8522C73.7804814453125,45.9729,75.8309814453125,42.5041,76.0338814453125,38.8706C76.0974814453125,37.7309,76.0007814453125,36.5365,76.4682814453125,35.5005C76.9356814453125,34.4651,78.2636814453125,33.7146,79.19798144531251,34.3499C79.6933814453125,34.687,79.9261814453125,35.2982,80.0889814453125,35.8814L80.0889814453125,35.8814Z" fill="#00C78B" fill-opacity="1"/></g><g transform="matrix(0.3901647925376892,0.9207449555397034,-0.9207449555397034,0.3901647925376892,96.50202145077856,-26.02316104615238)"><path d="M113.631340234375,77.81105029296876C119.400540234375,76.86975029296875,125.593840234375,79.21985029296874,129.286440234375,83.75135029296875C129.498240234375,79.12255029296875,129.69794023437498,74.38745029296875,128.355340234375,69.95265029296876C127.012740234375,65.51780029296874,123.807940234375,61.36282029296875,119.327340234375,60.18112729296875C115.407740234375,59.14762729296875,111.156040234375,60.56080929296875,107.927740234375,63.01196029296875C104.699340234375,65.46374029296875,102.32454023437501,68.85107029296876,100.11254023437499,72.24795029296875C96.641840234375,66.60789029296875,92.559440234375,62.34288029296875,86.953040234375,61.95111029296875C81.346740234375,61.55933029296875,77.210180234375,63.92017029296875,73.950680234375,68.49874029296875C70.691180234375,73.07735029296875,69.182590234375,78.65245029296875,68.031430234375,84.15265029296876C72.704120234375,81.05405029296875,78.131740234375,79.10275029296875,83.707540234375,78.51705029296875C84.878440234375,78.39425029296875,86.250240234375,78.41015029296875,86.989940234375,79.32605029296874C88.197740234375,80.82185029296875,86.530140234375,83.01605029296874,84.747440234375,83.73665029296875C80.849340234375,85.31205029296875,76.117540234375,84.06545029296875,72.458630234375,86.13565029296875C69.337140234375,87.90185029296875,67.852079534375,91.73055029296876,67.897239807375,95.31695029296876C67.942395234375,98.90335029296875,69.252550234375,102.33775029296875,70.545540234375,105.68375029296875C73.541100234375,100.43675029296875,78.036340234375,96.05725029296875,83.35964023437501,93.20035029296875C84.389340234375,92.64765029296875,85.754840234375,92.18215029296874,86.636940234375,92.95045029296875C87.62974023437499,93.81535029296876,87.131140234375,95.43335029296875,86.49324023437501,96.58445029296874C84.797640234375,99.64365029296874,82.613040234375,102.43065029296875,80.047340234375,104.80735029296875C78.480940234375,106.25935029296875,76.703940234375,107.65535029296875,75.964900234375,109.66005029296875C75.090400234375,112.03235029296874,75.922290234375,114.76395029296876,77.460140234375,116.77045029296875C78.997940234375,118.77705029296875,81.152740234375,120.20425029296875,83.265540234375,121.59205029296875C82.609840234375,115.38525029296875,85.630840234375,108.92795029296875,90.816140234375,105.45415029296875C92.466540234375,107.87285029296875,91.840740234375,111.14765029296875,90.857440234375,113.90595029296875C89.87424023437501,116.66425029296875,88.572940234375,119.51165029296875,89.07664023437499,122.39655029296875C89.532640234375,125.00475029296875,91.442640234375,127.17615029296876,93.694040234375,128.56955029296876C95.945440234375,129.96305029296875,98.534040234375,130.69315029296877,101.083740234375,131.40745029296875L103.235340234375,130.82165029296874C107.969040234375,127.81215029296875,112.25954023437501,124.10675029296875,115.926640234375,119.86145029296875C112.97184023437501,116.67575029296876,110.21924023437501,113.30305029296875,107.689840234375,109.77005029296875C106.934240234375,108.71495029296875,106.173640234375,107.57905029296876,106.066740234375,106.28545029296875C105.959940234375,104.99175029296876,106.765740234375,103.52965029296875,108.055540234375,103.38395029296875C109.166040234375,103.25865029296875,110.134640234375,104.09505029296875,110.900340234375,104.90975029296875C114.565640234375,108.80835029296875,117.285840234375,113.58925029296876,118.766440234375,118.73125029296875C121.525340234375,117.17055029296876,123.404140234375,114.15395029296874,123.587340234375,110.98855029296875C123.770440234375,107.82385029296876,122.253640234375,104.61015029296874,119.69304023437499,102.74095029296875C118.05604023437499,101.54525029296875,116.091440234375,100.90675029296875,114.223440234375,100.11935029296875C112.355540234375,99.33195029296874,110.47874023437501,98.31435029296875,109.349140234375,96.63025029296875C108.21964023437499,94.94675029296874,108.092440234375,92.44285029296876,109.550740234375,91.03475029296875C111.496340234375,89.15665029296875,114.75894023437499,90.20985029296875,116.993840234375,91.73245029296875C121.645540234375,94.90035029296875,125.153740234375,99.71235029296875,126.74754023437501,105.11005029296875C129.130640234375,101.11085029296875,129.409240234375,95.93325029296875,127.468840234375,91.70185029296874C125.52834023437501,87.47055029296875,121.42304023437501,84.30335029296876,116.83744023437501,83.50005029296875C115.39944023437499,83.24815029296875,113.867940234375,83.19605029296875,112.620740234375,82.43665029296875C111.373540234375,81.67795029296875,110.61484023437501,79.84935029296875,111.55864023437499,78.73515029296875C112.058540234375,78.14495029296876,112.86944023437499,77.93435029296876,113.632640234375,77.81035029296875L113.631340234375,77.81105029296876Z" fill="#00C78B" fill-opacity="1"/></g><g></g><g></g><g></g><g></g><g transform="matrix(0.8631438612937927,0.5049580931663513,-0.5049580931663513,0.8631438612937927,4.936193099601951,-18.213071614030923)"></g><g transform="matrix(0.3901647925376892,0.9207449555397034,-0.9207449555397034,0.3901647925376892,94.36160608031423,-24.791506342535286)"></g><g><rect x="69.3935546875" y="170.8228302001953" width="51.9580192565918" height="8.496959686279297" rx="0" fill="#242424" fill-opacity="1"/></g><g><path d="M73.2591552734375,177.7571563720703L79.2197452734375,210.20335637207032L111.52345527343749,210.20335637207032L117.3225552734375,177.7571563720703L73.2591552734375,177.7571563720703Z" fill="#242424" fill-opacity="1"/></g><g style="opacity:0.30000001192092896;"><path d="M73.546630859375,179.3197784423828L116.973330859375,179.3197784423828L116.35513085937501,183.1713984423828L74.253862859375,183.1713984423828L73.546630859375,179.3197784423828Z" fill="#242424" fill-opacity="1"/></g><g style="opacity:0.30000001192092896;"><path d="M77.60748291015625,186.01564025878906L82.53648291015625,207.70384025878906Q90.36628291015626,208.54914025878907,90.46488291015625,207.70384025878906Q90.56348291015625,206.85864025878905,86.44343291015625,186.01564025878906L77.60748291015625,186.01564025878906L77.60748291015625,186.01564025878906Z" fill="#FFFFFF" fill-opacity="1"/></g></g></svg>