<svg xmlns="http://www.w3.org/2000/svg" xmlns:xlink="http://www.w3.org/1999/xlink" fill="none" version="1.1" width="184.765625" height="210.20330810546875" viewBox="0 0 184.765625 210.20330810546875"><g><g><path d="M107.090134765625,104.8809903125Q93.477084765625,120.1324703125,89.714507765625,170.8019703125L90.711761765625,170.8759703125Q94.449194765625,120.54527031250001,107.836134765625,105.5468803125Q121.007234765625,90.7903803125,143.884734765625,110.7159703125L144.541534765625,109.9619703125Q120.919034765625,89.3874503125,107.090134765625,104.8809903125Z" fill-rule="evenodd" fill="#588E7E" fill-opacity="1"/></g><g><path d="M140.170434375,116.37260722656251C137.153254375,117.1759072265625,134.632154375,119.6493072265625,133.797714375,122.6245072265625C132.705704375,120.4519072265625,131.597149375,118.2259072265625,131.305225975,115.8078072265625C131.013302375,113.3898072265625,131.690643375,110.7014072265625,133.625354375,109.1610172265625C135.318384375,107.8133372265625,137.695114375,107.5659272265625,139.794544375,108.03910722656249C141.89393437500001,108.5122772265625,143.776534375,109.6195572265625,145.582134375,110.7662672265625C146.071834375,107.3077072265625,147.153734375,104.3757372265625,149.806434375,102.9689042265625C152.459234375,101.5620682265625,154.982834375,101.7935812265625,157.551634375,103.2792772265625C160.120434375,104.7649672265625,162.047534375,107.1092672265625,163.783834375,109.4955272265625C160.841034375,109.0261572265625,157.775534375,109.2716672265625,154.928134375,110.2034072265625C154.330334375,110.3992972265625,153.663834375,110.7052072265625,153.498434375,111.3049572265625C153.228134375,112.28440722656251,154.510934375,112.9738072265625,155.534934375,112.9318072265625C157.774234375,112.8390072265625,159.817734375,111.2127372265625,162.045634375,111.4092572265625C163.946634375,111.5771672265625,165.48893437499999,113.0889072265625,166.233034375,114.81820722656249C166.977134375,116.54680722656249,167.070634375,118.4784072265625,167.154034375,120.3628072265625C164.57123437500002,118.4994072265625,161.442034375,117.3775072265625,158.232834375,117.1657072265625C157.612134375,117.1250072265625,156.846334375,117.1987072265625,156.579834375,117.7584072265625C156.279634375,118.3887072265625,156.868634375,119.0559072265625,157.426334375,119.4693072265625C158.907634375,120.5670072265625,160.568834375,121.4275072265625,162.328634375,122.0088072265625C163.403534375,122.3637072265625,164.56933437499998,122.6467072265625,165.357934375,123.4468072265625C166.291534375,124.3938072265625,166.46843437500002,125.8840072265625,166.146534375,127.1801072265625C165.824734375,128.4763072265625,165.077434375,129.6287072265625,164.342234375,130.75380722656251C163.336734375,127.6361072265625,160.483034375,125.1977072265625,157.210134375,124.66030722656251C156.920734375,126.1784072265625,157.92563437500002,127.6126072265625,158.994734375,128.7205072265625C160.063834375,129.82910722656248,161.307234375,130.9109072265625,161.677434375,132.4030072265625C162.011934375,133.7526072265625,161.543234375,135.20840722656249,160.741834375,136.3659072265625C159.940534375,137.52340722656248,158.832534375,138.4367072265625,157.740534375,139.33340722656249L156.565234375,139.5204072265625C153.611634375,139.1070072265625,150.72613437500002,138.2643072265625,148.029434375,137.0267072265625C148.791434375,134.8573072265625,149.414634375,132.6421072265625,149.894834375,130.3983072265625C150.037934375,129.7279072265625,150.16703437500001,129.0182072265625,149.942534375,128.3752072265625C149.718734375,127.73220722656251,149.012734375,127.2062072265625,148.352534375,127.4167072265625C147.783334375,127.5980072265625,147.489534375,128.2098072265625,147.289834375,128.7669072265625C146.333234375,131.4330072265625,146.026034375,134.3160072265625,146.401934375,137.1030072265625C144.721634375,136.9548072265625,143.160234375,135.9175072265625,142.395134375,134.4407072265625C141.630034375,132.9633072265625,141.68413437499999,131.0934072265625,142.535034375,129.6402072265625C143.07883437499999,128.71100722656251,143.901234375,127.9776072265625,144.645334375,127.1941072265625C145.389434375,126.4105072265625,146.087734375,125.5144072265625,146.279834375,124.4618072265625C146.471234375,123.4093072265625,145.999334375,122.18120722656249,144.986234375,121.8237072265625C143.635334375,121.3467072265625,142.267934375,122.5608072265625,141.502234375,123.7769072265625C139.908394375,126.3069072265625,139.223424375,129.37620722656249,139.598024375,132.3101072265625C137.580634375,130.9115072265625,136.339164375,128.4903072265625,136.382404375,126.0398072265625C136.425644375,123.58920722656251,137.753624375,121.1782072265625,139.819984375,119.7962072265625C140.468064375,119.3624072265625,141.204554375,119.0043072265625,141.651034375,118.3696072265625C142.097534375,117.7349072265625,142.077834375,116.6931072265625,141.378834375,116.3643072265625C141.008674375,116.1900072265625,140.567924375,116.2657072265625,140.169154375,116.3719072265625L140.170434375,116.37260722656251Z" fill="#00C78B" fill-opacity="1"/></g><g><path d="M77.021934765625,153.72646921875Q83.01643476562501,158.61995921875,86.227034765625,171.95614921875L87.199234765625,171.72204921875Q83.90983476562499,158.05834921875,77.654334765625,152.95180921875Q71.303544765625,147.76749921875,62.031913765625,151.37309821875L62.394355765625,152.30510921875Q71.122744765625,148.91077921875,77.021934765625,153.72646921875Z" fill-rule="evenodd" fill="#588E7E" fill-opacity="1"/></g><g><path d="M66.912934765625,160.625111328125C69.404834765625,162.507011328125,70.807234765625,165.748111328125,70.459334765625,168.818011328125C72.289734765625,167.217211328125,74.155734765625,165.573211328125,75.337434765625,163.443811328125C76.519134765625,161.314511328125,76.905834765625,158.568911328125,75.694234765625,156.412911328125C74.63463476562501,154.526511328125,72.525634765625,153.401411328125,70.403334765625,153.047811328125C68.280334765625,152.694211328125,66.119234765625,153.010311328125,64.01473476562501,153.392511328125C64.865034765625,150.004531328125,64.968134765625,146.881131328125,63.041034765625,144.577551328125C61.113934765625004,142.274595328125,58.689534765625,141.538113328125,55.750534765625005,141.945784328125C52.811634765625,142.353454328125,50.142934765625,143.798451328125,47.634554765625,145.354111328125C50.536634765624996,146.028911328125,53.284134765625,147.411561328125,55.569934765625,149.348191328125C56.050134765625,149.754601328125,56.551934765625,150.289481328125,56.478734765625,150.907661328125C56.359834765624996,151.917011328125,54.911634765624996,152.071511328125,53.979334765625,151.646681328125C51.940234765625,150.716851328125,50.660634765625,148.439981328125,48.522404765625,147.782361328125C46.698354765625,147.221411328125,44.699414765625,148.039941328125,43.358724765625,149.360901328125C42.018034765625,150.681871328125,41.203324765625,152.435311328125,40.415314765625,154.149311328125C43.510094765625,153.396911328125,46.831284765625,153.537511328125,49.883434765625,154.551311328125C50.473634765625,154.747211328125,51.155434765625,155.104611328125,51.191034765625,155.723411328125C51.231134765625,156.420511328125,50.434234765625,156.816711328125,49.762634765625,156.989111328125C47.977364765625,157.447011328125,46.113884765625,157.618111328125,44.264394765625,157.493411328125C43.134854765625,157.417111328125,41.948714765625,157.239611328125,40.916484765625,157.683611328125C39.694731765625,158.208911328125,38.969056765625,159.522211328125,38.778893065625,160.844511328125C38.588728765625,162.166711328125,38.846308765625,163.515711328125,39.102616765625,164.834711328125C41.209044765625,162.326411328125,44.771284765625,161.143411328125,48.005344765625,161.879311328125C47.700704765625,163.394811328125,46.229634765625,164.343811328125,44.821524765625,164.967011328125C43.413424765625,165.590311328125,41.853954765625,166.123911328125,40.948924765625,167.366711328125C40.130394765625,168.490511328125,40.015914765625,170.015611328125,40.321824765625,171.390011328125C40.627744765625,172.764411328125,41.309534765625,174.027511328125,41.983064765625,175.269611328125L43.001294765625,175.885911328125C45.892554765625,176.616611328125,48.883034765625,176.923811328125,51.846734765625,176.79411132812498C51.958734765624996,174.497511328125,52.216334765625,172.210411328125,52.617634765625,169.951411328125C52.737134765625,169.276611328125,52.886034765625,168.570611328125,53.335634765625,168.059311328125C53.785334765625,167.547911328125,54.637534765625,167.327211328125,55.169834765625,167.771211328125C55.628434765625,168.153411328125,55.670434765625004,168.831411328125,55.645634765625005,169.422211328125C55.526634765625005,172.251811328125,54.724034765625,175.038111328125,53.326134765625,177.477811328125C54.938334765625,177.97391132812498,56.775134765625,177.601811328125,58.040834765625,176.521911328125C59.306434765625,175.442011328125,59.961534765625004,173.689811328125,59.721134765624996,172.023511328125C59.567234765625,170.957511328125,59.081934765625,169.968611328125,58.688834765625,168.962411328125C58.295134765625,167.956211328125,57.986134765624996,166.863011328125,58.205534765625,165.815511328125C58.424934765625,164.768011328125,59.325534765625,163.808911328125,60.397834765625,163.859811328125C61.828834765625004,163.927211328125,62.637834765625,165.567411328125,62.889034765625,166.981911328125C63.411834765625,169.926611328125,62.889034765625,173.027111328125,61.435734765625,175.603511328125C63.831534765625,175.068611328125,65.894134765625,173.29421132812502,66.777534765625,171.007811328125C67.660934765625,168.721311328125,67.340334765625,165.988411328125,65.946934765625,163.929111328125C65.509934765625,163.283511328125,64.963034765625,162.673611328125,64.78873476562501,161.917411328125C64.61443476562499,161.16061132812501,65.025334765625,160.204011328125,65.796134765625,160.162711328125Q66.204434765625,160.141111328125,66.628334765625,160.157711328125L66.912934765625,160.625111328125Z" fill="#00C78B" fill-opacity="1"/></g><g><path d="M63.376256765625,44.20852729296875Q97.219034765625,75.06565029296875,99.713334765625,172.35205029296876L100.712934765625,172.32605029296874Q98.207234765625,74.61245029296875,64.050012765625,43.46957329296875L63.376256765625,44.20852729296875Z" fill-rule="evenodd" fill="#588E7E" fill-opacity="1"/></g><g transform="matrix(0.8631438612937927,0.5049580931663513,-0.5049580931663513,0.8631438612937927,5.8124603405813104,-19.44623483307805)"><path d="M80.8021162109375,35.8814C82.0360162109375,40.2825,80.79641621093751,45.3012,77.6685162109375,48.5683C81.2200162109375,48.3267,84.8509162109375,48.0659,88.1155162109375,46.6336C91.3801162109375,45.2007,94.2643162109375,42.3457,94.7649162109375,38.7599C95.20311621093751,35.6232,93.7447162109375,32.443200000000004,91.5855162109375,30.1491C89.4263162109375,27.8551,86.6292162109375,26.3071,83.8390162109375,24.8862C87.8331162109375,21.6942,90.7224162109375,18.1472,90.52021621093749,13.7562C90.3180162109375,9.3653,88.14661621093751,6.35766,84.36181621093749,4.226430000000001C80.5770162109375,2.09519,76.1873162109375,1.412125,71.8873162109375,1C74.6698162109375,4.35935,76.64401621093751,8.40558,77.5890162109375,12.6878C77.7875162109375,13.5871,77.8981162109375,14.6543,77.2653162109375,15.31C76.2318162109375,16.3798,74.4078162109375,15.2763,73.6986162109375,13.9547C72.1481162109375,11.0641,72.67661621093751,7.27733,70.7692162109375,4.61503C69.14231621093751,2.3445,66.0883162109375,1.525979,63.3554162109375,1.8757709999999999C60.622516210937505,2.2255700000000003,58.1185162109375,3.54527,55.6814162109375,4.84335C59.9528162109375,6.71065,63.6969162109375,9.81941,66.3528162109375,13.706C66.8667162109375,14.4578,67.3437162109375,15.4785,66.8368162109375,16.2309C66.2657162109375,17.0781,64.9867162109375,16.833199999999998,64.0505162109375,16.438299999999998C61.5644162109375,15.3889,59.2424162109375,13.9356,57.1995162109375,12.151C55.951716210937505,11.0609,54.7274162109375,9.80288,53.1317162109375,9.40411C51.2434162109375,8.93283,49.2330162109375,9.81877,47.8388962109375,11.19C46.4447862109375,12.5612,45.5486562109375,14.3611,44.6779762109375,16.1247C49.3557162109375,15.0702,54.5538162109375,16.8517,57.668316210937505,20.5761C55.970116210937505,22.0713,53.4147162109375,21.8722,51.222416210937496,21.3501C49.0295162109375,20.8279,46.7405162109375,20.0666,44.5838462109375,20.7115C42.6338662109375,21.2948,41.1481762109375,22.9693,40.2863962109375,24.8417C39.4246122109375,26.7141,39.0983432109375,28.7894,38.7816162109375,30.8335L39.4207952109375,32.454C42.1403362109375,35.8687,45.3514962109375,38.8776,48.9188162109375,41.3548C51.0857162109375,38.779,53.4134162109375,36.3438,55.8830162109375,34.0675C56.620816210937505,33.3877,57.419616210937505,32.697,58.3971162109375,32.5004C59.3746162109375,32.3039,60.562716210937495,32.8019,60.7891162109375,33.7909C60.984416210937496,34.6431,60.4323162109375,35.4693,59.8790162109375,36.1358C57.2313162109375,39.326,53.8262162109375,41.8605,50.034316210937504,43.4619C51.4723162109375,45.4691,53.9419162109375,46.6642,56.3734162109375,46.5287C58.8048162109375,46.3932,61.1211162109375,44.9323,62.3193162109375,42.7782C63.0851162109375,41.4006,63.397316210937504,39.8183,63.831116210937495,38.297C64.2648162109375,36.7763,64.8741162109375,35.2283,66.0577162109375,34.203C67.2413162109375,33.1778,69.1411162109375,32.8585,70.3456162109375,33.8691C71.9528162109375,35.2162,71.4402162109375,37.8441,70.4786162109375,39.7146C68.4764162109375,43.6076,65.1190162109375,46.7564,61.1421162109375,48.4685C64.4067162109375,49.9695,68.3829162109375,49.7316,71.4383162109375,47.8522C74.4936162109375,45.9729,76.5441162109375,42.5041,76.7470162109375,38.8706C76.8106162109375,37.7309,76.7139162109375,36.5365,77.1814162109375,35.5005C77.6488162109375,34.4651,78.9768162109375,33.7146,79.91111621093751,34.3499C80.4065162109375,34.687,80.6393162109375,35.2982,80.8021162109375,35.8814L80.8021162109375,35.8814Z" fill="#00C78B" fill-opacity="1"/></g><g></g><g></g><g><path d="M103.138201171875,66.76474755859375Q103.104301171875,66.77424755859374,103.06960117187501,66.78284755859374Q102.214601171875,66.99384755859376,100.987201171875,66.37944755859375L97.997201171875,64.88254755859376L98.831101171875,65.02334755859374Q97.065101171875,63.65694755859375,95.764471171875,61.67874755859375Q94.087051171875,59.12744755859375,93.651161171875,56.26934755859375Q89.819451171875,61.23634755859375,88.753111171875,64.32304755859374Q87.849279171875,66.93934755859375,88.092452171875,69.51244755859375Q88.354116171875,72.28124755859375,89.906191171875,74.17534755859376Q92.672051171875,77.55034755859376,98.030301171875,77.42674755859375Q101.443001171875,77.34804755859375,107.050701171875,75.19194755859375L107.787901171875,74.90854755859375L107.728701171875,75.69614755859375Q107.074001171875,84.41434755859375,111.166501171875,87.83544755859376Q115.732001171875,91.65184755859374,121.92780117187499,89.55984755859376Q126.267501171875,88.09464755859375,131.792001171875,83.25394755859375Q125.646401171875,82.74554755859376,120.251101171875,79.64354755859375Q118.362401171875,78.55704755859375,118.292001171875,77.21824755859376Q118.217601171875,75.81174755859375,119.73690117187499,75.15174755859374Q120.997101171875,74.60424755859376,122.355201171875,74.93984755859375Q123.899701171875,75.32164755859375,126.571301171875,77.00184755859375Q129.524801171875,78.85914755859375,131.178401171875,79.04454755859375Q133.021101171875,79.25094755859375,134.86940117187498,78.21914755859375Q136.59980117187501,77.25314755859375,137.81560117187502,75.52774755859375Q139.249001171875,73.49354755859375,140.545701171875,68.90204755859375Q134.225201171875,71.48214755859375,127.388801171875,70.56114755859375Q125.106101171875,70.25364755859374,124.77680117187501,68.83414755859374Q124.389601171875,67.16564755859375,126.809601171875,66.03164755859375Q130.628701171875,64.24214755859376,134.817501171875,63.73404755859375Q135.047801171875,63.70604755859375,135.510301171875,63.65524755859375Q138.316201171875,63.34744755859375,139.411701171875,62.61244755859375Q141.594401171875,61.147447558593754,141.504201171875,57.84964755859375Q141.459001171875,56.19464755859375,140.419101171875,53.24854755859375Q138.599201171875,55.92824755859375,135.60400117187498,57.590547558593755Q132.130401171875,59.51824755859375,128.332301171875,59.38064755859375L127.83680117187501,59.36264755859375L127.850601171875,58.867047558593754Q127.935001171875,55.829147558593746,131.917701171875,53.093947558593754Q132.175401171875,52.91694755859375,132.69920117187502,52.56664755859375Q135.965201171875,50.38244755859375,136.773801171875,48.72374755859375Q137.969001171875,46.27127755859375,136.666101171875,43.10376755859375Q135.91320117187502,41.27216755859375,133.441501171875,38.14466755859375L132.010101171875,37.60466855859375Q125.72550117187501,37.23642655859375,119.595901171875,38.62072755859375Q120.162901171875,43.50150755859375,120.137201171875,48.40934755859375Q120.126401171875,50.57394755859375,119.495201171875,51.61774755859375Q118.995401171875,52.44434755859375,118.08930117187501,52.80064755859375Q117.076701171875,53.19894755859375,116.230401171875,52.72104755859375Q115.137501171875,52.10384755859375,114.877501171875,50.07744755859375Q114.087401171875,43.937247558593754,116.04260117187499,38.09676755859375Q112.702201171875,37.97087855859375,110.509401171875,40.65830755859375Q108.113001171875,43.59521755859375,109.282401171875,47.20044755859375Q109.647201171875,48.32564755859375,110.951601171875,50.38954755859375Q111.319101171875,50.97094755859375,111.497801171875,51.26574755859375Q113.13080117187499,53.956247558593745,113.058201171875,55.98914755859375Q113.008401171875,57.384347558593745,112.181201171875,58.50524755859375Q111.278801171875,59.72804755859375,109.934901171875,59.91914755859375Q108.239701171875,60.160047558593746,106.795501171875,58.70634755859375Q105.654901171875,57.558147558593745,104.997501171875,55.73784755859375Q102.808501171875,49.67274755859375,104.583101171875,43.59282755859375Q102.844001171875,44.58072755859375,101.520601171875,46.21638755859375Q99.815401171875,48.32374755859375,99.306201171875,50.88104755859375Q98.797001171875,53.438547558593754,99.564701171875,56.03824755859375Q100.332301171875,58.63814755859375,102.149101171875,60.50864755859375Q102.319901171875,60.684447558593746,102.681901171875,61.03414755859375Q104.051601171875,62.35704755859375,104.435501171875,63.27104755859375Q104.855701171875,64.27164755859374,104.520001171875,65.32494755859375Q104.243201171875,66.19384755859375,103.601001171875,66.57024755859375L104.420801171875,66.98134755859375L103.138201171875,66.76474755859375ZM101.53450117187501,65.53394755859375L101.439001171875,65.48604755859375Q98.493101171875,64.00864755859375,96.600051171875,61.12934755859375Q94.706871171875,58.24984755859375,94.518961171875,54.96014755859375L94.444271171875,53.65244755859375L93.628571171875,54.67724755859375Q89.032441171875,60.45194755859375,87.807924171875,63.99654755859375Q86.833324171875,66.81764755859375,87.096888171875,69.60654755859375Q87.387257171875,72.67904755859375,89.132701171875,74.80914755859375Q92.207661171875,78.56134755859375,98.053401171875,78.42654755859374Q101.410801171875,78.34904755859375,106.68180117187501,76.39994755859375Q106.230001171875,85.01214755859375,110.52510117187501,88.60264755859376Q115.520701171875,92.77864755859375,122.24770117187501,90.50724755859375Q127.132301171875,88.85814755859374,133.355101171875,83.19884755859374L134.256101171875,82.37934755859375L133.039201171875,82.32934755859375Q126.45870117187499,82.05904755859375,120.74950117187501,78.77664755859375Q119.332501171875,77.96144755859375,119.290701171875,77.16584755859375Q119.252901171875,76.45224755859374,120.135401171875,76.06894755859375Q121.08540117187499,75.65614755859374,122.11540117187499,75.91064755859375Q123.503501171875,76.25384755859375,126.039001171875,77.84834755859376Q129.186101171875,79.82744755859375,131.067001171875,80.03834755859376Q133.228601171875,80.28034755859375,135.356801171875,79.09224755859375Q137.286001171875,78.01534755859376,138.633001171875,76.10374755859375Q140.321301171875,73.70794755859376,141.78470117187499,68.15984755859375L142.053101171875,67.14264755859375L141.094801171875,67.57694755859376Q134.595801171875,70.52304755859376,127.522301171875,69.57014755859376Q125.924201171875,69.35484755859375,125.751001171875,68.60814755859374Q125.546701171875,67.72784755859375,127.23400117187501,66.93714755859375Q130.908101171875,65.21554755859376,134.937901171875,64.72674755859376Q135.162601171875,64.69944755859375,135.619301171875,64.64934755859375Q138.669401171875,64.31474755859375,139.968901171875,63.442847558593755Q142.609101171875,61.670747558593746,142.503901171875,57.82234755859375Q142.446901171875,55.739047558593754,141.004201171875,51.940247558593754L140.629201171875,50.95274755859375L140.103201171875,51.86874755859375Q138.348901171875,54.92344755859375,135.118701171875,56.71614755859375Q132.132801171875,58.37324755859375,128.899201171875,58.38964755859375Q129.27700117187499,56.120647558593745,132.483801171875,53.91824755859375Q132.73670117187498,53.744647558593755,133.255101171875,53.39794755859375Q136.745701171875,51.06344755859375,137.672701171875,49.16194755859375Q139.06460117187498,46.30592755859375,137.590901171875,42.72333755859375Q136.771401171875,40.72958755859375,134.13910117187498,37.41476255859375L134.053201171875,37.30662355859375L132.221201171875,36.61551155859375L132.145601171875,36.61095755859375Q125.452601171875,36.20765755859375,118.931401171875,37.74789255859375L118.49600117187501,37.85075055859375L118.550001171875,38.29494755859375Q119.16380117187501,43.33495755859375,119.137201171875,48.404047558593746Q119.127801171875,50.29284755859375,118.639501171875,51.10024755859375Q118.314701171875,51.63744755859375,117.723301171875,51.870047558593754Q117.153801171875,52.09404755859375,116.722201171875,51.85024755859375Q116.065601171875,51.47954755859375,115.869401171875,49.95024755859375Q115.068201171875,43.72345755859375,117.198501171875,37.81711855859375L117.413401171875,37.22125855859375L116.783901171875,37.15059455859375Q114.809001171875,36.92888875859375,112.900001171875,37.70762255859375Q110.991001171875,38.48632755859375,109.734601171875,40.02610755859375Q108.478201171875,41.56588755859375,108.098201171875,43.59220755859375Q107.71810117187499,45.61866755859375,108.331201171875,47.50904755859375Q108.734701171875,48.75364755859375,110.106301171875,50.923747558593746Q110.468801171875,51.49734755859375,110.64280117187499,51.78424755859375Q112.120801171875,54.21944755859375,112.058901171875,55.95344755859375Q112.020101171875,57.03944755859375,111.376601171875,57.91144755859375Q110.723101171875,58.79694755859375,109.794101171875,58.929147558593755Q108.595601171875,59.09944755859375,107.505001171875,58.00154755859375Q106.520301171875,57.010447558593754,105.938101171875,55.39824755859375Q103.664801171875,49.09974755859375,105.89410117187501,42.78424755859375L106.274701171875,41.70615755859375L105.224701171875,42.15863755859375Q102.603301171875,43.28836755859375,100.743201171875,45.58737755859375Q98.882801171875,47.88654755859375,98.325501171875,50.68574755859375Q97.768101171875,53.48514755859375,98.605601171875,56.321447558593746Q99.443101171875,59.15794755859375,101.431801171875,61.20534755859375Q101.613701171875,61.39264755859375,101.987201171875,61.75344755859375Q103.209201171875,62.93364755859375,103.51350117187499,63.65824755859375Q103.791001171875,64.31914755859376,103.567201171875,65.02134755859375Q103.356701171875,65.68204755859375,102.830101171875,65.81194755859374Q102.36070117187501,65.92774755859375,101.53450117187501,65.53394755859375Z" fill-rule="evenodd" fill="#242424" fill-opacity="1"/></g><g><path d="M145.87143359375,143.40398056640626L145.87143359375,143.40398056640626Q145.62583359375,142.88558056640625,145.93433359375,141.94158056640626Q146.95313359375,138.81388056640625,149.75513359375,136.70159056640625Q152.57123359375,134.57873056640625,156.21953359375,134.20976056640626L157.70983359375,134.05903056640625L156.42783359375,133.28435056640626Q149.01803359375,128.80697056640625,144.81903359375,127.72109596640625Q141.48343359375,126.85859456640625,138.44163359375,127.27582056640625Q135.07303359375,127.73787686640625,133.05603359375,129.67494056640626Q129.48831359375,133.10155056640625,130.88545359375001,139.21378056640626Q131.68073359375,142.69228056640625,134.95683359375,148.05548056640626Q125.27386359375,148.04278056640624,122.16761359375,152.71518056640625Q118.54309359375,158.16708056640624,122.51062359375,165.06018056640625Q125.38275359375,170.04948056640626,133.00953359375,176.22328056640626L134.02323359375,177.04378056640624L133.81793359375,175.75588056640623Q132.72273359375,168.88708056640624,135.17403359375,162.77738056640624Q135.77173359375,161.28648056640625,136.65213359375,161.20118056640626Q137.53183359375,161.11608056640625,138.20363359375,162.09738056640626Q138.87843359375,163.08318056640624,138.81233359375,164.17258056640625Q138.72423359375,165.62798056640625,137.48503359375,168.34388056640626Q135.93383359375,171.74358056640625,136.09873359375,173.72698056640624Q136.28613359375,175.98248056640625,138.04963359375,178.11888056640623Q139.64323359375,180.04948056640626,142.03563359375,181.33738056640624Q145.04483359375,182.95848056640625,151.53743359375,184.19128056640625L152.75233359375,184.42188056640626L152.03923359375,183.41168056640623Q147.35183359375,176.77098056640625,146.91343359375,169.33768056640625Q146.81733359375,167.70468056640624,147.58453359375,167.49418056640624Q148.61323359375,167.21168056640624,149.92243359375,169.02168056640625Q152.63733359375,172.77548056640626,154.04423359375,176.96308056640623Q154.12223359375,177.19538056640624,154.27483359375,177.66758056640626Q155.29163359375,180.81538056640625,156.52383359375,182.10558056640625Q159.00923359375,184.70598056640625,163.21843359375,184.40158056640627Q165.52693359375002,184.23468056640624,169.46343359374998,182.53408056640626L170.51513359375,182.07968056640624L169.46683359375,181.61748056640624Q165.63713359375,179.92928056640625,162.92013359375,176.62268056640625Q160.43643359375,173.60008056640623,159.72003359375,170.24478056640623Q162.39493359375,170.52888056640626,165.58253359375,173.80288056640626Q165.83123359375,174.05838056640624,166.32903359375,174.58088056640625Q169.65343359375,178.07008056640626,171.93693359374998,178.92268056640626Q175.37453359375002,180.20658056640625,179.04573359375001,178.49468056640626Q181.10523359375,177.53358056640624,184.25723359375002,174.61198056640626L184.37643359375,174.50138056640625L184.76563359375,172.52588056640624L184.75403359375,172.44278056640624Q183.78413359375,165.44888056640625,180.67783359375,158.73128056640624L180.51823359374998,158.38618056640624L180.14303359375,158.44778056640627Q174.64173359375,159.35058056640625,168.95293359375,159.58828056640624Q166.80293359375,159.67738056640624,165.76153359375002,159.19368056640624Q165.04383359375,158.86068056640624,164.63403359375,158.21838056640624Q164.25463359375,157.62368056640625,164.42983359375,157.17488056640624Q164.69343359375,156.50068056640626,166.35433359375,156.21718056640626Q173.17043359375,155.05338056640625,180.25663359375,156.97578056640626L180.94473359375002,157.16248056640626L180.88583359375,156.45188056640626Q180.71453359375,154.38708056640624,179.44723359375,152.45128056640624Q178.18873359375,150.52888056640626,176.23283359375,149.31938056640624Q174.27843359375,148.11078056640625,171.96833359375,147.82448056640624Q169.64513359375002,147.53658056640626,167.67383359375,148.26988056640624Q166.36533359375,148.75658056640626,164.22513359375,150.30368056640626Q163.66353359375,150.70958056640626,163.38113359375,150.90508056640624Q160.97003359375,152.57428056640626,159.00303359375,152.60018056640627Q157.74053359375,152.61688056640625,156.58713359375,151.96788056640625Q155.40533359375002,151.30288056640626,155.04603359375,150.30148056640624Q154.60533359375,149.07248056640626,155.57943359375,147.90408056640626Q156.47053359375,146.83518056640625,158.14353359375,146.14678056640625Q164.72383359375,143.43978056640626,172.29803359375,145.44588056640626L173.59303359375,145.78888056640625L172.83943359375002,144.68128056640626Q171.03743359375,142.03288056640625,168.10333359375,140.23258056640626Q165.17033359375,138.43308056640626,161.95643359375,138.00268056640624Q158.73083359375,137.57064056640624,155.75093359375,138.58718056640626Q152.75283359375,139.60988056640625,150.87703359375,141.80008056640625Q150.70563359375,142.00038056640625,150.38153359375,142.40888056640625Q149.32893359375,143.73568056640624,148.59003359375,144.08758056640625Q147.89383359375,144.41908056640625,147.02403359375,144.21368056640625Q146.15823359375,144.00918056640626,145.87143359375,143.40398056640626ZM144.98373359375,141.63108056640624Q144.55163359375,142.95378056640624,144.96773359375,143.83208056640626L144.96773359375,143.83218056640624Q145.46043359375,144.87188056640625,146.79413359375,145.18688056640624Q148.00633359375,145.47318056640626,149.02003359375,144.99038056640626Q149.96823359375,144.53888056640625,151.16493359375,143.03038056640625Q151.47753359375,142.63638056640625,151.63653359375,142.45058056640624Q153.33443359375,140.46798056640625,156.07373359375,139.53358056640624Q158.83113359375,138.59298056640625,161.82373359375,138.99378056640626Q164.82783359375,139.39618056640626,167.58033359375,141.08498056640624Q169.70083359375,142.38598056640626,171.18563359375,144.15208056640626Q164.05433359375002,142.63388056640625,157.76293359375,145.22198056640624Q155.86103359375,146.00458056640625,154.81133359375,147.26368056640626Q153.47083359375,148.87158056640624,154.10483359375002,150.63918056640625Q154.59003359375,151.99158056640624,156.09683359375,152.83938056640625Q157.48463359375,153.62028056640625,159.01623359375,153.60008056640623Q161.28823359375,153.57018056640624,163.95033359375,151.72728056640625Q164.24093359375001,151.52608056640625,164.81093359375,151.11408056640624Q166.84123359375,149.64658056640624,168.02243359375,149.20708056640626Q171.84863359375,147.78398056640626,175.70683359375,150.16988056640625Q179.20863359375,152.33538056640626,179.80003359375002,155.82328056640625Q172.87303359375,154.08968056640626,166.18603359374998,155.23138056640624Q163.96793359375,155.61008056640625,163.49833359375,156.81128056640625Q163.13843359375,157.73328056640625,163.79093359375,158.75618056640624Q164.35783359375,159.64488056640624,165.34023359374999,160.10058056640625Q166.60183359375,160.68658056640623,168.99473359375,160.58748056640624Q174.54923359375,160.35528056640624,179.92803359375,159.49558056640626Q182.82093359375,165.87278056640625,183.75203359375,172.49738056640626L183.45823359375,173.98868056640626Q180.50253359375,176.71128056640626,178.62303359375,177.58838056640624Q175.33183359375,179.12318056640623,172.28673359375,177.98588056640625Q170.21873359375002,177.21378056640626,167.05313359375,173.89108056640626Q166.55113359375,173.36428056640625,166.29903359375,173.10528056640624Q162.44853359375,169.15028056640625,159.10173359375,169.21888056640626L158.52493359375,169.23078056640625L158.61863359375,169.79998056640625Q159.26963359375,173.75518056640624,162.14753359374998,177.25758056640626Q164.64633359375,180.29858056640626,168.04013359375,182.04448056640626Q164.98633359375,183.27118056640626,163.14633359375,183.40418056640624Q159.40673359375,183.67458056640623,157.24693359375,181.41488056640625Q156.17293359375,180.29018056640626,155.22633359374998,177.36018056640626Q155.07203359375,176.88248056640626,154.99213359375,176.64468056640624Q153.53683359375,172.31278056640625,150.73273359375,168.43558056640626Q149.01703359375,166.06378056640625,147.31993359375,166.52988056640623Q145.77153359375,166.95468056640624,145.91513359375,169.39658056640624Q146.33693359375,176.54728056640624,150.53273359375,182.97328056640626Q145.10583359375,181.85558056640625,142.50963359375,180.45688056640626Q140.28983359375,179.26178056640626,138.82083359375,177.48228056640625Q137.25673359375,175.58748056640624,137.09523359375,173.64418056640625Q136.95203359375,171.92108056640626,138.39473359375,168.75898056640625Q139.71113359375,165.87398056640626,139.81053359375,164.23308056640624Q139.89733359375,162.80138056640624,139.02883359375,161.53248056640626Q138.02343359374998,160.06378056640625,136.55583359375,160.20588056640625Q135.06983359375,160.34968056640625,134.24593359375,162.40498056640627Q131.92063359375,168.20048056640624,132.65583359375,174.63878056640624Q125.97009359375,169.06538056640625,123.37731359375,164.56138056640626Q119.71872359375,158.20498056640625,123.00037359375,153.26878056640624Q125.94631359375,148.83758056640625,135.85023359375,149.06658056640626L136.77973359375,149.08808056640626L136.28513359375,148.30078056640625Q132.67463359375,142.55288056640626,131.86033359375,138.99098056640625Q130.58932359375,133.43062056640625,133.74863359375001,130.39620056640624Q135.53113359375,128.68440056640625,138.57753359375,128.26654356640626Q141.42393359375,127.87611256640625,144.56873359375,128.68925056640626Q148.28503359375,129.65032056640624,154.70903359375,133.42409056640625Q151.63523359375,134.03196056640624,149.15323359375,135.90307056640626Q146.09983359375,138.20488056640625,144.98373359375,141.63108056640624Z" fill-rule="evenodd" fill="#242424" fill-opacity="1"/></g><g transform="matrix(0.8631438612937927,0.5049580931663513,-0.5049580931663513,0.8631438612937927,5.033789970002545,-18.573174785451556)"></g><g transform="matrix(0.3901647925376892,0.9207449555397034,-0.9207449555397034,0.3901647925376892,94.79650076805774,-25.448121580604493)"><path d="M109.679975,77.69775029296875Q109.77267499999999,77.55085029296875,109.890275,77.41195029296875Q110.586675,76.58965029296874,112.265575,76.31685029296875L115.147975,75.84845029296875L114.689175,76.09925029296875Q117.923075,76.04525029296875,121.128175,77.26145029296875Q124.91307499999999,78.69755029296874,127.553075,81.48575029296875Q127.696875,77.81505029296875,127.61737500000001,75.79895029296875Q127.467275,71.99535029296875,126.58997500000001,69.09755029296875Q125.555875,65.68186029296875,123.355575,63.17692029296875Q120.98117500000001,60.47379029296875,117.912975,59.66459629296875Q112.454775,58.22543229296875,106.943175,62.41018029296875Q103.449675,65.06334029296875,99.244675,71.52075029296876L98.813675,72.18255029296876L98.39987500000001,71.50995029296875Q92.504875,61.93022029296875,85.63137499999999,61.44989029296875Q77.965175,60.91417029296875,73.071145,67.78871029296874Q69.600935,72.66325029296875,67.487871,82.08335029296875Q74.322035,77.86505029296875,82.368475,77.01975029296875Q85.062675,76.73735029296876,86.092075,78.01185029296875Q87.162875,79.33805029296875,86.133475,81.07675029296875Q85.26287500000001,82.54745029296875,83.647975,83.20025029296875Q81.783175,83.95385029296875,77.779675,84.21515029296876Q73.297005,84.50775029296875,71.417985,85.57085029296874Q69.316315,86.75995029296875,68.157005,89.25445029296876Q67.075956,91.58055029296875,67.110334,94.31065029296875Q67.15162,97.58965029296874,69.357515,103.53355029296876Q73.973835,95.97945029296875,81.836375,91.75975029296875Q84.345975,90.41275029296875,85.67847499999999,91.57335029296874Q87.244675,92.93785029296875,85.643675,95.82685029296874Q83.039975,100.52455029296874,79.100275,104.17415029296875Q78.883275,104.37535029296875,78.441875,104.77485029296875Q75.742195,107.21895029296874,75.147175,108.83295029296875Q73.958215,112.05835029296875,76.570125,115.46635029296874Q77.916175,117.22265029296875,81.402575,119.60455029296875Q81.207275,115.35455029296875,83.110675,111.28635029296875Q85.246475,106.72155029296874,89.250975,104.03875029296876L89.662875,103.76285029296875L89.942275,104.17235029296876Q92.091775,107.32245029296875,90.041575,113.07385029296876Q89.907475,113.45005029296874,89.62757500000001,114.20545029296875Q87.870075,118.94955029296875,88.282375,121.31055029296874Q88.893675,124.80695029296875,92.670275,127.14445029296876Q94.847175,128.49175029296873,99.798975,129.88865029296875L101.743875,129.35915029296876Q108.60567499999999,124.98415029296875,113.96837500000001,118.87135029296874Q109.684575,114.21255029296876,105.996475,109.06115029296875Q104.406675,106.84115029296875,104.281575,105.32655029296875Q104.183875,104.14275029296874,104.829475,103.13455029296875Q105.543875,102.01905029296876,106.712575,101.88715029296876Q108.236975,101.71515029296876,109.977875,103.56725029296875Q115.437775,109.37485029296874,117.773075,116.96495029296875Q119.367175,115.90655029296875,120.431475,114.19735029296875Q121.67127500000001,112.20635029296875,121.801275,109.95975029296875Q121.931275,107.71315029296875,120.930075,105.59245029296875Q119.928675,103.47145029296874,118.11137500000001,102.14485029296875Q116.875575,101.24215029296874,113.959875,100.07585029296875Q113.14647500000001,99.75045029296875,112.74237500000001,99.58015029296875Q109.071675,98.03275029296876,107.647075,95.90875029296875Q106.676675,94.46255029296876,106.69267500000001,92.72465029296875Q106.709975,90.84005029296875,107.916575,89.67505029296875Q109.441175,88.20335029296875,111.957675,88.61485029296875Q113.969975,88.94395029296875,115.988575,90.31915029296874Q122.906675,95.03055029296874,125.580275,102.83815029296875Q126.787875,100.35795029296875,126.943375,97.46615029296875Q127.13137499999999,93.97165029296875,125.727475,90.91035029296876Q124.323575,87.84895029296875,121.552775,85.71135029296875Q118.781975,83.57365029296875,115.464275,82.99255029296876Q115.153375,82.93805029296875,114.513975,82.84705029296875Q112.13227499999999,82.50815029296875,111.073875,81.86375029296875Q109.932175,81.16915029296875,109.506275,79.87555029296875Q109.108175,78.66645029296875,109.642975,77.75845029296875L109.537375,77.77565029296875L109.679975,77.69775029296875ZM112.336775,77.31895029296875Q111.095575,77.53605029296875,110.65327500000001,78.05825029296875Q110.154575,78.64705029296874,110.456075,79.56285029296875Q110.766775,80.50635029296875,111.593875,81.00955029296875Q112.476775,81.54715029296875,114.654875,81.85705029296875Q115.310075,81.95035029296875,115.636875,82.00755029296874Q119.197475,82.63125029296876,122.16357500000001,84.91955029296875Q125.12967499999999,87.20785029296874,126.63647499999999,90.49345029296875Q128.14317499999999,93.77905029296875,127.941975,97.51985029296875Q127.74067500000001,101.26065029296875,125.890275,104.36595029296875L125.304975,105.34815029296874L124.98117500000001,104.25165029296875Q122.54237499999999,95.99235029296875,115.425475,91.14565029296875Q113.58997500000001,89.89515029296875,111.79627500000001,89.60175029296875Q109.774775,89.27115029296874,108.611175,90.39445029296874Q107.706075,91.26835029296875,107.69267500000001,92.73385029296875Q107.679475,94.16235029296875,108.477575,95.35175029296875Q109.735575,97.22745029296874,113.130775,98.65865029296876Q113.526475,98.82545029296875,114.331275,99.14735029296875Q117.363775,100.36045029296875,118.700975,101.33715029296874Q120.724175,102.81405029296874,121.834375,105.16545029296876Q122.94437500000001,107.51655029296876,122.799575,110.01745029296876Q122.654875,112.51855029296874,121.28037499999999,114.72595029296875Q119.906075,116.93305029296874,117.725775,118.16645029296875L117.174375,118.47835029296874L116.999075,117.86965029296874Q114.768475,110.12285029296875,109.24917500000001,104.25215029296875Q107.85137499999999,102.76495029296875,106.824775,102.88085029296874Q106.129175,102.95935029296875,105.67157499999999,103.67385029296875Q105.208275,104.39735029296875,105.278175,105.24425029296876Q105.380575,106.48355029296874,106.809575,108.47895029296875Q110.59167500000001,113.76185029296875,115.00637499999999,118.52145029296875L115.310775,118.84965029296875L115.018175,119.18835029296875Q109.429775,125.65775029296876,102.21667500000001,130.24355029296873L102.15277499999999,130.28425029296875L99.794975,130.92615029296877L99.661975,130.88885029296875Q94.470275,129.43455029296877,92.144075,127.99475029296875Q87.985875,125.42115029296875,87.297275,121.48255029296875Q86.83857499999999,118.85545029296875,88.689875,113.85805029296876Q88.96747500000001,113.10885029296875,89.099675,112.73805029296875Q90.835775,107.86765029296875,89.37847500000001,105.16685029296875Q85.917975,107.64595029296875,84.016475,111.71015029296875Q81.998775,116.02275029296875,82.475875,120.53945029296875L82.58687499999999,121.58965029296874L81.70417499999999,121.00995029296875Q77.384075,118.17235029296876,75.776415,116.07465029296876Q72.829395,112.22935029296875,74.208905,108.48705029296875Q74.888915,106.64245029296876,77.770775,104.03355029296876Q78.207575,103.63815029296876,78.420775,103.44055029296875Q82.242975,99.89965029296874,84.769075,95.34215029296875Q85.977975,93.16055029296875,85.021775,92.32745029296875Q84.21017499999999,91.62065029296875,82.309275,92.64095029296875Q74.236285,96.97345029296875,69.692895,104.93165029296875L69.171415,105.84505029296875L68.792295,104.86395029296875Q66.157275,98.04505029296875,66.110413,94.32325029296875Q66.07316900000001,91.36545029296875,67.250154,88.83295029296875Q68.544665,86.04765029296875,70.925545,84.70045029296875Q73.003645,83.52475029296875,77.714575,83.21725029296874Q81.557575,82.96645029296874,83.273175,82.27315029296875Q84.574575,81.74705029296875,85.272975,80.56735029296875Q85.94867500000001,79.42605029296875,85.314075,78.64015029296876Q84.62627499999999,77.78855029296875,82.472975,78.01425029296875Q74.066085,78.89745029296876,67.020894,83.56935029296875L66.005604,84.24255029296876L66.255169,83.05015029296875Q68.452315,72.55245029296876,72.256495,67.20876029296875Q77.47557499999999,59.87753029296875,85.701075,60.45232029296875Q92.838975,60.95112029296875,98.835775,70.32325029296875Q102.888475,64.23389029296875,106.338475,61.613730292968754Q108.970575,59.61526929296875,111.950575,58.80722609296875Q115.220675,57.92051929296875,118.167975,58.69765929296875Q121.53117499999999,59.58464529296875,124.106975,62.51698029296875Q126.450175,65.18472029296875,127.547075,68.80776029296875Q128.461475,71.82805029296875,128.616575,75.75955029296875Q128.710775,78.14725029296875,128.499075,82.77415029296876L128.439275,84.08235029296875L127.611975,83.06715029296875Q124.927375,79.77255029296875,120.773375,78.19635029296875Q116.619475,76.62015029296875,112.424975,77.30455029296874L112.336775,77.31895029296875Z" fill-rule="evenodd" fill="#242424" fill-opacity="1"/></g><g><rect x="70.106689453125" y="170.8228302001953" width="51.9580192565918" height="8.496959686279297" rx="0" fill="#242424" fill-opacity="1"/></g><g><path d="M73.9722900390625,177.7571563720703L79.9328800390625,210.20335637207032L112.23659003906249,210.20335637207032L118.0356900390625,177.7571563720703L73.9722900390625,177.7571563720703Z" fill="#242424" fill-opacity="1"/></g><g style="opacity:0.30000001192092896;"><path d="M74.259765625,179.3197784423828L117.686465625,179.3197784423828L117.06826562500001,183.1713984423828L74.966997625,183.1713984423828L74.259765625,179.3197784423828Z" fill="#242424" fill-opacity="1"/></g><g style="opacity:0.30000001192092896;"><path d="M78.32061767578125,186.01564025878906L83.24961767578125,207.70384025878906Q91.07941767578126,208.54914025878907,91.17801767578125,207.70384025878906Q91.27661767578125,206.85864025878905,87.15656767578125,186.01564025878906L78.32061767578125,186.01564025878906L78.32061767578125,186.01564025878906Z" fill="#FFFFFF" fill-opacity="1"/></g></g></svg>