<svg xmlns="http://www.w3.org/2000/svg" xmlns:xlink="http://www.w3.org/1999/xlink" fill="none" version="1.1" width="92" height="92" viewBox="0 0 92 92"><defs><mask id="master_svg0_1_1514" style="mask-type:alpha" maskUnits="userSpaceOnUse"><g><rect x="2" y="2" width="88" height="88" rx="5" fill="#FFFFFF" fill-opacity="1"/></g></mask></defs><g><g><rect x="1" y="1" width="90" height="90" rx="5" fill="#D8D8D8" fill-opacity="1"/><rect x="1" y="1" width="90" height="90" rx="5" fill-opacity="0" stroke-opacity="1" stroke="#FFFFFF" fill="none" stroke-width="2"/></g><g mask="url(#master_svg0_1_1514)"><g style="opacity:0.4000000059604645;"><g><g><g><path d="M88.45723094482422,-4.627385144042968C85.44005094482422,-3.824085144042968,82.91895094482422,-1.35068514404297,82.08451094482422,1.624514855957031C80.99250094482422,-0.5480851440429682,79.88394594482422,-2.7740851440429672,79.59202254482422,-5.192185144042968C79.30009894482421,-7.610185144042969,79.97743994482421,-10.298585144042969,81.91215094482422,-11.83897514404297C83.60518094482421,-13.18665514404297,85.98191094482422,-13.434065144042968,88.08134094482422,-12.960885144042969C90.18073094482422,-12.48771514404297,92.06333094482422,-11.38043514404297,93.86893094482421,-10.23372514404297C94.35863094482421,-13.69228514404297,95.44053094482422,-16.62425514404297,98.09323094482421,-18.03108814404297C100.74603094482421,-19.43792414404297,103.26963094482421,-19.206411144042967,105.83843094482421,-17.72071514404297C108.40723094482422,-16.235025144042968,110.33433094482422,-13.890725144042968,112.07063094482422,-11.504465144042967C109.12783094482421,-11.973835144042969,106.06233094482423,-11.72832514404297,103.21493094482422,-10.796585144042968C102.61713094482423,-10.60069514404297,101.95063094482421,-10.294785144042969,101.78523094482422,-9.695035144042969C101.51493094482421,-8.715585144042969,102.79773094482422,-8.02618514404297,103.82173094482422,-8.06818514404297C106.06103094482421,-8.160985144042968,108.10453094482422,-9.78725514404297,110.33243094482421,-9.590735144042968C112.23343094482422,-9.42282514404297,113.77573094482422,-7.9110851440429695,114.51983094482422,-6.181785144042969C115.26393094482421,-4.453185144042969,115.35743094482422,-2.5215851440429695,115.44083094482423,-0.6371851440429701C112.85803094482422,-2.5005851440429687,109.72883094482421,-3.622485144042969,106.51963094482421,-3.834285144042969C105.89893094482422,-3.8749851440429683,105.13313094482422,-3.8012851440429696,104.86663094482422,-3.2415851440429684C104.56643094482422,-2.61128514404297,105.15543094482422,-1.944085144042969,105.71313094482421,-1.5306851440429696C107.19443094482422,-0.43298514404296995,108.85563094482421,0.42751485595703187,110.61543094482423,1.0088148559570307C111.69033094482421,1.3637148559570313,112.85613094482422,1.6467148559570326,113.64473094482422,2.4468148559570295C114.57833094482422,3.3938148559570323,114.75523094482422,4.88401485595703,114.43333094482422,6.180114855957033C114.11153094482421,7.476314855957032,113.36423094482421,8.628714855957032,112.62903094482422,9.753814855957032C111.62353094482421,6.636114855957032,108.76983094482422,4.197714855957031,105.49693094482421,3.660314855957033C105.20753094482421,5.17841485595703,106.21243094482422,6.61261485595703,107.28153094482423,7.720514855957031C108.35063094482422,8.82911485595703,109.59403094482423,9.910914855957031,109.96423094482422,11.403014855957032C110.29873094482421,12.752614855957031,109.83003094482422,14.208414855957031,109.02863094482422,15.36591485595703C108.22733094482422,16.52341485595703,107.11933094482421,17.436714855957028,106.02733094482421,18.33341485595703L104.85203094482422,18.52041485595703C101.89843094482421,18.107014855957033,99.01293094482422,17.264314855957032,96.31623094482421,16.02671485595703C97.07823094482421,13.857314855957028,97.70143094482421,11.642114855957033,98.18163094482422,9.398314855957032C98.32473094482421,8.727914855957032,98.45383094482422,8.01821485595703,98.22933094482423,7.375214855957033C98.00553094482422,6.732214855957032,97.29953094482423,6.2062148559570325,96.63933094482422,6.416714855957032C96.07013094482421,6.598014855957032,95.77633094482422,7.209814855957031,95.57663094482422,7.76691485595703C94.62003094482422,10.43301485595703,94.31283094482421,13.316014855957029,94.68873094482421,16.103014855957028C93.00843094482423,15.954814855957032,91.44703094482422,14.91751485595703,90.68193094482422,13.440714855957033C89.91683094482421,11.96331485595703,89.97093094482422,10.093414855957032,90.82183094482421,8.64021485595703C91.36563094482422,7.711014855957032,92.18803094482422,6.977614855957032,92.93213094482422,6.194114855957032C93.67623094482423,5.410514855957032,94.37453094482422,4.514414855957032,94.56663094482423,3.46181485595703C94.75803094482421,2.4093148559570317,94.28613094482422,1.1812148559570304,93.27303094482421,0.8237148559570322C91.92213094482422,0.3467148559570319,90.55473094482421,1.5608148559570303,89.78903094482422,2.776914855957031C88.19519094482422,5.306914855957032,87.51022094482421,8.37621485595703,87.88482094482421,11.310114855957032C85.86743094482422,9.91151485595703,84.62596094482421,7.490314855957031,84.66920094482421,5.0398148559570295C84.71244094482422,2.5892148559570316,86.04042094482422,0.17821485595703024,88.10678094482422,-1.2037851440429677C88.75486094482422,-1.6375851440429692,89.49135094482422,-1.9956851440429695,89.93783094482421,-2.630385144042968C90.38433094482421,-3.2650851440429687,90.36463094482421,-4.306885144042969,89.66563094482422,-4.635685144042968C89.29547094482422,-4.809985144042969,88.85472094482422,-4.734285144042969,88.45595094482422,-4.628085144042968L88.45723094482422,-4.627385144042968Z" fill="#FFFFFF" fill-opacity="1"/><path d="M87.21066094482421,-4.736985144042968L87.11587094482422,-4.788585144042969L88.32727094482422,-5.111285144042968Q89.28664094482421,-5.366785144042968,89.87843094482422,-5.088185144042969Q90.63943094482421,-4.730185144042968,90.72893094482421,-3.795485144042969Q90.80563094482422,-2.995085144042969,90.34683094482422,-2.3426851440429672Q89.94133094482422,-1.7662851440429677,88.81288094482422,-1.0616851440429684Q88.52244094482421,-0.8803851440429682,88.38475094482422,-0.7881851440429699Q85.23495094482422,1.3184148559570303,85.16912094482421,5.04861485595703Q85.11368094482422,8.19071485595703,87.28684094482422,10.19481485595703Q87.10389094482422,6.101114855957032,89.36590094482422,2.5104148559570305Q90.08433094482422,1.369514855957032,91.03823094482422,0.7467148559570305Q92.27323094482422,-0.05958514404296977,93.43933094482422,0.3522148559570297Q94.37303094482422,0.681614855957033,94.82633094482422,1.674414855957032Q95.23653094482422,2.572714855957031,95.05853094482421,3.5516148559570304Q94.80333094482422,4.94981485595703,93.29463094482422,6.538414855957033Q93.13303094482421,6.70861485595703,92.80543094482422,7.041414855957033Q91.64983094482422,8.215314855957033,91.25333094482421,8.892814855957031Q89.99903094482421,11.03481485595703,91.12593094482422,13.210714855957029Q92.10793094482422,15.106214855957035,94.11663094482422,15.516214855957031Q93.71473094482423,11.475814855957033,95.10593094482422,7.598214855957032Q95.59873094482421,6.223314855957032,96.48743094482421,5.94041485595703Q97.18963094482422,5.71641485595703,97.86943094482422,6.156014855957032Q98.46933094482422,6.543914855957031,98.70143094482421,7.21031485595703Q98.98603094482422,8.025414855957031,98.67063094482421,9.50291485595703Q97.99043094482423,12.68111485595703,96.93843094482422,15.758414855957028Q100.72283094482421,17.427414855957032,104.84763094482422,18.014814855957034L105.81443094482422,17.86101485595703Q107.86923094482421,16.162214855957032,108.61753094482421,15.081314855957032Q109.90123094482422,13.227114855957034,109.47893094482421,11.523314855957032Q109.19203094482421,10.36711485595703,107.36813094482422,8.52281485595703Q107.06883094482421,8.220214855957032,106.92173094482422,8.067714855957032Q104.60533094482422,5.667314855957031,105.00573094482422,3.5667148559570307L105.09703094482421,3.087914855957031L105.57793094482422,3.1669148559570317Q108.17023094482423,3.592614855957031,110.23803094482422,5.359314855957031Q111.89553094482422,6.775514855957031,112.73713094482422,8.644114855957032Q113.70393094482422,7.043014855957033,113.94813094482421,6.0596148559570295Q114.46233094482422,3.9883148559570323,113.28863094482422,2.797814855957032Q112.69463094482421,2.1952148559570297,110.90863094482421,1.6283148559570328Q110.60813094482421,1.5330148559570311,110.45863094482422,1.4836148559570326Q107.72023094482422,0.5790148559570305,105.41543094482422,-1.128985144042968Q103.85683094482422,-2.2841851440429686,104.41523094482422,-3.4564851440429685Q104.88473094482421,-4.442585144042969,106.55253094482421,-4.33328514404297Q111.11683094482422,-4.031985144042968,114.88403094482422,-1.62048514404297Q114.67633094482422,-4.553785144042969,114.06053094482422,-5.984185144042968Q112.81913094482422,-8.86918514404297,110.28853094482422,-9.092665144042968Q109.19593094482423,-9.189045144042968,106.99363094482422,-8.372385144042969Q104.94983094482421,-7.614485144042968,103.84213094482422,-7.568585144042968Q102.83613094482422,-7.527385144042968,102.03203094482421,-8.088485144042968Q101.01843094482422,-8.795885144042968,101.30323094482422,-9.827935144042968Q101.56643094482422,-10.782555144042968,103.05943094482421,-11.271795144042969Q106.95443094482422,-12.546335144042969,110.96133094482423,-12.15156514404297Q108.13233094482422,-15.816415144042969,105.58813094482421,-17.28789514404297Q101.84323094482421,-19.453826144042967,98.32753094482422,-17.58936514404297Q95.17903094482422,-15.919635144042969,94.36403094482422,-10.16362514404297L94.25533094482422,-9.396035144042969L93.60093094482421,-9.811645144042968Q90.20163094482422,-11.970465144042969,87.97141094482421,-12.47312514404297Q84.49573094482422,-13.25647514404297,82.22358094482422,-11.44781514404297Q79.59326014482421,-9.353575144042969,80.08841894482421,-5.252085144042969Q80.33681794482422,-3.194485144042968,82.01111094482422,0.3359148559570322Q82.72775094482422,-1.324485144042967,84.10219094482422,-2.6728851440429686Q85.49663094482422,-4.040885144042969,87.21066094482421,-4.736985144042968ZM88.67219094482422,-4.1671851440429695L88.58587094482422,-4.144185144042968Q86.45041094482421,-3.5756851440429696,84.80250094482422,-1.9589851440429698Q83.15574094482422,-0.3434851440429689,82.56593094482422,1.7595148559570326L82.21740094482422,3.002214855957032L81.63777094482421,1.84901485595703Q79.40127094482422,-2.6004851440429704,79.09562694482422,-5.132185144042969Q78.53354194482422,-9.788095144042968,81.60071094482421,-12.230135144042968Q84.24798094482422,-14.337405144042968,88.19128094482421,-13.44865514404297Q90.36983094482422,-12.957645144042969,93.49303094482421,-11.056435144042968Q94.48133094482422,-16.68156514404297,97.85903094482421,-18.47281514404297Q101.86423094482421,-20.596885144042968,106.08883094482422,-18.15353914404297Q109.13143094482422,-16.393815144042968,112.47493094482422,-11.798635144042969L113.18693094482421,-10.820085144042968L111.99183094482422,-11.01070514404297Q107.61193094482422,-11.709305144042968,103.37043094482422,-10.321385144042969Q102.38783094482422,-9.999385144042968,102.26723094482422,-9.562145144042969Q102.17043094482422,-9.21133514404297,102.60423094482422,-8.908585144042968Q103.13203094482422,-8.540285144042969,103.80123094482423,-8.567685144042969Q104.75043094482422,-8.60708514404297,106.64593094482422,-9.309995144042968Q109.05943094482421,-10.20496514404297,110.37633094482422,-10.088805144042968Q113.50173094482422,-9.81274514404297,114.97913094482422,-6.379385144042969Q115.76843094482422,-4.545785144042968,115.94033094482421,-0.6591851440429686L115.98593094482422,0.3727148559570317L115.14823094482422,-0.23168514404297014Q111.28533094482421,-3.018685144042969,106.48673094482422,-3.3353851440429683Q105.49603094482421,-3.4003851440429695,105.31813094482422,-3.0265851440429685Q105.11363094482422,-2.5973851440429705,106.01093094482422,-1.9323851440429678Q108.18653094482423,-0.32008514404297017,110.77233094482422,0.5340148559570324Q110.91633094482421,0.5816148559570316,111.21113094482422,0.6752148559570301Q113.23303094482422,1.3169148559570303,114.00083094482422,2.0958148559570304Q115.56793094482421,3.685414855957031,114.91863094482422,6.300614855957033Q114.57283094482422,7.693214855957031,113.04763094482422,10.02731485595703L112.47463094482421,10.90411485595703L112.15313094482423,9.907314855957033Q111.44243094482422,7.703714855957031,109.58843094482421,6.119614855957032Q107.94853094482423,4.7184148559570325,105.94833094482422,4.258414855957032Q105.98833094482421,5.660314855957033,107.64133094482422,7.37331485595703Q107.78433094482422,7.5215148559570295,108.07913094482421,7.819614855957031Q110.09643094482422,9.85941485595703,110.44953094482422,11.282614855957032Q110.98053094482421,13.424914855957034,109.43973094482422,15.650514855957034Q108.59303094482422,16.873514855957033,106.34463094482422,18.719814855957033L106.23983094482422,18.805914855957035L104.85673094482422,19.02601485595703L104.78273094482422,19.015614855957033Q100.24673094482422,18.38071485595703,96.10773094482423,16.48111485595703L95.69353094482422,16.29101485595703L95.84453094482421,15.86101485595703Q96.97783094482422,12.63401485595703,97.69273094482422,9.293614855957031Q97.94953094482422,8.090614855957032,97.75733094482422,7.540014855957033Q97.45803094482422,6.680414855957032,96.79123094482422,6.89311485595703Q96.37333094482422,7.026214855957033,96.04723094482422,7.9357148559570305Q94.62603094482422,11.897014855957032,95.18423094482422,16.036214855957034L95.26783094482423,16.656014855957032L94.64483094482422,16.60111485595703Q91.61793094482422,16.334114855957033,90.23803094482422,13.67071485595703Q88.85760094482421,11.005214855957032,90.39043094482422,8.387514855957033Q90.84973094482422,7.602714855957032,92.09283094482421,6.33981485595703Q92.41403094482422,6.01351485595703,92.56953094482422,5.849814855957032Q93.87313094482423,4.47711485595703,94.07473094482422,3.3721148559570295Q94.37133094482422,1.7414148559570322,93.10663094482422,1.2952148559570311Q91.63913094482422,0.7770148559570309,90.21213094482422,3.043314855957032Q87.81850094482422,6.84291485595703,88.38079094482421,11.24681485595703L88.52305094482422,12.36091485595703L87.59995094482422,11.72101485595703Q84.09411094482422,9.290514855957031,84.16928094482422,5.0309148559570325Q84.24433094482421,0.7779148559570324,87.82881094482423,-1.6194851440429687Q87.97935094482422,-1.7201851440429685,88.28326094482422,-1.9099851440429703Q89.23992094482422,-2.5072851440429673,89.52883094482422,-2.918085144042969Q89.77493094482422,-3.2678851440429693,89.73353094482422,-3.700085144042969Q89.69833094482422,-4.067785144042968,89.45277094482422,-4.183285144042969Q89.21041094482422,-4.297385144042968,88.67219094482422,-4.1671851440429695Z" fill-rule="evenodd" fill="#000000" fill-opacity="1"/></g></g><g><g><path d="M15.199822888183594,39.62509606933594C17.691722888183595,41.50699606933594,19.09412288818359,44.748096069335936,18.746222888183596,47.81799606933593C20.576622888183593,46.21719606933594,22.442622888183593,44.573196069335935,23.624322888183592,42.44379606933594C24.80602288818359,40.31449606933594,25.192722888183596,37.568896069335935,23.98112288818359,35.412896069335936C22.921522888183596,33.526496069335934,20.812522888183594,32.40139606933594,18.690222888183595,32.04779606933594C16.567222888183593,31.694196069335938,14.406122888183592,32.010296069335936,12.301622888183594,32.392496069335934C13.151922888183595,29.004516069335935,13.255022888183593,25.88111606933594,11.327922888183593,23.577536069335938C9.400822888183594,21.274580069335936,6.9764228881835955,20.538098069335938,4.037422888183595,20.945769069335938C1.0985228881835933,21.353439069335938,-1.570177111816406,22.79843606933594,-4.078557111816407,24.354096069335938C-1.176477111816407,25.028896069335936,1.5710228881835935,26.411546069335937,3.8568228881835935,28.34817606933594C4.3370228881835935,28.754586069335936,4.838822888183593,29.289466069335937,4.765622888183593,29.90764606933594C4.646722888183593,30.916996069335937,3.198522888183593,31.071496069335936,2.2662228881835933,30.646666069335936C0.22712288818359383,29.716836069335937,-1.0524771118164065,27.439966069335938,-3.1907071118164065,26.782346069335937C-5.014757111816406,26.22139606933594,-7.013697111816406,27.039926069335937,-8.354387111816406,28.360886069335937C-9.695077111816406,29.681856069335936,-10.509787111816406,31.435296069335937,-11.297797111816406,33.14929606933594C-8.203017111816406,32.39689606933594,-4.881827111816406,32.53749606933594,-1.829677111816407,33.55129606933593C-1.2394771118164059,33.747196069335935,-0.5576771118164068,34.10459606933594,-0.5220771118164063,34.723396069335934C-0.48197711181640557,35.42049606933594,-1.2788771118164064,35.81669606933594,-1.9504771118164062,35.989096069335936C-3.7357471118164067,36.44699606933594,-5.599227111816406,36.618096069335934,-7.448717111816406,36.49339606933594C-8.578257111816406,36.41709606933594,-9.764397111816406,36.23959606933594,-10.796627111816406,36.683596069335934C-12.018380111816406,37.208896069335935,-12.744055111816406,38.52219606933593,-12.934218811816406,39.84449606933594C-13.124383111816407,41.16669606933594,-12.866803111816406,42.51569606933594,-12.610495111816407,43.83469606933593C-10.504067111816406,41.32639606933594,-6.941827111816406,40.143396069335935,-3.7077671118164055,40.879296069335936C-4.012407111816406,42.39479606933594,-5.4834771118164065,43.34379606933594,-6.891587111816406,43.966996069335934C-8.299687111816407,44.590296069335935,-9.859157111816407,45.12389606933594,-10.764187111816407,46.36669606933594C-11.582717111816406,47.49049606933593,-11.697197111816406,49.01559606933594,-11.391287111816407,50.389996069335936C-11.085367111816407,51.76439606933594,-10.403577111816407,53.02749606933594,-9.730047111816406,54.26959606933594L-8.711817111816405,54.885896069335935C-5.820557111816406,55.61659606933594,-2.830077111816406,55.923796069335935,0.13362288818359325,55.794096069335936C0.24562288818359335,53.49749606933594,0.5032228881835934,51.21039606933594,0.9045228881835943,48.95139606933594C1.0240228881835929,48.27659606933594,1.172922888183594,47.570596069335934,1.6225228881835942,47.059296069335936C2.0722228881835942,46.547896069335934,2.924422888183594,46.32719606933594,3.456722888183595,46.771196069335936C3.915322888183592,47.15339606933594,3.957322888183594,47.83139606933594,3.9325228881835947,48.42219606933594C3.813522888183595,51.25179606933594,3.010922888183593,54.038096069335936,1.6130228881835933,56.47779606933594C3.2252228881835947,56.973896069335936,5.062022888183595,56.60179606933594,6.327722888183594,55.52189606933594C7.593322888183593,54.441996069335936,8.248422888183594,52.68979606933594,8.008022888183593,51.023496069335934C7.854122888183593,49.95749606933594,7.368822888183594,48.96859606933594,6.9757228881835935,47.96239606933594C6.5820228881835945,46.95619606933594,6.273022888183593,45.862996069335935,6.492422888183594,44.815496069335936C6.711822888183594,43.767996069335936,7.612422888183595,42.80889606933594,8.684722888183593,42.85979606933594C10.115722888183594,42.927196069335935,10.924722888183595,44.56739606933594,11.175922888183592,45.98189606933594C11.698722888183593,48.926596069335936,11.175922888183592,52.02709606933594,9.722622888183594,54.60349606933594C12.118422888183595,54.06859606933594,14.181022888183595,52.29419606933594,15.064422888183593,50.00779606933594C15.947822888183595,47.721296069335935,15.627222888183592,44.988396069335934,14.233822888183592,42.92909606933594C13.796822888183595,42.28349606933594,13.249922888183594,41.673596069335936,13.075622888183595,40.917396069335936C12.901322888183593,40.16059606933594,13.312222888183594,39.203996069335936,14.083022888183592,39.16269606933594Q14.491322888183593,39.14109606933594,14.915222888183592,39.15769606933594L15.199822888183594,39.62509606933594Z" fill="#FFFFFF" fill-opacity="1"/><path d="M14.630122888183593,39.65079606933594L14.822422888183592,39.966596069335935L14.898522888183592,40.02409606933594Q16.662122888183593,41.35599606933594,17.579122888183594,43.47459606933594Q18.495322888183594,45.591596069335935,18.249422888183595,47.76169606933594L18.104122888183593,49.04379606933594L19.075322888183592,48.19439606933594Q22.824522888183594,44.91559606933593,24.061522888183596,42.68639606933594Q26.337422888183596,38.58539606933594,24.417022888183595,35.16789606933594Q22.76062288818359,32.21909606933594,18.772422888183595,31.554596069335936Q16.568122888183595,31.18739606933594,12.960022888183595,31.771896069335938Q14.165022888183593,26.18976606933594,11.711422888183595,23.256716069335937Q8.802222888183593,19.78004606933594,3.968722888183592,20.45051106933594Q0.4886228881835937,20.933247269335936,-4.342087111816406,23.929186069335938L-5.370547111816406,24.56701606933594L-4.191797111816406,24.841106069335936Q0.1301228881835943,25.846056069335937,3.5336228881835936,28.729666069335938Q4.322522888183595,29.397396069335937,4.269122888183595,29.84890606933594Q4.226522888183595,30.210536069335937,3.710622888183593,30.327316069335936Q3.0829228881835924,30.469376069335937,2.4735228881835933,30.191676069335937Q1.609322888183593,29.797586069335935,0.11872288818359422,28.432186069335938Q-1.7796771118164063,26.693196069335936,-3.0437271118164055,26.30443606933594Q-6.043387111816406,25.38195606933594,-8.705317111816406,28.004726069335938Q-10.126827111816407,29.405336069335938,-11.752087111816406,32.940496069335936L-12.183691111816406,33.879296069335936L-11.179677111816407,33.63519606933593Q-6.551127111816406,32.50989606933594,-1.9872771118164057,34.02579606933594Q-1.0449771118164062,34.33849606933594,-1.0211771118164066,34.75219606933594Q-0.9938771118164063,35.22739606933594,-2.074777111816406,35.504696069335935Q-4.698227111816406,36.17769606933594,-7.415097111816406,35.99449606933594Q-7.5668571118164065,35.98429606933594,-7.875797111816406,35.95979606933594Q-9.989577111816406,35.79219606933594,-10.994167111816406,36.22419606933594Q-13.045561511816405,37.10629606933594,-13.429127111816406,39.77329606933594Q-13.633248111816407,41.192596069335934,-13.101315111816406,43.93009606933594L-12.901445111816406,44.958696069335936L-12.227597111816406,44.15629606933594Q-10.738717111816406,42.38329606933594,-8.424447111816406,41.61489606933594Q-6.377417111816406,40.935296069335934,-4.351487111816406,41.26309606933594Q-4.917237111816407,42.54629606933594,-7.093967111816406,43.509796069335934Q-7.281447111816406,43.59279606933593,-7.665067111816406,43.75689606933594Q-10.304557111816406,44.88619606933594,-11.168367111816407,46.072296069335934Q-12.467540111816406,47.85599606933594,-11.879337111816406,50.49859606933594Q-11.556067111816406,51.950996069335936,-10.169597111816406,54.507896069335935L-10.104957111816406,54.627096069335934L-8.906787111816406,55.352296069335935L-8.834337111816406,55.37059606933594Q-4.394527111816407,56.49279606933594,0.15552288818359372,56.29359606933594L0.6109228881835946,56.27369606933594L0.6331228881835944,55.81839606933594Q0.7997228881835934,52.39999606933594,1.3968228881835945,49.03879606933594Q1.6111228881835942,47.82949606933594,1.998022888183593,47.38939606933594Q2.5985228881835933,46.70649606933594,3.1365228881835954,47.155196069335936Q3.4734228881835953,47.43599606933594,3.432922888183594,48.40129606933594Q3.2563228881835933,52.60419606933594,1.1792228881835936,56.229196069335934L0.8683228881835934,56.771796069335934L1.4659228881835933,56.955696069335936Q4.370322888183594,57.849296069335935,6.652222888183594,55.902196069335936Q8.935922888183594,53.95359606933594,8.502822888183594,50.95209606933594Q8.373122888183595,50.053496069335935,7.699922888183593,48.41879606933594Q7.524222888183594,47.992296069335936,7.441522888183595,47.78049606933594Q6.751522888183594,46.01719606933594,6.9818228881835935,44.91799606933594Q7.321622888183594,43.29569606933594,8.661022888183595,43.35919606933594Q10.215222888183593,43.43239606933594,10.683622888183592,46.069296069335934Q11.468522888183593,50.49049606933593,9.287122888183593,54.357896069335936L8.735222888183593,55.33619606933594L9.831622888183595,55.09149606933594Q13.995422888183594,54.16189606933594,15.530822888183593,50.18799606933594Q17.064022888183594,46.219596069335935,14.647922888183594,42.64889606933593Q14.546822888183595,42.49959606933594,14.338222888183594,42.21119606933594Q13.675822888183593,41.29549606933594,13.562822888183593,40.80509606933594Q13.466822888183593,40.38799606933594,13.668022888183593,40.00349606933594Q13.839022888183592,39.67649606933594,14.109822888183594,39.66199606933594Q14.366422888183592,39.64839606933594,14.630122888183593,39.65079606933594ZM15.578022888183593,39.284696069335936L15.342322888183595,38.89759606933593L15.202822888183594,38.66859606933593L14.934822888183593,38.65809606933594Q14.487922888183594,38.64049606933594,14.056322888183594,38.66339606933594Q13.216922888183593,38.70839606933593,12.781922888183594,39.53999606933594Q12.409322888183596,40.252096069335934,12.588422888183594,41.02969606933594Q12.746922888183594,41.71739606933593,13.527922888183593,42.79719606933594Q13.727522888183593,43.07309606933594,13.819722888183595,43.209296069335934Q15.942822888183592,46.34699606933594,14.598022888183593,49.82759606933594Q13.465522888183592,52.758796069335936,10.697022888183593,53.79589606933594Q12.410022888183594,50.07289606933594,11.668222888183593,45.894496069335936Q11.060222888183592,42.47109606933594,8.708422888183595,42.36029606933594Q7.719922888183593,42.31339606933594,6.925822888183593,43.06189606933594Q6.206922888183595,43.739296069335936,6.003022888183594,44.71299606933594Q5.711622888183594,46.10389606933594,6.510022888183595,48.14429606933594Q6.596122888183594,48.364696069335935,6.775222888183595,48.799596069335934Q7.401122888183593,50.31939606933594,7.513122888183595,51.09489606933594Q7.867422888183594,53.55079606933594,6.003122888183594,55.141496069335936Q4.379122888183595,56.527196069335936,2.3640228881835945,56.14989606933594Q4.259122888183594,52.55769606933593,4.432022888183592,48.44319606933594Q4.493322888183595,46.98429606933594,3.7770228881835948,46.38719606933594Q3.2109228881835925,45.91509606933594,2.4156228881835933,46.06569606933594Q1.7134228881835938,46.19869606933594,1.2470228881835936,46.72909606933594Q0.675222888183594,47.37939606933594,0.4122228881835941,48.86389606933594Q-0.15597711181640683,52.06209606933594,-0.34147711181640616,55.310996069335935Q-4.4760871118164065,55.43029606933594,-8.517097111816406,54.419296069335935L-9.354767111816406,53.91229606933594Q-10.617537111816407,51.56489606933594,-10.903227111816406,50.28139606933594Q-11.393287111816406,48.07969606933594,-10.360007111816406,46.66099606933594Q-9.658207111816406,45.697296069335934,-7.271727111816406,44.67629606933593Q-6.882327111816406,44.50969606933594,-6.6892071118164065,44.42429606933594Q-3.638937111816407,43.07409606933594,-3.2175771118164054,40.97779606933594L-3.121507111816406,40.49989606933593L-3.5968371118164058,40.391696069335936Q-6.158317111816406,39.80889606933594,-8.739537111816407,40.665896069335936Q-10.808287111816407,41.352696069335934,-12.291992111816405,42.76589606933594Q-12.583459111816406,40.91799606933594,-12.439311111816407,39.91569606933594Q-12.135548111816407,37.803496069335935,-10.599087111816406,37.14289606933593Q-9.821867111816406,36.808596069335934,-7.954827111816407,36.95669606933593Q-7.639957111816407,36.981596069335936,-7.482347111816407,36.992296069335936Q-4.605287111816406,37.186196069335935,-1.8261771118164063,36.473396069335934Q0.051622888183594284,35.991396069335934,-0.02287711181640617,34.69469606933594Q-0.08567711181640547,33.60329606933594,-1.6720771118164066,33.07679606933594Q-6.012917111816407,31.634896069335937,-10.411147111816407,32.448396069335935Q-9.112307111816406,29.809586069335936,-8.003467111816406,28.71705606933594Q-5.766757111816406,26.51324606933594,-3.3376871118164058,27.260256069335938Q-2.288977111816406,27.58278606933594,-0.5567771118164071,29.16957606933594Q1.0504228881835935,30.64181606933594,2.0588228881835935,31.101696069335937Q2.9750228881835934,31.519096069335937,3.931322888183594,31.302596069335937Q5.136922888183594,31.029796069335937,5.262222888183594,29.966396069335936Q5.378722888183592,28.98124606933594,4.1800228881835935,27.966686069335935Q1.0543228881835933,25.318446069335938,-2.8070771118164064,24.173016069335937Q1.1960228881835935,21.84469606933594,4.106122888183595,21.441027069335938Q8.390822888183592,20.846686049335936,10.944422888183595,23.89835606933594Q13.231722888183594,26.63259606933594,11.816622888183595,32.27079606933594L11.627822888183594,33.02299606933594L12.390922888183592,32.884396069335935Q16.351522888183595,32.16509606933594,18.608022888183594,32.54099606933594Q22.123522888183594,33.126696069335935,23.545222888183595,35.65779606933594Q25.192122888183597,38.58839606933594,23.187122888183595,42.201196069335936Q22.181722888183593,44.01289606933594,19.299722888183595,46.652396069335936Q19.261522888183592,44.84429606933594,18.496822888183594,43.07739606933593Q17.495122888183595,40.76299606933594,15.578022888183593,39.284696069335936Z" fill-rule="evenodd" fill="#000000" fill-opacity="1"/></g></g><g><path d="M53.42490618896484,-53.235252441406246Q53.391006188964845,-53.22575244140625,53.356306188964844,-53.21715244140625Q52.50130618896485,-53.00615244140625,51.273906188964844,-53.62055244140625L48.28390618896484,-55.11745244140625L49.11780618896484,-54.97665244140625Q47.351806188964844,-56.34305244140625,46.051176188964845,-58.32125244140625Q44.37375618896485,-60.87255244140625,43.93786618896485,-63.73065244140625Q40.106156188964846,-58.76365244140625,39.03981618896484,-55.67695244140625Q38.13598418896484,-53.06065244140625,38.37915718896485,-50.48755244140625Q38.64082118896484,-47.71875244140625,40.192896188964845,-45.82465244140625Q42.95875618896484,-42.44965244140625,48.31700618896484,-42.57325244140625Q51.72970618896484,-42.65195244140625,57.33740618896485,-44.80805244140625L58.07460618896484,-45.09145244140625L58.015406188964846,-44.30385244140625Q57.36070618896484,-35.58565244140625,61.45320618896484,-32.16455244140625Q66.01870618896484,-28.34815244140625,72.21450618896483,-30.440152441406248Q76.55420618896484,-31.90535244140625,82.07870618896484,-36.74605244140625Q75.93310618896484,-37.25445244140625,70.53780618896485,-40.35645244140625Q68.64910618896485,-41.44295244140625,68.57870618896484,-42.78175244140625Q68.50430618896485,-44.18825244140625,70.02360618896483,-44.84825244140625Q71.28380618896485,-45.39575244140625,72.64190618896484,-45.06015244140625Q74.18640618896484,-44.67835244140625,76.85800618896485,-42.99815244140625Q79.81150618896484,-41.14085244140625,81.46510618896485,-40.95545244140625Q83.30780618896485,-40.74905244140625,85.15610618896484,-41.78085244140625Q86.88650618896484,-42.74685244140625,88.10230618896485,-44.47225244140625Q89.53570618896484,-46.50645244140625,90.83240618896485,-51.09795244140625Q84.51190618896484,-48.51785244140625,77.67550618896485,-49.43885244140625Q75.39280618896484,-49.74635244140625,75.06350618896485,-51.16585244140625Q74.67630618896484,-52.83435244140625,77.09630618896485,-53.96835244140625Q80.91540618896485,-55.75785244140625,85.10420618896484,-56.26595244140625Q85.33450618896484,-56.29395244140625,85.79700618896484,-56.34475244140625Q88.60290618896485,-56.65255244140625,89.69840618896484,-57.38755244140625Q91.88110618896485,-58.852552441406246,91.79090618896484,-62.15035244140625Q91.74570618896485,-63.80535244140625,90.70580618896484,-66.75145244140626Q88.88590618896484,-64.07175244140625,85.89070618896484,-62.409452441406245Q82.41710618896485,-60.48175244140625,78.61900618896485,-60.61935244140625L78.12350618896485,-60.63735244140625L78.13730618896484,-61.132952441406246Q78.22170618896484,-64.17085244140625,82.20440618896484,-66.90605244140625Q82.46210618896484,-67.08305244140625,82.98590618896485,-67.43335244140624Q86.25190618896485,-69.61755244140625,87.06050618896484,-71.27625244140626Q88.25570618896484,-73.72872244140625,86.95280618896484,-76.89623244140626Q86.19990618896485,-78.72783244140625,83.72820618896483,-81.85533244140625L82.29680618896484,-82.39533144140626Q76.01220618896485,-82.76357344140625,69.88260618896484,-81.37927244140624Q70.44960618896485,-76.49849244140626,70.42390618896485,-71.59065244140625Q70.41310618896485,-69.42605244140626,69.78190618896484,-68.38225244140625Q69.28210618896485,-67.55565244140625,68.37600618896485,-67.19935244140625Q67.36340618896485,-66.80105244140626,66.51710618896485,-67.27895244140625Q65.42420618896485,-67.89615244140624,65.16420618896484,-69.92255244140625Q64.37410618896484,-76.06275244140625,66.32930618896484,-81.90323244140625Q62.98890618896485,-82.02912144140625,60.79610618896484,-79.34169244140625Q58.39970618896484,-76.40478244140625,59.569106188964845,-72.79955244140625Q59.93390618896484,-71.67435244140626,61.23830618896484,-69.61045244140625Q61.60580618896485,-69.02905244140625,61.78450618896484,-68.73425244140626Q63.41750618896484,-66.04375244140626,63.34490618896484,-64.01085244140626Q63.295106188964844,-62.615652441406255,62.46790618896485,-61.49475244140625Q61.56550618896485,-60.27195244140625,60.22160618896484,-60.08085244140625Q58.52640618896484,-59.839952441406254,57.08220618896485,-61.29365244140625Q55.94160618896484,-62.441852441406255,55.284206188964845,-64.26215244140624Q53.095206188964845,-70.32725244140624,54.869806188964844,-76.40717244140625Q53.130706188964844,-75.41927244140625,51.807306188964844,-73.78361244140625Q50.10210618896484,-71.67625244140625,49.59290618896485,-69.11895244140625Q49.08370618896484,-66.56145244140625,49.851406188964845,-63.96175244140625Q50.619006188964846,-61.36185244140625,52.43580618896485,-59.49135244140625Q52.60660618896485,-59.315552441406254,52.96860618896484,-58.96585244140625Q54.33830618896484,-57.64295244140625,54.72220618896485,-56.72895244140625Q55.14240618896484,-55.72835244140625,54.80670618896484,-54.67505244140625Q54.529906188964844,-53.806152441406255,53.88770618896484,-53.42975244140625L54.70750618896484,-53.018652441406246L53.42490618896484,-53.235252441406246ZM51.821206188964844,-54.46605244140625L51.72570618896484,-54.513952441406246Q48.77980618896484,-55.99135244140625,46.886756188964846,-58.87065244140625Q44.993576188964845,-61.75015244140625,44.80566618896484,-65.03985244140625L44.730976188964846,-66.34755244140625L43.915276188964846,-65.32275244140625Q39.319146188964844,-59.54805244140625,38.094629188964845,-56.00345244140625Q37.12002918896484,-53.18235244140625,37.383593188964845,-50.39345244140625Q37.67396218896484,-47.32095244140625,39.41940618896484,-45.19085244140625Q42.49436618896485,-41.43865244140625,48.340106188964846,-41.57345244140625Q51.697506188964844,-41.65095244140625,56.968506188964845,-43.60005244140625Q56.51670618896485,-34.98785244140625,60.811806188964844,-31.397352441406248Q65.80740618896485,-27.221352441406253,72.53440618896485,-29.492752441406253Q77.41900618896484,-31.14185244140625,83.64180618896484,-36.80115244140625L84.54280618896485,-37.62065244140625L83.32590618896484,-37.67065244140625Q76.74540618896484,-37.94095244140625,71.03620618896485,-41.22335244140625Q69.61920618896484,-42.03855244140625,69.57740618896484,-42.83415244140625Q69.53960618896484,-43.54775244140625,70.42210618896485,-43.93105244140625Q71.37210618896484,-44.34385244140625,72.40210618896484,-44.08935244140625Q73.79020618896485,-43.74615244140625,76.32570618896484,-42.15165244140625Q79.47280618896485,-40.17255244140625,81.35370618896485,-39.96165244140625Q83.51530618896484,-39.71965244140625,85.64350618896484,-40.90775244140625Q87.57270618896484,-41.98465244140625,88.91970618896485,-43.89625244140625Q90.60800618896485,-46.29205244140625,92.07140618896484,-51.84015244140625L92.33980618896484,-52.85735244140625L91.38150618896483,-52.42305244140625Q84.88250618896484,-49.47695244140625,77.80900618896484,-50.42985244140625Q76.21090618896484,-50.64515244140625,76.03770618896485,-51.39185244140625Q75.83340618896484,-52.27215244140625,77.52070618896485,-53.06285244140625Q81.19480618896485,-54.784452441406245,85.22460618896484,-55.27325244140625Q85.44930618896484,-55.30055244140625,85.90600618896485,-55.350652441406254Q88.95610618896484,-55.68525244140625,90.25560618896483,-56.557152441406245Q92.89580618896484,-58.329252441406254,92.79060618896484,-62.17765244140625Q92.73360618896484,-64.26095244140625,91.29090618896484,-68.05975244140625L90.91590618896484,-69.04725244140624L90.38990618896484,-68.13125244140625Q88.63560618896484,-65.07655244140625,85.40540618896485,-63.28385244140625Q82.41950618896485,-61.62675244140625,79.18590618896485,-61.61035244140625Q79.56370618896484,-63.879352441406255,82.77050618896484,-66.08175244140625Q83.02340618896484,-66.25535244140625,83.54180618896484,-66.60205244140624Q87.03240618896484,-68.93655244140625,87.95940618896483,-70.83805244140625Q89.35130618896484,-73.69407244140625,87.87760618896485,-77.27666244140624Q87.05810618896484,-79.27041244140625,84.42580618896484,-82.58523744140625L84.33990618896485,-82.69337644140624L82.50790618896485,-83.38448844140625L82.43230618896484,-83.38904244140625Q75.73930618896485,-83.79234244140625,69.21810618896484,-82.25210744140625L68.78270618896485,-82.14924944140625L68.83670618896484,-81.70505244140625Q69.45050618896485,-76.66504244140626,69.42390618896485,-71.59595244140625Q69.41450618896485,-69.70715244140625,68.92620618896484,-68.89975244140625Q68.60140618896484,-68.36255244140625,68.01000618896484,-68.12995244140625Q67.44050618896485,-67.90595244140624,67.00890618896484,-68.14975244140625Q66.35230618896485,-68.52045244140625,66.15610618896484,-70.04975244140626Q65.35490618896485,-76.27654244140625,67.48520618896484,-82.18288144140625L67.70010618896484,-82.77874144140625L67.07060618896485,-82.84940544140625Q65.09570618896484,-83.07111124140626,63.18670618896485,-82.29237744140624Q61.27770618896484,-81.51367244140624,60.02130618896484,-79.97389244140625Q58.764906188964844,-78.43411244140626,58.38490618896485,-76.40779244140624Q58.00480618896484,-74.38133244140624,58.617906188964845,-72.49095244140625Q59.021406188964846,-71.24635244140624,60.39300618896485,-69.07625244140625Q60.755506188964844,-68.50265244140625,60.929506188964844,-68.21575244140625Q62.407506188964845,-65.78055244140626,62.345606188964844,-64.04655244140625Q62.30680618896484,-62.96055244140625,61.66330618896484,-62.08855244140625Q61.009806188964845,-61.20305244140625,60.08080618896484,-61.070852441406245Q58.88230618896485,-60.90055244140625,57.791706188964845,-61.99845244140625Q56.80700618896485,-62.989552441406246,56.22480618896485,-64.60175244140625Q53.95150618896484,-70.90025244140625,56.180806188964844,-77.21575244140625L56.561406188964845,-78.29384244140626L55.51140618896484,-77.84136244140625Q52.89000618896485,-76.71163244140625,51.029906188964844,-74.41262244140626Q49.169506188964846,-72.11345244140625,48.61220618896485,-69.31425244140625Q48.05480618896485,-66.51485244140625,48.892306188964845,-63.678552441406254Q49.729806188964844,-60.84205244140625,51.718506188964845,-58.79465244140625Q51.900406188964844,-58.60735244140625,52.273906188964844,-58.24655244140625Q53.495906188964845,-57.06635244140625,53.80020618896484,-56.34175244140625Q54.07770618896484,-55.680852441406245,53.85390618896484,-54.978652441406254Q53.643406188964846,-54.31795244140625,53.116806188964844,-54.18805244140625Q52.647406188964844,-54.07225244140625,51.821206188964844,-54.46605244140625Z" fill-rule="evenodd" fill="#000000" fill-opacity="1"/></g><g><path d="M95.74575386962891,21.78629582519531C97.16905386962891,17.417015825195314,101.40615386962891,14.223025825195313,106.4559538696289,13.712305825195312C102.80465386962891,11.506025825195312,99.0630538696289,9.260945825195313,94.98065386962891,8.205186825195312C90.8974538696289,7.149423825195313,86.3360538696289,7.4935098251953125,83.6890538696289,10.035585825195312C81.3733538696289,12.259685825195312,80.9046538696289,15.799645825195313,81.65955386962891,19.102395825195313C82.4145538696289,22.404495825195312,84.24685386962891,25.539395825195314,86.14845386962891,28.566695825195314C80.2890138696289,28.431295825195313,75.30659386962891,29.327995825195313,72.8707138696289,32.99199582519532C70.4348328696289,36.65599582519531,70.77255286962891,40.540095825195316,73.2306838696289,44.810795825195314C75.68883386962891,49.08089582519531,79.6116738696289,52.59739582519531,83.61085386962891,55.834595825195315C82.8807538696289,51.255395825195315,83.3602538696289,46.66989582519531,84.9966538696289,42.591195825195314C85.3401538696289,41.73449582519531,85.87245386962891,40.80209582519531,86.8906538696289,40.703595825195315C88.55315386962891,40.54259582519531,89.69165386962891,42.66179582519531,89.5981538696289,44.20279582519531C89.3939538696289,47.57359582519531,86.59875386962891,50.258195825195315,86.8836538696289,53.685595825195314C87.12665386962891,56.60929582519531,89.6509538696289,59.331395825195315,92.55935386962891,60.89719582519531C95.4671538696289,62.463695825195316,98.7317538696289,63.09519582519531,101.9174538696289,63.70009582519531C98.8207538696289,59.31289582519531,96.9910538696289,54.284095825195315,96.7009538696289,49.367095825195314C96.64505386962891,48.415695825195314,96.78625386962891,47.273395825195315,97.73895386962892,47.011995825195314C98.8112538696289,46.71759582519531,99.9274538696289,47.77899582519531,100.61425386962891,48.72859582519531C102.4389538696289,51.25159582519531,103.8591538696289,53.98899582519531,104.8049538696289,56.80389582519531C105.3823538696289,58.52299582519531,105.83645386962891,60.36169582519531,107.17205386962891,61.76019582519531C108.7538538696289,63.415095825195316,111.2698538696289,64.06189582519531,113.46915386962891,63.902895825195316C115.6684538696289,63.74389582519531,117.63365386962892,62.90379582519531,119.5518538696289,62.07509582519531C114.3003538696289,59.75999582519531,110.2376538696289,54.81579582519531,109.3987538696289,49.718795825195315C111.97265386962891,49.66609582519531,114.3760538696289,51.55239582519531,116.2274538696289,53.45409582519531C118.07885386962892,55.35569582519531,119.88255386962891,57.51489582519531,122.3985538696289,58.45429582519531C124.6735538696289,59.303995825195315,127.14635386962891,58.96249582519531,129.1210538696289,58.04149582519531C131.0958538696289,57.11999582519531,132.66365386962892,55.67309582519531,134.20405386962892,54.24529582519531L134.54555386962892,52.51149582519531C133.9101538696289,47.92979582519531,132.5459538696289,43.342295825195315,130.5107538696289,38.94119582519531C126.8251538696289,39.54599582519531,123.06505386962891,39.92889582519531,119.26055386962891,40.08789582519531C118.12405386962891,40.13499582519531,116.9207538696289,40.15019582519531,115.8375538696289,39.647095825195315C114.7544538696289,39.14469582519531,113.8806538696289,37.941395825195315,114.25075386962891,36.99309582519531C114.57005386962891,36.17649582519532,115.61055386962892,35.885795825195316,116.5569538696289,35.72429582519531C121.08655386962891,34.95089582519532,125.96905386962891,35.21679582519531,130.6742538696289,36.493195825195315C130.45985386962892,33.90849582519532,128.73825386962892,31.279295825195312,126.2565538696289,29.74459582519531C123.77485386962891,28.209995825195314,120.61075386962891,27.817595825195312,118.1348538696289,28.73849582519531C116.5518538696289,29.327395825195314,115.2938538696289,30.387595825195312,113.9524538696289,31.31619582519531C112.61115386962891,32.24479582519531,111.0809538696289,33.076695825195316,109.29635386962892,33.100195825195314C107.5117538696289,33.12369582519531,105.4453538696289,32.09589582519531,104.86215386962891,30.47029582519531C104.0843538696289,28.301595825195314,106.16725386962891,26.53729582519531,108.2399538696289,25.684395825195313C112.5532538696289,23.909995825195313,117.7589538696289,23.650495825195314,122.7127538696289,24.96259582519531C120.39075386962891,21.54979582519531,116.32225386962891,19.053495825195313,112.1767538696289,18.49819582519531C108.0313538696289,17.94299582519531,103.9259538696289,19.343495825195312,101.54355386962891,22.125395825195312C100.7968538696289,22.99799582519531,100.1748538696289,24.023195825195312,99.0917538696289,24.53899582519531C98.0086538696289,25.054795825195313,96.2475538696289,24.760295825195314,95.70625386962891,23.61809582519531C95.41945386962891,23.012595825195312,95.55685386962891,22.364495825195313,95.74575386962891,21.78629582519531L95.74575386962891,21.78629582519531Z" fill="#FFFFFF" fill-opacity="1"/><path d="M96.1581538696289,23.403995825195313L96.1581538696289,23.403995825195313Q95.91255386962891,22.885595825195313,96.2210538696289,21.941595825195314Q97.2398538696289,18.81389582519531,100.04185386962891,16.701605825195312Q102.85795386962891,14.578745825195313,106.5062538696289,14.209775825195312L107.99655386962891,14.059045825195312L106.7145538696289,13.284365825195312Q99.30475386962891,8.806985825195312,95.1057538696289,7.721111225195313Q91.7701538696289,6.8586098251953125,88.7283538696289,7.275835825195313Q85.3597538696289,7.737892125195312,83.34275386962891,9.674955825195312Q79.77503386962891,13.101565825195312,81.1721738696289,19.213795825195312Q81.96745386962891,22.692295825195313,85.24355386962891,28.05549582519531Q75.5605838696289,28.042795825195313,72.45433386962891,32.71519582519531Q68.82981386962891,38.16709582519531,72.7973438696289,45.060195825195315Q75.6694738696289,50.049495825195315,83.29625386962891,56.223295825195315L84.30995386962891,57.04379582519531L84.1046538696289,55.75589582519531Q83.00945386962891,48.88709582519531,85.4607538696289,42.77739582519531Q86.0584538696289,41.28649582519531,86.9388538696289,41.20119582519531Q87.81855386962891,41.11609582519531,88.4903538696289,42.09739582519531Q89.16515386962891,43.08319582519531,89.0990538696289,44.172595825195316Q89.0109538696289,45.62799582519531,87.77175386962891,48.34389582519531Q86.2205538696289,51.743595825195314,86.3854538696289,53.72699582519531Q86.5728538696289,55.982495825195315,88.33635386962891,58.11889582519531Q89.9299538696289,60.049495825195315,92.3223538696289,61.337395825195316Q95.3315538696289,62.958495825195314,101.8241538696289,64.19129582519531L103.0390538696289,64.42189582519532L102.3259538696289,63.41169582519531Q97.63855386962891,56.770995825195314,97.2001538696289,49.33769582519531Q97.1040538696289,47.704695825195316,97.8712538696289,47.49419582519531Q98.8999538696289,47.211695825195314,100.2091538696289,49.021695825195316Q102.9240538696289,52.775495825195314,104.3309538696289,56.96309582519531Q104.4089538696289,57.19539582519531,104.56155386962891,57.66759582519531Q105.5783538696289,60.81539582519531,106.8105538696289,62.105595825195316Q109.2959538696289,64.70599582519532,113.50515386962891,64.40159582519532Q115.81365386962891,64.2346958251953,119.7501538696289,62.534095825195315L120.8018538696289,62.079695825195316L119.75355386962892,61.61749582519531Q115.92385386962891,59.92929582519531,113.2068538696289,56.622695825195315Q110.7231538696289,53.60009582519531,110.00675386962891,50.24479582519531Q112.6816538696289,50.52889582519531,115.8692538696289,53.802895825195314Q116.1179538696289,54.05839582519531,116.6157538696289,54.58089582519531Q119.94015386962892,58.07009582519531,122.2236538696289,58.92269582519531Q125.66125386962891,60.206595825195315,129.33245386962892,58.494695825195315Q131.3919538696289,57.53359582519531,134.54395386962892,54.611995825195315L134.6631538696289,54.50139582519531L135.05235386962892,52.52589582519531L135.0407538696289,52.44279582519531Q134.0708538696289,45.448895825195315,130.9645538696289,38.73129582519532L130.8049538696289,38.386195825195315L130.4297538696289,38.447795825195314Q124.9284538696289,39.35059582519531,119.23965386962891,39.58829582519532Q117.0896538696289,39.67739582519531,116.04825386962891,39.19369582519531Q115.33055386962891,38.86069582519531,114.9207538696289,38.218395825195316Q114.5413538696289,37.62369582519531,114.71655386962891,37.174895825195314Q114.98015386962891,36.50069582519531,116.6410538696289,36.21719582519531Q123.45715386962891,35.05339582519531,130.5433538696289,36.97579582519531L131.23145386962892,37.16249582519531L131.1725538696289,36.45189582519531Q131.0012538696289,34.38709582519532,129.73395386962892,32.45129582519532Q128.4754538696289,30.528895825195313,126.51955386962891,29.31939582519531Q124.56515386962892,28.11079582519531,122.25505386962891,27.824495825195314Q119.93185386962891,27.536595825195313,117.96055386962891,28.269895825195313Q116.6520538696289,28.756595825195312,114.51185386962891,30.303695825195312Q113.95025386962891,30.70959582519531,113.66785386962891,30.905095825195314Q111.25675386962891,32.574295825195314,109.2897538696289,32.600195825195314Q108.02725386962891,32.616895825195314,106.8738538696289,31.967895825195313Q105.69205386962891,31.302895825195314,105.3327538696289,30.301495825195314Q104.89205386962891,29.07249582519531,105.8661538696289,27.904095825195313Q106.7572538696289,26.835195825195314,108.4302538696289,26.146795825195312Q115.01055386962891,23.43979582519531,122.58475386962891,25.44589582519531L123.8797538696289,25.78889582519531L123.12615386962891,24.681295825195313Q121.3241538696289,22.03289582519531,118.3900538696289,20.23259582519531Q115.45705386962891,18.433095825195313,112.24315386962891,18.00269582519531Q109.0175538696289,17.570655825195313,106.03765386962891,18.587195825195312Q103.0395538696289,19.609895825195313,101.1637538696289,21.800095825195314Q100.99235386962891,22.000395825195312,100.6682538696289,22.408895825195312Q99.61565386962891,23.73569582519531,98.87675386962891,24.08759582519531Q98.18055386962891,24.419095825195313,97.31075386962891,24.213695825195312Q96.4449538696289,24.009195825195313,96.1581538696289,23.403995825195313ZM95.27045386962891,21.631095825195313Q94.8383538696289,22.953795825195314,95.2544538696289,23.832095825195314L95.2544538696289,23.832195825195313Q95.7471538696289,24.871895825195313,97.08085386962891,25.18689582519531Q98.2930538696289,25.47319582519531,99.3067538696289,24.990395825195314Q100.2549538696289,24.53889582519531,101.4516538696289,23.030395825195313Q101.7642538696289,22.636395825195315,101.92325386962891,22.450595825195315Q103.6211538696289,20.467995825195313,106.36045386962891,19.533595825195313Q109.1178538696289,18.592995825195313,112.11045386962891,18.993795825195313Q115.1145538696289,19.396195825195313,117.8670538696289,21.084995825195314Q119.9875538696289,22.385995825195312,121.4723538696289,24.152095825195314Q114.34105386962891,22.63389582519531,108.04965386962891,25.22199582519531Q106.1477538696289,26.004595825195313,105.0980538696289,27.263695825195313Q103.75755386962891,28.871595825195314,104.39155386962891,30.639195825195312Q104.87675386962891,31.99159582519531,106.38355386962891,32.83939582519531Q107.77135386962891,33.62029582519531,109.30295386962891,33.60009582519531Q111.5749538696289,33.57019582519531,114.23705386962891,31.727295825195313Q114.5276538696289,31.526095825195313,115.09765386962891,31.114095825195314Q117.1279538696289,29.646595825195313,118.30915386962891,29.207095825195314Q122.13535386962891,27.783995825195312,125.9935538696289,30.16989582519531Q129.4953538696289,32.33539582519531,130.08675386962892,35.823295825195316Q123.1597538696289,34.089695825195314,116.4727538696289,35.231395825195314Q114.2546538696289,35.610095825195316,113.78505386962891,36.811295825195316Q113.4251538696289,37.73329582519531,114.0776538696289,38.75619582519531Q114.64455386962891,39.64489582519531,115.6269538696289,40.10059582519531Q116.88855386962891,40.68659582519531,119.2814538696289,40.58749582519531Q124.83595386962891,40.35529582519531,130.2147538696289,39.49559582519531Q133.1076538696289,45.87279582519531,134.03875386962892,52.49739582519531L133.74495386962892,53.988695825195315Q130.7892538696289,56.711295825195315,128.9097538696289,57.58839582519531Q125.6185538696289,59.12319582519531,122.5734538696289,57.985895825195314Q120.50545386962891,57.21379582519531,117.33985386962891,53.891095825195315Q116.8378538696289,53.36429582519531,116.58575386962892,53.10529582519531Q112.7352538696289,49.150295825195315,109.3884538696289,49.21889582519531L108.81165386962891,49.230795825195315L108.9053538696289,49.79999582519531Q109.55635386962891,53.755195825195315,112.4342538696289,57.25759582519531Q114.9330538696289,60.298595825195314,118.3268538696289,62.04449582519531Q115.27305386962891,63.27119582519531,113.4330538696289,63.40419582519531Q109.69345386962891,63.67459582519531,107.5336538696289,61.41489582519531Q106.45965386962891,60.29019582519531,105.5130538696289,57.36019582519531Q105.35875386962891,56.88249582519531,105.2788538696289,56.64469582519531Q103.82355386962891,52.312795825195316,101.0194538696289,48.435595825195314Q99.3037538696289,46.063795825195314,97.6066538696289,46.52989582519531Q96.05825386962891,46.954695825195316,96.2018538696289,49.39659582519531Q96.62365386962891,56.54729582519531,100.8194538696289,62.973295825195315Q95.3925538696289,61.855595825195316,92.7963538696289,60.45689582519531Q90.57655386962891,59.261795825195314,89.1075538696289,57.482295825195315Q87.5434538696289,55.58749582519531,87.3819538696289,53.64419582519531Q87.23875386962891,51.921095825195316,88.68145386962891,48.75899582519531Q89.9978538696289,45.873995825195315,90.0972538696289,44.23309582519531Q90.18405386962891,42.801395825195314,89.3155538696289,41.53249582519531Q88.3101538696289,40.063795825195314,86.8425538696289,40.20589582519531Q85.35655386962891,40.34969582519531,84.5326538696289,42.404995825195314Q82.2073538696289,48.20049582519531,82.94255386962891,54.63879582519531Q76.2568138696289,49.06539582519531,73.66403386962891,44.56139582519531Q70.0054438696289,38.20499582519531,73.2870938696289,33.26879582519531Q76.23303386962891,28.83759582519531,86.13695386962891,29.066595825195314L87.0664538696289,29.088095825195314L86.57185386962891,28.300795825195312Q82.96135386962891,22.552895825195314,82.1470538696289,18.990995825195313Q80.8760438696289,13.430635825195314,84.0353538696289,10.396215825195313Q85.8178538696289,8.684415825195313,88.86425386962891,8.266558825195313Q91.71065386962891,7.876127825195312,94.8554538696289,8.689265825195312Q98.5717538696289,9.650335825195313,104.99575386962891,13.424105825195312Q101.92195386962891,14.031975825195312,99.43995386962891,15.903085825195312Q96.3865538696289,18.20489582519531,95.27045386962891,21.631095825195313Z" fill-rule="evenodd" fill="#000000" fill-opacity="1"/></g><g transform="matrix(0.8631438612937927,0.5049580931663513,-0.5049580931663513,0.8631438612937927,-62.364734097611745,-9.892842431002009)"><path d="M27.916643298339842,-86.2367L27.916743298339846,-86.23660000000001Q28.33764329833984,-85.95009999999999,28.607343298339842,-84.9841Q29.497343298339842,-81.80969999999999,28.672443298339843,-78.46979999999999Q27.847843298339846,-75.1314,25.59424329833984,-72.7774L24.701743298339842,-71.8452L25.989343298339847,-71.9328Q33.22204329833984,-72.4251,36.60324329833984,-73.9085Q39.29424329833984,-75.0897,41.13724329833985,-77.16380000000001Q43.166743298339846,-79.4477,43.54694329833984,-82.1709Q44.21664329833985,-86.9648,40.23644329833984,-91.1936Q37.949043298339845,-93.6238,33.03134329833984,-96.20830000000001Q39.56404329833985,-101.6756,39.30654329833985,-107.2668Q39.00714329833984,-113.76693,32.89394329833984,-117.20925Q28.455443298339844,-119.708585,20.22184329833984,-120.497719L19.017043298339843,-120.613195L19.78904329833984,-119.681057Q23.968243298339843,-114.63548,25.387643298339846,-108.2045Q25.740543298339844,-106.6052,25.192343298339843,-106.0372Q24.70854329833984,-105.5364,23.854643298339845,-105.9258Q22.92644329833984,-106.3492,22.42604329833984,-107.2817Q21.751443298339844,-108.5394,21.219443298339847,-111.48763Q20.559543298339847,-115.14489,19.462543298339845,-116.67617Q18.200743298339845,-118.43707,15.924743298339845,-119.210624Q13.860443298339845,-119.9122313,11.578743298339845,-119.620183Q8.720643298339844,-119.254349,3.7331432983398436,-116.59796L2.821443298339844,-116.11232L3.767943298339844,-115.69852Q10.217543298339844,-112.87898,14.226843298339844,-107.0119Q15.135943298339843,-105.6821,14.709043298339843,-105.0484Q14.213243298339844,-104.313,12.531743298339844,-105.0224Q8.845543298339845,-106.5783,5.815343298339844,-109.2256Q5.6467432983398425,-109.3728,5.307543298339844,-109.6762Q3.0369432983398443,-111.70682,1.5397432983398431,-112.08098Q-1.5056567016601559,-112.84105,-4.224896701660157,-110.16647Q-5.693956701660157,-108.7215,-7.483536701660157,-105.0966L-7.947366701660156,-104.1571L-6.925246701660156,-104.3875Q-3.5550967016601565,-105.1472,-0.1158567016601566,-103.9687Q3.0677432983398436,-102.8777,5.228743298339843,-100.4966Q3.3424432983398447,-99.2509,-0.3749567016601567,-100.1363Q-0.6687567016601559,-100.2063,-1.2642567016601571,-100.356Q-5.276126701660156,-101.36449999999999,-7.272576701660157,-100.7675Q-10.268126701660156,-99.8716,-11.880986701660156,-96.3673Q-12.779079701660157,-94.416,-13.425660701660156,-90.2431L-13.446413701660155,-90.1091L-12.730070701660157,-88.293L-12.683492701660157,-88.2345Q-8.530066701660157,-83.01939999999999,-3.0795467016601563,-79.2345L-2.7051567016601563,-78.9745L-2.411756701660156,-79.3233Q0.8197432983398443,-83.16460000000001,4.508743298339844,-86.56479999999999Q5.879143298339844,-87.8278,6.782543298339842,-88.0094Q7.381343298339843,-88.1298,7.938143298339845,-87.85159999999999Q8.477643298339842,-87.5821,8.588543298339843,-87.0975Q8.757543298339844,-86.3598,7.781143298339845,-85.18350000000001Q3.810343298339845,-80.39920000000001,-1.8733567016601569,-77.9987L-2.449556701660157,-77.7553L-2.085256701660157,-77.2469Q-0.9325567016601557,-75.6379,0.9004432983398445,-74.75110000000001Q2.735343298339844,-73.86330000000001,4.688043298339842,-73.9721Q6.640943298339845,-74.0809,8.362343298339844,-75.1666Q10.082343298339843,-76.2515,11.043143298339842,-77.9787Q11.675843298339842,-79.11699999999999,12.334643298339845,-81.5954Q12.507543298339844,-82.2459,12.598743298339844,-82.5659Q13.378143298339843,-85.2984,14.671943298339844,-86.419Q15.479943298339844,-87.119,16.533143298339844,-87.2301Q17.601743298339844,-87.3429,18.311143298339843,-86.7478Q19.232143298339842,-85.9759,19.16274329833984,-84.4268Q19.100143298339844,-83.0301,18.320743298339845,-81.51400000000001Q15.275543298339844,-75.5929,9.231243298339844,-72.9907L8.199343298339844,-72.54650000000001L9.220043298339842,-72.0772Q11.782343298339843,-70.8991,14.685343298339845,-71.0729Q17.588743298339843,-71.2467,19.98704329833984,-72.7219Q22.384143298339843,-74.19630000000001,23.879543298339847,-76.7264Q25.374043298339842,-79.2548,25.53304329833984,-82.1015Q25.547543298339846,-82.3618,25.56024329833984,-82.8802Q25.601643298339845,-84.5796,25.923943298339843,-85.29390000000001Q26.216743298339843,-85.9425,26.87014329833984,-86.24860000000001Q27.479343298339842,-86.53399999999999,27.916643298339842,-86.2367ZM29.570543298339842,-85.2531Q29.202443298339844,-86.5714,28.479143298339842,-87.0634L28.479043298339846,-87.0635Q27.570843298339845,-87.68119999999999,26.445843298339845,-87.1541Q25.457543298339843,-86.6911,25.012443298339846,-85.70519999999999Q24.606943298339843,-84.8063,24.560543298339844,-82.9046Q24.54824329833984,-82.40180000000001,24.534643298339844,-82.1572Q24.389243298339842,-79.5539,23.018743298339842,-77.23519999999999Q21.649243298339847,-74.9183,19.463143298339844,-73.5736Q17.278543298339844,-72.2299,14.625643298339845,-72.0711Q12.564543298339842,-71.9477,10.695543298339842,-72.5681Q16.275543298339844,-75.351,19.21004329833984,-81.05680000000001Q20.08934329833984,-82.7671,20.161743298339843,-84.382Q20.253243298339846,-86.4248,18.953843298339844,-87.5139Q17.919143298339844,-88.382,16.428143298339844,-88.2246Q15.062643298339843,-88.0805,14.017243298339842,-87.17490000000001Q12.498243298339844,-85.8592,11.637143298339844,-82.8401Q11.543343298339845,-82.51140000000001,11.368143298339845,-81.8523Q10.741343298339842,-79.4941,10.169243298339843,-78.4648Q8.340443298339842,-75.1771,4.632343298339844,-74.9705Q1.2361432983398437,-74.7813,-0.8916567016601569,-77.336Q4.632643298339843,-79.8241,8.550543298339843,-84.54480000000001Q9.842743298339844,-86.10130000000001,9.563343298339845,-87.3207Q9.347043298339845,-88.2656,8.385043298339845,-88.7462Q7.521043298339844,-89.1778,6.585443298339843,-88.9897Q5.407443298339842,-88.7529,3.830943298339843,-87.3001Q0.26374329833984334,-84.0122,-2.880956701660157,-80.3169Q-7.9512567016601565,-83.9143,-11.854756701660156,-88.7992L-12.416589701660156,-90.2236Q-11.798296701660156,-94.15520000000001,-10.972576701660156,-95.9492Q-9.548656701660157,-99.043,-6.986076701660156,-99.8094Q-5.253166701660156,-100.3276,-1.5080567016601556,-99.3862Q-0.9064567016601561,-99.2349,-0.6066567016601567,-99.1635Q4.0269432983398445,-98.0599,6.285543298339842,-100.0487L6.651343298339842,-100.3708L6.338643298339843,-100.7447Q3.913243298339843,-103.6451,0.208243298339843,-104.9147Q-2.984066701660156,-106.0086,-6.131416701660156,-105.551Q-4.690446701660155,-108.3059,-3.523666701660156,-109.4535Q-1.204056701660157,-111.73508,1.2972432983398434,-111.11081Q2.554643298339844,-110.79659,4.640943298339845,-108.9308Q4.984443298339844,-108.6236,5.157443298339842,-108.4725Q8.308643298339845,-105.7195,12.143043298339844,-104.1011Q14.582543298339843,-103.0719,15.538343298339843,-104.4897Q16.344443298339844,-105.6862,15.052543298339845,-107.5761Q11.175543298339843,-113.2495,5.103243298339844,-116.18485Q9.284143298339842,-118.31832,11.705643298339844,-118.62827Q13.757843298339843,-118.89094,15.602943298339845,-118.26381Q17.574943298339843,-117.5936,18.649643298339843,-116.09378Q19.61544329833984,-114.74562,20.235343298339842,-111.31006Q20.79544329833984,-108.20609999999999,21.544943298339845,-106.8089Q22.204643298339846,-105.5793,23.43974329833984,-105.016Q24.936643298339845,-104.3332,25.911943298339843,-105.3428Q26.832643298339846,-106.2968,26.36414329833984,-108.42Q25.023343298339846,-114.49483000000001,21.306643298339843,-119.378031Q28.46774329833984,-118.55401,32.40334329833984,-116.3379Q38.03374329833984,-113.16744,38.307543298339844,-107.2207Q38.553043298339844,-101.8905,31.813743298339844,-96.5043L31.207843298339846,-96.0201L31.898943298339844,-95.6682Q37.185143298339845,-92.9763,39.50824329833984,-90.5082Q43.15994329833985,-86.6285,42.55654329833985,-82.3092Q42.21824329833984,-79.8857,40.389743298339845,-77.828Q38.69204329833985,-75.9174,36.201443298339846,-74.82419999999999Q33.26314329833984,-73.5351,27.132543298339847,-73.0222Q28.912243298339845,-75.2705,29.643243298339847,-78.22999999999999Q30.53134329833984,-81.8258,29.570543298339842,-85.2531Z" fill-rule="evenodd" fill="#000000" fill-opacity="1"/></g><g transform="matrix(0.3901647925376892,0.9207449555397034,-0.9207449555397034,0.3901647925376892,-46.00976027683737,-52.85515816930183)"><path d="M62.63126394042969,-43.18894970703125C68.40046394042969,-44.130249707031254,74.59376394042968,-41.78014970703125,78.28636394042968,-37.24864970703125C78.49816394042969,-41.877449707031246,78.69786394042968,-46.61254970703125,77.3552639404297,-51.04734970703125C76.01266394042969,-55.48219970703125,72.80786394042968,-59.63717970703125,68.32726394042969,-60.81887270703125C64.40766394042969,-61.85237270703125,60.155963940429686,-60.43919070703125,56.92766394042969,-57.98803970703125C53.69926394042969,-55.53625970703125,51.32446394042969,-52.14892970703125,49.112463940429684,-48.75204970703125C45.64176394042968,-54.39210970703125,41.55936394042969,-58.65711970703125,35.95296394042968,-59.04888970703125C30.346663940429686,-59.44066970703125,26.21010394042969,-57.07982970703125,22.950603940429687,-52.50125970703125C19.691103940429688,-47.92264970703125,18.182513940429686,-42.34754970703125,17.03135394042969,-36.84734970703125C21.70404394042969,-39.94594970703125,27.13166394042969,-41.89724970703125,32.70746394042969,-42.48294970703125C33.878363940429686,-42.60574970703125,35.25016394042969,-42.58984970703125,35.989863940429686,-41.673949707031255C37.19766394042969,-40.17814970703125,35.530063940429685,-37.98394970703125,33.747363940429686,-37.26334970703125C29.849263940429687,-35.68794970703125,25.117463940429687,-36.93454970703125,21.458553940429688,-34.86434970703125C18.337063940429687,-33.098149707031254,16.85200324042969,-29.26944970703125,16.89716351342969,-25.683049707031252C16.942318940429686,-22.096649707031247,18.252473940429688,-18.66224970703125,19.545463940429688,-15.316249707031247C22.54102394042969,-20.563249707031247,27.036263940429688,-24.942749707031247,32.35956394042969,-27.79964970703125C33.389263940429686,-28.35234970703125,34.75476394042968,-28.81784970703125,35.63686394042969,-28.049549707031247C36.62966394042969,-27.184649707031248,36.131063940429684,-25.566649707031253,35.49316394042969,-24.415549707031253C33.79756394042968,-21.35634970703125,31.612963940429687,-18.56934970703125,29.047263940429687,-16.19264970703125C27.480863940429685,-14.740649707031253,25.703863940429688,-13.344649707031252,24.96482394042969,-11.339949707031252C24.090323940429688,-8.96764970703125,24.922213940429685,-6.236049707031249,26.460063940429688,-4.2295497070312535C27.99786394042969,-2.2229497070312476,30.15266394042969,-0.7957497070312485,32.26546394042969,0.5920502929687501C31.609763940429687,-5.614749707031251,34.63076394042969,-12.072049707031248,39.816063940429686,-15.545849707031252C41.46646394042969,-13.12714970703125,40.84066394042969,-9.852349707031252,39.85736394042969,-7.094049707031253C38.87416394042969,-4.335749707031248,37.572863940429684,-1.4883497070312472,38.076563940429686,1.3965502929687474C38.53256394042968,4.004750292968751,40.442563940429686,6.176150292968757,42.69396394042968,7.569550292968756C44.94536394042969,8.963050292968745,47.533963940429686,9.693150292968753,50.08366394042969,10.407450292968747L52.23526394042969,9.821650292968755C56.96896394042969,6.812150292968752,61.25946394042969,3.106750292968755,64.92656394042969,-1.1385497070312525C61.97176394042969,-4.32424970703125,59.21916394042969,-7.696949707031251,56.689763940429685,-11.229949707031253C55.934163940429684,-12.285049707031249,55.17356394042969,-13.420949707031248,55.066663940429684,-14.714549707031253C54.959863940429685,-16.008249707031247,55.76566394042969,-17.470349707031247,57.05546394042969,-17.61604970703125C58.165963940429684,-17.741349707031247,59.134563940429686,-16.90494970703125,59.90026394042969,-16.090249707031248C63.56556394042969,-12.191649707031253,66.28576394042969,-7.4107497070312505,67.76636394042968,-2.2687497070312475C70.52526394042968,-3.8294497070312516,72.4040639404297,-6.8460497070312485,72.5872639404297,-10.011449707031247C72.77036394042969,-13.17614970703125,71.25356394042969,-16.389849707031253,68.69296394042968,-18.259049707031252C67.05596394042968,-19.454749707031247,65.09136394042969,-20.093249707031248,63.223363940429685,-20.880649707031253C61.355463940429686,-21.66804970703125,59.47866394042969,-22.685649707031253,58.34906394042969,-24.369749707031247C57.21956394042969,-26.05324970703125,57.092363940429685,-28.55714970703125,58.550663940429686,-29.96524970703125C60.496263940429685,-31.84334970703125,63.758863940429684,-30.79014970703125,65.99376394042969,-29.26754970703125C70.64546394042969,-26.099649707031247,74.15366394042968,-21.28764970703125,75.7474639404297,-15.88994970703125C78.13056394042968,-19.88914970703125,78.40916394042969,-25.06674970703125,76.46876394042968,-29.29814970703125C74.5282639404297,-33.52944970703125,70.4229639404297,-36.69664970703125,65.8373639404297,-37.49994970703125C64.39936394042968,-37.751849707031255,62.867863940429686,-37.80394970703125,61.62066394042969,-38.56334970703125C60.37346394042969,-39.322049707031255,59.61476394042969,-41.15064970703125,60.558563940429686,-42.264849707031246C61.05846394042969,-42.85504970703125,61.869363940429686,-43.06564970703125,62.63256394042969,-43.18964970703125L62.63126394042969,-43.18894970703125Z" fill="#FFFFFF" fill-opacity="1"/><path d="M59.966763940429686,-42.30224970703125Q60.05946394042969,-42.44914970703125,60.17706394042969,-42.588049707031246Q60.87346394042969,-43.41034970703125,62.552363940429686,-43.68314970703125L65.43476394042969,-44.15154970703125L64.9759639404297,-43.90074970703125Q68.20986394042968,-43.954749707031255,71.41496394042969,-42.738549707031254Q75.19986394042968,-41.30244970703125,77.8398639404297,-38.514249707031254Q77.9836639404297,-42.18494970703125,77.9041639404297,-44.201049707031245Q77.75406394042969,-48.00464970703125,76.8767639404297,-50.90244970703125Q75.84266394042969,-54.31813970703125,73.64236394042969,-56.82307970703125Q71.2679639404297,-59.52620970703125,68.19976394042969,-60.33540370703125Q62.741563940429685,-61.77456770703125,57.229963940429684,-57.58981970703125Q53.73646394042969,-54.936659707031254,49.53146394042969,-48.47924970703125L49.10046394042969,-47.81744970703125L48.68666394042969,-48.49004970703125Q42.791663940429686,-58.06977970703125,35.918163940429686,-58.55010970703125Q28.25196394042969,-59.08582970703125,23.35793394042969,-52.21128970703125Q19.887723940429687,-47.33674970703125,17.774659940429686,-37.916649707031254Q24.608823940429687,-42.134949707031254,32.65526394042969,-42.98024970703125Q35.349463940429686,-43.26264970703125,36.37886394042969,-41.988149707031255Q37.44966394042969,-40.661949707031255,36.42026394042969,-38.923249707031246Q35.54966394042969,-37.45254970703125,33.93476394042969,-36.79974970703125Q32.06996394042969,-36.04614970703125,28.066463940429685,-35.78484970703125Q23.583793940429686,-35.49224970703125,21.70477394042969,-34.42914970703125Q19.603103940429687,-33.24004970703125,18.44379394042969,-30.74554970703125Q17.36274494042969,-28.419449707031248,17.39712294042969,-25.689349707031248Q17.43840894042969,-22.41034970703125,19.644303940429687,-16.466449707031252Q24.26062394042969,-24.02054970703125,32.12316394042969,-28.240249707031253Q34.63276394042968,-29.58724970703125,35.965263940429686,-28.426649707031252Q37.53146394042969,-27.062149707031253,35.93046394042969,-24.17314970703125Q33.326763940429686,-19.475449707031252,29.387063940429687,-15.825849707031253Q29.170063940429685,-15.624649707031253,28.728663940429687,-15.22514970703125Q26.02898394042969,-12.78104970703125,25.433963940429688,-11.167049707031254Q24.245003940429687,-7.941649707031253,26.85691394042969,-4.533649707031252Q28.20296394042969,-2.7773497070312487,31.689363940429686,-0.39544970703124704Q31.494063940429687,-4.645449707031247,33.39746394042969,-8.713649707031252Q35.53326394042969,-13.27844970703125,39.537763940429684,-15.96124970703125L39.94966394042969,-16.23714970703125L40.22906394042968,-15.827649707031249Q42.378563940429686,-12.677549707031247,40.32836394042969,-6.92614970703125Q40.19426394042969,-6.549949707031253,39.91436394042969,-5.794549707031251Q38.15686394042969,-1.0504497070312482,38.56916394042969,1.310550292968749Q39.18046394042969,4.80695029296875,42.95706394042969,7.144450292968756Q45.13396394042969,8.491750292968746,50.085763940429686,9.888650292968748L52.03066394042969,9.35915029296875Q58.892463940429685,4.984150292968749,64.2551639404297,-1.1286497070312507Q59.97136394042969,-5.78744970703125,56.283263940429684,-10.938849707031252Q54.69346394042969,-13.158849707031251,54.568363940429684,-14.673449707031253Q54.47066394042969,-15.85724970703125,55.11626394042969,-16.865449707031253Q55.83066394042969,-17.98094970703125,56.99936394042969,-18.112849707031252Q58.52376394042969,-18.28484970703125,60.264663940429685,-16.43274970703125Q65.72456394042969,-10.625149707031248,68.0598639404297,-3.0350497070312485Q69.65396394042969,-4.093449707031247,70.7182639404297,-5.80264970703125Q71.9580639404297,-7.79364970703125,72.08806394042969,-10.04024970703125Q72.21806394042969,-12.286849707031251,71.21686394042969,-14.40754970703125Q70.21546394042969,-16.528549707031253,68.3981639404297,-17.855149707031252Q67.16236394042969,-18.757849707031248,64.24666394042968,-19.924149707031248Q63.43326394042969,-20.24954970703125,63.02916394042969,-20.419849707031247Q59.35846394042969,-21.96724970703125,57.93386394042969,-24.091249707031253Q56.96346394042969,-25.53744970703125,56.97946394042969,-27.275349707031253Q56.99676394042969,-29.159949707031252,58.20336394042969,-30.32494970703125Q59.72796394042969,-31.79664970703125,62.24446394042969,-31.38514970703125Q64.25676394042969,-31.05604970703125,66.27536394042968,-29.68084970703125Q73.1934639404297,-24.969449707031252,75.86706394042969,-17.16184970703125Q77.07466394042969,-19.642049707031248,77.23016394042969,-22.53384970703125Q77.41816394042968,-26.028349707031254,76.01426394042969,-29.08964970703125Q74.61036394042969,-32.15104970703125,71.83956394042968,-34.288649707031254Q69.06876394042969,-36.42634970703125,65.75106394042969,-37.00744970703125Q65.44016394042968,-37.061949707031246,64.80076394042969,-37.152949707031254Q62.41906394042969,-37.49184970703125,61.36066394042969,-38.136249707031254Q60.21896394042969,-38.83084970703125,59.79306394042969,-40.124449707031246Q59.39496394042969,-41.33354970703125,59.92976394042969,-42.241549707031254L59.824163940429685,-42.22434970703125L59.966763940429686,-42.30224970703125ZM62.62356394042969,-42.68104970703125Q61.382363940429684,-42.46394970703125,60.94006394042969,-41.94174970703125Q60.44136394042969,-41.35294970703125,60.742863940429686,-40.43714970703125Q61.05356394042969,-39.49364970703125,61.880663940429685,-38.990449707031246Q62.76356394042969,-38.45284970703125,64.94166394042969,-38.14294970703125Q65.59686394042969,-38.04964970703125,65.92366394042969,-37.99244970703125Q69.48426394042968,-37.36874970703125,72.4503639404297,-35.08044970703125Q75.41646394042968,-32.79214970703125,76.92326394042968,-29.50654970703125Q78.42996394042969,-26.220949707031252,78.22876394042969,-22.480149707031252Q78.0274639404297,-18.739349707031252,76.17706394042969,-15.634049707031252L75.59176394042969,-14.651849707031253L75.2679639404297,-15.748349707031252Q72.82916394042968,-24.00764970703125,65.7122639404297,-28.854349707031247Q63.87676394042969,-30.10484970703125,62.08306394042969,-30.39824970703125Q60.061563940429686,-30.72884970703125,58.89796394042969,-29.60554970703125Q57.992863940429686,-28.731649707031252,57.97946394042969,-27.266149707031254Q57.966263940429684,-25.837649707031247,58.76436394042969,-24.648249707031248Q60.022363940429685,-22.772549707031253,63.41756394042969,-21.34134970703125Q63.813263940429685,-21.174549707031247,64.61806394042969,-20.852649707031247Q67.65056394042969,-19.63954970703125,68.98776394042969,-18.66284970703125Q71.01096394042969,-17.18594970703125,72.12116394042968,-14.83454970703125Q73.2311639404297,-12.483449707031248,73.08636394042969,-9.982549707031247Q72.94166394042969,-7.481449707031253,71.56716394042968,-5.274049707031253Q70.19286394042969,-3.066949707031249,68.01256394042969,-1.8335497070312528L67.46116394042969,-1.5216497070312514L67.28586394042969,-2.1303497070312503Q65.05526394042968,-9.87714970703125,59.53596394042969,-15.74784970703125Q58.138163940429685,-17.23504970703125,57.11156394042969,-17.119149707031248Q56.415963940429684,-17.04064970703125,55.958363940429685,-16.32614970703125Q55.49506394042969,-15.602649707031247,55.564963940429685,-14.75574970703125Q55.66736394042969,-13.51644970703125,57.09636394042969,-11.521049707031253Q60.87846394042969,-6.238149707031248,65.29316394042968,-1.4785497070312488L65.5975639404297,-1.1503497070312534L65.30496394042969,-0.8116497070312505Q59.71656394042969,5.657750292968757,52.50346394042969,10.243550292968749L52.439563940429686,10.28425029296875L50.08176394042969,10.926150292968757L49.948763940429686,10.888850292968755Q44.75706394042969,9.434550292968751,42.43086394042969,7.994750292968746Q38.27266394042969,5.421150292968747,37.58406394042969,1.482550292968753Q37.125363940429686,-1.1445497070312527,38.97666394042969,-6.141949707031252Q39.25426394042969,-6.8911497070312535,39.38646394042969,-7.261949707031249Q41.122563940429686,-12.132349707031253,39.66526394042969,-14.833149707031247Q36.204763940429686,-12.354049707031251,34.30326394042969,-8.289849707031252Q32.28556394042969,-3.9772497070312482,32.76266394042969,0.5394502929687519L32.87366394042969,1.5896502929687486L31.990963940429687,1.0099502929687532Q27.670863940429687,-1.8276497070312487,26.063203940429688,-3.925349707031252Q23.116183940429686,-7.770649707031247,24.49569394042969,-11.512949707031247Q25.17570394042969,-13.357549707031247,28.057563940429688,-15.966449707031252Q28.494363940429686,-16.361849707031247,28.707563940429687,-16.55944970703125Q32.52976394042969,-20.10034970703125,35.05586394042969,-24.657849707031247Q36.26476394042969,-26.83944970703125,35.30856394042969,-27.67254970703125Q34.49696394042969,-28.379349707031253,32.59606394042969,-27.359049707031247Q24.523073940429686,-23.02654970703125,19.979683940429688,-15.068349707031253L19.458203940429687,-14.15494970703125L19.079083940429687,-15.136049707031248Q16.444063940429686,-21.954949707031247,16.39720194042969,-25.67674970703125Q16.359957940429688,-28.634549707031248,17.536942940429686,-31.16704970703125Q18.831453940429686,-33.952349707031246,21.212333940429687,-35.29954970703125Q23.290433940429686,-36.47524970703125,28.001363940429687,-36.78274970703125Q31.844363940429687,-37.03354970703125,33.55996394042968,-37.72684970703125Q34.86136394042968,-38.25294970703125,35.55976394042969,-39.432649707031246Q36.23546394042969,-40.57394970703125,35.60086394042969,-41.359849707031245Q34.91306394042969,-42.21144970703125,32.759763940429686,-41.985749707031246Q24.35287394042969,-41.10254970703125,17.307682940429686,-36.43064970703125L16.29239294042969,-35.75744970703125L16.541957940429686,-36.94984970703125Q18.739103940429686,-47.44754970703125,22.54328394042969,-52.79123970703125Q27.762363940429687,-60.12246970703125,35.98786394042969,-59.54767970703125Q43.12576394042969,-59.04887970703125,49.122563940429686,-49.67674970703125Q53.17526394042969,-55.76610970703125,56.62526394042969,-58.386269707031246Q59.257363940429684,-60.38473070703125,62.23736394042969,-61.19277390703125Q65.50746394042969,-62.07948070703125,68.45476394042969,-61.30234070703125Q71.81796394042968,-60.41535470703125,74.3937639404297,-57.48301970703125Q76.73696394042969,-54.81527970703125,77.8338639404297,-51.19223970703125Q78.7482639404297,-48.171949707031246,78.90336394042968,-44.240449707031246Q78.99756394042969,-41.85274970703125,78.78586394042969,-37.22584970703125L78.7260639404297,-35.917649707031245L77.89876394042969,-36.93284970703125Q75.21416394042969,-40.227449707031255,71.06016394042969,-41.803649707031255Q66.90626394042968,-43.379849707031255,62.71176394042969,-42.69544970703125L62.62356394042969,-42.68104970703125Z" fill-rule="evenodd" fill="#000000" fill-opacity="1"/></g><g><rect x="20.393516540527344" y="50.82283020019531" width="51.9580192565918" height="8.496959686279297" rx="0" fill="#000000" fill-opacity="1"/></g><g><path d="M24.259117126464844,57.75715637207031L30.219707126464844,90.20335637207032L62.52341712646484,90.20335637207032L68.32251712646485,57.75715637207031L24.259117126464844,57.75715637207031Z" fill="#000000" fill-opacity="1"/></g><g style="opacity:0.30000001192092896;"><path d="M24.546592712402344,59.31977844238281L67.97329271240234,59.31977844238281L67.35509271240235,63.17139844238281L25.253824712402345,63.17139844238281L24.546592712402344,59.31977844238281Z" fill="#000000" fill-opacity="1"/></g><g style="opacity:0.30000001192092896;"><path d="M28.607444763183594,66.01564025878906L33.536444763183596,87.70384025878906Q41.366244763183595,88.54914025878907,41.46484476318359,87.70384025878906Q41.5634447631836,86.85864025878907,37.44339476318359,66.01564025878906L28.607444763183594,66.01564025878906L28.607444763183594,66.01564025878906Z" fill="#FFFFFF" fill-opacity="1"/></g><g><path d="M41.92402040771484,-56.347015380859375C41.15700040771485,-52.61432538085938,42.45889040771485,-48.92425538085938,45.38449040771484,-46.48583538085938C41.21805240771484,-47.326625380859376,39.202570407714845,-53.086875380859375,41.92402040771484,-56.347015380859375Z" fill="#FFFFFF" fill-opacity="1"/></g></g><g><path d="M27.308861035156248,33.72646921875Q33.30336103515625,38.61995921875,36.51396103515625,51.95614921875L37.48616103515625,51.72204921875Q34.19676103515625,38.05834921875,27.941261035156252,32.95180921875Q21.59047103515625,27.76749921875,12.31884003515625,31.373098218750002L12.68128203515625,32.30510921875Q21.40967103515625,28.91077921875,27.308861035156248,33.72646921875Z" fill-rule="evenodd" fill="#000000" fill-opacity="1"/></g><g><path d="M49.04946103515625,-9.444270312499999Q58.49326103515625,10.1891296875,56.00096103515625,52.3094296875L56.99916103515625,52.3685296875Q59.50656103515625,9.9892296875,49.95066103515625,-9.877770312500001Q40.29436103515625,-29.9527203125,18.43662273515625,-27.1568983125L18.56349933515625,-26.1649803125Q39.705861035156246,-28.869300312500002,49.04946103515625,-9.444270312499999Z" fill-rule="evenodd" fill="#000000" fill-opacity="1"/></g><g><path d="M57.3868109375,-44.14794370703125Q35.4718609375,-39.05156970703125,42.0013209375,54.87375029296875L42.9989109375,54.80435029296875Q36.5285609375,-38.27162970703125,57.6134109375,-43.17393570703125L57.3868109375,-44.14794370703125Z" fill-rule="evenodd" fill="#000000" fill-opacity="1"/></g><g><path d="M57.377061035156245,-15.1190096875Q43.76401103515625,0.13247031250000063,40.00143403515625,50.8019703125L40.99868803515625,50.8759703125Q44.73612103515625,0.5452703125000014,58.123061035156255,-14.4531196875Q71.29416103515625,-29.209619687500002,94.17166103515625,-9.2840296875L94.82846103515625,-10.0380296875Q71.20596103515625,-30.6125496875,57.377061035156245,-15.1190096875Z" fill-rule="evenodd" fill="#000000" fill-opacity="1"/></g><g><path d="M86.21906103515624,28.38952333984375Q66.28706103515626,18.67897333984375,48.05961403515625,52.60237333984375L48.94050803515625,53.075673339843746Q66.71306103515624,19.99880333984375,85.78106103515626,29.28851333984375L86.21906103515624,28.38952333984375Z" fill-rule="evenodd" fill="#000000" fill-opacity="1"/></g><g><path d="M13.66318303515625,-75.79147270703125Q47.50596103515625,-44.934349707031245,50.00026103515625,52.352050292968755L50.99986103515625,52.326050292968745Q48.49416103515625,-45.387549707031255,14.33693903515625,-76.53042670703125L13.66318303515625,-75.79147270703125Z" fill-rule="evenodd" fill="#000000" fill-opacity="1"/></g></g></g></g></svg>