<svg xmlns="http://www.w3.org/2000/svg" xmlns:xlink="http://www.w3.org/1999/xlink" fill="none" version="1.1" width="11" height="11" viewBox="0 0 11 11"><defs><clipPath id="master_svg0_1_1504"><rect x="0" y="0" width="11" height="11" rx="0"/></clipPath></defs><g clip-path="url(#master_svg0_1_1504)"><g><path d="M9.53795796875,3.2034907625C9.39977796875,3.0738996625,9.18183796875,3.0800900625,9.052247968749999,3.2186245625L4.4679779687500005,8.0995115625L1.96375996875,5.6320715625C1.82832896875,5.4986915624999995,1.61072396875,5.5000815625,1.47734506875,5.6355115625C1.34396576875,5.7706115625,1.34568426875,5.9885415625,1.48113296875,6.1215715625L4.23628796875,8.8358215625C4.23732796875,8.8368515625,4.23868796875,8.8371815625,4.23972796875,8.8382215625C4.24075796875,8.8392515625,4.24109796875,8.8406215625,4.24212796875,8.841651562500001C4.26378796875,8.8622815625,4.28991796875,8.8739715625,4.31500796875,8.887721562500001C4.32738796875,8.894951562500001,4.33802796875,8.9055915625,4.35109796875,8.9107515625C4.39165796875,8.9265615625,4.4346179687500005,8.934801562499999,4.4772479687499995,8.934801562499999C4.52228796875,8.934801562499999,4.56731796875,8.9258615625,4.60924796875,8.907991562500001C4.62334796875,8.9021515625,4.63433796875,8.8901215625,4.6474079687500005,8.8825515625C4.67317796875,8.8674115625,4.69999796875,8.8547015625,4.72199796875,8.832361562500001C4.72303796875,8.831321562500001,4.72336796875,8.829601562499999,4.7244079687500005,8.828571562499999C4.72508796875,8.8275415625,4.72647796875,8.8272015625,4.72748796875,8.8261715625L9.55270796875,3.6891665625C9.68334796875,3.5513525625,9.67613796875,3.3337655625,9.53795796875,3.2034907625Z" fill="#FFFFFF" fill-opacity="1"/><path d="M9.91557796875,4.0331575625L9.91714796875,4.0314865625Q10.15680796875,3.7774895625,10.14589796875,3.4279005625Q10.13500796875,3.0792049625,9.88094796875,2.8396805625Q9.62555796875,2.6001685625,9.27672796875,2.6107395625Q8.92628796875,2.6213605625,8.687097968749999,2.8770545625L4.454117968749999,7.3839215625L2.31468896875,5.2759115625Q2.06560896875,5.0306115625,1.7163579687500001,5.0330015625Q1.36659816875,5.0353915625,1.12110396875,5.2846615625Q0.87570596875,5.5332215625,0.8784439687500001,5.8832315625Q0.8811809687500001,6.233161562499999,1.13078196875,6.4783015625L3.88538796875,9.1920015625L3.88590796875,9.1925215625Q3.88720796875,9.193841562500001,3.88851796875,9.195151562500001L3.89286796875,9.1995015625L3.89732796875,9.203751562499999Q3.96068796875,9.264091562499999,4.05436796875,9.3153015625Q4.11032796875,9.353251562499999,4.16752796875,9.3758315625Q4.318747968749999,9.434801562499999,4.4772479687499995,9.434801562499999Q4.64842796875,9.434801562499999,4.80526796875,9.3679615625Q4.86084796875,9.3449715625,4.91789796875,9.3038415625Q5.0143379687500005,9.248081562500001,5.07818796875,9.1832615625Q5.0888279687499995,9.1726215625,5.0987779687499994,9.1613015625L5.11370796875,9.1463815625L5.11647796875,9.1421815625L9.91557796875,4.0331575625Z" fill-rule="evenodd" fill="#FFFFFF" fill-opacity="1"/></g></g></svg>