<svg xmlns="http://www.w3.org/2000/svg" xmlns:xlink="http://www.w3.org/1999/xlink" fill="none" version="1.1" width="14" height="14" viewBox="0 0 14 14"><defs><clipPath id="master_svg0_11_1870"><rect x="0" y="0" width="14" height="14" rx="0"/></clipPath></defs><g clip-path="url(#master_svg0_11_1870)"><g><path d="M12.13929453125,4.0771591640625C11.96339453125,3.9122248640625,11.68601453125,3.9201035640625,11.52108453125,4.0964201640625L5.68655453125,10.3084581640625L2.49937553125,7.1680781640625C2.32700953125,6.9983281640624995,2.0500575312500002,7.0000881640625,1.88030153125,7.172458164062499C1.71054623125,7.3443981640625005,1.71273353125,7.6217781640624995,1.88512253125,7.7910781640625L5.39168453125,11.2455781640625C5.39300453125,11.2468881640625,5.39474453125,11.247308164062499,5.39605453125,11.248628164062499C5.39737453125,11.2499481640625,5.397804531249999,11.2516881640625,5.3991145312499995,11.2530081640625C5.42668453125,11.279248164062501,5.45993453125,11.294138164062499,5.49187453125,11.3116381640625C5.50763453125,11.320828164062501,5.52117453125,11.3343781640625,5.53780453125,11.3409381640625C5.58942453125,11.3610681640625,5.64410453125,11.371558164062499,5.69836453125,11.371558164062499C5.75567453125,11.371558164062499,5.81299453125,11.3601781640625,5.86635453125,11.337438164062501C5.88430453125,11.3299981640625,5.89829453125,11.314688164062499,5.91492453125,11.3050481640625C5.94773453125,11.285788164062499,5.98185453125,11.2696081640625,6.00986453125,11.2411781640625C6.01118453125,11.2398581640625,6.01160453125,11.2376681640625,6.01292453125,11.2363481640625C6.01379453125,11.2350381640625,6.01555453125,11.2346181640625,6.01685453125,11.2332981640625L12.15799453125,4.6952911640625C12.32429453125,4.5198911640625,12.31509453125,4.2429631640625,12.13929453125,4.0771591640625Z" fill="#FFFFFF" fill-opacity="1"/><path d="M12.52089453125,5.0392881640625L12.52249453125,5.0376081640625Q12.78879453125,4.7554551640625,12.77669453125,4.3670261640625Q12.76459453125,3.9795458640625,12.48229453125,3.7133461640625Q12.19859453125,3.4473021640625,11.81089453125,3.4590501640625Q11.42160453125,3.4708481640625,11.15594453125,3.7548511640625L5.67270453125,9.592878164062501L2.85030453125,6.8119181640625Q2.57351553125,6.5393281640625,2.18543453125,6.5419881640625Q1.79682993125,6.5446481640625,1.52406053125,6.8216081640625Q1.2513815312499998,7.0977981640625,1.25442353125,7.4866681640625Q1.2574645312500001,7.8754581640625005,1.53477153125,8.1478081640625L5.04078453125,11.601758164062499Q5.04160453125,11.6025781640625,5.04242453125,11.6033981640625Q5.04392453125,11.6049281640625,5.04544453125,11.6064381640625L5.04982453125,11.6108281640625L5.05431453125,11.6150981640625Q5.123934531250001,11.6813981640625,5.23138453125,11.739338164062499Q5.29278453125,11.7817681640625,5.35423453125,11.8060281640625Q5.52227453125,11.871558164062499,5.69836453125,11.871558164062499Q5.88838453125,11.871558164062499,6.06238453125,11.7974081640625Q6.12217453125,11.7726681640625,6.18488453125,11.7266581640625Q6.29577453125,11.663418164062499,6.36605453125,11.5920681640625Q6.37801453125,11.5801081640625,6.38913453125,11.5672681640625L6.40217453125,11.5542281640625L6.40445453125,11.5507781640625L12.52089453125,5.0392881640625Z" fill-rule="evenodd" fill="#FFFFFF" fill-opacity="1"/></g></g></svg>