<svg xmlns="http://www.w3.org/2000/svg" xmlns:xlink="http://www.w3.org/1999/xlink" fill="none" version="1.1" width="12" height="12" viewBox="0 0 12 12"><defs><clipPath id="master_svg0_5_727"><rect x="2" y="2" width="8" height="8" rx="0"/></clipPath></defs><g><g><ellipse cx="6" cy="6" rx="6" ry="6" fill="#FFB637" fill-opacity="1"/></g><g clip-path="url(#master_svg0_5_727)"><g transform="matrix(0.6568390727043152,0.7540307641029358,-0.7540307641029358,0.6568390727043152,3.834995897144836,-4.426673130168638)"><path d="M8.9454037890625,6.978C7.6422547890625,6.80133,6.6986879890625,5.64541,6.7865498890625,4.33328C6.8744115890625,3.02115,7.9636637890625,2.00134929,9.2787337890625,2.00000119209C10.5955337890625,1.99873078,11.6875837890625,3.01911,11.7755537890625,4.3329699999999995C11.863533789062501,5.64684,10.9172837890625,6.8037,9.6120637890625,6.978L9.6120637890625,7.66667L11.2787337890625,7.66667L11.2787337890625,8.33333L9.6120637890625,8.33333L9.6120637890625,9.66667L8.9454037890625,9.66667L8.9454037890625,8.33333L7.2787327890625,8.33333L7.2787327890625,7.66667L8.9454037890625,7.66667L8.9454037890625,6.978Z" fill="#FFFFFF" fill-opacity="1"/></g></g></g></svg>