<svg xmlns="http://www.w3.org/2000/svg" xmlns:xlink="http://www.w3.org/1999/xlink" fill="none" version="1.1" width="20" height="19" viewBox="0 0 20 19"><defs><linearGradient x1="0.17673340439796448" y1="0.09518271684646606" x2="0.7146850824356079" y2="1" id="master_svg0_5_4775"><stop offset="0%" stop-color="#FC753A" stop-opacity="1"/><stop offset="100%" stop-color="#FFA56B" stop-opacity="1"/><stop offset="100%" stop-color="#FFA56B" stop-opacity="1"/></linearGradient></defs><g><path d="M0,19C0,15.0025,3.25611,11.7619,7.27273,11.7619C11.2893,11.7619,14.5455,15.0025,14.5455,19L0,19ZM7.27273,10.8571C4.25909,10.8571,1.81818,8.42786,1.81818,5.42857C1.81818,2.42929,4.25909,0,7.27273,0C10.2864,0,12.7273,2.42929,12.7273,5.42857C12.7273,8.42786,10.2864,10.8571,7.27273,10.8571ZM16.3636,14.4762L20,14.4762L20,16.2857L16.3636,16.2857L16.3636,14.4762ZM13.6364,9.95238L20,9.95238L20,11.7619L13.6364,11.7619L13.6364,9.95238ZM15.4545,5.42857L20,5.42857L20,7.2381L15.4545,7.2381L15.4545,5.42857Z" fill="url(#master_svg0_5_4775)" fill-opacity="1"/></g></svg>