<svg xmlns="http://www.w3.org/2000/svg" xmlns:xlink="http://www.w3.org/1999/xlink" fill="none" version="1.1" width="21" height="21" viewBox="0 0 21 21"><g><g><ellipse cx="10.5" cy="10.5" rx="10.5" ry="10.5" fill="#FF2442" fill-opacity="1"/></g><g><path d="M11.25,6.75Q11.25,6.676131,11.23559,6.603682Q11.22118,6.531233,11.192910000000001,6.462987Q11.16464,6.394742,11.1236,6.333322Q11.08256,6.271903,11.03033,6.21967Q10.978100000000001,6.167437,10.91668,6.126398Q10.855260000000001,6.0853586,10.78701,6.0570903Q10.71877,6.0288221,10.64632,6.014411Q10.57387,6,10.5,6Q10.42613,6,10.35368,6.014411Q10.28123,6.0288221,10.21299,6.0570903Q10.144739999999999,6.0853586,10.08332,6.126398Q10.021899999999999,6.167437,9.96967,6.21967Q9.91744,6.271903,9.8764,6.333322Q9.83536,6.394742,9.80709,6.462987Q9.77882,6.531233,9.76441,6.603682Q9.75,6.676131,9.75,6.75L9.75,9.75L6.75,9.75Q6.676131,9.75,6.603682,9.76441Q6.531233,9.77882,6.462987,9.80709Q6.394742,9.83536,6.333322,9.8764Q6.271903,9.91744,6.21967,9.96967Q6.167437,10.021899999999999,6.126398,10.08332Q6.0853586,10.144739999999999,6.0570903,10.21299Q6.0288221,10.28123,6.014411,10.35368Q6,10.42613,6,10.5Q6,10.57387,6.014411,10.64632Q6.0288221,10.71877,6.0570903,10.78701Q6.0853586,10.855260000000001,6.126398,10.91668Q6.167437,10.978100000000001,6.21967,11.03033Q6.271903,11.08256,6.333322,11.1236Q6.394742,11.16464,6.462987,11.192910000000001Q6.531233,11.22118,6.603682,11.23559Q6.676131,11.25,6.75,11.25L9.75,11.25L9.75,14.25Q9.75,14.32387,9.76441,14.39632Q9.77882,14.46877,9.80709,14.53701Q9.83536,14.60526,9.8764,14.66668Q9.91744,14.7281,9.96967,14.78033Q10.021899999999999,14.83256,10.08332,14.8736Q10.144739999999999,14.91464,10.21299,14.94291Q10.28123,14.97118,10.35368,14.98559Q10.42613,15,10.5,15Q10.57387,15,10.64632,14.98559Q10.71877,14.97118,10.78701,14.94291Q10.855260000000001,14.91464,10.91668,14.8736Q10.978100000000001,14.83256,11.03033,14.78033Q11.08256,14.7281,11.1236,14.66668Q11.16464,14.60526,11.192910000000001,14.53701Q11.22118,14.46877,11.23559,14.39632Q11.25,14.32387,11.25,14.25L11.25,11.25L14.25,11.25Q14.32387,11.25,14.39632,11.23559Q14.46877,11.22118,14.53701,11.192910000000001Q14.60526,11.16464,14.66668,11.1236Q14.7281,11.08256,14.78033,11.03033Q14.83256,10.978100000000001,14.8736,10.91668Q14.91464,10.855260000000001,14.94291,10.78701Q14.97118,10.71877,14.98559,10.64632Q15,10.57387,15,10.5Q15,10.42613,14.98559,10.35368Q14.97118,10.28123,14.94291,10.21299Q14.91464,10.144739999999999,14.8736,10.08332Q14.83256,10.021899999999999,14.78033,9.96967Q14.7281,9.91744,14.66668,9.8764Q14.60526,9.83536,14.53701,9.80709Q14.46877,9.77882,14.39632,9.76441Q14.32387,9.75,14.25,9.75L11.25,9.75L11.25,6.75Z" fill-rule="evenodd" fill="#FFFFFF" fill-opacity="1"/></g></g></svg>