<svg xmlns="http://www.w3.org/2000/svg" xmlns:xlink="http://www.w3.org/1999/xlink" fill="none" version="1.1" width="21" height="21" viewBox="0 0 21 21"><g><g><ellipse cx="10.5" cy="10.5" rx="10.5" ry="10.5" fill="#CACACA" fill-opacity="1"/></g><g><path d="M9.1289,13.73423L6.180603,10.77782C5.9397995,10.53635,5.9397995,10.14486,6.180603,9.90339C6.421406,9.66193,6.811826,9.66193,7.05263,9.90339L9.64294,12.50084L14.94823,7.180953C15.18883,6.9396825,15.57894,6.9396824,15.81954,7.180953C16.060200000000002,7.422223,16.060200000000002,7.813399,15.81954,8.05467L10.14902,13.7408C10.12975,13.767669999999999,10.10806,13.793330000000001,10.083960000000001,13.817499999999999C9.97928,13.92247,9.84633,13.98181,9.70968,13.99551C9.52824,14.0175,9.33892,13.958680000000001,9.19967,13.81905C9.17316,13.79246,9.14957,13.76406,9.1289,13.73423Z" fill-rule="evenodd" fill="#FFFFFF" fill-opacity="1"/></g></g></svg>