<svg xmlns="http://www.w3.org/2000/svg" xmlns:xlink="http://www.w3.org/1999/xlink" fill="none" version="1.1" width="97" height="25" viewBox="0 0 97 25"><g><g><path d="M2.176,13.04L2.176,9.584L4.792,9.464L4.792,8.096L2.44,8.096L2.44,4.16L4.792,4.16L4.792,2.168L8.751999999999999,2.168L8.751999999999999,4.16L11.224,4.16L11.224,8.096L8.751999999999999,8.096L8.751999999999999,9.296L10.984,9.2L10.984,12.656L8.751999999999999,12.752L8.751999999999999,14.528Q8.751999999999999,15.392,8.608,16.1Q8.464,16.808,8.068,17.312Q7.672,17.816,6.976,18.092Q6.28,18.368,5.176,18.368L3.064,18.368L3.064,14.888L3.568,14.888Q4.024,14.888,4.276,14.78Q4.5280000000000005,14.672,4.636,14.492Q4.744,14.312,4.768,14.072Q4.792,13.832,4.792,13.544L4.792,12.92L2.176,13.04ZM22.96,18.488Q20.488,18.488,19.372,17.336Q18.256,16.183999999999997,18.256,13.544L18.256,8.096L17.128,8.096L17.128,9.464L17.128,9.584L17.896,9.584L17.896,12.296L16.984,12.296Q16.816000000000003,14.024,16.36,15.212Q15.904,16.4,15.112,17.132Q14.32,17.864,13.18,18.176Q12.04,18.488,10.48,18.488L10.48,15.032Q11.176,15.032,11.668,14.924Q12.16,14.816,12.496,14.516Q12.832,14.216,13.012,13.688Q13.192,13.16,13.288,12.296L11.704,12.296L11.704,9.584L13.408,9.584L13.408,9.416L13.408,8.096L11.848,8.096L11.848,4.16L13.432,4.16L13.456,2.168L17.152,2.168L17.152,4.16L22.216,4.16L22.216,12.68Q22.216,13.136,22.252,13.4Q22.288,13.664,22.384,13.808Q22.48,13.952,22.648,13.988Q22.816,14.024,23.08,14.024L23.704,14.024L23.704,18.488L22.96,18.488ZM2.3200000000000003,23.432L2.3200000000000003,18.968L7.264,18.968L7.264,23.432L2.3200000000000003,23.432ZM18.88,23.432L18.88,18.968L23.824,18.968L23.824,23.432L18.88,23.432ZM8.128,23.432L8.128,19.088L12.592,19.088L12.592,23.432L8.128,23.432ZM13.456,23.432L13.456,19.088L18.016,19.088L18.016,23.432L13.456,23.432ZM26.872,5.888L26.872,2.168L32.296,2.168L32.296,5.888L26.872,5.888ZM39.592,23.432L39.592,19.232L40.096,19.232Q40.936,19.232,41.392,19.124Q41.848,19.016,42.088,18.752Q42.328,18.488,42.376,17.996Q42.424,17.504,42.424,16.759999999999998L42.424,6.512L33.544,6.512L33.544,2.3120000000000003L47.128,2.3120000000000003L47.128,17.24Q47.128,19.208,46.804,20.432Q46.48,21.656,45.688,22.316Q44.896,22.976,43.54,23.204Q42.184,23.432,40.096,23.432L39.592,23.432ZM26.992,23.432L26.992,6.992L31.696,6.992L31.696,23.432L26.992,23.432ZM56.968,2.6479999999999997L71.296,1.688L71.296,5.888L66.448,6.224L66.448,8L71.872,8L71.872,11.936L66.448,11.936L66.448,13.424L71.032,13.424L71.032,23.312L57.184,23.312L57.184,13.424L61.768,13.424L61.768,11.936L56.368,11.936L56.368,8L61.768,8L61.768,6.536L56.968,6.848L56.968,2.6479999999999997ZM50.152,2.3120000000000003L55.6,2.3120000000000003L55.6,7.496L50.152,7.496L50.152,2.3120000000000003ZM50.152,8.744L55.6,8.744L55.6,13.664L50.152,13.664L50.152,8.744ZM50.152,15.032L55.336,15.032L55.336,23.312L50.152,23.312L50.152,15.032ZM61.648,19.592L66.592,19.592L66.592,17.144L61.648,17.144L61.648,19.592ZM86.488,2.168L90.928,2.168L90.928,4.568L95.872,4.568L95.872,18.248Q95.872,19.376,95.74,20.312Q95.608,21.248,95.14,21.92Q94.672,22.592,93.76,22.952Q92.848,23.312,91.288,23.312L90.064,23.312L90.064,19.352L90.568,19.352Q91.024,19.352,91.288,19.268Q91.552,19.184,91.696,18.98Q91.84,18.776,91.876,18.416Q91.912,18.056,91.912,17.504L91.912,8.6L90.424,8.6L90.424,9.848Q90.424,13.016,90.244,15.248Q90.064,17.48,89.716,18.968Q89.368,20.456,88.876,21.332Q88.384,22.208,87.748,22.64Q87.112,23.072,86.356,23.192Q85.6,23.312,84.76,23.312L84.76,18.848Q85.504,18.848,85.864,18.32Q86.224,17.792,86.368,16.688000000000002Q86.512,15.584,86.5,13.88Q86.488,12.176,86.488,9.848L86.488,8.6L85,8.6L85,4.568L86.488,4.568L86.488,2.168ZM74.872,2.6L84.016,2.6L84.016,6.68L74.872,6.68L74.872,2.6ZM74.128,9.032L84.88,9.032L84.88,13.352L80.68,13.352Q80.584,13.856,80.476,14.528Q80.368,15.2,80.212,15.944Q80.056,16.688000000000002,79.816,17.468Q79.576,18.248,79.216,18.968L81.376,18.968L81.376,15.032L84.376,15.032L84.376,23.168L74.368,23.168L74.368,18.488L74.872,18.488Q75.112,18.488,75.364,18.176Q75.616,17.864,75.832,17.216Q76.048,16.567999999999998,76.192,15.608Q76.336,14.648,76.36,13.352L74.128,13.352L74.128,9.032Z" fill="#FFFFFF" fill-opacity="1"/></g><g><path d="M1.176,12.04L1.176,8.584L3.792,8.464L3.792,7.096L1.44,7.096L1.44,3.16L3.792,3.16L3.792,1.168L7.752,1.168L7.752,3.16L10.224,3.16L10.224,7.096L7.752,7.096L7.752,8.296L9.984,8.2L9.984,11.656L7.752,11.752L7.752,13.528Q7.752,14.392,7.608,15.1Q7.464,15.808,7.068,16.312Q6.672,16.816,5.976,17.092Q5.28,17.368,4.176,17.368L2.064,17.368L2.064,13.888L2.568,13.888Q3.024,13.888,3.276,13.78Q3.528,13.672,3.636,13.492Q3.744,13.312,3.768,13.072Q3.792,12.832,3.792,12.544L3.792,11.92L1.176,12.04ZM21.96,17.488Q19.488,17.488,18.372,16.336Q17.256,15.184,17.256,12.544L17.256,7.096L16.128,7.096L16.128,8.464L16.128,8.584L16.896,8.584L16.896,11.296L15.984,11.296Q15.816,13.024,15.36,14.212Q14.904,15.4,14.112,16.132Q13.32,16.864,12.18,17.176Q11.04,17.488,9.48,17.488L9.48,14.032Q10.176,14.032,10.668,13.924Q11.16,13.816,11.496,13.516Q11.832,13.216,12.012,12.688Q12.192,12.16,12.288,11.296L10.704,11.296L10.704,8.584L12.408,8.584L12.408,8.416L12.408,7.096L10.848,7.096L10.848,3.16L12.432,3.16L12.456,1.168L16.152,1.168L16.152,3.16L21.216,3.16L21.216,11.68Q21.216,12.136,21.252,12.4Q21.288,12.664,21.384,12.808Q21.48,12.952,21.648,12.988Q21.816,13.024,22.08,13.024L22.704,13.024L22.704,17.488L21.96,17.488ZM1.32,22.432L1.32,17.968L6.264,17.968L6.264,22.432L1.32,22.432ZM17.88,22.432L17.88,17.968L22.824,17.968L22.824,22.432L17.88,22.432ZM7.128,22.432L7.128,18.088L11.592,18.088L11.592,22.432L7.128,22.432ZM12.456,22.432L12.456,18.088L17.016,18.088L17.016,22.432L12.456,22.432ZM25.872,4.888L25.872,1.168L31.296,1.168L31.296,4.888L25.872,4.888ZM38.592,22.432L38.592,18.232L39.096,18.232Q39.936,18.232,40.392,18.124Q40.848,18.016,41.088,17.752Q41.328,17.488,41.376,16.996Q41.424,16.504,41.424,15.76L41.424,5.512L32.544,5.512L32.544,1.312L46.128,1.312L46.128,16.24Q46.128,18.208,45.804,19.432Q45.48,20.656,44.688,21.316Q43.896,21.976,42.54,22.204Q41.184,22.432,39.096,22.432L38.592,22.432ZM25.992,22.432L25.992,5.992L30.696,5.992L30.696,22.432L25.992,22.432ZM55.968,1.648L70.296,0.688L70.296,4.888L65.448,5.224L65.448,7L70.872,7L70.872,10.936L65.448,10.936L65.448,12.424L70.032,12.424L70.032,22.312L56.184,22.312L56.184,12.424L60.768,12.424L60.768,10.936L55.368,10.936L55.368,7L60.768,7L60.768,5.536L55.968,5.848L55.968,1.648ZM49.152,1.312L54.6,1.312L54.6,6.496L49.152,6.496L49.152,1.312ZM49.152,7.744L54.6,7.744L54.6,12.664L49.152,12.664L49.152,7.744ZM49.152,14.032L54.336,14.032L54.336,22.312L49.152,22.312L49.152,14.032ZM60.648,18.592L65.592,18.592L65.592,16.144L60.648,16.144L60.648,18.592ZM85.488,1.168L89.928,1.168L89.928,3.568L94.872,3.568L94.872,17.248Q94.872,18.376,94.74,19.312Q94.608,20.248,94.14,20.92Q93.672,21.592,92.76,21.952Q91.848,22.312,90.288,22.312L89.064,22.312L89.064,18.352L89.568,18.352Q90.024,18.352,90.288,18.268Q90.552,18.184,90.696,17.98Q90.84,17.776,90.876,17.416Q90.912,17.056,90.912,16.504L90.912,7.6L89.424,7.6L89.424,8.848Q89.424,12.016,89.244,14.248Q89.064,16.48,88.716,17.968Q88.368,19.456,87.876,20.332Q87.384,21.208,86.748,21.64Q86.112,22.072,85.356,22.192Q84.6,22.312,83.76,22.312L83.76,17.848Q84.504,17.848,84.864,17.32Q85.224,16.792,85.368,15.688Q85.512,14.584,85.5,12.88Q85.488,11.176,85.488,8.848L85.488,7.6L84,7.6L84,3.568L85.488,3.568L85.488,1.168ZM73.872,1.6L83.016,1.6L83.016,5.68L73.872,5.68L73.872,1.6ZM73.128,8.032L83.88,8.032L83.88,12.352L79.68,12.352Q79.584,12.856,79.476,13.528Q79.368,14.2,79.212,14.944Q79.056,15.688,78.816,16.468Q78.576,17.248,78.216,17.968L80.376,17.968L80.376,14.032L83.376,14.032L83.376,22.168L73.368,22.168L73.368,17.488L73.872,17.488Q74.112,17.488,74.364,17.176Q74.616,16.864,74.832,16.216Q75.048,15.568,75.192,14.608Q75.336,13.648,75.36,12.352L73.128,12.352L73.128,8.032Z" fill="#000000" fill-opacity="1"/></g></g></svg>