<svg xmlns="http://www.w3.org/2000/svg" xmlns:xlink="http://www.w3.org/1999/xlink" fill="none" version="1.1" width="13" height="12" viewBox="0 0 13 12"><g><g><path d="M8.38967,12L8.38253,12L4.58571,11.9905C3.62241,11.9881,2.72661,11.4676,2.24774,10.6317L0.357674,7.33731C-0.12199,6.50139,-0.118814,5.46524,0.364822,4.6317L2.27157,1.34684C2.75441,0.515693,3.64941,0,4.61033,0L4.61748,0L8.41429,0.00953523C9.37759,0.0119191,10.2734,0.53238,10.7523,1.3683L12.6423,4.66349C13.122,5.4994,13.1188,6.53556,12.6352,7.36909L10.7284,10.654C10.2456,11.4843,9.3498,12,8.38967,12ZM4.60954,0.952722C3.98772,0.952722,3.40799,1.28645,3.0951,1.82519L1.18835,5.11005C0.875458,5.64958,0.87387,6.32102,1.18359,6.86214L3.07366,10.1573C3.38584,10.6995,3.96273,11.0346,4.58809,11.0369L8.38491,11.0465C9.00831,11.0513,9.59042,10.7135,9.90332,10.174L11.8101,6.88915C12.123,6.34962,12.1253,5.67819,11.8148,5.13707L9.92476,1.84188C9.61257,1.29969,9.03569,0.964626,8.41032,0.962257L4.6135,0.952722L4.60954,0.952722Z" fill="#444444" fill-opacity="1"/></g><g><path d="M6.135087771911621,8.271758932647705C6.016767771911621,8.271758932647705,5.901607771911621,8.227258932647704,5.812667771911621,8.146218932647706L3.828095771911621,6.324998932647706C3.634323971911621,6.147008932647704,3.6208235719116213,5.845058932647705,3.7987117719116212,5.651178932647705C3.976623771911621,5.457118932647705,4.278021771911622,5.443958932647705,4.4721487719116215,5.621778932647705L6.055677771911621,7.075098932647705L8.09901777191162,4.1517759326477055C8.249807771911621,3.935731032647705,8.54716777191162,3.883058132647705,8.76292777191162,4.034175332647705C8.97884777191162,4.1850529326477055,9.031487771911621,4.482580932647705,8.88045777191162,4.698457932647705L6.525807771911621,8.067548932647705C6.44732777191162,8.180268932647705,6.3239877719116215,8.253558932647705,6.187507771911621,8.268578932647706C6.169237771911622,8.270968932647705,6.151767771911621,8.271758932647705,6.135087771911621,8.271758932647705Z" fill="#00C78B" fill-opacity="1"/><path d="M6.217177771911621,8.516818932647706Q6.543217771911621,8.480058932647704,6.730727771911621,8.210758932647705L9.085297771911621,4.841771932647705Q9.25795777191162,4.594991932647705,9.205477771911621,4.298384932647705Q9.152987771911622,4.001751632647705,8.906347771911621,3.829406932647705Q8.65959777191162,3.656583932647705,8.363007771911622,3.709121932647705Q8.066437771911621,3.761654932647705,7.894107771911621,4.008550832647705L6.014357771911621,6.697838932647706L4.641010771911621,5.437428932647705Q4.419075771911621,5.234138932647705,4.118445771911621,5.247268932647705Q3.817822771911621,5.260388932647706,3.614501171911621,5.4821689326477046Q3.4110387719116213,5.703918932647705,3.424272771911621,6.005028932647705Q3.4374847719116213,6.305658932647705,3.659062671911621,6.509188932647705L5.6442777719116215,8.330998932647706Q5.853617771911621,8.521758932647705,6.135097771911621,8.521758932647705Q6.177937771911621,8.521758932647705,6.217177771911621,8.516818932647706ZM6.320897771911621,7.924338932647705Q6.262037771911621,8.008868932647704,6.160157771911621,8.020078932647705L6.155157771911622,8.020678932647705Q6.146907771911621,8.021758932647705,6.135087771911621,8.021758932647705Q6.047267771911621,8.021758932647705,5.981057771911621,7.9614289326477055L3.997128771911621,6.140798932647705Q3.829790771911621,5.987098932647704,3.9829237719116213,5.820198932647705Q4.136161771911621,5.653048932647705,4.303286771911621,5.806128932647705L6.096997771911621,7.4523489326477055L8.30392777191162,4.295000932647705Q8.357787771911621,4.217829932647705,8.450217771911621,4.201457932647705Q8.54261777191162,4.1850909326477055,8.619497771911622,4.238943932647705Q8.696737771911621,4.292914932647705,8.713117771911621,4.385498932647705Q8.72950777191162,4.478109932647705,8.675607771911622,4.555144932647705L6.320897771911621,7.924338932647705Z" fill-rule="evenodd" fill="#00C78B" fill-opacity="1"/></g></g></svg>