<svg xmlns="http://www.w3.org/2000/svg" xmlns:xlink="http://www.w3.org/1999/xlink" fill="none" version="1.1" width="15" height="15" viewBox="0 0 15 15"><defs><clipPath id="master_svg0_15_6297"><rect x="2" y="2" width="11" height="11" rx="0"/></clipPath></defs><g><g><ellipse cx="7.5" cy="7.5" rx="7.5" ry="7.5" fill="#155DFF" fill-opacity="1"/></g><g clip-path="url(#master_svg0_15_6297)"><g><path d="M11.53795796875,5.2034907625C11.39977796875,5.0738996625,11.18183796875,5.0800900625,11.052247968749999,5.2186245625L6.4679779687500005,10.0995115625L3.96375996875,7.6320715625C3.82832896875,7.4986915624999995,3.61072396875,7.5000815625,3.47734506875,7.6355115625C3.34396576875,7.7706115625,3.34568426875,7.9885415625,3.48113296875,8.1215715625L6.23628796875,10.8358215625C6.23732796875,10.8368515625,6.23868796875,10.8371815625,6.23972796875,10.8382215625C6.24075796875,10.8392515625,6.24109796875,10.8406215625,6.24212796875,10.841651562500001C6.26378796875,10.8622815625,6.28991796875,10.8739715625,6.31500796875,10.887721562500001C6.32738796875,10.894951562500001,6.33802796875,10.9055915625,6.35109796875,10.9107515625C6.39165796875,10.9265615625,6.4346179687500005,10.934801562499999,6.4772479687499995,10.934801562499999C6.52228796875,10.934801562499999,6.56731796875,10.9258615625,6.60924796875,10.907991562500001C6.62334796875,10.9021515625,6.63433796875,10.8901215625,6.6474079687500005,10.8825515625C6.67317796875,10.8674115625,6.69999796875,10.8547015625,6.72199796875,10.832361562500001C6.72303796875,10.831321562500001,6.72336796875,10.829601562499999,6.7244079687500005,10.828571562499999C6.72508796875,10.8275415625,6.72647796875,10.8272015625,6.72748796875,10.8261715625L11.55270796875,5.6891665625C11.68334796875,5.5513525625,11.67613796875,5.3337655625,11.53795796875,5.2034907625Z" fill="#FFFFFF" fill-opacity="1"/><path d="M11.91557796875,6.0331575625L11.91714796875,6.0314865625Q12.15680796875,5.7774905625,12.14589796875,5.4279005625Q12.13501796875,5.0792042625,11.88094796875,4.8396795625Q11.62555796875,4.6001685625,11.27673796875,4.6107395625Q10.92628796875,4.6213605625,10.687097968749999,4.8770535625L6.454117968749999,9.3839215625L4.31468896875,7.2759115625Q3.71316396875,6.6835015625,3.12110496875,7.2846615625Q2.87570596875,7.5332215625,2.87844396875,7.8832315625Q2.88118096875,8.2331615625,3.13078196875,8.4783015625L5.88538796875,11.1920015625L5.885907968750001,11.1925215625Q5.887207968749999,11.193841562500001,5.8885179687499996,11.195151562500001L5.89286796875,11.1995115625L5.89732796875,11.203751562499999Q5.960687968749999,11.264091562499999,6.05436796875,11.3153015625Q6.110337968750001,11.3532615625,6.16754796875,11.3758415625Q6.318747968749999,11.434801562499999,6.4772479687499995,11.434801562499999Q6.64842796875,11.434801562499999,6.80527796875,11.3679615625Q6.86084796875,11.3449715625,6.91790796875,11.3038415625Q7.0143379687500005,11.2480715625,7.07818796875,11.1832615625Q7.08875796875,11.1726815625,7.09865796875,11.1614415625L7.11370796875,11.1463915625L7.1161379687499995,11.1427215625L11.91557796875,6.0331575625Z" fill-rule="evenodd" fill="#FFFFFF" fill-opacity="1"/></g></g></g></svg>