<svg xmlns="http://www.w3.org/2000/svg" xmlns:xlink="http://www.w3.org/1999/xlink" fill="none" version="1.1" width="184.7655029296875" height="210.9925537109375" viewBox="0 0 184.7655029296875 210.9925537109375"><g><g><g><g><path d="M136.9239177807617,116.05226046142579L136.82912778076172,116.00066046142578L138.04052778076172,115.67796046142578Q138.99989778076173,115.42246046142579,139.59168778076173,115.70106046142578Q140.35268778076173,116.05906046142579,140.4421877807617,116.99376046142578Q140.51888778076173,117.79416046142578,140.0600877807617,118.44656046142578Q139.65458778076172,119.02296046142578,138.52613778076173,119.72756046142578Q138.2356977807617,119.90886046142577,138.09800778076172,120.00106046142578Q134.94820778076172,122.10766046142578,134.88237778076171,125.83786046142578Q134.8269377807617,128.97996046142578,137.0000977807617,130.98406046142577Q136.81714778076173,126.89036046142579,139.0791577807617,123.29966046142579Q139.79758778076172,122.15876046142579,140.75148778076172,121.53596046142579Q141.9864877807617,120.72966046142578,143.1525877807617,121.14146046142578Q144.08628778076172,121.47086046142579,144.5395877807617,122.46366046142577Q144.9497877807617,123.36196046142578,144.7717877807617,124.34086046142578Q144.5165877807617,125.73906046142578,143.0078877807617,127.32766046142578Q142.8462877807617,127.49786046142577,142.51868778076172,127.83066046142578Q141.36308778076173,129.0045604614258,140.96658778076173,129.68206046142578Q139.71228778076173,131.82406046142577,140.83918778076173,133.9999604614258Q141.8211877807617,135.89546046142578,143.8298877807617,136.30546046142578Q143.42798778076173,132.26506046142578,144.81918778076172,128.38746046142577Q145.3119877807617,127.01256046142578,146.2006877807617,126.72966046142578Q146.90288778076172,126.50566046142578,147.58268778076172,126.94526046142579Q148.1825877807617,127.33316046142578,148.4146877807617,127.99956046142577Q148.69928778076172,128.81466046142577,148.3838877807617,130.2921604614258Q147.70368778076173,133.47036046142577,146.65168778076173,136.54766046142578Q150.4360877807617,138.2166604614258,154.56088778076173,138.8040604614258L155.5276877807617,138.65026046142577Q157.5824877807617,136.95146046142577,158.3307877807617,135.87056046142578Q159.61448778076172,134.0163604614258,159.1921877807617,132.3125604614258Q158.9052877807617,131.15636046142578,157.08138778076173,129.31206046142577Q156.7820877807617,129.0094604614258,156.63498778076172,128.85696046142579Q154.31858778076173,126.45656046142578,154.71898778076172,124.35596046142578L154.8102877807617,123.87716046142577L155.29118778076173,123.95616046142578Q157.88348778076173,124.38186046142579,159.95128778076173,126.14856046142577Q161.6087877807617,127.56476046142578,162.45038778076173,129.4333604614258Q163.4171877807617,127.83226046142579,163.66138778076171,126.84886046142577Q164.1755877807617,124.77756046142578,163.0018877807617,123.58706046142578Q162.4078877807617,122.98446046142578,160.6218877807617,122.41756046142578Q160.3213877807617,122.32226046142578,160.17188778076172,122.27286046142578Q157.4334877807617,121.36826046142578,155.1286877807617,119.66026046142578Q153.57008778076172,118.50506046142578,154.12848778076173,117.33276046142578Q154.5979877807617,116.34666046142578,156.2657877807617,116.45596046142578Q160.83008778076172,116.75726046142579,164.59728778076172,119.16876046142578Q164.3895877807617,116.23546046142579,163.77378778076172,114.80506046142578Q162.53238778076172,111.92006046142578,160.00178778076173,111.69658046142578Q158.90918778076173,111.60020046142579,156.70688778076172,112.41686046142578Q154.6630877807617,113.17476046142578,153.55538778076172,113.22066046142578Q152.54938778076172,113.26186046142578,151.7452877807617,112.70076046142579Q150.73168778076172,111.99336046142578,151.0164877807617,110.96131046142578Q151.27968778076172,110.00669046142578,152.77268778076171,109.51745046142578Q156.66768778076172,108.24291046142578,160.67458778076173,108.63768046142579Q157.84558778076172,104.97283046142579,155.30138778076173,103.50135046142579Q151.55648778076173,101.33541946142579,148.04078778076172,103.19988046142578Q144.8922877807617,104.86961046142578,144.0772877807617,110.62562046142578L143.9685877807617,111.39321046142578L143.31418778076173,110.97760046142578Q139.91488778076172,108.81878046142577,137.6846677807617,108.31612046142578Q134.20898778076173,107.53277046142578,131.93683778076172,109.34143046142579Q129.30651698076173,111.43567046142579,129.8016757807617,115.53716046142578Q130.05007478076172,117.59476046142578,131.72436778076172,121.12516046142578Q132.4410077807617,119.46476046142578,133.81544778076173,118.11636046142578Q135.20988778076173,116.74836046142578,136.9239177807617,116.05226046142579ZM138.38544778076172,116.62206046142578L138.29912778076172,116.64506046142579Q136.16366778076173,117.21356046142579,134.51575778076173,118.83026046142578Q132.86899778076173,120.44576046142578,132.27918778076173,122.54876046142579L131.93065778076172,123.79146046142579L131.3510277807617,122.63826046142577Q129.1145277807617,118.18876046142577,128.80888378076173,115.65706046142579Q128.2467987807617,111.00115046142578,131.31396778076171,108.55911046142577Q133.9612377807617,106.45184046142577,137.90453778076173,107.34059046142578Q140.08308778076173,107.83160046142578,143.20628778076173,109.73281046142579Q144.1945877807617,104.10768046142579,147.5722877807617,102.31643046142578Q151.57748778076171,100.19236046142578,155.80208778076172,102.63570646142578Q158.84468778076172,104.39543046142578,162.18818778076172,108.99061046142577L162.9001877807617,109.96916046142579L161.70508778076172,109.77854046142578Q157.32518778076172,109.07994046142578,153.08368778076172,110.46786046142579Q152.10108778076173,110.78986046142577,151.98048778076173,111.22710046142578Q151.8836877807617,111.57791046142577,152.31748778076172,111.88066046142578Q152.8452877807617,112.24896046142578,153.51448778076173,112.22156046142578Q154.46368778076172,112.18216046142578,156.35918778076172,111.47925046142578Q158.77268778076171,110.58428046142578,160.08958778076172,110.70044046142579Q163.2149877807617,110.97650046142579,164.69238778076172,114.40986046142578Q165.48168778076172,116.24346046142578,165.6535877807617,120.13006046142578L165.69918778076172,121.16196046142578L164.8614877807617,120.55756046142578Q160.9985877807617,117.77056046142579,156.19998778076172,117.45386046142578Q155.2092877807617,117.38886046142578,155.03138778076172,117.76266046142578Q154.82688778076172,118.19186046142578,155.72418778076172,118.85686046142578Q157.89978778076173,120.46916046142579,160.4855877807617,121.32326046142578Q160.6295877807617,121.37086046142578,160.92438778076172,121.46446046142577Q162.94628778076174,122.10616046142579,163.7140877807617,122.88506046142578Q165.2811877807617,124.47466046142578,164.6318877807617,127.08986046142579Q164.2860877807617,128.48246046142577,162.76088778076172,130.81656046142578L162.1878877807617,131.69336046142578L161.86638778076173,130.69656046142578Q161.15568778076172,128.49296046142578,159.3016877807617,126.90886046142577Q157.66178778076173,125.50766046142579,155.66158778076172,125.04766046142578Q155.7015877807617,126.44956046142579,157.35458778076173,128.16256046142578Q157.4975877807617,128.3107604614258,157.79238778076171,128.6088604614258Q159.80968778076172,130.64866046142578,160.16278778076173,132.07186046142579Q160.6937877807617,134.2141604614258,159.15298778076172,136.43976046142578Q158.30628778076172,137.6627604614258,156.05788778076172,139.50906046142578L155.95308778076173,139.5951604614258L154.56998778076172,139.8152604614258L154.4959877807617,139.8048604614258Q149.9599877807617,139.16996046142577,145.82098778076173,137.27036046142578L145.4067877807617,137.08026046142578L145.5577877807617,136.65026046142577Q146.69108778076173,133.42326046142577,147.40598778076173,130.08286046142578Q147.66278778076173,128.87986046142578,147.47058778076172,128.32926046142578Q147.17128778076173,127.46966046142578,146.5044877807617,127.68236046142579Q146.0865877807617,127.81546046142579,145.7604877807617,128.72496046142578Q144.3392877807617,132.68626046142577,144.8974877807617,136.8254604614258L144.98108778076173,137.4452604614258L144.3580877807617,137.3903604614258Q141.33118778076172,137.1233604614258,139.95128778076173,134.4599604614258Q138.5708577807617,131.79446046142579,140.10368778076173,129.17676046142577Q140.56298778076172,128.39196046142578,141.80608778076171,127.12906046142578Q142.12728778076172,126.80276046142578,142.2827877807617,126.63906046142579Q143.58638778076173,125.26636046142578,143.7879877807617,124.16136046142577Q144.08458778076172,122.53066046142578,142.81988778076172,122.08446046142578Q141.35238778076172,121.56626046142578,139.92538778076172,123.83256046142579Q137.53175778076172,127.63216046142578,138.0940477807617,132.0360604614258L138.2363077807617,133.15016046142577L137.31320778076173,132.5102604614258Q133.80736778076172,130.0797604614258,133.8825377807617,125.82016046142579Q133.9575877807617,121.56716046142579,137.54206778076173,119.16976046142578Q137.6926077807617,119.06906046142578,137.9965177807617,118.87926046142579Q138.9531777807617,118.28196046142578,139.24208778076172,117.87116046142577Q139.4881877807617,117.52136046142579,139.44678778076172,117.08916046142578Q139.41158778076172,116.72146046142578,139.1660277807617,116.60596046142578Q138.92366778076172,116.49186046142579,138.38544778076172,116.62206046142578Z" fill-rule="evenodd" fill="#242424" fill-opacity="1"/></g></g><g><g><path d="M64.34337972412109,160.4400416748047L64.5356797241211,160.75584167480469L64.61177972412109,160.8133416748047Q66.37537972412109,162.14524167480468,67.29237972412109,164.2638416748047Q68.2085797241211,166.38084167480469,67.9626797241211,168.55094167480468L67.8173797241211,169.8330416748047L68.78857972412109,168.9836416748047Q72.5377797241211,165.7048416748047,73.77477972412109,163.47564167480468Q76.0506797241211,159.37464167480468,74.1302797241211,155.9571416748047Q72.47387972412109,153.00834167480468,68.4856797241211,152.34384167480468Q66.2813797241211,151.97664167480468,62.673279724121095,152.56114167480467Q63.87827972412109,146.9790116748047,61.42467972412109,144.0459616748047Q58.51547972412109,140.56929167480467,53.68197972412109,141.23975667480468Q50.20187972412109,141.7224928748047,45.371169724121096,144.7184316748047L44.34270972412109,145.3562616748047L45.521459724121094,145.6303516748047Q49.84337972412109,146.63530167480468,53.246879724121094,149.51891167480468Q54.0357797241211,150.1866416748047,53.982379724121095,150.63815167480467Q53.939779724121095,150.9997816748047,53.42387972412109,151.1165616748047Q52.79617972412109,151.2586216748047,52.186779724121095,150.98092167480468Q51.32257972412109,150.5868316748047,49.8319797241211,149.22143167480468Q47.933579724121095,147.48244167480468,46.66952972412109,147.09368167480469Q43.66986972412109,146.17120167480468,41.007939724121094,148.79397167480468Q39.586429724121096,150.19458167480468,37.96116972412109,153.7297416748047L37.52956572412109,154.6685416748047L38.5335797241211,154.42444167480468Q43.162129724121094,153.29914167480467,47.725979724121096,154.8150416748047Q48.66827972412109,155.1277416748047,48.69207972412109,155.54144167480467Q48.7193797241211,156.01664167480467,47.6384797241211,156.2939416748047Q45.01502972412109,156.96694167480467,42.29815972412109,156.78374167480467Q42.146399724121096,156.77354167480468,41.837459724121096,156.7490416748047Q39.72367972412109,156.5814416748047,38.71908972412109,157.01344167480468Q36.66769532412109,157.8955416748047,36.284129724121094,160.5625416748047Q36.08000872412109,161.98184167480468,36.611941724121095,164.7193416748047L36.81181172412109,165.74794167480468L37.48565972412109,164.9455416748047Q38.974539724121094,163.17254167480468,41.288809724121094,162.4041416748047Q43.335839724121094,161.7245416748047,45.361769724121096,162.0523416748047Q44.796019724121095,163.3355416748047,42.619289724121096,164.2990416748047Q42.431809724121095,164.3820416748047,42.048189724121094,164.5461416748047Q39.40869972412109,165.6754416748047,38.54488972412109,166.8615416748047Q37.245716724121095,168.64524167480468,37.833919724121095,171.2878416748047Q38.157189724121096,172.74024167480468,39.54365972412109,175.2971416748047L39.608299724121096,175.4163416748047L40.806469724121094,176.14154167480467L40.87891972412109,176.15984167480468Q45.31872972412109,177.2820416748047,49.8687797241211,177.08284167480468L50.324179724121095,177.06294167480468L50.34637972412109,176.60764167480468Q50.512979724121095,173.1892416748047,51.11007972412109,169.8280416748047Q51.324379724121094,168.61874167480468,51.71127972412109,168.17864167480468Q52.311779724121095,167.4957416748047,52.84977972412109,167.9444416748047Q53.18667972412109,168.2252416748047,53.1461797241211,169.19054167480468Q52.96957972412109,173.39344167480468,50.892479724121095,177.01844167480468L50.58157972412109,177.5610416748047L51.17917972412109,177.7449416748047Q54.083579724121094,178.63854167480469,56.365479724121094,176.69144167480468Q58.6491797241211,174.74284167480468,58.216079724121094,171.7413416748047Q58.086379724121095,170.8427416748047,57.41317972412109,169.2080416748047Q57.237479724121094,168.78154167480469,57.1547797241211,168.56974167480467Q56.464779724121094,166.8064416748047,56.69507972412109,165.7072416748047Q57.0348797241211,164.0849416748047,58.374279724121095,164.1484416748047Q59.92847972412109,164.2216416748047,60.39687972412109,166.85854167480468Q61.18177972412109,171.27974167480468,59.00037972412109,175.1471416748047L58.44847972412109,176.12544167480468L59.544879724121095,175.88074167480468Q63.7086797241211,174.9511416748047,65.2440797241211,170.9772416748047Q66.77727972412109,167.0088416748047,64.36117972412109,163.43814167480468Q64.2600797241211,163.2888416748047,64.0514797241211,163.00044167480468Q63.38907972412109,162.0847416748047,63.27607972412109,161.5943416748047Q63.18007972412109,161.1772416748047,63.38127972412109,160.7927416748047Q63.55227972412109,160.4657416748047,63.823079724121094,160.4512416748047Q64.07967972412109,160.4376416748047,64.34337972412109,160.4400416748047ZM65.2912797241211,160.0739416748047L65.05557972412109,159.6868416748047L64.91607972412109,159.45784167480468L64.64807972412109,159.44734167480468Q64.20117972412109,159.4297416748047,63.769579724121094,159.45264167480468Q62.93017972412109,159.4976416748047,62.495179724121094,160.32924167480468Q62.122579724121096,161.0413416748047,62.301679724121094,161.81894167480468Q62.46017972412109,162.50664167480468,63.241179724121096,163.5864416748047Q63.44077972412109,163.8623416748047,63.53297972412109,163.9985416748047Q65.6560797241211,167.1362416748047,64.31127972412109,170.61684167480468Q63.17877972412109,173.5480416748047,60.4102797241211,174.58514167480467Q62.12327972412109,170.8621416748047,61.38147972412109,166.68374167480468Q60.77347972412109,163.2603416748047,58.42167972412109,163.14954167480468Q57.43317972412109,163.1026416748047,56.63907972412109,163.8511416748047Q55.9201797241211,164.5285416748047,55.716279724121094,165.50224167480468Q55.4248797241211,166.8931416748047,56.2232797241211,168.9335416748047Q56.309379724121094,169.15394167480468,56.48847972412109,169.58884167480468Q57.11437972412109,171.1086416748047,57.226379724121095,171.88414167480468Q57.5806797241211,174.3400416748047,55.7163797241211,175.9307416748047Q54.092379724121095,177.31644167480468,52.0772797241211,176.9391416748047Q53.9723797241211,173.3469416748047,54.145279724121096,169.23244167480468Q54.2065797241211,167.77354167480468,53.490279724121095,167.1764416748047Q52.92417972412109,166.70434167480468,52.12887972412109,166.85494167480468Q51.426679724121094,166.9879416748047,50.960279724121094,167.51834167480467Q50.3884797241211,168.1686416748047,50.12547972412109,169.6531416748047Q49.557279724121095,172.8513416748047,49.3717797241211,176.1002416748047Q45.237169724121095,176.2195416748047,41.196159724121095,175.20854167480468L40.35848972412109,174.70154167480467Q39.095719724121096,172.35414167480468,38.810029724121094,171.07064167480468Q38.319969724121094,168.8689416748047,39.35324972412109,167.4502416748047Q40.05504972412109,166.4865416748047,42.4415297241211,165.46554167480468Q42.83092972412109,165.2989416748047,43.02404972412109,165.21354167480467Q46.074319724121096,163.8633416748047,46.495679724121096,161.7670416748047L46.591749724121094,161.28914167480468L46.116419724121094,161.1809416748047Q43.55493972412109,160.59814167480468,40.973719724121096,161.45514167480468Q38.904969724121095,162.14194167480468,37.421264724121095,163.5551416748047Q37.1297977241211,161.7072416748047,37.27394572412109,160.70494167480467Q37.577708724121095,158.5927416748047,39.11416972412109,157.93214167480468Q39.8913897241211,157.5978416748047,41.75842972412109,157.7459416748047Q42.07329972412109,157.77084167480467,42.23090972412109,157.78154167480469Q45.10796972412109,157.9754416748047,47.887079724121094,157.26264167480468Q49.764879724121094,156.78064167480468,49.690379724121094,155.4839416748047Q49.62757972412109,154.39254167480468,48.04117972412109,153.86604167480468Q43.70033972412109,152.42414167480467,39.302109724121095,153.23764167480468Q40.600949724121094,150.5988316748047,41.709789724121094,149.5063016748047Q43.9464997241211,147.30249167480468,46.37556972412109,148.04950167480467Q47.42427972412109,148.37203167480467,49.15647972412109,149.95882167480468Q50.76367972412109,151.43106167480468,51.77207972412109,151.89094167480468Q52.688279724121095,152.3083416748047,53.644579724121094,152.0918416748047Q54.85017972412109,151.81904167480468,54.975479724121094,150.75564167480468Q55.09197972412109,149.7704916748047,53.89327972412109,148.75593167480469Q50.76757972412109,146.1076916748047,46.906179724121095,144.9622616748047Q50.90927972412109,142.63394167480467,53.81937972412109,142.2302726748047Q58.10407972412109,141.6359316548047,60.657679724121095,144.68760167480468Q62.9449797241211,147.42184167480468,61.529879724121095,153.0600416748047L61.341079724121094,153.81224167480468L62.104179724121096,153.67364167480468Q66.0647797241211,152.95434167480468,68.3212797241211,153.33024167480468Q71.8367797241211,153.91594167480469,73.25847972412109,156.4470416748047Q74.9053797241211,159.3776416748047,72.9003797241211,162.99044167480469Q71.8949797241211,164.8021416748047,69.0129797241211,167.44164167480469Q68.97477972412109,165.6335416748047,68.2100797241211,163.8666416748047Q67.2083797241211,161.5522416748047,65.2912797241211,160.0739416748047Z" fill-rule="evenodd" fill="#242424" fill-opacity="1"/></g></g><g><path d="M103.13816302490234,67.5539931640625Q103.10426302490234,67.56349316406249,103.06956302490235,67.5720931640625Q102.21456302490235,67.7830931640625,100.98716302490234,67.1686931640625L97.99716302490235,65.6717931640625L98.83106302490235,65.81259316406249Q97.06506302490234,64.44619316406249,95.76443302490235,62.4679931640625Q94.08701302490235,59.9166931640625,93.65112302490235,57.0585931640625Q89.81941302490235,62.0255931640625,88.75307302490235,65.11229316406249Q87.84924102490234,67.7285931640625,88.09241402490234,70.3016931640625Q88.35407802490235,73.0704931640625,89.90615302490234,74.9645931640625Q92.67201302490234,78.3395931640625,98.03026302490234,78.2159931640625Q101.44296302490234,78.1372931640625,107.05066302490235,75.9811931640625L107.78786302490235,75.6977931640625L107.72866302490235,76.4853931640625Q107.07396302490234,85.2035931640625,111.16646302490234,88.6246931640625Q115.73196302490234,92.4410931640625,121.92776302490233,90.34909316406251Q126.26746302490234,88.8838931640625,131.79196302490234,84.0431931640625Q125.64636302490234,83.5347931640625,120.25106302490235,80.4327931640625Q118.36236302490235,79.3462931640625,118.29196302490234,78.00749316406251Q118.21756302490235,76.6009931640625,119.73686302490233,75.94099316406249Q120.99706302490235,75.3934931640625,122.35516302490234,75.7290931640625Q123.89966302490234,76.1108931640625,126.57126302490235,77.7910931640625Q129.52476302490234,79.6483931640625,131.17836302490235,79.8337931640625Q133.02106302490233,80.0401931640625,134.86936302490233,79.0083931640625Q136.59976302490236,78.0423931640625,137.81556302490236,76.3169931640625Q139.24896302490234,74.2827931640625,140.54566302490235,69.6912931640625Q134.22516302490234,72.2713931640625,127.38876302490235,71.3503931640625Q125.10606302490234,71.04289316406249,124.77676302490235,69.62339316406249Q124.38956302490234,67.9548931640625,126.80956302490235,66.8208931640625Q130.62866302490235,65.03139316406251,134.81746302490234,64.5232931640625Q135.04776302490234,64.4952931640625,135.51026302490234,64.4444931640625Q138.31616302490235,64.1366931640625,139.41166302490234,63.4016931640625Q141.59436302490235,61.936693164062504,141.50416302490234,58.6388931640625Q141.45896302490235,56.9838931640625,140.41906302490236,54.0377931640625Q138.59916302490234,56.7174931640625,135.60396302490233,58.379793164062505Q132.13036302490235,60.3074931640625,128.33226302490235,60.1698931640625L127.83676302490235,60.1518931640625L127.85056302490234,59.656293164062504Q127.93496302490234,56.618393164062496,131.91766302490234,53.883193164062504Q132.17536302490234,53.7061931640625,132.69916302490236,53.3558931640625Q135.96516302490235,51.1716931640625,136.77376302490234,49.5129931640625Q137.96896302490234,47.0605231640625,136.66606302490234,43.8930131640625Q135.91316302490236,42.0614131640625,133.44146302490233,38.9339131640625L132.01006302490234,38.3939141640625Q125.72546302490235,38.0256721640625,119.59586302490234,39.4099731640625Q120.16286302490235,44.2907531640625,120.13716302490235,49.1985931640625Q120.12636302490235,51.3631931640625,119.49516302490234,52.4069931640625Q118.99536302490235,53.2335931640625,118.08926302490235,53.5898931640625Q117.07666302490235,53.9881931640625,116.23036302490235,53.5102931640625Q115.13746302490235,52.8930931640625,114.87746302490234,50.8666931640625Q114.08736302490234,44.726493164062504,116.04256302490234,38.8860131640625Q112.70216302490235,38.7601241640625,110.50936302490234,41.4475531640625Q108.11296302490234,44.3844631640625,109.28236302490234,47.9896931640625Q109.64716302490234,49.1148931640625,110.95156302490234,51.1787931640625Q111.31906302490235,51.7601931640625,111.49776302490234,52.0549931640625Q113.13076302490234,54.745493164062495,113.05816302490234,56.7783931640625Q113.00836302490234,58.173593164062495,112.18116302490235,59.2944931640625Q111.27876302490235,60.5172931640625,109.93486302490234,60.7083931640625Q108.23966302490234,60.949293164062496,106.79546302490235,59.4955931640625Q105.65486302490234,58.347393164062495,104.99746302490234,56.5270931640625Q102.80846302490234,50.4619931640625,104.58306302490234,44.3820731640625Q102.84396302490234,45.3699731640625,101.52056302490234,47.0056331640625Q99.81536302490234,49.1129931640625,99.30616302490235,51.6702931640625Q98.79696302490234,54.227793164062504,99.56466302490234,56.8274931640625Q100.33226302490235,59.4273931640625,102.14906302490235,61.2978931640625Q102.31986302490235,61.473693164062496,102.68186302490234,61.8233931640625Q104.05156302490235,63.1462931640625,104.43546302490235,64.0602931640625Q104.85566302490234,65.06089316406249,104.51996302490234,66.1141931640625Q104.24316302490234,66.9830931640625,103.60096302490234,67.3594931640625L104.42076302490234,67.7705931640625L103.13816302490234,67.5539931640625ZM101.53446302490235,66.3231931640625L101.43896302490235,66.2752931640625Q98.49306302490234,64.7978931640625,96.60001302490234,61.9185931640625Q94.70683302490234,59.0390931640625,94.51892302490235,55.7493931640625L94.44423302490235,54.4416931640625L93.62853302490234,55.4664931640625Q89.03240302490235,61.2411931640625,87.80788602490234,64.7857931640625Q86.83328602490235,67.6068931640625,87.09685002490234,70.3957931640625Q87.38721902490235,73.4682931640625,89.13266302490234,75.5983931640625Q92.20762302490235,79.3505931640625,98.05336302490234,79.21579316406249Q101.41076302490234,79.1382931640625,106.68176302490235,77.1891931640625Q106.22996302490235,85.8013931640625,110.52506302490235,89.39189316406251Q115.52066302490235,93.5678931640625,122.24766302490235,91.2964931640625Q127.13226302490234,89.64739316406249,133.35506302490234,83.98809316406249L134.25606302490235,83.1685931640625L133.03916302490234,83.1185931640625Q126.45866302490234,82.8482931640625,120.74946302490235,79.5658931640625Q119.33246302490234,78.7506931640625,119.29066302490234,77.9550931640625Q119.25286302490234,77.24149316406249,120.13536302490235,76.8581931640625Q121.08536302490234,76.4453931640625,122.11536302490234,76.6998931640625Q123.50346302490235,77.0430931640625,126.03896302490234,78.63759316406251Q129.18606302490235,80.6166931640625,131.06696302490235,80.8275931640625Q133.22856302490234,81.0695931640625,135.35676302490234,79.8814931640625Q137.28596302490234,78.80459316406251,138.63296302490235,76.8929931640625Q140.32126302490235,74.49719316406251,141.78466302490233,68.9490931640625L142.05306302490234,67.9318931640625L141.09476302490233,68.36619316406251Q134.59576302490234,71.31229316406251,127.52226302490234,70.35939316406251Q125.92416302490234,70.1440931640625,125.75096302490235,69.39739316406249Q125.54666302490234,68.5170931640625,127.23396302490235,67.7263931640625Q130.90806302490233,66.0047931640625,134.93786302490236,65.51599316406251Q135.16256302490234,65.4886931640625,135.61926302490235,65.4385931640625Q138.66936302490234,65.1039931640625,139.96886302490233,64.2320931640625Q142.60906302490235,62.459993164062496,142.50386302490233,58.6115931640625Q142.44686302490234,56.528293164062504,141.00416302490234,52.729493164062504L140.62916302490234,51.7419931640625L140.10316302490236,52.6579931640625Q138.34886302490236,55.7126931640625,135.11866302490233,57.5053931640625Q132.13276302490235,59.1624931640625,128.89916302490235,59.1788931640625Q129.27696302490233,56.909893164062495,132.48376302490234,54.7074931640625Q132.73666302490233,54.533893164062505,133.25506302490234,54.1871931640625Q136.74566302490234,51.8526931640625,137.67266302490233,49.9511931640625Q139.06456302490233,47.0951731640625,137.59086302490235,43.5125831640625Q136.77136302490234,41.5188331640625,134.13906302490233,38.2040081640625L134.05316302490235,38.0958691640625L132.22116302490235,37.4047571640625L132.14556302490234,37.4002031640625Q125.45256302490235,36.9969031640625,118.93136302490234,38.5371381640625L118.49596302490235,38.6399961640625L118.54996302490234,39.0841931640625Q119.16376302490235,44.1242031640625,119.13716302490235,49.193293164062496Q119.12776302490235,51.0820931640625,118.63946302490234,51.8894931640625Q118.31466302490234,52.4266931640625,117.72326302490234,52.659293164062504Q117.15376302490235,52.8832931640625,116.72216302490234,52.6394931640625Q116.06556302490235,52.2687931640625,115.86936302490234,50.7394931640625Q115.06816302490235,44.5127031640625,117.19846302490234,38.6063641640625L117.41336302490234,38.0105041640625L116.78386302490235,37.9398401640625Q114.80896302490234,37.7181343640625,112.89996302490235,38.4968681640625Q110.99096302490234,39.2755731640625,109.73456302490234,40.8153531640625Q108.47816302490234,42.3551331640625,108.09816302490235,44.3814531640625Q107.71806302490234,46.4079131640625,108.33116302490234,48.2982931640625Q108.73466302490235,49.5428931640625,110.10626302490235,51.712993164062496Q110.46876302490234,52.2865931640625,110.64276302490234,52.5734931640625Q112.12076302490235,55.0086931640625,112.05886302490234,56.7426931640625Q112.02006302490234,57.8286931640625,111.37656302490234,58.7006931640625Q110.72306302490234,59.5861931640625,109.79406302490234,59.718393164062505Q108.59556302490235,59.8886931640625,107.50496302490234,58.7907931640625Q106.52026302490235,57.799693164062504,105.93806302490235,56.1874931640625Q103.66476302490234,49.8889931640625,105.89406302490235,43.5734931640625L106.27466302490234,42.4954031640625L105.22466302490234,42.9478831640625Q102.60326302490235,44.0776131640625,100.74316302490234,46.3766231640625Q98.88276302490235,48.6757931640625,98.32546302490235,51.4749931640625Q97.76806302490235,54.2743931640625,98.60556302490234,57.110693164062496Q99.44306302490234,59.9471931640625,101.43176302490234,61.9945931640625Q101.61366302490234,62.1818931640625,101.98716302490234,62.5426931640625Q103.20916302490234,63.7228931640625,103.51346302490234,64.44749316406251Q103.79096302490234,65.1083931640625,103.56716302490234,65.8105931640625Q103.35666302490235,66.4712931640625,102.83006302490234,66.6011931640625Q102.36066302490235,66.7169931640625,101.53446302490235,66.3231931640625Z" fill-rule="evenodd" fill="#242424" fill-opacity="1"/></g><g><path d="M145.8714107055664,144.19324143066407L145.8714107055664,144.19324143066407Q145.6258107055664,143.67484143066406,145.93431070556642,142.73084143066407Q146.95311070556642,139.60314143066407,149.7551107055664,137.49085143066407Q152.57121070556641,135.36799143066406,156.2195107055664,134.99902143066407L157.7098107055664,134.84829143066406L156.4278107055664,134.07361143066407Q149.0180107055664,129.59623143066406,144.8190107055664,128.51035683066405Q141.4834107055664,127.64785543066407,138.4416107055664,128.06508143066407Q135.07301070556642,128.52713773066407,133.0560107055664,130.46420143066408Q129.4882907055664,133.89081143066406,130.88543070556642,140.00304143066407Q131.6807107055664,143.48154143066407,134.9568107055664,148.84474143066407Q125.2738407055664,148.83204143066405,122.16759070556641,153.50444143066406Q118.54307070556641,158.95634143066405,122.5106007055664,165.84944143066406Q125.3827307055664,170.83874143066407,133.0095107055664,177.01254143066407L134.0232107055664,177.83304143066405L133.81791070556642,176.54514143066405Q132.7227107055664,169.67634143066405,135.17401070556642,163.56664143066405Q135.77171070556642,162.07574143066407,136.6521107055664,161.99044143066408Q137.53181070556641,161.90534143066407,138.2036107055664,162.88664143066407Q138.8784107055664,163.87244143066405,138.8123107055664,164.96184143066407Q138.7242107055664,166.41724143066406,137.4850107055664,169.13314143066407Q135.9338107055664,172.53284143066406,136.09871070556642,174.51624143066405Q136.28611070556641,176.77174143066406,138.0496107055664,178.90814143066405Q139.64321070556642,180.83874143066407,142.0356107055664,182.12664143066405Q145.04481070556642,183.74774143066406,151.5374107055664,184.98054143066406L152.7523107055664,185.21114143066407L152.0392107055664,184.20094143066405Q147.3518107055664,177.56024143066406,146.9134107055664,170.12694143066406Q146.8173107055664,168.49394143066405,147.5845107055664,168.28344143066406Q148.61321070556642,168.00094143066406,149.9224107055664,169.81094143066406Q152.6373107055664,173.56474143066407,154.0442107055664,177.75234143066405Q154.1222107055664,177.98464143066406,154.2748107055664,178.45684143066407Q155.2916107055664,181.60464143066406,156.5238107055664,182.89484143066406Q159.0092107055664,185.49524143066407,163.2184107055664,185.19084143066408Q165.52691070556642,185.02394143066405,169.4634107055664,183.32334143066407L170.5151107055664,182.86894143066405L169.46681070556642,182.40674143066406Q165.6371107055664,180.71854143066406,162.9201107055664,177.41194143066406Q160.4364107055664,174.38934143066405,159.7200107055664,171.03404143066405Q162.39491070556642,171.31814143066407,165.5825107055664,174.59214143066407Q165.8312107055664,174.84764143066405,166.32901070556642,175.37014143066406Q169.65341070556642,178.85934143066407,171.9369107055664,179.71194143066407Q175.37451070556642,180.99584143066406,179.04571070556642,179.28394143066407Q181.1052107055664,178.32284143066406,184.25721070556642,175.40124143066407L184.3764107055664,175.29064143066407L184.76561070556642,173.31514143066406L184.7540107055664,173.23204143066405Q183.7841107055664,166.23814143066406,180.6778107055664,159.52054143066405L180.5182107055664,159.17544143066405L180.1430107055664,159.23704143066408Q174.6417107055664,160.13984143066406,168.9529107055664,160.37754143066405Q166.8029107055664,160.46664143066405,165.76151070556642,159.98294143066406Q165.04381070556641,159.64994143066406,164.6340107055664,159.00764143066405Q164.2546107055664,158.41294143066406,164.4298107055664,157.96414143066406Q164.6934107055664,157.28994143066407,166.3543107055664,157.00644143066407Q173.1704107055664,155.84264143066406,180.2566107055664,157.76504143066407L180.94471070556642,157.95174143066407L180.8858107055664,157.24114143066407Q180.7145107055664,155.17634143066405,179.44721070556642,153.24054143066405Q178.1887107055664,151.31814143066407,176.2328107055664,150.10864143066405Q174.27841070556642,148.90004143066406,171.9683107055664,148.61374143066405Q169.64511070556642,148.32584143066407,167.6738107055664,149.05914143066406Q166.3653107055664,149.54584143066407,164.2251107055664,151.09294143066407Q163.6635107055664,151.49884143066407,163.3811107055664,151.69434143066405Q160.9700107055664,153.36354143066407,159.0030107055664,153.38944143066408Q157.7405107055664,153.40614143066406,156.5871107055664,152.75714143066406Q155.40531070556642,152.09214143066407,155.0460107055664,151.09074143066405Q154.6053107055664,149.86174143066407,155.5794107055664,148.69334143066408Q156.4705107055664,147.62444143066406,158.1435107055664,146.93604143066406Q164.7238107055664,144.22904143066407,172.2980107055664,146.23514143066407L173.5930107055664,146.57814143066406L172.83941070556642,145.47054143066407Q171.0374107055664,142.82214143066406,168.1033107055664,141.02184143066407Q165.1703107055664,139.22234143066407,161.9564107055664,138.79194143066405Q158.7308107055664,138.35990143066405,155.7509107055664,139.37644143066407Q152.75281070556642,140.39914143066406,150.87701070556642,142.58934143066406Q150.70561070556641,142.78964143066406,150.3815107055664,143.19814143066407Q149.32891070556641,144.52494143066406,148.5900107055664,144.87684143066406Q147.8938107055664,145.20834143066406,147.0240107055664,145.00294143066407Q146.1582107055664,144.79844143066407,145.8714107055664,144.19324143066407ZM144.9837107055664,142.42034143066405Q144.55161070556642,143.74304143066405,144.96771070556642,144.62134143066407L144.96771070556642,144.62144143066405Q145.4604107055664,145.66114143066406,146.7941107055664,145.97614143066406Q148.00631070556642,146.26244143066407,149.0200107055664,145.77964143066407Q149.9682107055664,145.32814143066406,151.1649107055664,143.81964143066406Q151.4775107055664,143.42564143066406,151.6365107055664,143.23984143066406Q153.3344107055664,141.25724143066407,156.0737107055664,140.32284143066406Q158.8311107055664,139.38224143066407,161.8237107055664,139.78304143066407Q164.8278107055664,140.18544143066407,167.5803107055664,141.87424143066406Q169.7008107055664,143.17524143066407,171.1856107055664,144.94134143066407Q164.05431070556642,143.42314143066406,157.7629107055664,146.01124143066406Q155.8610107055664,146.79384143066406,154.8113107055664,148.05294143066408Q153.4708107055664,149.66084143066405,154.10481070556642,151.42844143066407Q154.5900107055664,152.78084143066405,156.0968107055664,153.62864143066406Q157.4846107055664,154.40954143066406,159.0162107055664,154.38934143066405Q161.2882107055664,154.35944143066405,163.9503107055664,152.51654143066406Q164.24091070556642,152.31534143066406,164.8109107055664,151.90334143066406Q166.8412107055664,150.43584143066406,168.02241070556641,149.99634143066407Q171.84861070556641,148.57324143066407,175.7068107055664,150.95914143066406Q179.2086107055664,153.12464143066407,179.80001070556642,156.61254143066407Q172.8730107055664,154.87894143066407,166.1860107055664,156.02064143066406Q163.9679107055664,156.39934143066407,163.4983107055664,157.60054143066407Q163.1384107055664,158.52254143066406,163.7909107055664,159.54544143066406Q164.3578107055664,160.43414143066406,165.3402107055664,160.88984143066406Q166.6018107055664,161.47584143066405,168.9947107055664,161.37674143066405Q174.5492107055664,161.14454143066405,179.9280107055664,160.28484143066407Q182.8209107055664,166.66204143066406,183.75201070556642,173.28664143066408L183.45821070556642,174.77794143066407Q180.5025107055664,177.50054143066407,178.6230107055664,178.37764143066406Q175.3318107055664,179.91244143066405,172.2867107055664,178.77514143066406Q170.21871070556642,178.00304143066407,167.0531107055664,174.68034143066407Q166.5511107055664,174.15354143066406,166.29901070556642,173.89454143066405Q162.4485107055664,169.93954143066406,159.1017107055664,170.00814143066407L158.5249107055664,170.02004143066407L158.6186107055664,170.58924143066406Q159.2696107055664,174.54444143066405,162.1475107055664,178.04684143066407Q164.6463107055664,181.08784143066407,168.0401107055664,182.83374143066408Q164.9863107055664,184.06044143066407,163.1463107055664,184.19344143066405Q159.4067107055664,184.46384143066405,157.2469107055664,182.20414143066407Q156.1729107055664,181.07944143066408,155.2263107055664,178.14944143066407Q155.0720107055664,177.67174143066407,154.9921107055664,177.43394143066405Q153.5368107055664,173.10204143066406,150.7327107055664,169.22484143066407Q149.0170107055664,166.85304143066406,147.3199107055664,167.31914143066405Q145.7715107055664,167.74394143066405,145.9151107055664,170.18584143066406Q146.3369107055664,177.33654143066406,150.53271070556642,183.76254143066407Q145.1058107055664,182.64484143066406,142.50961070556642,181.24614143066407Q140.2898107055664,180.05104143066407,138.8208107055664,178.27154143066406Q137.2567107055664,176.37674143066405,137.09521070556642,174.43344143066406Q136.9520107055664,172.71034143066407,138.3947107055664,169.54824143066406Q139.7111107055664,166.66324143066407,139.8105107055664,165.02234143066406Q139.8973107055664,163.59064143066405,139.0288107055664,162.32174143066408Q138.0234107055664,160.85304143066406,136.55581070556642,160.99514143066406Q135.0698107055664,161.13894143066406,134.24591070556642,163.19424143066408Q131.92061070556642,168.98974143066405,132.6558107055664,175.42804143066405Q125.9700707055664,169.85464143066406,123.37729070556641,165.35064143066407Q119.7187007055664,158.99424143066406,123.0003507055664,154.05804143066405Q125.94629070556641,149.62684143066406,135.8502107055664,149.85584143066407L136.7797107055664,149.87734143066407L136.2851107055664,149.09004143066406Q132.6746107055664,143.34214143066407,131.8603107055664,139.78024143066406Q130.58930070556642,134.21988143066406,133.74861070556642,131.18546143066405Q135.53111070556642,129.47366143066407,138.5775107055664,129.05580443066407Q141.4239107055664,128.66537343066406,144.56871070556642,129.47851143066407Q148.2850107055664,130.43958143066405,154.7090107055664,134.21335143066406Q151.6352107055664,134.82122143066405,149.1532107055664,136.69233143066407Q146.0998107055664,138.99414143066406,144.9837107055664,142.42034143066405Z" fill-rule="evenodd" fill="#242424" fill-opacity="1"/></g><g transform="matrix(0.8631438612937927,0.5049580931663513,-0.5049580931663513,0.8631438612937927,5.432337411404205,-18.46520405716592)"><path d="M77.62990013427734,34.55254560546875L77.63000013427734,34.55264560546875Q78.05090013427734,34.83914560546875,78.32060013427734,35.80514560546875Q79.21060013427734,38.97954560546875,78.38570013427734,42.31944560546875Q77.56110013427735,45.65784560546875,75.30750013427735,48.01184560546875L74.41500013427734,48.94404560546875L75.70260013427735,48.85644560546875Q82.93530013427734,48.36414560546875,86.31650013427733,46.88074560546875Q89.00750013427734,45.69954560546875,90.85050013427735,43.62544560546875Q92.88000013427734,41.34154560546875,93.26020013427734,38.61834560546875Q93.92990013427735,33.82444560546875,89.94970013427735,29.59564560546875Q87.66230013427734,27.16544560546875,82.74460013427733,24.58094560546875Q89.27730013427734,19.11364560546875,89.01980013427735,13.52244560546875Q88.72040013427734,7.02231560546875,82.60720013427735,3.57999560546875Q78.16870013427734,1.08066060546875,69.93510013427735,0.29152660546875L68.73030013427734,0.17605060546874995L69.50230013427733,1.10818860546875Q73.68150013427734,6.15376560546875,75.10090013427734,12.58474560546875Q75.45380013427734,14.18404560546875,74.90560013427734,14.75204560546875Q74.42180013427733,15.25284560546875,73.56790013427735,14.86344560546875Q72.63970013427735,14.44004560546875,72.13930013427733,13.50754560546875Q71.46470013427734,12.24984560546875,70.93270013427735,9.30161560546875Q70.27280013427735,5.64435560546875,69.17580013427735,4.11307560546875Q67.91400013427734,2.3521756054687497,65.63800013427735,1.5786216054687499Q63.573700134277345,0.87701430546875,61.292000134277345,1.16906260546875Q58.433900134277344,1.53489660546875,53.44640013427734,4.1912856054687495L52.534700134277344,4.67692560546875L53.481200134277344,5.09072560546875Q59.93080013427735,7.91026560546875,63.940100134277344,13.77734560546875Q64.84920013427734,15.10714560546875,64.42230013427735,15.74084560546875Q63.92650013427735,16.476245605468748,62.24500013427735,15.76684560546875Q58.55880013427735,14.21094560546875,55.52860013427734,11.56364560546875Q55.36000013427734,11.41644560546875,55.020800134277344,11.11304560546875Q52.75020013427734,9.08242560546875,51.25300013427734,8.70826560546875Q48.20760013427734,7.94819560546875,45.48836013427734,10.62277560546875Q44.019300134277344,12.06774560546875,42.22972013427734,15.69264560546875L41.76589013427734,16.63214560546875L42.78801013427734,16.40174560546875Q46.158160134277345,15.64204560546875,49.59740013427734,16.82054560546875Q52.78100013427734,17.91154560546875,54.94200013427734,20.29264560546875Q53.055700134277345,21.53834560546875,49.33830013427735,20.65294560546875Q49.04450013427734,20.58294560546875,48.44900013427734,20.43324560546875Q44.437130134277346,19.42474560546875,42.44068013427734,20.02174560546875Q39.44513013427734,20.91764560546875,37.832270134277344,24.42194560546875Q36.93417713427734,26.37324560546875,36.287596134277344,30.54614560546875L36.266843134277345,30.68014560546875L36.98318613427735,32.49624560546875L37.02976413427734,32.55474560546875Q41.183190134277346,37.76984560546875,46.633710134277344,41.55474560546875L47.00810013427734,41.81474560546875L47.30150013427735,41.46594560546875Q50.533000134277344,37.62464560546875,54.222000134277344,34.22444560546875Q55.59240013427734,32.96144560546875,56.495800134277346,32.77984560546875Q57.09460013427734,32.65944560546875,57.651400134277345,32.93764560546875Q58.19090013427734,33.20714560546875,58.30180013427734,33.69174560546875Q58.47080013427734,34.42944560546875,57.49440013427734,35.60574560546875Q53.523600134277345,40.39004560546875,47.83990013427734,42.79054560546875L47.26370013427734,43.03394560546875L47.62800013427734,43.54234560546875Q48.780700134277346,45.15134560546875,50.613700134277344,46.03814560546875Q52.44860013427734,46.92594560546875,54.40130013427734,46.81714560546875Q56.35420013427735,46.70834560546875,58.075600134277344,45.62264560546875Q59.79560013427734,44.53774560546875,60.75640013427734,42.81054560546875Q61.38910013427734,41.67224560546875,62.04790013427734,39.19384560546875Q62.22080013427734,38.54334560546875,62.31200013427734,38.22334560546875Q63.09140013427734,35.49084560546875,64.38520013427734,34.37024560546875Q65.19320013427735,33.67024560546875,66.24640013427734,33.55914560546875Q67.31500013427734,33.44634560546875,68.02440013427734,34.04144560546875Q68.94540013427735,34.81334560546875,68.87600013427735,36.36244560546875Q68.81340013427734,37.75914560546875,68.03400013427735,39.27524560546875Q64.98880013427734,45.19634560546875,58.94450013427735,47.79854560546875L57.91260013427734,48.24274560546875L58.933300134277346,48.71204560546875Q61.49560013427734,49.89014560546875,64.39860013427734,49.71634560546875Q67.30200013427734,49.54254560546875,69.70030013427734,48.06734560546875Q72.09740013427734,46.59294560546875,73.59280013427735,44.06284560546875Q75.08730013427734,41.53444560546875,75.24630013427733,38.68774560546875Q75.26080013427735,38.42744560546875,75.27350013427734,37.90904560546875Q75.31490013427734,36.20964560546875,75.63720013427735,35.49534560546875Q75.93000013427735,34.84674560546875,76.58340013427734,34.54064560546875Q77.19260013427734,34.25524560546875,77.62990013427734,34.55254560546875ZM79.28380013427734,35.53614560546875Q78.91570013427734,34.21784560546875,78.19240013427734,33.72584560546875L78.19230013427735,33.72574560546875Q77.28410013427734,33.10804560546875,76.15910013427734,33.63514560546875Q75.17080013427734,34.09814560546875,74.72570013427735,35.08404560546875Q74.32020013427734,35.98294560546875,74.27380013427734,37.88464560546875Q74.26150013427734,38.38744560546875,74.24790013427734,38.63204560546875Q74.10250013427734,41.23534560546875,72.73200013427734,43.55404560546875Q71.36250013427735,45.87094560546875,69.17640013427734,47.21564560546875Q66.99180013427734,48.55934560546875,64.33890013427734,48.71814560546875Q62.27780013427734,48.84154560546875,60.40880013427734,48.22114560546875Q65.98880013427734,45.43824560546875,68.92330013427734,39.73244560546875Q69.80260013427734,38.02214560546875,69.87500013427734,36.40724560546875Q69.96650013427734,34.36444560546875,68.66710013427735,33.27534560546875Q67.63240013427735,32.407245605468745,66.14140013427735,32.564645605468755Q64.77590013427735,32.70874560546875,63.73050013427734,33.61434560546875Q62.211500134277344,34.93004560546875,61.35040013427734,37.94914560546875Q61.25660013427735,38.27784560546875,61.081400134277345,38.93694560546875Q60.45460013427734,41.29514560546875,59.88250013427734,42.32444560546875Q58.05370013427734,45.61214560546875,54.34560013427735,45.81874560546875Q50.94940013427734,46.00794560546875,48.82160013427735,43.45324560546875Q54.34590013427734,40.96514560546875,58.263800134277346,36.24444560546875Q59.55600013427734,34.68794560546875,59.276600134277345,33.46854560546875Q59.06030013427734,32.52364560546875,58.098300134277345,32.04304560546875Q57.23430013427735,31.61144560546875,56.29870013427734,31.79954560546875Q55.12070013427734,32.03634560546875,53.54420013427735,33.48914560546875Q49.97700013427735,36.77704560546875,46.83230013427735,40.47234560546875Q41.76200013427734,36.87494560546875,37.85850013427734,31.99004560546875L37.29666713427734,30.56564560546875Q37.914960134277344,26.63404560546875,38.74068013427734,24.84004560546875Q40.16460013427734,21.74624560546875,42.72718013427735,20.97984560546875Q44.460090134277344,20.46164560546875,48.20520013427735,21.40304560546875Q48.806800134277346,21.55434560546875,49.10660013427734,21.62574560546875Q53.740200134277345,22.72934560546875,55.998800134277346,20.74054560546875L56.36460013427734,20.41844560546875L56.051900134277346,20.04454560546875Q53.62650013427734,17.14414560546875,49.921500134277345,15.87454560546875Q46.729190134277346,14.78064560546875,43.58184013427734,15.23824560546875Q45.02281013427734,12.48334560546875,46.189590134277346,11.33574560546875Q48.50920013427734,9.05416560546875,51.01050013427734,9.67843560546875Q52.26790013427734,9.99265560546875,54.35420013427735,11.85844560546875Q54.69770013427734,12.16564560546875,54.87070013427734,12.31674560546875Q58.021900134277345,15.06974560546875,61.85630013427735,16.688145605468748Q64.29580013427734,17.71734560546875,65.25160013427734,16.29954560546875Q66.05770013427734,15.10304560546875,64.76580013427734,13.21314560546875Q60.888800134277346,7.53974560546875,54.81650013427735,4.60439560546875Q58.99740013427734,2.47092560546875,61.418900134277344,2.16097560546875Q63.47110013427734,1.89830560546875,65.31620013427735,2.5254356054687497Q67.28820013427735,3.19564560546875,68.36290013427734,4.695465605468749Q69.32870013427734,6.04362560546875,69.94860013427734,9.47918560546875Q70.50870013427735,12.58314560546875,71.25820013427735,13.98034560546875Q71.91790013427735,15.20994560546875,73.15300013427733,15.77324560546875Q74.64990013427735,16.456045605468752,75.62520013427735,15.44644560546875Q76.54590013427735,14.49244560546875,76.07740013427734,12.36924560546875Q74.73660013427735,6.29441560546875,71.01990013427735,1.41121460546875Q78.18100013427734,2.23523560546875,82.11660013427735,4.451345605468751Q87.74700013427734,7.62180560546875,88.02080013427735,13.56854560546875Q88.26630013427734,18.89874560546875,81.52700013427734,24.28494560546875L80.92110013427734,24.76914560546875L81.61220013427734,25.12104560546875Q86.89840013427735,27.81294560546875,89.22150013427733,30.28104560546875Q92.87320013427734,34.16074560546875,92.26980013427735,38.48004560546875Q91.93150013427734,40.90354560546875,90.10300013427735,42.96124560546875Q88.40530013427735,44.87184560546875,85.91470013427735,45.96504560546875Q82.97640013427734,47.25414560546875,76.84580013427734,47.76704560546875Q78.62550013427735,45.51874560546875,79.35650013427735,42.55924560546875Q80.24460013427733,38.96344560546875,79.28380013427734,35.53614560546875Z" fill-rule="evenodd" fill="#242424" fill-opacity="1"/></g><g transform="matrix(0.3901647925376892,0.9207449555397034,-0.9207449555397034,0.3901647925376892,95.52322259401535,-24.96685397141391)"><path d="M109.68002077636719,78.4869958984375Q109.77272077636718,78.3400958984375,109.89032077636719,78.2011958984375Q110.58672077636719,77.37889589843749,112.26562077636719,77.1060958984375L115.14802077636719,76.6376958984375L114.6892207763672,76.8884958984375Q117.92312077636718,76.8344958984375,121.12822077636719,78.0506958984375Q124.91312077636718,79.48679589843749,127.5531207763672,82.2749958984375Q127.6969207763672,78.6042958984375,127.6174207763672,76.5881958984375Q127.46732077636719,72.7845958984375,126.5900207763672,69.8867958984375Q125.55592077636719,66.4711058984375,123.35562077636719,63.9661658984375Q120.9812207763672,61.2630358984375,117.91302077636719,60.4538418984375Q112.45482077636719,59.0146778984375,106.94322077636718,63.1994258984375Q103.44972077636719,65.8525858984375,99.24472077636719,72.3099958984375L98.81372077636719,72.9717958984375L98.3999207763672,72.2991958984375Q92.50492077636719,62.7194658984375,85.63142077636718,62.2391358984375Q77.96522077636719,61.7034158984375,73.07119077636719,68.5779558984375Q69.6009807763672,73.4524958984375,67.48791677636719,82.8725958984375Q74.32208077636719,78.6542958984375,82.36852077636719,77.8089958984375Q85.06272077636719,77.5265958984375,86.09212077636718,78.8010958984375Q87.16292077636719,80.1272958984375,86.13352077636719,81.8659958984375Q85.2629207763672,83.3366958984375,83.64802077636719,83.9894958984375Q81.78322077636719,84.7430958984375,77.77972077636718,85.00439589843751Q73.29705077636719,85.2969958984375,71.41803077636719,86.36009589843749Q69.31636077636719,87.5491958984375,68.15705077636719,90.0436958984375Q67.07600177636719,92.3697958984375,67.11037977636718,95.0998958984375Q67.15166577636718,98.37889589843749,69.3575607763672,104.3227958984375Q73.97388077636718,96.7686958984375,81.83642077636719,92.5489958984375Q84.34602077636718,91.2019958984375,85.67852077636718,92.36259589843749Q87.24472077636719,93.7270958984375,85.64372077636719,96.6160958984375Q83.04002077636719,101.31379589843749,79.10032077636718,104.9633958984375Q78.88332077636719,105.1645958984375,78.44192077636718,105.5640958984375Q75.74224077636718,108.00819589843749,75.14722077636719,109.6221958984375Q73.95826077636718,112.8475958984375,76.57017077636719,116.25559589843749Q77.91622077636718,118.0118958984375,81.40262077636719,120.3937958984375Q81.20732077636718,116.1437958984375,83.11072077636719,112.0755958984375Q85.24652077636719,107.5107958984375,89.25102077636718,104.8279958984375L89.66292077636719,104.5520958984375L89.94232077636718,104.96159589843751Q92.09182077636719,108.1116958984375,90.04162077636718,113.8630958984375Q89.90752077636719,114.23929589843749,89.6276207763672,114.9946958984375Q87.87012077636719,119.7387958984375,88.28242077636719,122.09979589843749Q88.89372077636719,125.5961958984375,92.67032077636719,127.9336958984375Q94.84722077636718,129.28099589843748,99.79902077636719,130.6778958984375L101.74392077636719,130.1483958984375Q108.60572077636718,125.7733958984375,113.9684207763672,119.66059589843749Q109.68462077636718,115.0017958984375,105.99652077636719,109.8503958984375Q104.4067207763672,107.6303958984375,104.28162077636719,106.1157958984375Q104.18392077636719,104.93199589843749,104.82952077636719,103.9237958984375Q105.54392077636719,102.8082958984375,106.71262077636719,102.6763958984375Q108.23702077636719,102.50439589843751,109.97792077636718,104.3564958984375Q115.43782077636719,110.1640958984375,117.7731207763672,117.7541958984375Q119.36722077636719,116.6957958984375,120.4315207763672,114.9865958984375Q121.6713207763672,112.9955958984375,121.80132077636719,110.7489958984375Q121.93132077636719,108.5023958984375,120.93012077636719,106.3816958984375Q119.92872077636719,104.26069589843749,118.1114207763672,102.9340958984375Q116.87562077636719,102.0313958984375,113.95992077636718,100.8650958984375Q113.1465207763672,100.5396958984375,112.7424207763672,100.3693958984375Q109.07172077636719,98.8219958984375,107.64712077636719,96.6979958984375Q106.67672077636719,95.2517958984375,106.6927207763672,93.5138958984375Q106.71002077636719,91.6292958984375,107.91662077636718,90.4642958984375Q109.44122077636719,88.9925958984375,111.95772077636718,89.4040958984375Q113.97002077636719,89.7331958984375,115.98862077636718,91.1083958984375Q122.9067207763672,95.81979589843749,125.58032077636719,103.6273958984375Q126.78792077636719,101.1471958984375,126.94342077636719,98.2553958984375Q127.13142077636718,94.7608958984375,125.72752077636719,91.69959589843751Q124.32362077636719,88.6381958984375,121.55282077636718,86.5005958984375Q118.78202077636719,84.3628958984375,115.46432077636719,83.78179589843751Q115.15342077636718,83.7272958984375,114.51402077636719,83.6362958984375Q112.13232077636718,83.2973958984375,111.07392077636719,82.6529958984375Q109.93222077636719,81.9583958984375,109.50632077636719,80.6647958984375Q109.10822077636719,79.4556958984375,109.6430207763672,78.5476958984375L109.53742077636718,78.5648958984375L109.68002077636719,78.4869958984375ZM112.33682077636719,78.1081958984375Q111.09562077636718,78.3252958984375,110.6533207763672,78.8474958984375Q110.15462077636718,79.43629589843749,110.45612077636719,80.3520958984375Q110.76682077636718,81.2955958984375,111.59392077636718,81.7987958984375Q112.47682077636719,82.3363958984375,114.65492077636719,82.6462958984375Q115.31012077636719,82.7395958984375,115.63692077636719,82.7967958984375Q119.19752077636718,83.42049589843751,122.1636207763672,85.7087958984375Q125.12972077636718,87.9970958984375,126.63652077636718,91.2826958984375Q128.14322077636717,94.5682958984375,127.94202077636719,98.3090958984375Q127.7407207763672,102.0498958984375,125.89032077636719,105.1551958984375L125.30502077636719,106.13739589843749L124.9812207763672,105.0408958984375Q122.54242077636718,96.7815958984375,115.4255207763672,91.9348958984375Q113.5900207763672,90.6843958984375,111.7963207763672,90.3909958984375Q109.77482077636719,90.06039589843749,108.61122077636719,91.18369589843749Q107.70612077636719,92.0575958984375,107.6927207763672,93.5230958984375Q107.67952077636718,94.9515958984375,108.47762077636719,96.1409958984375Q109.73562077636718,98.01669589843749,113.13082077636719,99.44789589843751Q113.52652077636719,99.6146958984375,114.33132077636719,99.9365958984375Q117.36382077636719,101.1496958984375,118.70102077636719,102.1263958984375Q120.72422077636719,103.6032958984375,121.83442077636718,105.9546958984375Q122.9444207763672,108.30579589843751,122.79962077636719,110.80669589843751Q122.65492077636719,113.30779589843749,121.28042077636718,115.5151958984375Q119.90612077636719,117.7222958984375,117.72582077636719,118.9556958984375L117.17442077636719,119.26759589843749L116.99912077636719,118.65889589843749Q114.76852077636718,110.9120958984375,109.2492207763672,105.0413958984375Q107.85142077636718,103.5541958984375,106.82482077636719,103.6700958984375Q106.12922077636719,103.7485958984375,105.67162077636718,104.4630958984375Q105.20832077636719,105.1865958984375,105.27822077636719,106.03349589843751Q105.38062077636718,107.2727958984375,106.80962077636718,109.2681958984375Q110.5917207763672,114.5510958984375,115.00642077636718,119.3106958984375L115.3108207763672,119.6388958984375L115.01822077636719,119.9775958984375Q109.4298207763672,126.4469958984375,102.2167207763672,131.03279589843748L102.15282077636718,131.0734958984375L99.79502077636718,131.71539589843752L99.66202077636719,131.6780958984375Q94.47032077636719,130.22379589843752,92.14412077636719,128.7839958984375Q87.98592077636718,126.2103958984375,87.29732077636719,122.2717958984375Q86.83862077636718,119.6446958984375,88.68992077636719,114.6472958984375Q88.9675207763672,113.8980958984375,89.09972077636719,113.5272958984375Q90.83582077636719,108.6568958984375,89.3785207763672,105.9560958984375Q85.91802077636719,108.4351958984375,84.01652077636719,112.4993958984375Q81.99882077636718,116.8119958984375,82.47592077636719,121.3286958984375L82.58692077636718,122.37889589843749L81.70422077636718,121.7991958984375Q77.38412077636718,118.96159589843751,75.77646077636719,116.8638958984375Q72.82944077636719,113.0185958984375,74.20895077636719,109.2762958984375Q74.88896077636718,107.43169589843751,77.77082077636719,104.8227958984375Q78.2076207763672,104.42739589843751,78.4208207763672,104.2297958984375Q82.24302077636719,100.6888958984375,84.76912077636719,96.1313958984375Q85.97802077636719,93.9497958984375,85.02182077636719,93.1166958984375Q84.21022077636718,92.4098958984375,82.30932077636719,93.4301958984375Q74.23633077636718,97.7626958984375,69.69294077636718,105.7208958984375L69.17146077636718,106.6342958984375L68.79234077636718,105.6531958984375Q66.15732077636719,98.8342958984375,66.11045877636718,95.1124958984375Q66.0732147763672,92.1546958984375,67.25019977636718,89.6221958984375Q68.54471077636718,86.8368958984375,70.92559077636719,85.4896958984375Q73.0036907763672,84.3139958984375,77.71462077636718,84.00649589843749Q81.55762077636719,83.7556958984375,83.27322077636718,83.0623958984375Q84.57462077636718,82.5362958984375,85.27302077636719,81.3565958984375Q85.9487207763672,80.2152958984375,85.31412077636719,79.4293958984375Q84.62632077636718,78.5777958984375,82.47302077636719,78.8034958984375Q74.06613077636719,79.6866958984375,67.02093977636719,84.3585958984375L66.00564977636719,85.03179589843751L66.25521477636718,83.8393958984375Q68.45236077636719,73.34169589843751,72.25654077636719,67.9980058984375Q77.47562077636718,60.6667758984375,85.70112077636719,61.2415658984375Q92.83902077636719,61.7403658984375,98.83582077636719,71.1124958984375Q102.88852077636719,65.0231358984375,106.33852077636719,62.402975898437504Q108.97062077636718,60.4045148984375,111.95062077636719,59.5964716984375Q115.22072077636719,58.7097648984375,118.16802077636719,59.4869048984375Q121.53122077636718,60.3738908984375,124.1070207763672,63.3062258984375Q126.45022077636719,65.9739658984375,127.5471207763672,69.5970058984375Q128.4615207763672,72.6172958984375,128.6166207763672,76.5487958984375Q128.7108207763672,78.9364958984375,128.4991207763672,83.5633958984375L128.4393207763672,84.8715958984375L127.61202077636719,83.8563958984375Q124.92742077636719,80.5617958984375,120.77342077636719,78.9855958984375Q116.61952077636718,77.4093958984375,112.42502077636719,78.09379589843749L112.33682077636719,78.1081958984375Z" fill-rule="evenodd" fill="#242424" fill-opacity="1"/></g><g><rect x="70.10677337646484" y="171.61207580566406" width="51.9580192565918" height="8.496959686279297" rx="0" fill="#242424" fill-opacity="1"/></g><g><path d="M73.97237396240234,178.54640197753906L79.93296396240234,210.99260197753907L112.23667396240234,210.99260197753907L118.03577396240235,178.54640197753906L73.97237396240234,178.54640197753906Z" fill="#242424" fill-opacity="1"/></g><g style="opacity:0.30000001192092896;"><path d="M74.25984954833984,180.10902404785156L117.68654954833984,180.10902404785156L117.06834954833985,183.96064404785156L74.96708154833985,183.96064404785156L74.25984954833984,180.10902404785156Z" fill="#242424" fill-opacity="1"/></g><g style="opacity:0.30000001192092896;"><path d="M78.3207015991211,186.8048858642578L83.2497015991211,208.4930858642578Q91.0795015991211,209.33838586425782,91.17810159912109,208.4930858642578Q91.2767015991211,207.6478858642578,87.15665159912109,186.8048858642578L78.3207015991211,186.8048858642578L78.3207015991211,186.8048858642578Z" fill="#FFFFFF" fill-opacity="1"/></g><g><path d="M91.63727724365235,64.44223022460938C90.87025724365235,68.17492022460938,92.17214724365235,71.86499022460937,95.09774724365235,74.30341022460938C90.93130924365235,73.46262022460938,88.91582724365234,67.70237022460938,91.63727724365235,64.44223022460938Z" fill="#FFFFFF" fill-opacity="1"/></g><g><path d="M135.80135681396484,131.2312774658203C133.58298281396483,134.48568746582032,133.93405681396484,138.2660774658203,134.81300681396485,141.83787746582033C135.10366681396485,143.0544774658203,135.44773681396484,144.28197746582032,135.67859681396484,145.5616774658203C132.84713181396484,141.5255774658203,131.10957681396485,134.57345746582033,135.80135681396484,131.2312774658203L135.80135681396484,131.2312774658203Z" fill="#FFFFFF" fill-opacity="1"/></g></g><g><path d="M77.02211787109376,154.51571482421875Q83.01661787109376,159.40920482421876,86.22721787109376,172.74539482421875L87.19941787109374,172.51129482421874Q83.91001787109374,158.84759482421876,77.65451787109374,153.74105482421874Q71.30372787109376,148.55674482421875,62.03209687109375,152.16234382421874L62.39453887109375,153.09435482421875Q71.12292787109375,149.70002482421876,77.02211787109376,154.51571482421875Z" fill-rule="evenodd" fill="#242424" fill-opacity="1"/></g><g><path d="M98.76271787109374,111.34497529296875Q108.20651787109375,130.97837529296874,105.71421787109375,173.09867529296875L106.71241787109375,173.15777529296875Q109.21981787109375,130.77847529296875,99.66391787109376,110.91147529296875Q90.00761787109374,90.83652529296874,68.14987957109375,93.63234729296875L68.27675617109375,94.62426529296874Q89.41911787109375,91.91994529296875,98.76271787109374,111.34497529296875Z" fill-rule="evenodd" fill="#242424" fill-opacity="1"/></g><g><path d="M107.1000677734375,76.6413018984375Q85.1851177734375,81.7376758984375,91.7145777734375,175.6629958984375L92.7121677734375,175.5935958984375Q86.2418177734375,82.5176158984375,107.32666777343749,77.6153098984375L107.1000677734375,76.6413018984375Z" fill-rule="evenodd" fill="#242424" fill-opacity="1"/></g><g><path d="M107.09031787109375,105.67023591796875Q93.47726787109374,120.92171591796875,89.71469087109375,171.59121591796875L90.71194487109375,171.66521591796874Q94.44937787109374,121.33451591796876,107.83631787109375,106.33612591796874Q121.00741787109375,91.57962591796876,143.88491787109376,111.50521591796875L144.54171787109374,110.75121591796875Q120.91921787109375,90.17669591796874,107.09031787109375,105.67023591796875Z" fill-rule="evenodd" fill="#242424" fill-opacity="1"/></g><g><path d="M135.93231787109374,149.1787689453125Q116.00031787109376,139.46821894531251,97.77287087109374,173.3916189453125L98.65376487109376,173.8649189453125Q116.42631787109374,140.7880489453125,135.49431787109376,150.0777589453125L135.93231787109374,149.1787689453125Z" fill-rule="evenodd" fill="#242424" fill-opacity="1"/></g><g><path d="M63.37643987109375,44.9977728984375Q97.21921787109375,75.8548958984375,99.71351787109376,173.1412958984375L100.71311787109374,173.1152958984375Q98.20741787109375,75.4016958984375,64.05019587109375,44.2588188984375L63.37643987109375,44.9977728984375Z" fill-rule="evenodd" fill="#242424" fill-opacity="1"/></g></g></svg>