<svg xmlns="http://www.w3.org/2000/svg" xmlns:xlink="http://www.w3.org/1999/xlink" fill="none" version="1.1" width="90" height="90" viewBox="0 0 90 90"><defs><clipPath id="master_svg0_11_1873"><rect x="0" y="0" width="90" height="90" rx="8"/></clipPath></defs><g><g clip-path="url(#master_svg0_11_1873)"><g><path d="M1,1L89,1L89,89L1,89L1,1Z" fill-rule="evenodd" fill="#FFFFFF" fill-opacity="1"/></g><g><g><g><g><g><path d="M31.34461394042969,39.5429130859375L31.121213940429687,40.3164130859375L30.588313940429686,41.7773130859375L30.287613940429686,42.4648130859375L29.608613940429688,43.7882130859375L28.861013940429686,44.9656130859375L28.448513940429688,45.524213085937504L28.018813940429688,46.0312130859375L27.150813940429686,46.9421130859375L26.678213940429686,47.354713085937505L26.20553394042969,47.7242130859375L25.72429394042969,48.042213085937505L25.251633940429688,48.3171130859375L24.744603940429688,48.5664130859375L24.24616394042969,48.755413085937505L23.756323940429688,48.901513085937495L23.257883940429686,49.0046130859375L22.759443940429687,49.0562130859375L22.26100394042969,49.0562130859375L21.76257394042969,49.0046130859375L21.272723940429685,48.901513085937495L20.800073940429687,48.746813085937504L20.34460394042969,48.5406130859375L19.914913940429688,48.2914130859375L19.51100394042969,47.9992130859375L19.132883940429686,47.6640130859375L18.771943940429686,47.2859130859375L18.436783940429688,46.8734130859375L18.127413940429687,46.4093130859375L17.852413940429688,45.9281130859375L17.594601940429687,45.412513085937505L17.37116394042969,44.8625130859375L17.16491494042969,44.269513085937504L16.86413394042969,43.049213085937495L16.752414940429688,42.3875130859375L16.675069940429687,41.7000130859375L16.614913940429688,40.3078130859375L16.68366424042969,38.8211130859375L16.769601940429688,38.0734130859375L17.04460094042969,36.5437130859375L17.233663940429686,35.7616930859375L17.457101940429688,34.988263085937504L17.989913940429688,33.527323085937496L18.290693940429687,32.839823085937496L18.96960394042969,31.5163830859375L19.717253940429686,30.3390430859375L20.129753940429687,29.7804430859375L20.559443940429688,29.2734130859375L21.427413940429688,28.3624730859375L21.90007394042969,27.9499730859375L22.372723940429687,27.5804430859375L22.85397394042969,27.2624730859375L23.326633940429687,26.9874760859375L23.833663940429688,26.7382580859375L24.33210394042969,26.5491940859375L24.821943940429687,26.4031020859375L25.320383940429686,26.2999760859375L25.818823940429688,26.2484130859375L26.317253940429687,26.2484130859375L26.81571394042969,26.2999760859375L27.305513940429687,26.4031020859375L27.778213940429687,26.5577890859375L28.233613940429688,26.7640380859375L28.66331394042969,27.0132590859375L29.06721394042969,27.3054430859375L29.445413940429688,27.6406030859375L29.80631394042969,28.0187230859375L30.14151394042969,28.4312230859375L30.45081394042969,28.8952930859375L30.72581394042969,29.3765430859375L30.983613940429688,29.8921630859375L31.207113940429686,30.4421630859375L31.41331394042969,31.0351330859375L31.714113940429687,32.2554430859375L31.82581394042969,32.9171630859375L31.903213940429687,33.6046630859375L31.963313940429686,34.9968530859375L31.894613940429686,36.4836130859375L31.808713940429687,37.2312130859375L31.53361394042969,38.7609130859375L31.34461394042969,39.5429130859375Z" fill-rule="evenodd" fill="#242424" fill-opacity="1"/></g></g><g><g><path d="M58.65553994042969,39.5429130859375L58.878974940429686,40.3164130859375L59.41178894042969,41.7773130859375L59.71256894042969,42.4648130859375L60.39146894042969,43.7882130859375L61.139128940429686,44.9656130859375L61.55162894042969,45.524213085937504L61.98131894042969,46.0312130859375L62.84928894042969,46.9421130859375L63.321948940429685,47.354713085937505L63.79459894042969,47.7242130859375L64.27584894042968,48.042213085937505L64.74850894042969,48.3171130859375L65.25553894042969,48.5664130859375L65.75397894042969,48.755413085937505L66.24381894042969,48.901513085937495L66.74225894042969,49.0046130859375L67.24068894042969,49.0562130859375L67.73912894042968,49.0562130859375L68.23758894042969,49.0046130859375L68.72738894042969,48.901513085937495L69.20008894042968,48.746813085937504L69.65558894042968,48.5406130859375L70.08518894042969,48.2914130859375L70.48908894042968,47.9992130859375L70.86728894042969,47.6640130859375L71.22818894042969,47.2859130859375L71.56338894042969,46.8734130859375L71.87268894042968,46.4093130859375L72.14768894042969,45.9281130859375L72.40558894042968,45.412513085937505L72.62898894042969,44.8625130859375L72.83518894042969,44.269513085937504L73.13598894042968,43.049213085937495L73.24768894042968,42.3875130859375L73.36798894042968,41.0125130859375L73.36798894042968,39.577313085937504L73.31648894042969,38.8211130859375L73.11018894042968,37.317213085937496L72.95548894042969,36.5437130859375L72.76648894042968,35.7616930859375L72.28518894042969,34.2406030859375L72.01018894042969,33.527323085937496L71.3828889404297,32.1609130859375L71.03058894042968,31.5163830859375L70.28288894042969,30.3390430859375L69.87038894042969,29.7804430859375L69.01098894042968,28.7921630859375L68.57268894042969,28.3624730859375L68.10008894042969,27.9499730859375L67.62740894042969,27.5804430859375L67.14615894042969,27.2624730859375L66.67350894042968,26.9874760859375L66.16647894042968,26.7382580859375L65.66803894042968,26.5491940859375L65.17818894042969,26.4031020859375L64.67975894042969,26.2999760859375L64.18131894042969,26.2484130859375L63.68287894042969,26.2484130859375L63.184438940429686,26.2999760859375L62.694598940429685,26.4031020859375L62.221948940429684,26.5577890859375L61.76646894042969,26.7640380859375L61.336788940429685,27.0132590859375L60.93287894042969,27.3054430859375L60.554758940429686,27.6406030859375L60.193818940429686,28.0187230859375L59.85866894042969,28.4312230859375L59.54928894042969,28.8952930859375L59.274288940429685,29.3765430859375L59.016472940429686,29.8921630859375L58.793037940429684,30.4421630859375L58.586785940429685,31.0351330859375L58.286004940429684,32.2554430859375L58.17428694042969,32.9171630859375L58.09694624042969,33.6046630859375L58.03678894042969,34.9968530859375L58.10553784042969,36.4836130859375L58.191474940429686,37.2312130859375L58.46647594042969,38.7609130859375L58.65553994042969,39.5429130859375Z" fill-rule="evenodd" fill="#242424" fill-opacity="1"/></g></g><g><path d="M24.667310268554687,55.1234105859375L24.94231026855469,54.9687305859375L25.174340268554687,54.7882605859375L25.380590268554688,54.582010585937496L25.55246026855469,54.3499705859375L25.698560268554687,54.1007605859375L25.81028026855469,53.8257605859375L25.89621026855469,53.5335705859375L25.947770268554688,53.2242005859375L25.947770268554688,52.5882605859375L25.818870268554686,51.9007605859375L25.56965026855469,51.2218505859375L25.174340268554687,50.5257605859375L24.847780268554686,50.0960705859375L24.486840268554687,49.7093505859375L24.100120268554686,49.3656005859375L23.679020268554687,49.0562275859375L23.24934026855469,48.8070065859375L22.811060268554687,48.6093515859375L22.13215026855469,48.4116963859375L21.479030268554688,48.3343505859375L21.143870268554686,48.3515390859375L20.83449026855469,48.3945078859375L20.53371026855469,48.4804455859375L20.241520268554687,48.6007595859375L19.975120268554686,48.7554465859375L19.743088268554686,48.9359125859375L19.536837268554688,49.1421655859375L19.364962268554688,49.3742005859375L19.218868268554687,49.6320105859375L19.107149268554686,49.8984105859375L19.021211968554688,50.1906005859375L18.969650268554688,50.4999805859375L18.969650268554688,51.1359205859375L19.098556268554688,51.8234205859375L19.347774268554687,52.5023205859375L19.743088268554686,53.1984205859375L20.06965026855469,53.6366905859375L20.43059026855469,54.0234105859375L20.81731026855469,54.3671605859375L21.238400268554688,54.6679405859375L21.66809026855469,54.9171705859375L22.106370268554688,55.1148205859375L22.785270268554687,55.3124805859375L23.438400268554688,55.3898205859375L23.77356026855469,55.3726305859375L24.082930268554687,55.3296705859375L24.383710268554687,55.2437305859375L24.667310268554687,55.1234105859375Z" fill-rule="evenodd" fill="#FBB4B4" fill-opacity="1"/></g><g><path d="M65.27278026855468,55.1234105859375L65.00637026855469,54.9687305859375L64.77433826855469,54.7882605859375L64.56809126855468,54.582010585937496L64.39621626855468,54.3499705859375L64.2501212685547,54.1007605859375L64.13840326855468,53.8257605859375L64.05246586855469,53.5335705859375L64.00090026855469,53.2242005859375L64.00090026855469,52.5882605859375L64.12980626855469,51.9007605859375L64.3790272685547,51.2218505859375L64.77433826855469,50.5257605859375L65.10090026855468,50.0960705859375L65.46184026855468,49.7093505859375L65.84856026855469,49.3656005859375L66.26965026855468,49.0562275859375L66.69934026855469,48.8070065859375L67.13762026855468,48.6093515859375L67.81653026855469,48.4116963859375L68.46965026855469,48.3343505859375L68.80481026855469,48.3515390859375L69.11418026855469,48.3945078859375L69.4149602685547,48.4804455859375L69.69856026855469,48.6007595859375L69.97356026855469,48.7554465859375L70.20559026855469,48.9359125859375L70.41184026855468,49.1421655859375L70.58372026855469,49.3742005859375L70.72981026855469,49.6320105859375L70.84153026855469,49.8984105859375L70.92747026855469,50.1906005859375L70.97903026855468,50.4999805859375L70.97903026855468,51.1359205859375L70.85012026855469,51.8234205859375L70.60090026855468,52.5023205859375L70.20559026855469,53.1984205859375L69.87903026855469,53.6366905859375L69.51809026855469,54.0234105859375L69.13137026855469,54.3671605859375L68.71028026855468,54.6679405859375L68.28059026855469,54.9171705859375L67.84231026855468,55.1148205859375L67.16340026855468,55.3124805859375L66.51028026855468,55.3898205859375L66.17512026855469,55.3726305859375L65.86574026855469,55.3296705859375L65.56496026855469,55.2437305859375L65.27278026855468,55.1234105859375Z" fill-rule="evenodd" fill="#FBB4B4" fill-opacity="1"/></g><g><g><path d="M36.96384625,83.95319625Q37.11328625,83.45833425000001,37.11328625,82.94140625Q37.11328625,82.76946225,37.09642625,82.59834625Q37.07957625,82.42723025,37.04602625,82.25859025Q37.01248625,82.08995025,36.96257625,81.92540625Q36.91265625,81.76086625,36.84685625,81.60201625Q36.78105625,81.44315625,36.70000625,81.29151625Q36.61895625,81.13987625,36.52342625,80.99690625Q36.42789625,80.85394625,36.31881625,80.72102625Q36.20973625,80.58811625,36.08815625,80.46653625Q35.96657625,80.34494625,35.83365625,80.23586625Q35.70074625,80.12678625,35.55777625,80.03126625Q35.41480625,79.93573625,35.26316625,79.85468625Q35.11152625,79.77362625,34.95267625,79.70782625Q34.79381625,79.64202625,34.629276250000004,79.59211625Q34.46473625,79.54220625,34.29609625,79.50865625Q34.12745625,79.47511625,33.95634625,79.45825625Q33.78522625,79.44140625,33.61328625,79.44140625Q33.47347625,79.44140625,33.33411625,79.45255625Q33.19475625,79.46370625,33.05673625,79.48593625Q32.91870625,79.50816625,32.78289625,79.54133625Q32.64708625,79.57450625,32.51434625,79.61840625Q32.38161625,79.66229625,32.252807250000004,79.71664625Q32.12399725,79.77098624999999,31.99993125,79.83542625Q31.87586625,79.89987625,31.75733625,79.97400625Q31.638806250000002,80.04813625,31.52656725,80.13148625Q31.41432795,80.21484625,31.30909445,80.30687625Q31.20386125,80.39891625,31.10630425,80.49905625Q31.00874625,80.59919625,30.91948725,80.70679625Q30.83022825,80.81439625,30.74983525,80.92877625Q30.66944325,81.04315625,30.59842925,81.16357625Q30.52741625,81.28400625,30.46623425,81.40970625Q30.40505225,81.53541625,30.35408625,81.66559625Q30.30312625,81.79578625,30.26271625,81.92961625L30.26250625,81.93032625L28.02867625,89.32772625L28.02833625,89.32883625Q27.87890625,89.82369625,27.87890625,90.34062625Q27.87890625,90.51256625,27.895756249999998,90.68368625Q27.91261625,90.85479624999999,27.94615625,91.02343625Q27.97970625,91.19207625,28.02961625,91.35661625Q28.07952625,91.52115625,28.14532625,91.68001625Q28.21112625,91.83886625,28.29218625,91.99051625Q28.37323625,92.14215625,28.46876625,92.28511625Q28.56428625,92.42808625,28.67336625,92.56099625Q28.78244625,92.69391625,28.90403625,92.81549625Q29.02561625,92.93707625,29.15852625,93.04620625Q29.29144625,93.15520625,29.43440625,93.25080625Q29.57737625,93.34630625,29.72901625,93.42730625Q29.88065625,93.50840625000001,30.03951625,93.57420625Q30.19836625,93.64000625,30.36290625,93.68990625Q30.52745025,93.73980625,30.69609025,93.77340625Q30.86473025,93.80690625,31.03584625,93.82380625Q31.20696225,93.84060625000001,31.37890625,93.84060625000001Q31.51871025,93.84060625000001,31.65806925,93.82950625Q31.79742725,93.81830625,31.93545225,93.79610625Q32.07347825,93.77390625,32.20929025,93.74070625Q32.34510225,93.70750625,32.47783625,93.66360625Q32.61056625,93.61970625000001,32.73937625,93.56540625Q32.86818625,93.51100625,32.99225625,93.44660625Q33.11631625,93.38220625,33.23484625,93.30800625Q33.35337625,93.23390625,33.46561625,93.15050625Q33.577856249999996,93.06720625,33.68309625,92.97510625Q33.78832625,92.88310625,33.88588625,92.78297625Q33.98343625,92.68283625,34.07269625,92.57523625Q34.16195625,92.46762625,34.24235625,92.35325625Q34.32274625,92.23887625,34.39375625,92.11844625Q34.46477625,91.99802625,34.52595625,91.87231625Q34.58713625,91.74661625,34.63809625,91.61642625Q34.68905625,91.48624625,34.72947625,91.35240625L34.72980625,91.35129625L36.96351625,83.95429625L36.96384625,83.95319625Z" fill-rule="evenodd" fill="#000000" fill-opacity="0.106926329433918"/></g></g><g><g><path d="M59.73760349121094,81.93072625L61.971313491210935,89.32772625L61.97164349121094,89.32883625Q62.12108349121094,89.82369625,62.12108349121094,90.34062625Q62.12108349121094,90.51256625,62.10422349121094,90.68368625Q62.08737349121094,90.85479624999999,62.053823491210935,91.02343625Q62.02028349121094,91.19207625,61.970373491210935,91.35661625Q61.920453491210935,91.52115625,61.85465349121094,91.68001625Q61.788853491210936,91.83886625,61.70780349121094,91.99051625Q61.626753491210934,92.14215625,61.53122349121094,92.28511625Q61.43569349121094,92.42808625,61.326613491210935,92.56099625Q61.217533491210936,92.69391625,61.095953491210935,92.81549625Q60.97437349121094,92.93707625,60.841453491210935,93.04620625Q60.70854349121094,93.15520625,60.56557349121094,93.25080625Q60.422603491210936,93.34630625,60.270963491210935,93.42730625Q60.119323491210935,93.50840625000001,59.96047349121094,93.57420625Q59.80161349121094,93.64000625,59.63707349121094,93.68990625Q59.47253349121094,93.73980625,59.303893491210935,93.77340625Q59.13525349121094,93.80690625,58.96414349121094,93.82380625Q58.79302349121094,93.84060625000001,58.62108349121094,93.84060625000001Q58.481273491210935,93.84060625000001,58.34191349121094,93.82950625Q58.202553491210935,93.81830625,58.06453349121094,93.79610625Q57.92650349121094,93.77390625,57.79069349121094,93.74070625Q57.65488349121094,93.70750625,57.52214349121094,93.66360625Q57.38941349121094,93.61970625000001,57.26060449121094,93.56540625Q57.13179449121094,93.51100625,57.00772849121094,93.44660625Q56.88366349121094,93.38220625,56.76513349121094,93.30800625Q56.64660349121094,93.23390625,56.53436449121094,93.15050625Q56.42212519121094,93.06720625,56.31689169121094,92.97510625Q56.21165849121094,92.88310625,56.11410149121094,92.78297625Q56.01654349121094,92.68283625,55.92728449121094,92.57523625Q55.838025491210935,92.46762625,55.757632491210934,92.35325625Q55.67724049121094,92.23887625,55.60622649121094,92.11844625Q55.53521349121094,91.99802625,55.47403149121094,91.87231625Q55.412849491210935,91.74661625,55.36188349121094,91.61642625Q55.310923491210936,91.48624625,55.270513491210934,91.35240625L55.27030349121094,91.35170625L53.03647349121094,83.95429625L53.03613349121094,83.95319625Q52.88670349121094,83.45833425000001,52.88670349121094,82.94140625Q52.88670349121094,82.76946225,52.903553491210936,82.59834625Q52.92041349121094,82.42723025,52.95395349121094,82.25859025Q52.98750349121094,82.08995025,53.03741349121094,81.92540625Q53.08732349121094,81.76086625,53.153123491210934,81.60201625Q53.21892349121094,81.44315625,53.29998349121094,81.29151625Q53.381033491210935,81.13987625,53.47656349121094,80.99690625Q53.57208349121094,80.85394625,53.68116349121094,80.72102625Q53.79024349121094,80.58811625,53.911833491210935,80.46653625Q54.033413491210936,80.34494625,54.16632349121094,80.23586625Q54.29924349121094,80.12678625,54.44220349121094,80.03126625Q54.58517349121094,79.93573625,54.73681349121094,79.85468625Q54.88845349121094,79.77362625,55.047313491210936,79.70782625Q55.20616349121094,79.64202625,55.37070349121094,79.59211625Q55.53524749121094,79.54220625,55.703887491210935,79.50865625Q55.87252749121094,79.47511625,56.043643491210936,79.45825625Q56.214759491210934,79.44140625,56.38670349121094,79.44140625Q56.526507491210936,79.44140625,56.665866491210934,79.45255625Q56.805224491210936,79.46370625,56.943249491210935,79.48593625Q57.08127549121094,79.50816625,57.21708749121094,79.54133625Q57.352899491210934,79.57450625,57.48563349121094,79.61840625Q57.618363491210935,79.66229625,57.74717349121094,79.71664625Q57.87598349121094,79.77098624999999,58.000053491210934,79.83542625Q58.124113491210935,79.89987625,58.242643491210934,79.97400625Q58.361173491210934,80.04813625,58.473413491210934,80.13148625Q58.585653491210934,80.21484625,58.690893491210936,80.30687625Q58.796123491210935,80.39891625,58.893683491210936,80.49905625Q58.991233491210934,80.59919625,59.08049349121094,80.70679625Q59.16975349121094,80.81439625,59.25015349121094,80.92877625Q59.33054349121094,81.04315625,59.40155349121094,81.16357625Q59.47257349121094,81.28400625,59.53375349121094,81.40970625Q59.59493349121094,81.53541625,59.645893491210934,81.66559625Q59.69685349121094,81.79578625,59.737273491210935,81.92961625L59.73760349121094,81.93072625Z" fill-rule="evenodd" fill="#000000" fill-opacity="0.106926329433918"/></g></g><g><g><g><path d="M40.9609375,62.1875L49.0390575,62.1875L49.0390575,73.6172L40.9609375,73.6172L40.9609375,62.1875Z" fill-rule="evenodd" fill="#FFEAEA" fill-opacity="1"/></g></g><g><path d="M51.7890375,62.617185L51.7632375,62.952345L51.7031375,63.270315L51.5914375,63.588285L51.4453375,63.897655L51.2562375,64.181255L51.0414375,64.464845L50.7836375,64.739845L50.4828375,65.006245L50.0531375,65.315625L49.5632375,65.607815L49.0132375,65.874225L48.4375375,66.097655L47.8187475,66.295315L47.1484375,66.449995L46.4695275,66.561725L45.7476575,66.630465L44.9999975,66.656245L44.2523475,66.630465L43.5304675,66.561725L42.8515575,66.449995L42.1812475,66.295315L41.5624975,66.097655L40.9867175,65.874225L40.4367175,65.607815L39.9468775,65.315625L39.5171875,65.006245L39.2164075,64.739845L38.9585945,64.464845L38.7437515,64.181255L38.5546875,63.897655L38.4085925,63.588285L38.296875,63.270315L38.2367177,62.952345L38.2109375,62.617185L38.2367177,62.282025L38.296875,61.964065L38.4085925,61.646095L38.5546875,61.336715L38.7437515,61.053125L38.9585945,60.769535L39.2164075,60.494535L39.5171875,60.228125L39.9468775,59.918745L40.4367175,59.626565L40.9867175,59.360154L41.5624975,59.136719L42.1812475,58.939064L42.8515575,58.784377L43.5304675,58.6726542L44.2523475,58.6039052L44.9999975,58.578125L45.7476575,58.6039052L46.4695275,58.6726542L47.1484375,58.784377L47.8187475,58.939064L48.4375375,59.136719L49.0132375,59.360154L49.5632375,59.626565L50.0531375,59.918745L50.4828375,60.228125L50.7836375,60.494535L51.0414375,60.769535L51.2562375,61.053125L51.4453375,61.336715L51.5914375,61.646095L51.7031375,61.964065L51.7632375,62.282025L51.7890375,62.617185Z" fill-rule="evenodd" fill="#EC8484" fill-opacity="0.2149062305688858"/></g></g><g><path d="M66.9139612060547,46.031212499999995L66.88816120605469,46.9508125L66.81946120605468,47.8531125L66.6991612060547,48.7383125L66.54446120605468,49.6062125L66.33816120605468,50.4656125L66.08896120605469,51.3164125L65.7967612060547,52.1414125L65.47026120605469,52.9578125L65.1006612060547,53.7570125L64.68816120605469,54.5305125L64.24136120605469,55.2953125L63.76006120605469,56.0344125L63.24446120605469,56.7476125L62.68586120605469,57.443712500000004L62.10146120605469,58.1226125L61.48276120605469,58.7758125L60.838161206054686,59.3945125L60.15926120605469,59.9961125L59.44606120605469,60.5719125L58.706961206054686,61.1219125L57.94206120605469,61.6375125L57.160061206054685,62.1187125L56.34366120605469,62.5742125L55.51006120605469,63.0039125L54.63356120605469,63.3992125L53.75696120605468,63.7601125L52.863161206054684,64.0867125L51.935061206054684,64.3789125L50.98976120605469,64.6367125L50.02726120605469,64.8601125L49.05616120605469,65.04061250000001L48.06786120605469,65.1781125L47.06246120605469,65.28121250000001L46.03976120605469,65.34141249999999L44.99996120605469,65.3672125L43.96006120605469,65.34141249999999L42.93746120605469,65.28121250000001L41.93196120605469,65.1781125L40.943661206054685,65.04061250000001L39.97256120605469,64.8601125L39.01006120605469,64.6367125L38.06476120605468,64.3789125L37.13666120605469,64.0867125L36.242861206054684,63.7601125L35.36636120605469,63.3992125L34.48976120605469,63.0039125L33.65616120605469,62.5742125L32.839771206054685,62.1187125L32.05773120605468,61.6375125L31.292891206054687,61.1219125L30.55383120605469,60.5719125L29.840551206054688,59.9961125L29.16164120605469,59.3945125L28.517111206054686,58.7758125L27.898361206054688,58.1226125L27.313991206054688,57.443712500000004L26.75539120605469,56.7476125L26.239771206054687,56.0344125L25.758521206054688,55.2953125L25.311641206054688,54.5305125L24.899141206054686,53.7570125L24.52961120605469,52.9578125L24.20305120605469,52.1414125L23.910862206054688,51.3164125L23.661643206054688,50.4656125L23.45539120605469,49.6062125L23.300705206054687,48.7383125L23.180393006054686,47.8531125L23.111641406054687,46.9508125L23.085861206054688,46.031212499999995L23.111641406054687,45.111712499999996L23.180393006054686,44.2094125L23.300705206054687,43.3242125L23.45539120605469,42.4562125L23.661643206054688,41.5969125L23.910862206054688,40.7461125L24.20305120605469,39.9211125L24.52961120605469,39.1047125L24.899141206054686,38.3055125L25.311641206054688,37.5320125L25.758521206054688,36.7672125L26.239771206054687,36.0281225L26.75539120605469,35.3148425L27.313991206054688,34.6187525L27.898361206054688,33.9398425L28.517111206054686,33.286722499999996L29.16164120605469,32.6679725L29.840551206054688,32.0664025L30.55383120605469,31.4906225L31.292891206054687,30.9406225L32.05773120605468,30.4250025L32.839771206054685,29.9437525L33.65616120605469,29.4882825L34.48976120605469,29.0585925L35.36636120605469,28.6632825L36.242861206054684,28.3023425L37.13666120605469,27.9757825L38.06476120605468,27.6835935L39.01006120605469,27.4257815L39.97256120605469,27.2023435L40.943661206054685,27.0218735L41.93196120605469,26.8843765L42.93746120605469,26.78125L43.96006120605469,26.7210927L44.99996120605469,26.6953125L46.03976120605469,26.7210927L47.06246120605469,26.78125L48.06786120605469,26.8843765L49.05616120605469,27.0218735L50.02726120605469,27.2023435L50.98976120605469,27.4257815L51.935061206054684,27.6835935L52.863161206054684,27.9757825L53.75696120605468,28.3023425L54.63356120605469,28.6632825L55.51006120605469,29.0585925L56.34366120605469,29.4882825L57.160061206054685,29.9437525L57.94206120605469,30.4250025L58.706961206054686,30.9406225L59.44606120605469,31.4906225L60.15926120605469,32.0664025L60.838161206054686,32.6679725L61.48276120605469,33.286722499999996L62.10146120605469,33.9398425L62.68586120605469,34.6187525L63.24446120605469,35.3148425L63.76006120605469,36.0281225L64.24136120605469,36.7672125L64.68816120605469,37.5320125L65.1006612060547,38.3055125L65.47026120605469,39.1047125L65.7967612060547,39.9211125L66.08896120605469,40.7461125L66.33816120605468,41.5969125L66.54446120605468,42.4562125L66.6991612060547,43.3242125L66.81946120605468,44.2094125L66.88816120605469,45.111712499999996L66.9139612060547,46.031212499999995Z" fill-rule="evenodd" fill="#FFEAEA" fill-opacity="1"/></g><g><path d="M43.64054870605469,52.046875Q43.64054870605469,51.9976293,43.65015570605469,51.9493299Q43.65976370605469,51.90103,43.67860870605469,51.855533Q43.697454706054685,51.810036,43.72481370605469,51.76909Q43.752173706054684,51.728144,43.78699570605469,51.693322Q43.82181770605469,51.6585,43.862763706054686,51.63114Q43.903709706054684,51.603781,43.94920670605469,51.584935Q43.994703706054686,51.56609,44.04300360605469,51.556482Q44.09130300605469,51.546875,44.14054870605469,51.546875Q44.18979440605469,51.546875,44.238093806054685,51.556482Q44.28639370605469,51.56609,44.331890706054686,51.584935Q44.37738770605469,51.603781,44.41833370605469,51.63114Q44.45927970605469,51.6585,44.494101706054686,51.693322Q44.52892370605469,51.728144,44.556283706054685,51.76909Q44.58364270605469,51.810036,44.602488706054686,51.855533Q44.621333706054685,51.90103,44.630941706054685,51.9493299Q44.64054870605469,51.9976293,44.64054870605469,52.046875L44.64054870605469,54.262045L44.652054706054685,54.411615L44.68666670605469,54.525345L44.73737470605469,54.636905L44.80432870605469,54.727765L44.897154706054685,54.820595L44.988017706054684,54.887545L45.09958270605469,54.938255L45.21330870605469,54.972865L45.36287870605469,54.984375L45.92804870605469,54.984375Q45.977288706054686,54.984375,46.02558870605469,54.993985Q46.07388870605469,55.003585,46.119388706054686,55.022435Q46.16488870605469,55.041285,46.20582870605469,55.068635Q46.246778706054684,55.095995,46.28159870605469,55.130825Q46.31641870605469,55.165645,46.343778706054685,55.206585Q46.37113870605469,55.247535,46.38998870605469,55.293035Q46.408828706054685,55.338535,46.41843870605469,55.386825Q46.42804870605469,55.435125,46.42804870605469,55.484375Q46.42804870605469,55.533625,46.41843870605469,55.581915Q46.408828706054685,55.630215,46.38998870605469,55.675715Q46.37113870605469,55.721215,46.343778706054685,55.762155Q46.31641870605469,55.803105,46.28159870605469,55.837925Q46.246778706054684,55.872755,46.20582870605469,55.900104999999996Q46.16488870605469,55.927465,46.119388706054686,55.946315Q46.07388870605469,55.965155,46.02558870605469,55.974765Q45.977288706054686,55.984375,45.92804870605469,55.984375L45.32446870605469,55.984375L45.02716370605469,55.961505L44.74557870605469,55.875805L44.479016706054686,55.754635L44.243316706054685,55.580975L44.043954106054684,55.381605L43.870283706054686,55.145905L43.749116706054686,54.879345L43.66341970605469,54.597755L43.64054870605469,54.300455L43.64054870605469,52.046875Z" fill-rule="evenodd" fill="#FF9494" fill-opacity="1"/></g><g><path d="M38.296793706054686,49.72656L38.271023706054685,50.02734L38.19367370605469,50.29375L38.073363706054685,50.55156L37.910083706054685,50.78359L37.721013706054684,50.97266L37.48898370605469,51.13594L37.23117370605469,51.25625L36.96476370605469,51.3336L36.66398370605469,51.35937L36.36320370605469,51.3336L36.09679370605469,51.25625L35.838985706054686,51.13594L35.606955706054684,50.97266L35.41789270605469,50.78359L35.25461170605469,50.55156L35.13429970605469,50.29375L35.05695390605469,50.02734L35.03117370605469,49.72656L35.05695390605469,49.42578L35.13429970605469,49.15938L35.25461170605469,48.901565L35.41789270605469,48.669532L35.606955706054684,48.480469L35.838985706054686,48.317185L36.09679370605469,48.196876L36.36320370605469,48.1195302L36.66398370605469,48.09375L36.96476370605469,48.1195302L37.23117370605469,48.196876L37.48898370605469,48.317185L37.721013706054684,48.480469L37.910083706054685,48.669532L38.073363706054685,48.901565L38.19367370605469,49.15938L38.271023706054685,49.42578L38.296793706054686,49.72656Z" fill-rule="evenodd" fill="#242424" fill-opacity="1"/></g><g><path d="M54.968668706054686,49.72656L54.942898706054685,50.02734L54.86554870605469,50.29375L54.745238706054685,50.55156L54.581958706054685,50.78359L54.392888706054684,50.97266L54.16085870605469,51.13594L53.90304870605469,51.25625L53.63663870605469,51.3336L53.33585870605469,51.35937L53.03507870605469,51.3336L52.76866870605469,51.25625L52.510860706054686,51.13594L52.278830706054684,50.97266L52.08976770605469,50.78359L51.92648670605469,50.55156L51.80617470605469,50.29375L51.72882890605469,50.02734L51.70304870605469,49.72656L51.72882890605469,49.42578L51.80617470605469,49.15938L51.92648670605469,48.901565L52.08976770605469,48.669532L52.278830706054684,48.480469L52.510860706054686,48.317185L52.76866870605469,48.196876L53.03507870605469,48.1195302L53.33585870605469,48.09375L53.63663870605469,48.1195302L53.90304870605469,48.196876L54.16085870605469,48.317185L54.392888706054684,48.480469L54.581958706054685,48.669532L54.745238706054685,48.901565L54.86554870605469,49.15938L54.942898706054685,49.42578L54.968668706054686,49.72656Z" fill-rule="evenodd" fill="#242424" fill-opacity="1"/></g><g><path d="M41.68237720605469,58.55456775L42.71655120605469,58.97650675L43.131831206054684,59.10539275L43.57312120605469,59.20100375L44.01559120605469,59.26737175L44.465491206054686,59.29687475L44.92366120605469,59.29687475L45.35684120605469,59.26799475L45.80002120605469,59.19413075L46.249271206054686,59.09679475L46.66640120605469,58.96734075L47.08743120605469,58.79745375L47.53890120605469,58.57977475L47.53906120605469,58.57970175Q47.74487120605469,58.48046875,47.97336120605469,58.48046875Q48.07185120605469,58.48046875,48.168451206054684,58.49968375Q48.265051206054686,58.51889875,48.356041206054684,58.55658975Q48.44703120605469,58.59428075,48.528931206054686,58.64899875Q48.61082120605469,58.70371775,48.68046120605469,58.77336175Q48.75011120605469,58.84300575,48.804831206054686,58.92489875Q48.85955120605469,59.00679075,48.89724120605469,59.09778575Q48.934931206054685,59.18877975,48.954141206054686,59.28537875Q48.97336120605469,59.38197735,48.97336120605469,59.48046875Q48.97336120605469,59.62158575,48.93431120605469,59.75719275Q48.895261206054684,59.89279875,48.82021120605469,60.01230375Q48.74516120605469,60.13180875,48.63997120605469,60.22587875Q48.53478120605469,60.31994875,48.407661206054684,60.38123575L48.407511206054686,60.38130875L47.89679120605469,60.62754875L47.33813120605469,60.85296875L46.75839120605469,61.03288875L46.17639120605469,61.15898875L45.58832120605469,61.25699875L44.99025120605469,61.29687875L44.39998120605469,61.29687875L43.80144120605469,61.25762875L43.21266120605469,61.16930875L42.622701206054685,61.04148875L42.04111320605469,60.86098875L40.926845206054686,60.40636975Q40.85823720605469,60.37837775,40.79450420605469,60.34057975Q40.73077120605469,60.30278175,40.673305206054685,60.25600275Q40.61583920605469,60.20922375,40.56589620605469,60.15448675Q40.515952206054685,60.09974875,40.474621206054685,60.03824775Q40.43329120605469,59.97674675,40.40147620605469,59.90982575Q40.36966120605469,59.84290475,40.34805720605469,59.77202475Q40.32645320605469,59.70114575,40.31553220605469,59.62785675Q40.30461120605469,59.55456725,40.30461120605469,59.48046875Q40.30461120605469,59.38197735,40.32382620605469,59.28537875Q40.343041206054686,59.18877975,40.38073220605469,59.09778575Q40.41842320605469,59.00679075,40.473141206054684,58.92489875Q40.52786020605469,58.84300575,40.59750420605469,58.77336175Q40.66714820605469,58.70371775,40.749041206054684,58.64899875Q40.83093320605469,58.59428075,40.92192820605469,58.55658975Q41.01292220605469,58.51889875,41.10952120605469,58.49968375Q41.20611980605469,58.48046875,41.30461120605469,58.48046875Q41.50076120605469,58.48046875,41.68237720605469,58.55456775Z" fill-rule="evenodd" fill="#EC8484" fill-opacity="1"/></g><g><path d="M39.42569370605469,46.626565L39.426043706054685,46.626655Q39.53879370605469,46.653125,39.65461370605469,46.653125Q39.75310370605469,46.653125,39.84970370605469,46.633905Q39.94629370605469,46.614695,40.03729370605469,46.577005Q40.12828370605469,46.539315,40.210183706054686,46.484595Q40.29207370605469,46.429875,40.36171370605469,46.360225Q40.43136370605469,46.290585,40.486083706054686,46.208695Q40.540793706054686,46.1268,40.57849370605469,46.035806Q40.616183706054684,45.944812,40.635393706054685,45.848213Q40.65461370605469,45.751614000000004,40.65461370605469,45.653123Q40.65461370605469,45.569164,40.64061370605469,45.486381Q40.626613706054684,45.403598,40.59900370605469,45.324308Q40.571393706054685,45.2450179,40.53095370605469,45.171441096Q40.490513706054685,45.0978643,40.43837370605469,45.032061Q40.386223706054686,44.966257,40.32384370605469,44.91007Q40.26145370605469,44.853882,40.190573706054685,44.808883Q40.11969370605469,44.763884,40.04230370605469,44.731334Q39.96491370605469,44.698784,39.88317370605469,44.679594L38.867953706054685,44.441242L37.98596370605469,44.285055L37.25183370605469,44.200346L36.62101370605469,44.170775L35.990203706054686,44.200346L35.24815370605469,44.285968L34.39137570605469,44.451796L33.426150706054685,44.679938Q33.34453470605469,44.699228,33.26727270605469,44.731843Q33.190010706054686,44.764458,33.119259706054685,44.809486Q33.04850870605469,44.854514,32.98624570605469,44.910697Q32.92398270605469,44.96688,32.871946706054686,45.032649Q32.81991170605469,45.0984172,32.779556706054684,45.1719339622Q32.73920270605469,45.2454507,32.711655706054685,45.324662000000004Q32.684109706054684,45.403873,32.670141706054686,45.486566Q32.65617370605469,45.569259,32.65617370605469,45.653123Q32.65617370605469,45.751614000000004,32.67538870605469,45.848213Q32.694603706054686,45.944812,32.73229470605469,46.035806Q32.76998570605469,46.1268,32.824703706054684,46.208695Q32.87942270605469,46.290585,32.94906670605469,46.360225Q33.01871070605469,46.429875,33.100603706054684,46.484595Q33.18249570605469,46.539315,33.27349070605469,46.577005Q33.36448470605469,46.614695,33.46108370605469,46.633905Q33.55768230605469,46.653125,33.65617370605469,46.653125Q33.772748706054685,46.653125,33.88619670605469,46.626305L34.81160370605469,46.407575L35.55325370605469,46.264035L36.15183370605469,46.194965L36.62101370605469,46.172975L37.09020370605469,46.194965L37.69669370605469,46.264945L38.46471370605469,46.400955L39.42569370605469,46.626565Z" fill-rule="evenodd" fill="#242424" fill-opacity="1"/></g><g><g><path d="M50.099839741210936,44.679525L50.09954574121094,44.679594Q50.01780974121094,44.698784,49.940417741210936,44.731334Q49.86302574121094,44.763884,49.79214474121094,44.808883Q49.72126374121094,44.853882,49.65887774121094,44.910069Q49.59649174121094,44.966257,49.54434874121094,45.032061Q49.49220474121094,45.0978642,49.45176374121094,45.171441039Q49.41132174121094,45.2450178,49.383715741210935,45.324308Q49.35610874121094,45.403598,49.342108741210936,45.486381Q49.32810974121094,45.569164,49.32810974121094,45.653123Q49.32810974121094,45.751614000000004,49.34732474121094,45.848213Q49.366539741210936,45.944812,49.40423074121094,46.035806Q49.44192174121094,46.1268,49.496639741210934,46.208695Q49.55135874121094,46.290585,49.62100274121094,46.360225Q49.69064674121094,46.429875,49.772539741210934,46.484595Q49.85443174121094,46.539315,49.94542674121094,46.577005Q50.03642074121094,46.614695,50.13301974121094,46.633905Q50.22961834121094,46.653125,50.32810974121094,46.653125Q50.443924741210935,46.653125,50.556673741210936,46.626655L50.55685074121094,46.626615L51.518889741210934,46.400745L52.27761974121094,46.264975L52.89179974121094,46.194995L53.361699741210934,46.172975L53.83014974121094,46.194935L54.420149741210935,46.263895L55.16351974121094,46.407775L56.09799974121094,46.626655L56.09848974121094,46.626775Q56.21098974121094,46.653125,56.32654974121094,46.653125Q56.42503974121094,46.653125,56.52163974121094,46.633905Q56.61822974121094,46.614695,56.70922974121094,46.577005Q56.80021974121094,46.539315,56.882119741210936,46.484595Q56.96400974121094,46.429875,57.03364974121094,46.360225Q57.10329974121094,46.290585,57.158019741210936,46.208695Q57.212729741210936,46.1268,57.25042974121094,46.035806Q57.288119741210934,45.944812,57.307329741210935,45.848213Q57.32654974121094,45.751614000000004,57.32654974121094,45.653123Q57.32654974121094,45.569132,57.31253974121094,45.486317Q57.298529741210935,45.403503,57.27089974121094,45.324186Q57.24326974121094,45.2448685,57.20279974121094,45.171270993Q57.16232974121094,45.0976735,57.11014974121094,45.031858Q57.05796974121094,44.966042,56.99553974121094,44.909853Q56.93310974121094,44.853664,56.86217974121094,44.808675Q56.791259741210936,44.763686,56.71381974121094,44.731158Q56.63637974121094,44.698631,56.55460974121094,44.679476L56.554439741210935,44.679436L55.58175974121094,44.451604L54.726699741210936,44.286108L53.993259741210935,44.20038L53.361699741210934,44.170775L52.73160974121094,44.200312L51.987979741210935,44.285031000000004L51.113888741210936,44.441448L50.099839741210936,44.679525Z" fill-rule="evenodd" fill="#242424" fill-opacity="1"/></g></g><g><g><g><path d="M45.0000125,68.1171875L45.9625125,68.1429677L46.9078125,68.2203135L47.8359125,68.3406225L48.755512499999995,68.5039065L49.6578125,68.7187495L50.551612500000005,68.9765625L51.4367125,69.2773475L52.3047125,69.6210975L53.1555125,70.0078075L53.9976125,70.4374975L54.8140125,70.9101575L55.6133125,71.4085975L56.4039125,71.9585975L57.1687125,72.5429675L57.9250125,73.1617175L58.6469125,73.8148475L59.3516125,74.5023475L60.0390125,75.2242175L60.7008125,75.9804675L61.3453125,76.7796875L61.9555125,77.5874975L62.5484125,78.4296875L63.1070125,79.3062875L63.6484125,80.2085875L64.1726125,81.1538875L64.65391249999999,82.0991875L65.1008125,83.07888750000001L65.5305125,84.0757875L65.9258125,85.1155875L66.3039125,86.1726875L66.63051250000001,87.2382875L66.9312125,88.3210875L67.20621249999999,89.4296875L67.4383125,90.5640875L67.64451249999999,91.7241875L67.8164125,92.8757875L67.9453125,94.0444875L68.0398125,95.2390875L68.10001249999999,96.4507875L68.1172125,97.6796875L68.10001249999999,98.9085875L68.0398125,100.1202875L67.9453125,101.3148875L67.8164125,102.4835875L67.64451249999999,103.6351875L67.4383125,104.7952875L67.20621249999999,105.9296875L66.9312125,107.0382875L66.63051250000001,108.1210875L66.3039125,109.1866875L65.9258125,110.2437875L65.5305125,111.28358750000001L65.1008125,112.28048749999999L64.65391249999999,113.2601875L64.1726125,114.2054875L63.6484125,115.1507875L63.1070125,116.0530875L62.5484125,116.9296875L61.9555125,117.77188749999999L61.3453125,118.5796875L60.7008125,119.37888749999999L60.0390125,120.1351875L59.3516125,120.8569875L58.6469125,121.5444875L57.9250125,122.1976875L57.1687125,122.81638749999999L56.4039125,123.4007875L55.6133125,123.95078749999999L54.8140125,124.4491875L53.9976125,124.9218875L53.1555125,125.3515875L52.3047125,125.7382875L51.4367125,126.0819875L50.551612500000005,126.3827875L49.6578125,126.64058750000001L48.755512499999995,126.85548750000001L47.8359125,127.0187875L46.9078125,127.1390875L45.9625125,127.2163875L45.0000125,127.2421875L44.0375125,127.2163875L43.0922125,127.1390875L42.1640125,127.0187875L41.2445125,126.85548750000001L40.3422125,126.64058750000001L39.4484125,126.3827875L38.563312499999995,126.0819875L37.6953125,125.7382875L36.8445125,125.3515875L36.0023125,124.9218875L35.1859125,124.4491875L34.3867125,123.95078749999999L33.596112500000004,123.4007875L32.8312125,122.81638749999999L32.0750125,122.1976875L31.353122499999998,121.5444875L30.6484325,120.8569875L29.9609325,120.1351875L29.2992225,119.37888749999999L28.6546825,118.5796875L28.0445325,117.77188749999999L27.4515625,116.9296875L26.8929725,116.0530875L26.3515625,115.1507875L25.8273425,114.2054875L25.3460925,113.2601875L24.8992225,112.28048749999999L24.4695325,111.28358750000001L24.0742225,110.2437875L23.6960925,109.1866875L23.3695325,108.1210875L23.0687525,107.0382875L22.7937505,105.9296875L22.5617185,104.7952875L22.3554685,103.6351875L22.1835935,102.4835875L22.0546875,101.3148875L21.9601557,100.1202875L21.8999997,98.9085875L21.8828125,97.6796875L21.8999997,96.4507875L21.9601557,95.2390875L22.0546875,94.0444875L22.1835935,92.8757875L22.3554685,91.7241875L22.5617185,90.5640875L22.7937505,89.4296875L23.0687525,88.3210875L23.3695325,87.2382875L23.6960925,86.1726875L24.0742225,85.1155875L24.4695325,84.0757875L24.8992225,83.07888750000001L25.3460925,82.0991875L25.8273425,81.1538875L26.3515625,80.2085875L26.8929725,79.3062875L27.4515625,78.4296875L28.0445325,77.5874975L28.6546825,76.7796875L29.2992225,75.9804675L29.9609325,75.2242175L30.6484325,74.5023475L31.353122499999998,73.8148475L32.0750125,73.1617175L32.8312125,72.5429675L33.596112500000004,71.9585975L34.3867125,71.4085975L35.1859125,70.9101575L36.0023125,70.4374975L36.8445125,70.0078075L37.6953125,69.6210975L38.563312499999995,69.2773475L39.4484125,68.9765625L40.3422125,68.7187495L41.2445125,68.5039065L42.1640125,68.3406225L43.0922125,68.2203135L44.0375125,68.1429677L45.0000125,68.1171875Z" fill-rule="evenodd" fill="#999999" fill-opacity="1"/></g></g><g><g><path d="M51.1875,68.2890625L51.161699999999996,68.4867225L51.0758,68.6843725L50.9297,68.8820325L50.6977,69.0882825L50.1648,69.4234425L49.3742,69.7500025L48.80703,69.9132825L48.153909999999996,70.0679725L47.40625,70.1882825L46.658590000000004,70.2742125L45.85938,70.3343725L45,70.3515625L44.14062,70.3343725L43.341409999999996,70.2742125L42.59375,70.1882825L41.84609,70.0679725L41.19297,69.9132825L40.62578,69.7500025L39.83516,69.4234425L39.302345,69.0882825L39.070312,68.8820325L38.924218,68.6843725L38.8382802,68.4867225L38.8125,68.2890625L38.8382802,68.0914025L38.924218,67.8937525L39.070312,67.6960925L39.302345,67.4898425L39.83516,67.1546865L40.62578,66.8281245L41.19297,66.6648415L41.84609,66.5101555L42.59375,66.3898455L43.341409999999996,66.3039083L44.14062,66.243751L45,66.2265625L45.85938,66.243751L46.658590000000004,66.3039083L47.40625,66.3898455L48.153909999999996,66.5101555L48.80703,66.6648415L49.3742,66.8281245L50.1648,67.1546865L50.6977,67.4898425L50.9297,67.6960925L51.0758,67.8937525L51.161699999999996,68.0914025L51.1875,68.2890625Z" fill-rule="evenodd" fill="#FFEAEA" fill-opacity="1"/></g></g><g><g><path d="M49.8125,68.727294921875L45,70.351514921875L49.63203,75.146824921875L52.88906,69.156982921875L51.36797,68.993703921875L49.8125,68.727294921875Z" fill-rule="evenodd" fill="#FFFFFF" fill-opacity="1"/></g></g><g><path d="M40.17031,68.727294921875L44.98281,70.351514921875L40.35078,75.146824921875L37.09375,69.156982921875L38.61484,68.993703921875L40.17031,68.727294921875Z" fill-rule="evenodd" fill="#FFFFFF" fill-opacity="1"/></g></g><g><path d="M69.57799870605469,27.7695625L69.55229870605469,28.3195625L69.47489870605469,28.8609625L69.34599870605469,29.402362500000002L69.16559870605468,29.9265625L68.92489870605469,30.459362499999997L68.65849870605469,30.957862499999997L68.34049870605469,31.4562625L67.97099870605469,31.9460625L67.54989870605469,32.4359625L67.07729870605469,32.925762500000005L66.59599870605469,33.372662500000004L65.48739870605469,34.2492625L64.18119870605469,35.108562500000005L63.33039870605469,35.5812625L62.41089870605469,36.0452625L61.43119870605469,36.4921625L60.37409870605469,36.9218625L59.317098706054686,37.3085625L58.20849870605469,37.6609625L57.03979870605469,37.9960625L55.81089870605469,38.305462500000004L54.58199870605469,38.5718625L53.31869870605469,38.812462499999995L52.00379870605469,39.0187625L50.63739870605468,39.1906625L49.279598706054685,39.3195625L47.88739870605468,39.4226625L46.46089870605469,39.4827625L44.99989870605469,39.499962499999995L43.538998706054684,39.4827625L42.11239870605469,39.4226625L40.72019870605469,39.3195625L39.36239870605469,39.1906625L37.99599870605469,39.0187625L36.68119870605469,38.812462499999995L35.417898706054686,38.5718625L34.18899870605469,38.305462500000004L32.96009870605469,37.9960625L31.79129870605469,37.6609625L30.682698706054687,37.3085625L29.625708706054688,36.9218625L28.568668706054687,36.4921625L27.588988706054685,36.0452625L26.669458706054687,35.5812625L25.818668706054687,35.108562500000005L24.51242870605469,34.2492625L23.40382870605469,33.372662500000004L22.922578706054686,32.925762500000005L22.44992870605469,32.4359625L22.02882870605469,31.9460625L21.659298706054688,31.4562625L21.341329706054687,30.957862499999997L21.074924706054688,30.459362499999997L20.83429870605469,29.9265625L20.653829706054687,29.402362500000002L20.524923706054686,28.8609625L20.44758020605469,28.3195625L20.421798706054688,27.7695625L20.44758020605469,27.219562500000002L20.524923706054686,26.6781625L20.653829706054687,26.145362499999997L20.83429870605469,25.612502499999998L21.074924706054688,25.0796925L21.341329706054687,24.581252499999998L21.659298706054688,24.0828125L22.02882870605469,23.592972500000002L22.44992870605469,23.103122499999998L22.922578706054686,22.6132825L23.40382870605469,22.1664025L24.51242870605469,21.2898425L25.818668706054687,20.4304725L26.669458706054687,19.9578125L27.588988706054685,19.4937525L28.568668706054687,19.0468725L29.625708706054688,18.6171825L30.682698706054687,18.2304725L31.79129870605469,17.8781225L32.96009870605469,17.5429725L34.18899870605469,17.2335925L35.417898706054686,16.9671875L36.68119870605469,16.7265625L37.99599870605469,16.5203135L39.36239870605469,16.3484385L40.72019870605469,16.2195315L42.11239870605469,16.1164057L43.538998706054684,16.0562497L44.99989870605469,16.0390625L46.46089870605469,16.0562497L47.88739870605468,16.1164057L49.279598706054685,16.2195315L50.63739870605468,16.3484385L52.00379870605469,16.5203135L53.31869870605469,16.7265625L54.58199870605469,16.9671875L55.81089870605469,17.2335925L57.03979870605469,17.5429725L58.20849870605469,17.8781225L59.317098706054686,18.2304725L60.37409870605469,18.6171825L61.43119870605469,19.0468725L62.41089870605469,19.4937525L63.33039870605469,19.9578125L64.18119870605469,20.4304725L65.48739870605469,21.2898425L66.59599870605469,22.1664025L67.07729870605469,22.6132825L67.54989870605469,23.103122499999998L67.97099870605469,23.592972500000002L68.34049870605469,24.0828125L68.65849870605469,24.581252499999998L68.92489870605469,25.0796925L69.16559870605468,25.612502499999998L69.34599870605469,26.1367625L69.47489870605469,26.6781625L69.55229870605469,27.219562500000002L69.57799870605469,27.7695625Z" fill-rule="evenodd" fill="#242424" fill-opacity="1"/></g><g><g><path d="M28.190643310546875,32.315673828125L37.729703310546874,39.809423828125L29.909393310546875,44.321173828125L28.190643310546875,32.315673828125Z" fill-rule="evenodd" fill="#FFEAEA" fill-opacity="1"/></g></g><g><g><path d="M37.97869873046875,31.482025146484375L45.67010873046875,39.646085146484374L41.20994873046875,42.22422514648437L37.97869873046875,31.482025146484375Z" fill-rule="evenodd" fill="#FFEAEA" fill-opacity="1"/></g></g><g><path d="M45.68742370605469,75.8515625L45.66164370605469,76.0320295L45.59289370605469,76.1953125L45.48976370605469,76.3414025L45.34367370605469,76.4445325L45.18039070605469,76.5132825L44.99992370605469,76.5390625L44.819454706054685,76.5132825L44.65617370605469,76.4445325L44.510078706054685,76.3414025L44.406955506054686,76.1953125L44.33820390605469,76.0320295L44.31242370605469,75.8515625L44.33820390605469,75.6710955L44.406955506054686,75.5078125L44.510078706054685,75.3617175L44.65617370605469,75.2585917L44.819454706054685,75.1898427L44.99992370605469,75.1640625L45.18039070605469,75.1898427L45.34367370605469,75.2585917L45.48976370605469,75.3617175L45.59289370605469,75.5078125L45.66164370605469,75.6710955L45.68742370605469,75.8515625Z" fill-rule="evenodd" fill="#565756" fill-opacity="1"/></g><g><path d="M45.68742370605469,81.265625L45.66164370605469,81.446092L45.59289370605469,81.609375L45.48976370605469,81.755465L45.34367370605469,81.858595L45.18039070605469,81.927345L44.99992370605469,81.953125L44.819454706054685,81.927345L44.65617370605469,81.858595L44.510078706054685,81.755465L44.406955506054686,81.609375L44.33820390605469,81.446092L44.31242370605469,81.265625L44.33820390605469,81.085158L44.406955506054686,80.921875L44.510078706054685,80.77578L44.65617370605469,80.6726542L44.819454706054685,80.6039052L44.99992370605469,80.578125L45.18039070605469,80.6039052L45.34367370605469,80.6726542L45.48976370605469,80.77578L45.59289370605469,80.921875L45.66164370605469,81.085158L45.68742370605469,81.265625Z" fill-rule="evenodd" fill="#565756" fill-opacity="1"/></g><g><path d="M45.68742370605469,86.6796875L45.66164370605469,86.8601545L45.59289370605469,87.0234375L45.48976370605469,87.1695275L45.34367370605469,87.2726575L45.18039070605469,87.3414075L44.99992370605469,87.3671875L44.819454706054685,87.3414075L44.65617370605469,87.2726575L44.510078706054685,87.1695275L44.406955506054686,87.0234375L44.33820390605469,86.8601545L44.31242370605469,86.6796875L44.33820390605469,86.4992205L44.406955506054686,86.3359375L44.510078706054685,86.1898425L44.65617370605469,86.0867167L44.819454706054685,86.0179677L44.99992370605469,85.9921875L45.18039070605469,86.0179677L45.34367370605469,86.0867167L45.48976370605469,86.1898425L45.59289370605469,86.3359375L45.66164370605469,86.4992205L45.68742370605469,86.6796875Z" fill-rule="evenodd" fill="#565756" fill-opacity="1"/></g><g><g><path d="M36.96384625,83.95319625Q37.11328625,83.45833425000001,37.11328625,82.94140625Q37.11328625,82.76946225,37.09642625,82.59834625Q37.07957625,82.42723025,37.04602625,82.25859025Q37.01248625,82.08995025,36.96257625,81.92540625Q36.91265625,81.76086625,36.84685625,81.60201625Q36.78105625,81.44315625,36.70000625,81.29151625Q36.61895625,81.13987625,36.52342625,80.99690625Q36.42789625,80.85394625,36.31881625,80.72102625Q36.20973625,80.58811625,36.08815625,80.46653625Q35.96657625,80.34494625,35.83365625,80.23586625Q35.70074625,80.12678625,35.55777625,80.03126625Q35.41480625,79.93573625,35.26316625,79.85468625Q35.11152625,79.77362625,34.95267625,79.70782625Q34.79381625,79.64202625,34.629276250000004,79.59211625Q34.46473625,79.54220625,34.29609625,79.50865625Q34.12745625,79.47511625,33.95634625,79.45825625Q33.78522625,79.44140625,33.61328625,79.44140625Q33.47347625,79.44140625,33.33411625,79.45255625Q33.19475625,79.46370625,33.05673625,79.48593625Q32.91870625,79.50816625,32.78289625,79.54133625Q32.64708625,79.57450625,32.51434625,79.61840625Q32.38161625,79.66229625,32.252807250000004,79.71664625Q32.12399725,79.77098624999999,31.99993125,79.83542625Q31.87586625,79.89987625,31.75733625,79.97400625Q31.638806250000002,80.04813625,31.52656725,80.13148625Q31.41432795,80.21484625,31.30909445,80.30687625Q31.20386125,80.39891625,31.10630425,80.49905625Q31.00874625,80.59919625,30.91948725,80.70679625Q30.83022825,80.81439625,30.74983525,80.92877625Q30.66944325,81.04315625,30.59842925,81.16357625Q30.52741625,81.28400625,30.46623425,81.40970625Q30.40505225,81.53541625,30.35408625,81.66559625Q30.30312625,81.79578625,30.26271625,81.92961625L30.26250625,81.93032625L28.02867625,89.32772625L28.02833625,89.32883625Q27.87890625,89.82369625,27.87890625,90.34062625Q27.87890625,90.51256625,27.895756249999998,90.68368625Q27.91261625,90.85479624999999,27.94615625,91.02343625Q27.97970625,91.19207625,28.02961625,91.35661625Q28.07952625,91.52115625,28.14532625,91.68001625Q28.21112625,91.83886625,28.29218625,91.99051625Q28.37323625,92.14215625,28.46876625,92.28511625Q28.56428625,92.42808625,28.67336625,92.56099625Q28.78244625,92.69391625,28.90403625,92.81549625Q29.02561625,92.93707625,29.15852625,93.04620625Q29.29144625,93.15520625,29.43440625,93.25080625Q29.57737625,93.34630625,29.72901625,93.42730625Q29.88065625,93.50840625000001,30.03951625,93.57420625Q30.19836625,93.64000625,30.36290625,93.68990625Q30.52745025,93.73980625,30.69609025,93.77340625Q30.86473025,93.80690625,31.03584625,93.82380625Q31.20696225,93.84060625000001,31.37890625,93.84060625000001Q31.51871025,93.84060625000001,31.65806925,93.82950625Q31.79742725,93.81830625,31.93545225,93.79610625Q32.07347825,93.77390625,32.20929025,93.74070625Q32.34510225,93.70750625,32.47783625,93.66360625Q32.61056625,93.61970625000001,32.73937625,93.56540625Q32.86818625,93.51100625,32.99225625,93.44660625Q33.11631625,93.38220625,33.23484625,93.30800625Q33.35337625,93.23390625,33.46561625,93.15050625Q33.577856249999996,93.06720625,33.68309625,92.97510625Q33.78832625,92.88310625,33.88588625,92.78297625Q33.98343625,92.68283625,34.07269625,92.57523625Q34.16195625,92.46762625,34.24235625,92.35325625Q34.32274625,92.23887625,34.39375625,92.11844625Q34.46477625,91.99802625,34.52595625,91.87231625Q34.58713625,91.74661625,34.63809625,91.61642625Q34.68905625,91.48624625,34.72947625,91.35240625L34.72980625,91.35129625L36.96351625,83.95429625L36.96384625,83.95319625Z" fill-rule="evenodd" fill="#000000" fill-opacity="0.106926329433918"/></g></g><g><path d="M59.73754245605469,81.93072625L61.971252456054685,89.32772625L61.97158245605469,89.32883625Q62.12102245605469,89.82369625,62.12102245605469,90.34062625Q62.12102245605469,90.51256625,62.10416245605469,90.68368625Q62.08731245605469,90.85479624999999,62.053762456054685,91.02343625Q62.02022245605469,91.19207625,61.970312456054685,91.35661625Q61.920392456054685,91.52115625,61.85459245605469,91.68001625Q61.788792456054686,91.83886625,61.70774245605469,91.99051625Q61.626692456054684,92.14215625,61.53116245605469,92.28511625Q61.43563245605469,92.42808625,61.326552456054685,92.56099625Q61.217472456054686,92.69391625,61.095892456054685,92.81549625Q60.97431245605469,92.93707625,60.841392456054685,93.04620625Q60.70848245605469,93.15520625,60.56551245605469,93.25080625Q60.422542456054686,93.34630625,60.270902456054685,93.42730625Q60.119262456054685,93.50840625000001,59.96041245605469,93.57420625Q59.80155245605469,93.64000625,59.63701245605469,93.68990625Q59.47247245605469,93.73980625,59.303832456054685,93.77340625Q59.13519245605469,93.80690625,58.96408245605469,93.82380625Q58.79296245605469,93.84060625000001,58.62102245605469,93.84060625000001Q58.481212456054685,93.84060625000001,58.34185245605469,93.82950625Q58.202492456054685,93.81830625,58.06447245605469,93.79610625Q57.92644245605469,93.77390625,57.79063245605469,93.74070625Q57.65482245605469,93.70750625,57.52208245605469,93.66360625Q57.38935245605469,93.61970625000001,57.26054345605469,93.56540625Q57.13173345605469,93.51100625,57.00766745605469,93.44660625Q56.88360245605469,93.38220625,56.76507245605469,93.30800625Q56.64654245605469,93.23390625,56.53430345605469,93.15050625Q56.42206415605469,93.06720625,56.31683065605469,92.97510625Q56.21159745605469,92.88310625,56.11404045605469,92.78297625Q56.01648245605469,92.68283625,55.92722345605469,92.57523625Q55.837964456054685,92.46762625,55.757571456054684,92.35325625Q55.67717945605469,92.23887625,55.60616545605469,92.11844625Q55.53515245605469,91.99802625,55.47397045605469,91.87231625Q55.412788456054685,91.74661625,55.36182245605469,91.61642625Q55.310862456054686,91.48624625,55.270452456054684,91.35240625L55.27024245605469,91.35170625L53.03641245605469,83.95429625L53.03607245605469,83.95319625Q52.88664245605469,83.45833425000001,52.88664245605469,82.94140625Q52.88664245605469,82.76946225,52.903492456054686,82.59834625Q52.92035245605469,82.42723025,52.95389245605469,82.25859025Q52.98744245605469,82.08995025,53.03735245605469,81.92540625Q53.08726245605469,81.76086625,53.153062456054684,81.60201625Q53.21886245605469,81.44315625,53.29992245605469,81.29151625Q53.380972456054685,81.13987625,53.47650245605469,80.99690625Q53.57202245605469,80.85394625,53.68110245605469,80.72102625Q53.79018245605469,80.58811625,53.911772456054685,80.46653625Q54.033352456054686,80.34494625,54.16626245605469,80.23586625Q54.29918245605469,80.12678625,54.44214245605469,80.03126625Q54.58511245605469,79.93573625,54.73675245605469,79.85468625Q54.88839245605469,79.77362625,55.047252456054686,79.70782625Q55.20610245605469,79.64202625,55.37064245605469,79.59211625Q55.53518645605469,79.54220625,55.703826456054685,79.50865625Q55.87246645605469,79.47511625,56.043582456054686,79.45825625Q56.214698456054684,79.44140625,56.38664245605469,79.44140625Q56.526446456054686,79.44140625,56.665805456054684,79.45255625Q56.805163456054686,79.46370625,56.943188456054685,79.48593625Q57.08121445605469,79.50816625,57.21702645605469,79.54133625Q57.352838456054684,79.57450625,57.48557245605469,79.61840625Q57.618302456054685,79.66229625,57.74711245605469,79.71664625Q57.87592245605469,79.77098624999999,57.999992456054684,79.83542625Q58.124052456054685,79.89987625,58.242582456054684,79.97400625Q58.361112456054684,80.04813625,58.473352456054684,80.13148625Q58.585592456054684,80.21484625,58.690832456054686,80.30687625Q58.796062456054685,80.39891625,58.893622456054686,80.49905625Q58.991172456054684,80.59919625,59.08043245605469,80.70679625Q59.16969245605469,80.81439625,59.25009245605469,80.92877625Q59.33048245605469,81.04315625,59.40149245605469,81.16357625Q59.47251245605469,81.28400625,59.53369245605469,81.40970625Q59.59487245605469,81.53541625,59.645832456054684,81.66559625Q59.69679245605469,81.79578625,59.737212456054685,81.92961625L59.73754245605469,81.93072625Z" fill-rule="evenodd" fill="#000000" fill-opacity="0.106926329433918"/></g></g></g></g><rect x="1" y="1" width="88" height="88" rx="8" fill-opacity="0" stroke-opacity="1" stroke="#FFFFFF" fill="none" stroke-width="2"/></g></g></svg>