<svg xmlns="http://www.w3.org/2000/svg" xmlns:xlink="http://www.w3.org/1999/xlink" fill="none" version="1.1" width="25" height="25" viewBox="0 0 25 25"><defs><clipPath id="master_svg0_1_437"><rect x="0" y="0" width="25" height="25" rx="0"/></clipPath></defs><g clip-path="url(#master_svg0_1_437)"><g><path d="M9.3667,3.208251953125C13.2917,3.208251953125,16.7917,5.585761953125,17.6108,8.784081953125L17.6375,8.897431953125L17.77,8.911591953125C21.0767,9.320771953125,23.645,11.708251953125,23.8608,14.554951953125L23.8717,14.749951953125L23.875,14.941551953125C23.875,16.499951953125,23.0192,18.065751953125,21.46,19.390751953125L21.3175,19.507451953125L21.76,20.965751953125C21.8184,21.151551953125,21.7867,21.349051953125,21.6792,21.507451953125L21.6192,21.583251953125L21.5467,21.650751953125C21.431,21.741251953125,21.2886,21.790751953125,21.1417,21.791551953125C21.0607,21.791651953125,20.9804,21.776351953125,20.905,21.746551953125L20.8309,21.711551953125L18.9675,20.703251953125L18.7584,20.754151953125C18.0959,20.912451953125,17.6042,20.999051953125,17.1317,21.028251953125L16.955,21.036551953125L16.778399999999998,21.038251953125C13.9117,21.038251953125,11.3292,19.554951953125,10.22669,17.293251953125L10.17752,17.186551953125L10.02835,17.214951953125002C9.87337,17.240751953125,9.70337,17.259951953125,9.56836,17.270751953125L9.44502,17.279151953125L9.3667,17.280751953124998L9.06836,17.276651953125C8.77505,17.266851953125,8.482579999999999,17.239651953124998,8.19253,17.194951953125L7.85586,17.139051953124998L7.47002,17.067451953125L7.02002,16.978251953125L6.83667,16.914951953124998L4.34002,18.150751953125003C4.1052599999999995,18.262851953125,3.82666,18.227251953125,3.62752,18.059951953125C3.45847,17.912151953125,3.37832,17.687151953125,3.41585,17.465751953125L3.43836,17.372451953125L4.04754,15.554951953125L3.89837,15.440751953125C2.22917,14.124051953125,1.28418,12.502411953125,1.143335,10.712421953125L1.13000488,10.479101953125L1.125,10.242431953125C1.125,6.424071953125,4.69666,3.316601953125,9.12834,3.210767033125L9.3667,3.208251953125ZM16.7783,10.389091953125C13.7342,10.389091953125,11.2642,12.442431953125,11.2642,14.951551953125C11.2642,17.461551953125,13.7325,19.513251953125,16.7783,19.513251953125C17.1142,19.513251953125,17.4267,19.479051953125,17.845,19.394151953125L18.1808,19.320751953125L18.5692,19.227451953125L18.7875,19.172451953124998C18.9152,19.139151953125,19.0502,19.147951953125002,19.1725,19.197451953125L19.245,19.230751953125L19.8775,19.574051953125L19.7792,19.247451953125C19.7135,19.026851953125,19.7743,18.788051953125,19.9375,18.625751953125L20.0025,18.569151953125C21.4733,17.475751953125,22.2792,16.188251953125,22.2792,14.951551953125C22.2792,12.485771953125,19.7633,10.389091953125,16.7783,10.389091953125ZM9.3667,4.710761953125C5.67253,4.710761953125,2.67502,7.200751953125,2.67502,10.249921953125C2.67502,11.934931953125,3.5667,13.406551953125,5.33669,14.628251953125C5.53872,14.768151953125,5.64038,15.013151953125,5.5967,15.254951953125L5.57419,15.344051953125L5.32502,16.084051953124998L6.51919,15.492451953125C6.62035,15.442151953125,6.73318,15.419951953125,6.84585,15.428251953125L6.9292,15.440751953125L7.76753,15.609951953125L8.12251,15.676551953125L8.43086,15.726551953125L8.57253,15.744951953125L8.83919,15.773251953125C8.926680000000001,15.779951953125,9.01253,15.784951953125,9.10002,15.788251953125L9.36919,15.793251953125L9.54087,15.790751953125L9.75669,15.781551953125L9.73838,15.693251953125C9.6956,15.466751953125,9.6683,15.237651953125,9.65669,15.007451953125L9.65086,14.784951953125C9.65086,11.718261953125,12.44,9.159931953125,15.9667,8.914091953125L16.0275,8.910771953125L16.0184,8.879101953125C15.26,6.534941953125,12.5975,4.799101953125,9.59836,4.714091953125L9.3667,4.710761953125Z" fill="#FFFFFF" fill-opacity="1"/></g></g></svg>