<svg xmlns="http://www.w3.org/2000/svg" xmlns:xlink="http://www.w3.org/1999/xlink" fill="none" version="1.1" width="90" height="90" viewBox="0 0 90 90"><defs><clipPath id="master_svg0_11_1809"><rect x="0" y="0" width="90" height="90" rx="8"/></clipPath></defs><g><g clip-path="url(#master_svg0_11_1809)"><g><path d="M1,1L89,1L89,89L1,89L1,1Z" fill-rule="evenodd" fill="#FFFFFF" fill-opacity="1"/></g><g><g><g><g><path d="M23.085968017578125,36.06248474121094L68.11716801757812,36.06248474121094L68.11716801757812,85.99218474121093L23.085968017578125,85.99218474121093L23.085968017578125,36.06248474121094Z" fill-rule="evenodd" fill="#242424" fill-opacity="1"/></g><g><g><path d="M27.400177001953125,54.00627136230469L27.374377001953125,54.58205136230469L27.314277001953123,55.132051362304686L27.202477001953127,55.66486136230469L27.056477001953127,56.180491362304686L26.858777001953126,56.687521362304686L26.635377001953124,57.16877136230469L26.368977001953127,57.632871362304684L26.076777001953126,58.071071362304686L25.750177001953126,58.48357136230469L25.389277001953126,58.87037136230469L25.002477001953125,59.23127136230469L24.589977001953123,59.55787136230469L24.151777001953125,59.85857136230469L23.687677001953126,60.11647136230469L23.206427001953124,60.33987136230469L22.699397001953123,60.537471362304686L22.183767001953125,60.68357136230469L21.650957001953124,60.795371362304685L21.100957001953127,60.864071362304685L20.525177001953125,60.88127136230469L19.957987001953125,60.864071362304685L19.407987001953124,60.795371362304685L18.875177001953126,60.68357136230469L18.350957001953127,60.537471362304686L17.852517001953125,60.33987136230469L17.362677001953124,60.11647136230469L16.907207001953125,59.85857136230469L16.468927001953126,59.55787136230469L16.047837001953127,59.23127136230469L15.669707001953125,58.87037136230469L15.308767001953125,58.48357136230469L14.982207001953125,58.071071362304686L14.681427001953125,57.632871362304684L14.423615001953126,57.16877136230469L14.191584001953125,56.687521362304686L14.002521001953125,56.180491362304686L13.856428001953125,55.66486136230469L13.744708801953125,55.132051362304686L13.675958501953126,54.58205136230469L13.650177001953125,54.00627136230469L13.675958501953126,53.43909136230469L13.744708801953125,52.88908136230469L13.856428001953125,52.35627136230469L14.002521001953125,51.84064136230469L14.191584001953125,51.33362136230469L14.423615001953126,50.852361362304684L14.681427001953125,50.38830136230469L14.982207001953125,49.95002136230469L15.308767001953125,49.53752136230469L15.669707001953125,49.15080136230469L16.047837001953127,48.789861362304684L16.468927001953126,48.46330136230469L16.907207001953125,48.16252136230469L17.362677001953124,47.904709362304686L17.852517001953125,47.68127336230469L18.350957001953127,47.48361836230469L18.875177001953126,47.33752336230469L19.407987001953124,47.22580576230469L19.957987001953125,47.15705156230469L20.525177001953125,47.13127136230469L21.100957001953127,47.15705156230469L21.650957001953124,47.22580576230469L22.183767001953125,47.33752336230469L22.699397001953123,47.48361836230469L23.206427001953124,47.68127336230469L23.687677001953126,47.904709362304686L24.151777001953125,48.16252136230469L24.589977001953123,48.46330136230469L25.002477001953125,48.789861362304684L25.389277001953126,49.15080136230469L25.750177001953126,49.53752136230469L26.076777001953126,49.95002136230469L26.368977001953127,50.38830136230469L26.635377001953124,50.852361362304684L26.858777001953126,51.33362136230469L27.056477001953127,51.84064136230469L27.202477001953127,52.35627136230469L27.314277001953123,52.88908136230469L27.374377001953125,53.43909136230469L27.400177001953125,54.00627136230469Z" fill-rule="evenodd" fill="#242424" fill-opacity="1"/></g><g><path d="M39.594512939453125,70.43749577636719L39.56871293945312,71.18519577636718L39.50861293945313,71.90709577636719L39.41401293945313,72.62039577636719L39.28511293945313,73.31649577636719L39.113312939453124,74.00399577636719L38.907012939453125,74.68289577636719L38.666412939453124,75.33599577636718L38.40001293945312,75.98049577636719L38.099212939453125,76.59929577636719L37.764012939453124,77.20079577636719L37.300012939453126,77.9398957763672L36.801512939453126,78.6273957763672L36.25151293945312,79.28909577636719L35.66721293945312,79.91649577636719L35.03981293945313,80.50079577636718L34.378112939453125,81.05079577636718L33.682012939453124,81.54929577636719L32.951512939453124,82.01329577636719L32.35001293945312,82.34849577636719L31.722612939453125,82.64929577636718L31.086712939453125,82.91569577636719L30.425012939453126,83.15629577636719L29.746112939453123,83.36259577636719L29.067212939453125,83.53439577636719L28.371112939453127,83.66329577636719L27.657812939453123,83.76649577636718L26.927312939453124,83.82659577636718L26.188212939453123,83.84379577636719L25.440612939453125,83.82659577636718L24.718712939453127,83.76649577636718L24.005412939453123,83.66329577636719L23.309312939453125,83.53439577636719L22.621852939453127,83.36259577636719L21.942952939453125,83.15629577636719L21.289822939453124,82.91569577636719L20.645292939453125,82.64929577636718L20.026542939453126,82.34849577636719L19.416382939453126,82.01329577636719L18.685922939453125,81.54929577636719L17.989822939453127,81.05079577636718L17.336702939453126,80.50079577636718L16.709352939453126,79.91649577636719L16.116382939453125,79.28909577636719L15.574982939453125,78.6273957763672L15.067952939453125,77.9398957763672L14.612482939453125,77.20079577636719L14.277322939453125,76.59929577636719L13.976542939453125,75.98049577636719L13.701543939453124,75.33599577636718L13.469512939453125,74.68289577636719L13.254668939453126,74.00399577636719L13.091386939453125,73.31649577636719L12.953887939453125,72.62039577636719L12.859356139453125,71.90709577636719L12.799200139453125,71.18519577636718L12.782012939453125,70.43749577636719L12.799200139453125,69.6898957763672L12.859356139453125,68.96799577636719L12.953887939453125,68.25469577636719L13.091386939453125,67.55859577636718L13.254668939453126,66.87113577636718L13.469512939453125,66.19223577636718L13.701543939453124,65.5391057763672L13.976542939453125,64.89457577636719L14.277322939453125,64.27582577636718L14.612482939453125,63.674265776367186L15.067952939453125,62.935205776367184L15.574982939453125,62.247705776367184L16.116382939453125,61.58598577636719L16.709352939453126,60.958645776367185L17.336702939453126,60.37426577636719L17.989822939453127,59.824265776367184L18.685922939453125,59.32582577636719L19.416382939453126,58.861765776367186L20.026542939453126,58.52660577636719L20.645292939453125,58.22582577636719L21.289822939453124,57.959419776367184L21.942952939453125,57.71879577636719L22.621852939453127,57.51254377636719L23.309312939453125,57.34066877636719L24.005412939453123,57.21176277636719L24.718712939453127,57.10864157636719L25.440612939453125,57.04848427636719L26.188212939453123,57.03129577636719L26.927312939453124,57.04848427636719L27.657812939453123,57.10864157636719L28.371112939453127,57.21176277636719L29.067212939453125,57.34066877636719L29.746112939453123,57.51254377636719L30.425012939453126,57.71879577636719L31.086712939453125,57.959419776367184L31.722612939453125,58.22582577636719L32.35001293945312,58.52660577636719L32.951512939453124,58.861765776367186L33.682012939453124,59.32582577636719L34.378112939453125,59.824265776367184L35.03981293945313,60.37426577636719L35.66721293945312,60.958645776367185L36.25151293945312,61.58598577636719L36.801512939453126,62.247705776367184L37.300012939453126,62.935205776367184L37.764012939453124,63.674265776367186L38.099212939453125,64.27582577636718L38.40001293945312,64.89457577636719L38.666412939453124,65.5391057763672L38.907012939453125,66.19223577636718L39.113312939453124,66.87113577636718L39.28511293945313,67.55859577636718L39.41401293945313,68.25469577636719L39.50861293945313,68.96799577636719L39.56871293945312,69.6898957763672L39.594512939453125,70.43749577636719Z" fill-rule="evenodd" fill="#242424" fill-opacity="1"/></g></g><g><g><path d="M62.58282470703125,54.00627136230469L62.60861010703125,54.58205136230469L62.66876220703125,55.132051362304686L62.78048470703125,55.66486136230469L62.93517170703125,56.180491362304686L63.12423470703125,56.687521362304686L63.34767070703125,57.16877136230469L63.61407470703125,57.632871362304684L63.90626470703125,58.071071362304686L64.23282470703126,58.48357136230469L64.59376470703126,58.87037136230469L64.98048470703125,59.23127136230469L65.39298470703125,59.55787136230469L65.83126470703125,59.85857136230469L66.29532470703126,60.11647136230469L66.77657470703124,60.33987136230469L67.28360470703124,60.537471362304686L67.79923470703125,60.68357136230469L68.33204470703124,60.795371362304685L68.88204470703126,60.864071362304685L69.45782470703125,60.88127136230469L70.02501470703125,60.864071362304685L70.57501470703124,60.795371362304685L71.10782470703126,60.68357136230469L71.63204470703126,60.537471362304686L72.13907470703126,60.33987136230469L72.62032470703124,60.11647136230469L73.07582470703124,59.85857136230469L73.51412470703124,59.55787136230469L73.93512470703125,59.23127136230469L74.31332470703126,58.87037136230469L74.67422470703124,58.48357136230469L75.00082470703126,58.071071362304686L75.30162470703125,57.632871362304684L75.55942470703125,57.16877136230469L75.79142470703125,56.687521362304686L75.98052470703125,56.180491362304686L76.12662470703125,55.66486136230469L76.23832470703125,55.132051362304686L76.30702470703125,54.58205136230469L76.33282470703125,54.00627136230469L76.30702470703125,53.43909136230469L76.23832470703125,52.88908136230469L76.12662470703125,52.35627136230469L75.98052470703125,51.84064136230469L75.79142470703125,51.33362136230469L75.55942470703125,50.852361362304684L75.30162470703125,50.38830136230469L75.00082470703126,49.95002136230469L74.67422470703124,49.53752136230469L74.31332470703126,49.15080136230469L73.93512470703125,48.789861362304684L73.51412470703124,48.46330136230469L73.07582470703124,48.16252136230469L72.62032470703124,47.904709362304686L72.13907470703126,47.68127336230469L71.63204470703126,47.48361836230469L71.10782470703126,47.33752336230469L70.57501470703124,47.22580576230469L70.02501470703125,47.15705156230469L69.45782470703125,47.13127136230469L68.88204470703126,47.15705156230469L68.33204470703124,47.22580576230469L67.79923470703125,47.33752336230469L67.28360470703124,47.48361836230469L66.77657470703124,47.68127336230469L66.29532470703126,47.904709362304686L65.83126470703125,48.16252136230469L65.39298470703125,48.46330136230469L64.98048470703125,48.789861362304684L64.59376470703126,49.15080136230469L64.23282470703126,49.53752136230469L63.90626470703125,49.95002136230469L63.61407470703125,50.38830136230469L63.34767070703125,50.852361362304684L63.12423470703125,51.33362136230469L62.93517170703125,51.84064136230469L62.78048470703125,52.35627136230469L62.66876220703125,52.88908136230469L62.60861010703125,53.43909136230469L62.58282470703125,54.00627136230469Z" fill-rule="evenodd" fill="#242424" fill-opacity="1"/></g><g><path d="M50.38848876953125,70.43749577636719L50.41426896953125,71.18519577636718L50.47442626953125,71.90709577636719L50.56895576953125,72.62039577636719L50.69786176953125,73.31649577636719L50.86973676953125,74.00399577636719L51.07598876953125,74.68289577636719L51.31661276953125,75.33599577636718L51.58301876953125,75.98049577636719L51.88379876953125,76.59929577636719L52.21895876953125,77.20079577636719L52.68301876953125,77.9398957763672L53.18145876953125,78.6273957763672L53.73145876953125,79.28909577636719L54.31583876953125,79.91649577636719L54.94317876953125,80.50079577636718L55.604898769531246,81.05079577636718L56.30098876953125,81.54929577636719L57.03145876953125,82.01329577636719L57.63301876953125,82.34849577636719L58.26035876953125,82.64929577636718L58.89629876953125,82.91569577636719L59.55801876953125,83.15629577636719L60.23692876953125,83.36259577636719L60.91578876953125,83.53439577636719L61.61188876953125,83.66329577636719L62.32518876953125,83.76649577636718L63.05568876953125,83.82659577636718L63.79468876953125,83.84379577636719L64.54238876953124,83.82659577636718L65.27288876953125,83.76649577636718L65.97758876953125,83.66329577636719L66.67368876953125,83.53439577636719L67.36118876953125,83.36259577636719L68.04008876953125,83.15629577636719L68.70178876953125,82.91569577636719L69.33768876953125,82.64929577636718L69.95648876953125,82.34849577636719L70.56658876953125,82.01329577636719L71.29708876953126,81.54929577636719L71.99318876953126,81.05079577636718L72.64628876953125,80.50079577636718L73.27368876953125,79.91649577636719L73.86658876953125,79.28909577636719L74.40798876953124,78.6273957763672L74.91508876953125,77.9398957763672L75.37048876953125,77.20079577636719L75.70568876953125,76.59929577636719L76.00648876953124,75.98049577636719L76.28148876953125,75.33599577636718L76.52208876953125,74.68289577636719L76.72828876953125,74.00399577636719L76.89158876953125,73.31649577636719L77.02908876953126,72.62039577636719L77.12368876953124,71.90709577636719L77.18378876953125,71.18519577636718L77.20098876953125,70.43749577636719L77.18378876953125,69.6898957763672L77.12368876953124,68.96799577636719L77.02908876953126,68.25469577636719L76.89158876953125,67.55859577636718L76.72828876953125,66.87113577636718L76.52208876953125,66.19223577636718L76.28148876953125,65.5391057763672L76.00648876953124,64.89457577636719L75.70568876953125,64.27582577636718L75.37048876953125,63.674265776367186L74.91508876953125,62.935205776367184L74.40798876953124,62.247705776367184L73.86658876953125,61.58598577636719L73.27368876953125,60.958645776367185L72.64628876953125,60.37426577636719L71.99318876953126,59.824265776367184L71.29708876953126,59.32582577636719L70.56658876953125,58.861765776367186L69.95648876953125,58.52660577636719L69.33768876953125,58.22582577636719L68.70178876953125,57.959419776367184L68.04008876953125,57.71879577636719L67.36118876953125,57.51254377636719L66.67368876953125,57.34066877636719L65.97758876953125,57.21176277636719L65.27288876953125,57.10864157636719L64.54238876953124,57.04848427636719L63.79468876953125,57.03129577636719L63.05568876953125,57.04848427636719L62.32518876953125,57.10864157636719L61.61188876953125,57.21176277636719L60.91578876953125,57.34066877636719L60.23692876953125,57.51254377636719L59.55801876953125,57.71879577636719L58.89629876953125,57.959419776367184L58.26035876953125,58.22582577636719L57.63301876953125,58.52660577636719L57.03145876953125,58.861765776367186L56.30098876953125,59.32582577636719L55.604898769531246,59.824265776367184L54.94317876953125,60.37426577636719L54.31583876953125,60.958645776367185L53.73145876953125,61.58598577636719L53.18145876953125,62.247705776367184L52.68301876953125,62.935205776367184L52.21895876953125,63.674265776367186L51.88379876953125,64.27582577636718L51.58301876953125,64.89457577636719L51.31661276953125,65.5391057763672L51.07598876953125,66.19223577636718L50.86973676953125,66.87113577636718L50.69786176953125,67.55859577636718L50.56895576953125,68.25469577636719L50.47442626953125,68.96799577636719L50.41426896953125,69.6898957763672L50.38848876953125,70.43749577636719Z" fill-rule="evenodd" fill="#242424" fill-opacity="1"/></g></g><g><path d="M28.671943017578123,42.89451474121094L28.646143017578126,43.46170474121094L28.577343017578123,44.011704741210934L28.474243017578125,44.535924741210934L28.319543017578127,45.05154474121094L28.130543017578127,45.55857474121094L27.907043017578125,46.039824741210936L27.649243017578126,46.49528474121094L27.357043017578125,46.933584741210936L27.021943017578124,47.34608474121094L26.669543017578125,47.724184741210934L26.291443017578125,48.07658474121094L25.878943017578123,48.411684741210934L25.440643017578125,48.70388474121094L24.985183017578123,48.96168474121094L24.503933017578127,49.18518474121094L23.996903017578127,49.37418474121094L23.481283017578125,49.52888474121094L22.957063017578125,49.631984741210935L22.407063017578125,49.70078474121094L21.839873017578125,49.726584741210935L21.272683017578125,49.70078474121094L20.722683017578124,49.631984741210935L20.198463017578124,49.52888474121094L19.682843017578126,49.37418474121094L19.175813017578125,49.18518474121094L18.694563017578126,48.96168474121094L18.239093017578124,48.70388474121094L17.800813017578125,48.411684741210934L17.388313017578124,48.07658474121094L17.010183017578125,47.724184741210934L16.657843017578124,47.34608474121094L16.322683017578125,46.933584741210936L16.030503017578123,46.49528474121094L15.772686017578126,46.039824741210936L15.549250017578125,45.55857474121094L15.360187017578125,45.05154474121094L15.205500017578125,44.535924741210934L15.102374817578125,44.011704741210934L15.033624517578126,43.46170474121094L15.007843017578125,42.89451474121094L15.033624517578126,42.32732474121094L15.102374817578125,41.77732474121094L15.205500017578125,41.253114741210936L15.360187017578125,40.737484741210935L15.549250017578125,40.230454741210934L15.772686017578126,39.74920474121094L16.030503017578123,39.29373474121094L16.322683017578125,38.855454741210934L16.657843017578124,38.44295474121094L17.010183017578125,38.064824741210934L17.388313017578124,37.712484741210936L17.800813017578125,37.377324741210934L18.239093017578124,37.08514474121094L18.694563017578126,36.82732774121094L19.175813017578125,36.603889741210935L19.682843017578126,36.41482874121094L20.198463017578124,36.260139741210935L20.722683017578124,36.157016541210936L21.272683017578125,36.08826494121094L21.839873017578125,36.06248474121094L22.407063017578125,36.08826494121094L22.957063017578125,36.157016541210936L23.481283017578125,36.260139741210935L23.996903017578127,36.41482874121094L24.503933017578127,36.603889741210935L24.985183017578123,36.82732774121094L25.440643017578125,37.08514474121094L25.878943017578123,37.377324741210934L26.291443017578125,37.712484741210936L26.669543017578125,38.064824741210934L27.021943017578124,38.44295474121094L27.357043017578125,38.855454741210934L27.649243017578126,39.29373474121094L27.907043017578125,39.74920474121094L28.130543017578127,40.230454741210934L28.319543017578127,40.737484741210935L28.474243017578125,41.253114741210936L28.577343017578123,41.77732474121094L28.646143017578126,42.32732474121094L28.671943017578123,42.89451474121094Z" fill-rule="evenodd" fill="#242424" fill-opacity="1"/></g><g><path d="M74.99225551757813,42.89451474121094L74.96645551757813,43.46170474121094L74.89765551757813,44.011704741210934L74.79455551757812,44.535924741210934L74.63985551757813,45.05154474121094L74.45085551757812,45.55857474121094L74.22735551757813,46.039824741210936L73.96955551757813,46.49528474121094L73.67735551757812,46.933584741210936L73.34225551757812,47.34608474121094L72.98985551757812,47.724184741210934L72.61175551757813,48.07658474121094L72.19925551757812,48.411684741210934L71.76095551757813,48.70388474121094L71.30549551757812,48.96168474121094L70.82424551757812,49.18518474121094L70.31721551757812,49.37418474121094L69.80159551757812,49.52888474121094L69.27737551757812,49.631984741210935L68.72737551757812,49.70078474121094L68.16018551757813,49.726584741210935L67.59300551757812,49.70078474121094L67.04299551757812,49.631984741210935L66.51878551757812,49.52888474121094L66.00315551757812,49.37418474121094L65.49612551757812,49.18518474121094L65.01487551757812,48.96168474121094L64.55940551757813,48.70388474121094L64.12112551757812,48.411684741210934L63.70862551757813,48.07658474121094L63.33049551757812,47.724184741210934L62.978155517578124,47.34608474121094L62.64299551757812,46.933584741210936L62.35081551757813,46.49528474121094L62.093001517578124,46.039824741210936L61.86956051757812,45.55857474121094L61.680497517578125,45.05154474121094L61.52581051757812,44.535924741210934L61.42268471757812,44.011704741210934L61.353935717578125,43.46170474121094L61.328155517578125,42.89451474121094L61.353935717578125,42.32732474121094L61.42268471757812,41.77732474121094L61.52581051757812,41.253114741210936L61.680497517578125,40.737484741210935L61.86956051757812,40.230454741210934L62.093001517578124,39.74920474121094L62.35081551757813,39.29373474121094L62.64299551757812,38.855454741210934L62.978155517578124,38.44295474121094L63.33049551757812,38.064824741210934L63.70862551757813,37.712484741210936L64.12112551757812,37.377324741210934L64.55940551757813,37.08514474121094L65.01487551757812,36.82732774121094L65.49612551757812,36.603889741210935L66.00315551757812,36.41482874121094L66.51878551757812,36.260139741210935L67.04299551757812,36.157016541210936L67.59300551757812,36.08826494121094L68.16018551757813,36.06248474121094L68.72737551757812,36.08826494121094L69.27737551757812,36.157016541210936L69.80159551757812,36.260139741210935L70.31721551757812,36.41482874121094L70.82424551757812,36.603889741210935L71.30549551757812,36.82732774121094L71.76095551757813,37.08514474121094L72.19925551757812,37.377324741210934L72.61175551757813,37.712484741210936L72.98985551757812,38.064824741210934L73.34225551757812,38.44295474121094L73.67735551757812,38.855454741210934L73.96955551757813,39.29373474121094L74.22735551757813,39.74920474121094L74.45085551757812,40.230454741210934L74.63985551757813,40.737484741210935L74.79455551757812,41.253114741210936L74.89765551757813,41.77732474121094L74.96645551757813,42.32732474121094L74.99225551757813,42.89451474121094Z" fill-rule="evenodd" fill="#242424" fill-opacity="1"/></g><g><path d="M24.667172939453124,55.12339532714844L24.942172939453126,54.96871532714844L25.174202939453124,54.78824532714844L25.380452939453125,54.581995327148434L25.552322939453127,54.349955327148436L25.698422939453124,54.10074532714844L25.810142939453126,53.82574532714844L25.896072939453127,53.533555327148434L25.947632939453126,53.22418532714844L25.947632939453126,52.588245327148435L25.818732939453124,51.900745327148435L25.569512939453126,51.22183532714844L25.174202939453124,50.525745327148435L24.847642939453124,50.096055327148434L24.486702939453124,49.70933532714844L24.099982939453124,49.36558532714844L23.678882939453125,49.05621232714844L23.249202939453127,48.80699132714844L22.810922939453125,48.60933632714844L22.132012939453126,48.41168112714844L21.478892939453125,48.33433532714844L21.143732939453123,48.35152382714844L20.834352939453126,48.39449262714844L20.533572939453126,48.48043032714844L20.241382939453125,48.60074432714844L19.974982939453124,48.755431327148436L19.742950939453124,48.93589732714844L19.536699939453126,49.142150327148435L19.364824939453126,49.37418532714844L19.218730939453124,49.63199532714844L19.107011939453123,49.898395327148435L19.021074639453126,50.19058532714844L18.969512939453125,50.49996532714844L18.969512939453125,51.135905327148436L19.098418939453126,51.823405327148436L19.347636939453125,52.502305327148434L19.742950939453124,53.198405327148436L20.069512939453126,53.63667532714844L20.430452939453126,54.023395327148435L20.817172939453126,54.367145327148435L21.238262939453126,54.66792532714844L21.667952939453127,54.917155327148436L22.106232939453125,55.11480532714844L22.785132939453124,55.31246532714844L23.438262939453125,55.38980532714844L23.773422939453127,55.37261532714844L24.082792939453125,55.32965532714844L24.383572939453124,55.243715327148436L24.667172939453124,55.12339532714844Z" fill-rule="evenodd" fill="#FBB4B4" fill-opacity="1"/></g><g><path d="M65.27264293945312,55.12339532714844L65.00623293945313,54.96871532714844L64.77420093945312,54.78824532714844L64.56795393945312,54.581995327148434L64.39607893945312,54.349955327148436L64.24998393945313,54.10074532714844L64.13826593945312,53.82574532714844L64.05232853945313,53.533555327148434L64.00076293945312,53.22418532714844L64.00076293945312,52.588245327148435L64.12966893945313,51.900745327148435L64.37888993945313,51.22183532714844L64.77420093945312,50.525745327148435L65.10076293945312,50.096055327148434L65.46170293945312,49.70933532714844L65.84842293945313,49.36558532714844L66.26951293945312,49.05621232714844L66.69920293945313,48.80699132714844L67.13748293945312,48.60933632714844L67.81639293945312,48.41168112714844L68.46951293945312,48.33433532714844L68.80467293945313,48.35152382714844L69.11404293945313,48.39449262714844L69.41482293945313,48.48043032714844L69.70701293945312,48.60074432714844L69.97342293945313,48.755431327148436L70.20545293945312,48.93589732714844L70.41170293945312,49.142150327148435L70.58358293945312,49.37418532714844L70.72967293945312,49.63199532714844L70.84139293945313,49.898395327148435L70.92733293945312,50.19058532714844L70.97889293945312,50.49996532714844L70.97889293945312,51.135905327148436L70.84998293945313,51.823405327148436L70.60076293945312,52.502305327148434L70.20545293945312,53.198405327148436L69.87889293945312,53.63667532714844L69.51795293945312,54.023395327148435L69.13123293945313,54.367145327148435L68.71014293945312,54.66792532714844L68.28045293945313,54.917155327148436L67.84217293945312,55.11480532714844L67.16326293945312,55.31246532714844L66.51014293945312,55.38980532714844L66.17498293945313,55.37261532714844L65.86560293945313,55.32965532714844L65.56482293945312,55.243715327148436L65.27264293945312,55.12339532714844Z" fill-rule="evenodd" fill="#FBB4B4" fill-opacity="1"/></g><g><g><path d="M36.96384625,83.95321150878907Q37.11328625,83.45834950878907,37.11328625,82.94142150878906Q37.11328625,82.76947750878907,37.09642625,82.59836150878907Q37.07957625,82.42724550878906,37.04602625,82.25860550878906Q37.01248625,82.08996550878906,36.96257625,81.92542150878906Q36.91265625,81.76088150878907,36.84685625,81.60203150878907Q36.78105625,81.44317150878906,36.70000625,81.29153150878906Q36.61895625,81.13989150878906,36.52342625,80.99692150878906Q36.42789625,80.85396150878907,36.31881625,80.72104150878906Q36.20973625,80.58813150878906,36.08815625,80.46655150878907Q35.96657625,80.34496150878907,35.83365625,80.23588150878906Q35.70074625,80.12680150878906,35.55777625,80.03128150878906Q35.41480625,79.93575150878907,35.26316625,79.85470150878906Q35.11152625,79.77364150878907,34.95267625,79.70784150878906Q34.79381625,79.64204150878906,34.629276250000004,79.59213150878907Q34.46473625,79.54222150878907,34.29609625,79.50867150878906Q34.12745625,79.47513150878906,33.95634625,79.45827150878907Q33.78522625,79.44142150878906,33.61328625,79.44142150878906Q33.47347625,79.44142150878906,33.33411625,79.45257150878906Q33.19475625,79.46372150878906,33.05673625,79.48595150878906Q32.91870625,79.50818150878906,32.78289625,79.54135150878906Q32.64708625,79.57452150878906,32.51434625,79.61842150878907Q32.38161625,79.66231150878906,32.252807250000004,79.71666150878906Q32.12399725,79.77100150878906,31.99993125,79.83544150878906Q31.87586625,79.89989150878907,31.75733625,79.97402150878906Q31.638806250000002,80.04815150878906,31.52656725,80.13150150878906Q31.41432795,80.21486150878906,31.30909445,80.30689150878906Q31.20386125,80.39893150878906,31.10630425,80.49907150878906Q31.00874625,80.59921150878907,30.91948725,80.70681150878906Q30.83022825,80.81441150878906,30.74983525,80.92879150878906Q30.66944325,81.04317150878906,30.59842925,81.16359150878907Q30.52741625,81.28402150878907,30.46623425,81.40972150878906Q30.40505225,81.53543150878906,30.35408625,81.66561150878906Q30.30312625,81.79580150878907,30.26271625,81.92963150878906L30.26250625,81.93034150878906L28.02867625,89.32774150878906L28.02833625,89.32885150878906Q27.87890625,89.82371150878906,27.87890625,90.34064150878906Q27.87890625,90.51258150878907,27.895756249999998,90.68370150878906Q27.91261625,90.85481150878906,27.94615625,91.02345150878907Q27.97970625,91.19209150878906,28.02961625,91.35663150878906Q28.07952625,91.52117150878907,28.14532625,91.68003150878906Q28.21112625,91.83888150878906,28.29218625,91.99053150878906Q28.37323625,92.14217150878906,28.46876625,92.28513150878906Q28.56428625,92.42810150878907,28.67336625,92.56101150878906Q28.78244625,92.69393150878906,28.90403625,92.81551150878906Q29.02561625,92.93709150878907,29.15852625,93.04622150878906Q29.29144625,93.15522150878907,29.43440625,93.25082150878906Q29.57737625,93.34632150878906,29.72901625,93.42732150878906Q29.88065625,93.50842150878907,30.03951625,93.57422150878907Q30.19836625,93.64002150878906,30.36290625,93.68992150878907Q30.52745025,93.73982150878906,30.69609025,93.77342150878906Q30.86473025,93.80692150878906,31.03584625,93.82382150878907Q31.20696225,93.84062150878907,31.37890625,93.84062150878907Q31.51871025,93.84062150878907,31.65806925,93.82952150878906Q31.79742725,93.81832150878907,31.93545225,93.79612150878906Q32.07347825,93.77392150878906,32.20929025,93.74072150878906Q32.34510225,93.70752150878906,32.47783625,93.66362150878906Q32.61056625,93.61972150878907,32.73937625,93.56542150878906Q32.86818625,93.51102150878906,32.99225625,93.44662150878906Q33.11631625,93.38222150878906,33.23484625,93.30802150878907Q33.35337625,93.23392150878907,33.46561625,93.15052150878907Q33.577856249999996,93.06722150878906,33.68309625,92.97512150878906Q33.78832625,92.88312150878906,33.88588625,92.78299150878907Q33.98343625,92.68285150878906,34.07269625,92.57525150878907Q34.16195625,92.46764150878906,34.24235625,92.35327150878906Q34.32274625,92.23889150878907,34.39375625,92.11846150878907Q34.46477625,91.99804150878906,34.52595625,91.87233150878906Q34.58713625,91.74663150878906,34.63809625,91.61644150878907Q34.68905625,91.48626150878906,34.72947625,91.35242150878906L34.72980625,91.35131150878907L36.96351625,83.95431150878906L36.96384625,83.95321150878907Z" fill-rule="evenodd" fill="#000000" fill-opacity="0.106926329433918"/></g></g><g><g><path d="M59.73761875,81.93074150878907L61.97132875,89.32774150878906L61.97165875,89.32885150878906Q62.12109875,89.82371150878906,62.12109875,90.34064150878906Q62.12109875,90.51258150878907,62.10423875,90.68370150878906Q62.08738875,90.85481150878906,62.05383875,91.02345150878907Q62.02029875,91.19209150878906,61.97038875,91.35663150878906Q61.92046875,91.52117150878907,61.85466875,91.68003150878906Q61.78886875,91.83888150878906,61.70781875,91.99053150878906Q61.62676875,92.14217150878906,61.53123875,92.28513150878906Q61.43570875,92.42810150878907,61.32662875,92.56101150878906Q61.21754875,92.69393150878906,61.09596875,92.81551150878906Q60.97438875,92.93709150878907,60.84146875,93.04622150878906Q60.70855875,93.15522150878907,60.56558875,93.25082150878906Q60.42261875,93.34632150878906,60.27097875,93.42732150878906Q60.11933875,93.50842150878907,59.96048875,93.57422150878907Q59.80162875,93.64002150878906,59.637088750000004,93.68992150878907Q59.47254875,93.73982150878906,59.30390875,93.77342150878906Q59.13526875,93.80692150878906,58.96415875,93.82382150878907Q58.79303875,93.84062150878907,58.62109875,93.84062150878907Q58.48128875,93.84062150878907,58.34192875,93.82952150878906Q58.20256875,93.81832150878907,58.06454875,93.79612150878906Q57.92651875,93.77392150878906,57.79070875,93.74072150878906Q57.65489875,93.70752150878906,57.52215875,93.66362150878906Q57.38942875,93.61972150878907,57.260619750000004,93.56542150878906Q57.13180975,93.51102150878906,57.00774375,93.44662150878906Q56.88367875,93.38222150878906,56.76514875,93.30802150878907Q56.64661875,93.23392150878907,56.53437975,93.15052150878907Q56.42214045,93.06722150878906,56.31690695,92.97512150878906Q56.21167375,92.88312150878906,56.11411675,92.78299150878907Q56.01655875,92.68285150878906,55.92729975,92.57525150878907Q55.83804075,92.46764150878906,55.75764775,92.35327150878906Q55.67725575,92.23889150878907,55.60624175,92.11846150878907Q55.53522875,91.99804150878906,55.47404675,91.87233150878906Q55.41286475,91.74663150878906,55.36189875,91.61644150878907Q55.31093875,91.48626150878906,55.27052875,91.35242150878906L55.27031875,91.35172150878907L53.036488750000004,83.95431150878906L53.03614875,83.95321150878907Q52.88671875,83.45834950878907,52.88671875,82.94142150878906Q52.88671875,82.76947750878907,52.90356875,82.59836150878907Q52.92042875,82.42724550878906,52.95396875,82.25860550878906Q52.98751875,82.08996550878906,53.037428750000004,81.92542150878906Q53.08733875,81.76088150878907,53.15313875,81.60203150878907Q53.21893875,81.44317150878906,53.29999875,81.29153150878906Q53.38104875,81.13989150878906,53.47657875,80.99692150878906Q53.57209875,80.85396150878907,53.68117875,80.72104150878906Q53.79025875,80.58813150878906,53.91184875,80.46655150878907Q54.03342875,80.34496150878907,54.16633875,80.23588150878906Q54.29925875,80.12680150878906,54.44221875,80.03128150878906Q54.58518875,79.93575150878907,54.73682875,79.85470150878906Q54.88846875,79.77364150878907,55.04732875,79.70784150878906Q55.20617875,79.64204150878906,55.37071875,79.59213150878907Q55.53526275,79.54222150878907,55.70390275,79.50867150878906Q55.87254275,79.47513150878906,56.04365875,79.45827150878907Q56.21477475,79.44142150878906,56.38671875,79.44142150878906Q56.52652275,79.44142150878906,56.66588175,79.45257150878906Q56.80523975,79.46372150878906,56.94326475,79.48595150878906Q57.08129075,79.50818150878906,57.21710275,79.54135150878906Q57.35291475,79.57452150878906,57.48564875,79.61842150878907Q57.61837875,79.66231150878906,57.74718875,79.71666150878906Q57.87599875,79.77100150878906,58.00006875,79.83544150878906Q58.12412875,79.89989150878907,58.24265875,79.97402150878906Q58.36118875,80.04815150878906,58.47342875,80.13150150878906Q58.585668749999996,80.21486150878906,58.69090875,80.30689150878906Q58.79613875,80.39893150878906,58.89369875,80.49907150878906Q58.99124875,80.59921150878907,59.08050875,80.70681150878906Q59.16976875,80.81441150878906,59.25016875,80.92879150878906Q59.33055875,81.04317150878906,59.40156875,81.16359150878907Q59.47258875,81.28402150878907,59.53376875,81.40972150878906Q59.59494875,81.53543150878906,59.64590875,81.66561150878906Q59.69686875,81.79580150878907,59.73728875,81.92963150878906L59.73761875,81.93074150878907Z" fill-rule="evenodd" fill="#000000" fill-opacity="0.106926329433918"/></g></g><g><g><g><path d="M40.9609375,62.18751525878906L49.0390575,62.18751525878906L49.0390575,73.61721525878906L40.9609375,73.61721525878906L40.9609375,62.18751525878906Z" fill-rule="evenodd" fill="#FFCACA" fill-opacity="1"/></g></g><g><path d="M51.7890375,62.61720025878906L51.7632375,62.952360258789064L51.7031375,63.27033025878906L51.5914375,63.58830025878906L51.4453375,63.89767025878906L51.2562375,64.18127025878906L51.0414375,64.46486025878906L50.7836375,64.73986025878907L50.4828375,65.00626025878907L50.0531375,65.31564025878906L49.5632375,65.60783025878906L49.0132375,65.87424025878906L48.4375375,66.09767025878907L47.8187475,66.29533025878906L47.1484375,66.45001025878906L46.4695275,66.56174025878906L45.7476575,66.63048025878906L44.9999975,66.65626025878906L44.2523475,66.63048025878906L43.5304675,66.56174025878906L42.8515575,66.45001025878906L42.1812475,66.29533025878906L41.5624975,66.09767025878907L40.9867175,65.87424025878906L40.4367175,65.60783025878906L39.9468775,65.31564025878906L39.5171875,65.00626025878907L39.2164075,64.73986025878907L38.9585945,64.46486025878906L38.7437515,64.18127025878906L38.5546875,63.89767025878906L38.4085925,63.58830025878906L38.296875,63.27033025878906L38.2367177,62.952360258789064L38.2109375,62.61720025878906L38.2367177,62.28204025878906L38.296875,61.96408025878906L38.4085925,61.646110258789065L38.5546875,61.33673025878906L38.7437515,61.053140258789064L38.9585945,60.76955025878906L39.2164075,60.49455025878906L39.5171875,60.22814025878906L39.9468775,59.918760258789064L40.4367175,59.62658025878906L40.9867175,59.360169258789064L41.5624975,59.13673425878906L42.1812475,58.939079258789064L42.8515575,58.78439225878906L43.5304675,58.67266945878906L44.2523475,58.60392045878906L44.9999975,58.57814025878906L45.7476575,58.60392045878906L46.4695275,58.67266945878906L47.1484375,58.78439225878906L47.8187475,58.939079258789064L48.4375375,59.13673425878906L49.0132375,59.360169258789064L49.5632375,59.62658025878906L50.0531375,59.918760258789064L50.4828375,60.22814025878906L50.7836375,60.49455025878906L51.0414375,60.76955025878906L51.2562375,61.053140258789064L51.4453375,61.33673025878906L51.5914375,61.646110258789065L51.7031375,61.96408025878906L51.7632375,62.28204025878906L51.7890375,62.61720025878906Z" fill-rule="evenodd" fill="#EC8484" fill-opacity="0.2149062305688858"/></g></g><g><path d="M66.91406801757813,46.03119724121093L66.88826801757813,46.950797241210935L66.81956801757812,47.85309724121094L66.69926801757813,48.73829724121094L66.54456801757811,49.606197241210936L66.33826801757812,50.465597241210936L66.08906801757813,51.316397241210936L65.79686801757813,52.14139724121094L65.47036801757812,52.95779724121094L65.10076801757813,53.75699724121094L64.68826801757812,54.53049724121094L64.24146801757813,55.29529724121094L63.760168017578124,56.03439724121094L63.244568017578125,56.74759724121094L62.685968017578126,57.44369724121094L62.101568017578124,58.12259724121094L61.48286801757813,58.77579724121094L60.83826801757812,59.394497241210935L60.159368017578124,59.99609724121094L59.446168017578124,60.57189724121094L58.70706801757812,61.12189724121094L57.942168017578126,61.63749724121094L57.16016801757812,62.11869724121094L56.34376801757813,62.57419724121094L55.510168017578124,63.003897241210936L54.633668017578124,63.399197241210935L53.75706801757812,63.760097241210936L52.86326801757812,64.08669724121094L51.93516801757812,64.37889724121094L50.989868017578125,64.63669724121094L50.02736801757813,64.86009724121094L49.05626801757813,65.04059724121095L48.067968017578124,65.17809724121093L47.06256801757813,65.28119724121095L46.03986801757813,65.34139724121093L45.00006801757813,65.36719724121093L43.96016801757813,65.34139724121093L42.93756801757813,65.28119724121095L41.932068017578125,65.17809724121093L40.94376801757812,65.04059724121095L39.97266801757813,64.86009724121094L39.010168017578124,64.63669724121094L38.06486801757812,64.37889724121094L37.13676801757813,64.08669724121094L36.24296801757812,63.760097241210936L35.36646801757813,63.399197241210935L34.489868017578125,63.003897241210936L33.65626801757813,62.57419724121094L32.83987801757812,62.11869724121094L32.05783801757812,61.63749724121094L31.292998017578125,61.12189724121094L30.553938017578126,60.57189724121094L29.840658017578125,59.99609724121094L29.161748017578127,59.394497241210935L28.517218017578124,58.77579724121094L27.898468017578125,58.12259724121094L27.314098017578125,57.44369724121094L26.755498017578127,56.74759724121094L26.239878017578125,56.03439724121094L25.758628017578125,55.29529724121094L25.311748017578125,54.53049724121094L24.899248017578124,53.75699724121094L24.529718017578126,52.95779724121094L24.203158017578126,52.14139724121094L23.910969017578125,51.316397241210936L23.661750017578125,50.465597241210936L23.455498017578126,49.606197241210936L23.300812017578124,48.73829724121094L23.180499817578124,47.85309724121094L23.111748217578125,46.950797241210935L23.085968017578125,46.03119724121093L23.111748217578125,45.11169724121093L23.180499817578124,44.20939724121094L23.300812017578124,43.32419724121094L23.455498017578126,42.45619724121094L23.661750017578125,41.59689724121094L23.910969017578125,40.74609724121094L24.203158017578126,39.92109724121094L24.529718017578126,39.104697241210935L24.899248017578124,38.30549724121094L25.311748017578125,37.53199724121094L25.758628017578125,36.76719724121094L26.239878017578125,36.02810724121094L26.755498017578127,35.314827241210935L27.314098017578125,34.61873724121094L27.898468017578125,33.939827241210935L28.517218017578124,33.286707241210934L29.161748017578127,32.667957241210935L29.840658017578125,32.06638724121094L30.553938017578126,31.490607241210938L31.292998017578125,30.940607241210937L32.05783801757812,30.42498724121094L32.83987801757812,29.943737241210936L33.65626801757813,29.488267241210938L34.489868017578125,29.058577241210937L35.36646801757813,28.66326724121094L36.24296801757812,28.30232724121094L37.13676801757813,27.97576724121094L38.06486801757812,27.683578241210938L39.010168017578124,27.425766241210937L39.97266801757813,27.20232824121094L40.94376801757812,27.02185824121094L41.932068017578125,26.884361241210936L42.93756801757813,26.781234741210938L43.96016801757813,26.721077441210937L45.00006801757813,26.695297241210938L46.03986801757813,26.721077441210937L47.06256801757813,26.781234741210938L48.067968017578124,26.884361241210936L49.05626801757813,27.02185824121094L50.02736801757813,27.20232824121094L50.989868017578125,27.425766241210937L51.93516801757812,27.683578241210938L52.86326801757812,27.97576724121094L53.75706801757812,28.30232724121094L54.633668017578124,28.66326724121094L55.510168017578124,29.058577241210937L56.34376801757813,29.488267241210938L57.16016801757812,29.943737241210936L57.942168017578126,30.42498724121094L58.70706801757812,30.940607241210937L59.446168017578124,31.490607241210938L60.159368017578124,32.06638724121094L60.83826801757812,32.667957241210935L61.48286801757813,33.286707241210934L62.101568017578124,33.939827241210935L62.685968017578126,34.61873724121094L63.244568017578125,35.314827241210935L63.760168017578124,36.02810724121094L64.24146801757813,36.76719724121094L64.68826801757812,37.53199724121094L65.10076801757813,38.30549724121094L65.47036801757812,39.104697241210935L65.79686801757813,39.92109724121094L66.08906801757813,40.74609724121094L66.33826801757812,41.59689724121094L66.54456801757811,42.45619724121094L66.69926801757813,43.32419724121094L66.81956801757812,44.20939724121094L66.88826801757813,45.11169724121093L66.91406801757813,46.03119724121093Z" fill-rule="evenodd" fill="#FFCACA" fill-opacity="1"/></g><g><path d="M43.640655517578125,52.04685974121094Q43.640655517578125,51.99761404121094,43.65026251757813,51.94931464121094Q43.65987051757813,51.901014741210936,43.67871551757813,51.85551774121094Q43.69756151757812,51.810020741210934,43.72492051757813,51.769074741210936Q43.75228051757812,51.72812874121094,43.78710251757813,51.69330674121094Q43.821924517578125,51.658484741210934,43.86287051757812,51.63112474121094Q43.90381651757812,51.603765741210935,43.949313517578126,51.58491974121094Q43.994810517578124,51.56607474121094,44.04311041757813,51.55646674121094Q44.091409817578125,51.54685974121094,44.140655517578125,51.54685974121094Q44.189901217578125,51.54685974121094,44.23820061757812,51.55646674121094Q44.286500517578126,51.56607474121094,44.331997517578124,51.58491974121094Q44.37749451757813,51.603765741210935,44.41844051757813,51.63112474121094Q44.459386517578125,51.658484741210934,44.49420851757812,51.69330674121094Q44.52903051757813,51.72812874121094,44.55639051757812,51.769074741210936Q44.58374951757813,51.810020741210934,44.60259551757812,51.85551774121094Q44.62144051757812,51.901014741210936,44.63104851757812,51.94931464121094Q44.640655517578125,51.99761404121094,44.640655517578125,52.04685974121094L44.640655517578125,54.26202974121094L44.65216151757812,54.411599741210935L44.686773517578125,54.52532974121094L44.737481517578125,54.636889741210936L44.80443551757813,54.727749741210935L44.89726151757812,54.820579741210935L44.98812451757812,54.88752974121094L45.09968951757813,54.938239741210936L45.21341551757813,54.972849741210936L45.362985517578124,54.98435974121094L45.928155517578126,54.98435974121094Q45.977395517578124,54.98435974121094,46.02569551757813,54.99396974121094Q46.073995517578126,55.00356974121094,46.11949551757812,55.02241974121094Q46.16499551757813,55.04126974121094,46.205935517578126,55.06861974121094Q46.24688551757812,55.09597974121094,46.281705517578125,55.13080974121094Q46.31652551757813,55.165629741210935,46.34388551757812,55.206569741210934Q46.371245517578124,55.24751974121094,46.390095517578125,55.29301974121094Q46.40893551757812,55.33851974121094,46.418545517578124,55.38680974121094Q46.428155517578126,55.43510974121094,46.428155517578126,55.48435974121094Q46.428155517578126,55.53360974121094,46.418545517578124,55.58189974121094Q46.40893551757812,55.63019974121094,46.390095517578125,55.675699741210934Q46.371245517578124,55.72119974121094,46.34388551757812,55.76213974121094Q46.31652551757813,55.80308974121094,46.281705517578125,55.837909741210936Q46.24688551757812,55.872739741210935,46.205935517578126,55.900089741210934Q46.16499551757813,55.927449741210935,46.11949551757812,55.946299741210936Q46.073995517578126,55.96513974121094,46.02569551757813,55.974749741210935Q45.977395517578124,55.98435974121094,45.928155517578126,55.98435974121094L45.324575517578126,55.98435974121094L45.027270517578124,55.96148974121094L44.745685517578124,55.87578974121094L44.479123517578124,55.75461974121094L44.24342351757812,55.58095974121094L44.04406091757812,55.38158974121094L43.87039051757812,55.14588974121094L43.74922351757812,54.87932974121094L43.66352651757813,54.59773974121094L43.640655517578125,54.30043974121094L43.640655517578125,52.04685974121094Z" fill-rule="evenodd" fill="#FF9494" fill-opacity="1"/></g><g><path d="M38.29690051757812,49.72654474121094L38.27113051757812,50.02732474121094L38.193780517578126,50.29373474121094L38.07347051757812,50.55154474121094L37.91019051757812,50.783574741210934L37.72112051757812,50.972644741210935L37.48909051757813,51.135924741210935L37.23128051757813,51.25623474121094L36.96487051757813,51.333584741210935L36.664090517578124,51.359354741210936L36.36331051757813,51.333584741210935L36.09690051757813,51.25623474121094L35.83909251757812,51.135924741210935L35.60706251757812,50.972644741210935L35.417999517578124,50.783574741210934L35.25471851757813,50.55154474121094L35.13440651757813,50.29373474121094L35.057060717578125,50.02732474121094L35.031280517578125,49.72654474121094L35.057060717578125,49.42576474121094L35.13440651757813,49.159364741210936L35.25471851757813,48.901549741210935L35.417999517578124,48.669516741210934L35.60706251757812,48.48045374121094L35.83909251757812,48.31716974121094L36.09690051757813,48.19686074121094L36.36331051757813,48.11951494121094L36.664090517578124,48.09373474121094L36.96487051757813,48.11951494121094L37.23128051757813,48.19686074121094L37.48909051757813,48.31716974121094L37.72112051757812,48.48045374121094L37.91019051757812,48.669516741210934L38.07347051757812,48.901549741210935L38.193780517578126,49.159364741210936L38.27113051757812,49.42576474121094L38.29690051757812,49.72654474121094Z" fill-rule="evenodd" fill="#242424" fill-opacity="1"/></g><g><path d="M54.96877551757812,49.72654474121094L54.94300551757812,50.02732474121094L54.865655517578126,50.29373474121094L54.74534551757812,50.55154474121094L54.58206551757812,50.783574741210934L54.39299551757812,50.972644741210935L54.16096551757813,51.135924741210935L53.90315551757813,51.25623474121094L53.63674551757813,51.333584741210935L53.335965517578124,51.359354741210936L53.03518551757813,51.333584741210935L52.76877551757813,51.25623474121094L52.51096751757812,51.135924741210935L52.27893751757812,50.972644741210935L52.089874517578124,50.783574741210934L51.92659351757813,50.55154474121094L51.80628151757813,50.29373474121094L51.728935717578125,50.02732474121094L51.703155517578125,49.72654474121094L51.728935717578125,49.42576474121094L51.80628151757813,49.159364741210936L51.92659351757813,48.901549741210935L52.089874517578124,48.669516741210934L52.27893751757812,48.48045374121094L52.51096751757812,48.31716974121094L52.76877551757813,48.19686074121094L53.03518551757813,48.11951494121094L53.335965517578124,48.09373474121094L53.63674551757813,48.11951494121094L53.90315551757813,48.19686074121094L54.16096551757813,48.31716974121094L54.39299551757812,48.48045374121094L54.58206551757812,48.669516741210934L54.74534551757812,48.901549741210935L54.865655517578126,49.159364741210936L54.94300551757812,49.42576474121094L54.96877551757812,49.72654474121094Z" fill-rule="evenodd" fill="#242424" fill-opacity="1"/></g><g><path d="M41.682484017578126,58.554552491210934L42.716658017578126,58.976491491210936L43.13193801757812,59.10537749121094L43.573228017578124,59.200988491210936L44.015698017578124,59.26735649121094L44.465598017578124,59.29685949121094L44.923768017578126,59.29685949121094L45.35694801757813,59.26797949121094L45.800128017578125,59.19411549121094L46.249378017578124,59.09677949121094L46.666508017578124,58.967325491210936L47.087538017578126,58.79743849121094L47.539008017578126,58.579759491210936L47.53916801757813,58.579686491210936Q47.74497801757813,58.48045349121094,47.97346801757813,58.48045349121094Q48.071958017578126,58.48045349121094,48.16855801757812,58.49966849121094Q48.26515801757812,58.518883491210936,48.35614801757812,58.55657449121094Q48.447138017578126,58.59426549121094,48.529038017578124,58.648983491210934Q48.610928017578125,58.70370249121094,48.680568017578125,58.77334649121094Q48.75021801757813,58.84299049121094,48.804938017578124,58.924883491210934Q48.85965801757813,59.00677549121094,48.897348017578125,59.09777049121094Q48.93503801757812,59.18876449121094,48.954248017578124,59.28536349121094Q48.97346801757813,59.38196209121094,48.97346801757813,59.48045349121094Q48.97346801757813,59.62157049121094,48.934418017578125,59.75717749121094Q48.89536801757812,59.892783491210935,48.820318017578124,60.01228849121094Q48.74526801757813,60.131793491210935,48.640078017578126,60.22586349121094Q48.534888017578126,60.31993349121094,48.40776801757812,60.38122049121094L48.40761801757812,60.38129349121094L47.896898017578124,60.62753349121094L47.33823801757813,60.85295349121094L46.75849801757813,61.032873491210935L46.176498017578126,61.158973491210936L45.588428017578124,61.25698349121094L44.990358017578124,61.296863491210935L44.40008801757813,61.296863491210935L43.80154801757813,61.25761349121094L43.21276801757813,61.16929349121094L42.62280801757812,61.04147349121094L42.04122001757813,60.860973491210935L40.926952017578124,60.40635449121094Q40.858344017578126,60.378362491210936,40.79461101757813,60.34056449121094Q40.73087801757813,60.30276649121094,40.67341201757812,60.25598749121094Q40.615946017578125,60.20920849121094,40.566003017578126,60.154471491210934Q40.51605901757812,60.09973349121094,40.47472801757812,60.038232491210934Q40.43339801757813,59.976731491210934,40.401583017578126,59.90981049121094Q40.369768017578124,59.84288949121094,40.34816401757813,59.77200949121094Q40.326560017578124,59.70113049121094,40.31563901757813,59.62784149121094Q40.304718017578125,59.554551991210936,40.304718017578125,59.48045349121094Q40.304718017578125,59.38196209121094,40.32393301757813,59.28536349121094Q40.34314801757812,59.18876449121094,40.380839017578126,59.09777049121094Q40.41853001757813,59.00677549121094,40.47324801757812,58.924883491210934Q40.52796701757813,58.84299049121094,40.597611017578124,58.77334649121094Q40.66725501757813,58.70370249121094,40.74914801757812,58.648983491210934Q40.831040017578125,58.59426549121094,40.922035017578125,58.55657449121094Q41.01302901757813,58.518883491210936,41.109628017578125,58.49966849121094Q41.206226617578125,58.48045349121094,41.304718017578125,58.48045349121094Q41.50086801757813,58.48045349121094,41.682484017578126,58.554552491210934Z" fill-rule="evenodd" fill="#EC8484" fill-opacity="1"/></g><g><path d="M39.425800517578125,46.62654974121094L39.42615051757812,46.62663974121094Q39.53890051757813,46.65310974121094,39.65472051757813,46.65310974121094Q39.753210517578125,46.65310974121094,39.84981051757813,46.633889741210936Q39.94640051757813,46.614679741210935,40.03740051757813,46.57698974121094Q40.128390517578126,46.53929974121094,40.21029051757812,46.484579741210936Q40.292180517578124,46.42985974121094,40.361820517578124,46.36020974121094Q40.43147051757813,46.29056974121094,40.48619051757812,46.208679741210936Q40.54090051757812,46.12678474121094,40.578600517578124,46.03579074121094Q40.61629051757812,45.944796741210936,40.63550051757812,45.84819774121094Q40.65472051757813,45.75159874121094,40.65472051757813,45.65310774121094Q40.65472051757813,45.56914874121094,40.640720517578124,45.48636574121094Q40.62672051757812,45.40358274121094,40.599110517578126,45.32429274121094Q40.57150051757812,45.24500264121094,40.531060517578126,45.17142583721094Q40.49062051757812,45.097849041210935,40.43848051757813,45.032045741210936Q40.38633051757812,44.966241741210936,40.323950517578126,44.910054741210935Q40.261560517578125,44.853866741210936,40.19068051757812,44.80886774121094Q40.11980051757813,44.763868741210935,40.042410517578126,44.731318741210934Q39.965020517578125,44.69876874121094,39.88328051757813,44.67957874121094L38.86806051757812,44.44122674121094L37.98607051757813,44.28503974121094L37.25194051757813,44.20033074121094L36.62112051757813,44.17075974121094L35.99031051757812,44.20033074121094L35.248260517578125,44.285952741210934L34.391482517578126,44.45178074121094L33.42625751757812,44.67992274121094Q33.344641517578125,44.699212741210935,33.26737951757813,44.731827741210935Q33.19011751757812,44.764442741210935,33.11936651757812,44.80947074121094Q33.04861551757813,44.85449874121094,32.986352517578126,44.91068174121094Q32.924089517578125,44.96686474121094,32.872053517578124,45.03263374121094Q32.82001851757813,45.09840194121094,32.77966351757812,45.17191870341094Q32.73930951757813,45.24543544121094,32.71176251757812,45.32464674121094Q32.68421651757812,45.403857741210935,32.67024851757812,45.48655074121094Q32.656280517578125,45.56924374121094,32.656280517578125,45.65310774121094Q32.656280517578125,45.75159874121094,32.67549551757813,45.84819774121094Q32.69471051757812,45.944796741210936,32.732401517578126,46.03579074121094Q32.77009251757813,46.12678474121094,32.82481051757812,46.208679741210936Q32.87952951757813,46.29056974121094,32.949173517578124,46.36020974121094Q33.01881751757813,46.42985974121094,33.10071051757812,46.484579741210936Q33.182602517578125,46.53929974121094,33.273597517578125,46.57698974121094Q33.36459151757813,46.614679741210935,33.461190517578125,46.633889741210936Q33.557789117578125,46.65310974121094,33.656280517578125,46.65310974121094Q33.77285551757812,46.65310974121094,33.88630351757813,46.62628974121094L34.81171051757813,46.40755974121094L35.55336051757813,46.26401974121094L36.151940517578126,46.19494974121094L36.62112051757813,46.17295974121094L37.090310517578125,46.19494974121094L37.696800517578126,46.264929741210935L38.464820517578126,46.40093974121094L39.425800517578125,46.62654974121094Z" fill-rule="evenodd" fill="#242424" fill-opacity="1"/></g><g><g><path d="M50.099855,44.67954025878906L50.099561,44.679609258789064Q50.017825,44.698799258789066,49.940433,44.73134925878906Q49.863041,44.76389925878906,49.79216,44.808898258789064Q49.721279,44.85389725878906,49.658893,44.91008425878906Q49.596507,44.96627225878906,49.544364,45.03207625878906Q49.49222,45.09787945878906,49.451779,45.171456297789064Q49.411337,45.24503305878906,49.383731,45.324323258789065Q49.356124,45.403613258789065,49.342124,45.486396258789064Q49.328125,45.56917925878906,49.328125,45.65313825878906Q49.328125,45.751629258789066,49.34734,45.848228258789064Q49.366555,45.94482725878906,49.404246,46.03582125878906Q49.441937,46.126815258789065,49.496655,46.20871025878906Q49.551374,46.29060025878906,49.621018,46.36024025878906Q49.690662,46.429890258789065,49.772555,46.48461025878906Q49.854447,46.539330258789064,49.945442,46.57702025878906Q50.036436,46.61471025878906,50.133035,46.63392025878906Q50.2296336,46.653140258789065,50.328125,46.653140258789065Q50.44394,46.653140258789065,50.556689,46.62667025878906L50.556866,46.62663025878906L51.518905,46.40076025878906L52.277635000000004,46.26499025878906L52.891815,46.19501025878906L53.361715,46.17299025878906L53.830165,46.19495025878906L54.420165,46.26391025878906L55.163535,46.40779025878906L56.098015000000004,46.62667025878906L56.098505,46.626790258789065Q56.211005,46.653140258789065,56.326565,46.653140258789065Q56.425055,46.653140258789065,56.521655,46.63392025878906Q56.618245,46.61471025878906,56.709245,46.57702025878906Q56.800235,46.539330258789064,56.882135,46.48461025878906Q56.964025,46.429890258789065,57.033665,46.36024025878906Q57.103315,46.29060025878906,57.158035,46.20871025878906Q57.212745,46.126815258789065,57.250445,46.03582125878906Q57.288135,45.94482725878906,57.307345,45.848228258789064Q57.326565,45.751629258789066,57.326565,45.65313825878906Q57.326565,45.569147258789066,57.312555,45.48633225878906Q57.298545,45.40351825878906,57.270915,45.32420125878906Q57.243285,45.244883758789065,57.202815,45.17128625178906Q57.162345,45.09768875878906,57.110165,45.03187325878906Q57.057985,44.966057258789064,56.995555,44.90986825878906Q56.933125000000004,44.853679258789064,56.862195,44.80869025878906Q56.791275,44.76370125878906,56.713835,44.73117325878906Q56.636395,44.69864625878906,56.554625,44.679491258789064L56.554455,44.679451258789065L55.581775,44.451619258789066L54.726715,44.28612325878906L53.993275,44.200395258789065L53.361715,44.17079025878906L52.731625,44.20032725878906L51.987995,44.285046258789066L51.113904,44.441463258789064L50.099855,44.67954025878906Z" fill-rule="evenodd" fill="#242424" fill-opacity="1"/></g></g><g><g><g><path d="M45.0000125,68.11720275878906L45.9625125,68.14298295878906L46.9078125,68.22032875878907L47.8359125,68.34063775878906L48.755512499999995,68.50392175878906L49.6578125,68.71876475878906L50.551612500000005,68.97657775878906L51.4367125,69.27736275878907L52.3047125,69.62111275878907L53.1555125,70.00782275878906L53.9976125,70.43751275878907L54.8140125,70.91017275878906L55.6133125,71.40861275878906L56.4039125,71.95861275878906L57.1687125,72.54298275878907L57.9250125,73.16173275878906L58.6469125,73.81486275878906L59.3516125,74.50236275878906L60.0390125,75.22423275878906L60.7008125,75.98048275878907L61.3453125,76.77970275878906L61.9555125,77.58751275878906L62.5484125,78.42970275878906L63.1070125,79.30630275878906L63.6484125,80.20860275878906L64.1726125,81.15390275878906L64.65391249999999,82.09920275878906L65.1008125,83.07890275878907L65.5305125,84.07580275878907L65.9258125,85.11560275878907L66.3039125,86.17270275878906L66.63051250000001,87.23830275878906L66.9312125,88.32110275878907L67.20621249999999,89.42970275878906L67.4383125,90.56410275878906L67.64451249999999,91.72420275878906L67.8164125,92.87580275878906L67.9453125,94.04450275878906L68.0398125,95.23910275878906L68.10001249999999,96.45080275878907L68.1172125,97.67970275878906L68.10001249999999,98.90860275878906L68.0398125,100.12030275878907L67.9453125,101.31490275878906L67.8164125,102.48360275878906L67.64451249999999,103.63520275878906L67.4383125,104.79530275878906L67.20621249999999,105.92970275878906L66.9312125,107.03830275878906L66.63051250000001,108.12110275878906L66.3039125,109.18670275878907L65.9258125,110.24380275878906L65.5305125,111.28360275878907L65.1008125,112.28050275878905L64.65391249999999,113.26020275878906L64.1726125,114.20550275878907L63.6484125,115.15080275878907L63.1070125,116.05310275878907L62.5484125,116.92970275878906L61.9555125,117.77190275878905L61.3453125,118.57970275878907L60.7008125,119.37890275878905L60.0390125,120.13520275878906L59.3516125,120.85700275878906L58.6469125,121.54450275878906L57.9250125,122.19770275878906L57.1687125,122.81640275878905L56.4039125,123.40080275878907L55.6133125,123.95080275878905L54.8140125,124.44920275878906L53.9976125,124.92190275878906L53.1555125,125.35160275878906L52.3047125,125.73830275878906L51.4367125,126.08200275878906L50.551612500000005,126.38280275878907L49.6578125,126.64060275878907L48.755512499999995,126.85550275878907L47.8359125,127.01880275878906L46.9078125,127.13910275878906L45.9625125,127.21640275878906L45.0000125,127.24220275878906L44.0375125,127.21640275878906L43.0922125,127.13910275878906L42.1640125,127.01880275878906L41.2445125,126.85550275878907L40.3422125,126.64060275878907L39.4484125,126.38280275878907L38.563312499999995,126.08200275878906L37.6953125,125.73830275878906L36.8445125,125.35160275878906L36.0023125,124.92190275878906L35.1859125,124.44920275878906L34.3867125,123.95080275878905L33.596112500000004,123.40080275878907L32.8312125,122.81640275878905L32.0750125,122.19770275878906L31.353122499999998,121.54450275878906L30.6484325,120.85700275878906L29.9609325,120.13520275878906L29.2992225,119.37890275878905L28.6546825,118.57970275878907L28.0445325,117.77190275878905L27.4515625,116.92970275878906L26.8929725,116.05310275878907L26.3515625,115.15080275878907L25.8273425,114.20550275878907L25.3460925,113.26020275878906L24.8992225,112.28050275878905L24.4695325,111.28360275878907L24.0742225,110.24380275878906L23.6960925,109.18670275878907L23.3695325,108.12110275878906L23.0687525,107.03830275878906L22.7937505,105.92970275878906L22.5617185,104.79530275878906L22.3554685,103.63520275878906L22.1835935,102.48360275878906L22.0546875,101.31490275878906L21.9601557,100.12030275878907L21.8999997,98.90860275878906L21.8828125,97.67970275878906L21.8999997,96.45080275878907L21.9601557,95.23910275878906L22.0546875,94.04450275878906L22.1835935,92.87580275878906L22.3554685,91.72420275878906L22.5617185,90.56410275878906L22.7937505,89.42970275878906L23.0687525,88.32110275878907L23.3695325,87.23830275878906L23.6960925,86.17270275878906L24.0742225,85.11560275878907L24.4695325,84.07580275878907L24.8992225,83.07890275878907L25.3460925,82.09920275878906L25.8273425,81.15390275878906L26.3515625,80.20860275878906L26.8929725,79.30630275878906L27.4515625,78.42970275878906L28.0445325,77.58751275878906L28.6546825,76.77970275878906L29.2992225,75.98048275878907L29.9609325,75.22423275878906L30.6484325,74.50236275878906L31.353122499999998,73.81486275878906L32.0750125,73.16173275878906L32.8312125,72.54298275878907L33.596112500000004,71.95861275878906L34.3867125,71.40861275878906L35.1859125,70.91017275878906L36.0023125,70.43751275878907L36.8445125,70.00782275878906L37.6953125,69.62111275878907L38.563312499999995,69.27736275878907L39.4484125,68.97657775878906L40.3422125,68.71876475878906L41.2445125,68.50392175878906L42.1640125,68.34063775878906L43.0922125,68.22032875878907L44.0375125,68.14298295878906L45.0000125,68.11720275878906Z" fill-rule="evenodd" fill="#00C78B" fill-opacity="1"/></g></g><g><g><path d="M51.1875,68.28907775878906L51.161699999999996,68.48673775878906L51.0758,68.68438775878906L50.9297,68.88204775878906L50.6977,69.08829775878907L50.1648,69.42345775878906L49.3742,69.75001775878906L48.80703,69.91329775878906L48.153909999999996,70.06798775878906L47.40625,70.18829775878906L46.658590000000004,70.27422775878907L45.85938,70.33438775878906L45,70.35157775878906L44.14062,70.33438775878906L43.341409999999996,70.27422775878907L42.59375,70.18829775878906L41.84609,70.06798775878906L41.19297,69.91329775878906L40.62578,69.75001775878906L39.83516,69.42345775878906L39.302345,69.08829775878907L39.070312,68.88204775878906L38.924218,68.68438775878906L38.8382802,68.48673775878906L38.8125,68.28907775878906L38.8382802,68.09141775878906L38.924218,67.89376775878907L39.070312,67.69610775878907L39.302345,67.48985775878906L39.83516,67.15470175878906L40.62578,66.82813975878906L41.19297,66.66485675878906L41.84609,66.51017075878906L42.59375,66.38986075878907L43.341409999999996,66.30392355878907L44.14062,66.24376625878907L45,66.22657775878906L45.85938,66.24376625878907L46.658590000000004,66.30392355878907L47.40625,66.38986075878907L48.153909999999996,66.51017075878906L48.80703,66.66485675878906L49.3742,66.82813975878906L50.1648,67.15470175878906L50.6977,67.48985775878906L50.9297,67.69610775878907L51.0758,67.89376775878907L51.161699999999996,68.09141775878906L51.1875,68.28907775878906Z" fill-rule="evenodd" fill="#FFCACA" fill-opacity="1"/></g></g><g><g><path d="M49.8125,68.72731018066406L45,70.35153018066406L49.63203,75.14684018066406L52.88906,69.15699818066406L51.36797,68.99371918066406L49.8125,68.72731018066406Z" fill-rule="evenodd" fill="#FFFFFF" fill-opacity="1"/></g></g><g><path d="M40.17031,68.72731018066406L44.98281,70.35153018066406L40.35078,75.14684018066406L37.09375,69.15699818066406L38.61484,68.99371918066406L40.17031,68.72731018066406Z" fill-rule="evenodd" fill="#FFFFFF" fill-opacity="1"/></g></g><g><path d="M45.687530517578125,75.85154724121094L45.66175051757813,76.03201424121093L45.593000517578126,76.19529724121094L45.489870517578126,76.34138724121094L45.343780517578125,76.44451724121093L45.180497517578125,76.51326724121094L45.000030517578125,76.53904724121094L44.81956151757812,76.51326724121094L44.656280517578125,76.44451724121093L44.51018551757812,76.34138724121094L44.407062317578124,76.19529724121094L44.338310717578125,76.03201424121093L44.312530517578125,75.85154724121094L44.338310717578125,75.67108024121094L44.407062317578124,75.50779724121094L44.51018551757812,75.36170224121093L44.656280517578125,75.25857644121093L44.81956151757812,75.18982744121094L45.000030517578125,75.16404724121094L45.180497517578125,75.18982744121094L45.343780517578125,75.25857644121093L45.489870517578126,75.36170224121093L45.593000517578126,75.50779724121094L45.66175051757813,75.67108024121094L45.687530517578125,75.85154724121094Z" fill-rule="evenodd" fill="#ADFFE6" fill-opacity="1"/></g><g><path d="M45.687530517578125,81.26560974121094L45.66175051757813,81.44607674121093L45.593000517578126,81.60935974121094L45.489870517578126,81.75544974121094L45.343780517578125,81.85857974121093L45.180497517578125,81.92732974121094L45.000030517578125,81.95310974121094L44.81956151757812,81.92732974121094L44.656280517578125,81.85857974121093L44.51018551757812,81.75544974121094L44.407062317578124,81.60935974121094L44.338310717578125,81.44607674121093L44.312530517578125,81.26560974121094L44.338310717578125,81.08514274121094L44.407062317578124,80.92185974121094L44.51018551757812,80.77576474121093L44.656280517578125,80.67263894121093L44.81956151757812,80.60388994121094L45.000030517578125,80.57810974121094L45.180497517578125,80.60388994121094L45.343780517578125,80.67263894121093L45.489870517578126,80.77576474121093L45.593000517578126,80.92185974121094L45.66175051757813,81.08514274121094L45.687530517578125,81.26560974121094Z" fill-rule="evenodd" fill="#ADFFE6" fill-opacity="1"/></g><g><path d="M45.687530517578125,86.67967224121094L45.66175051757813,86.86013924121093L45.593000517578126,87.02342224121094L45.489870517578126,87.16951224121094L45.343780517578125,87.27264224121093L45.180497517578125,87.34139224121094L45.000030517578125,87.36717224121094L44.81956151757812,87.34139224121094L44.656280517578125,87.27264224121093L44.51018551757812,87.16951224121094L44.407062317578124,87.02342224121094L44.338310717578125,86.86013924121093L44.312530517578125,86.67967224121094L44.338310717578125,86.49920524121094L44.407062317578124,86.33592224121094L44.51018551757812,86.18982724121093L44.656280517578125,86.08670144121093L44.81956151757812,86.01795244121094L45.000030517578125,85.99217224121094L45.180497517578125,86.01795244121094L45.343780517578125,86.08670144121093L45.489870517578126,86.18982724121093L45.593000517578126,86.33592224121094L45.66175051757813,86.49920524121094L45.687530517578125,86.67967224121094Z" fill-rule="evenodd" fill="#ADFFE6" fill-opacity="1"/></g><g><g><path d="M36.96384625,83.95321150878907Q37.11328625,83.45834950878907,37.11328625,82.94142150878906Q37.11328625,82.76947750878907,37.09642625,82.59836150878907Q37.07957625,82.42724550878906,37.04602625,82.25860550878906Q37.01248625,82.08996550878906,36.96257625,81.92542150878906Q36.91265625,81.76088150878907,36.84685625,81.60203150878907Q36.78105625,81.44317150878906,36.70000625,81.29153150878906Q36.61895625,81.13989150878906,36.52342625,80.99692150878906Q36.42789625,80.85396150878907,36.31881625,80.72104150878906Q36.20973625,80.58813150878906,36.08815625,80.46655150878907Q35.96657625,80.34496150878907,35.83365625,80.23588150878906Q35.70074625,80.12680150878906,35.55777625,80.03128150878906Q35.41480625,79.93575150878907,35.26316625,79.85470150878906Q35.11152625,79.77364150878907,34.95267625,79.70784150878906Q34.79381625,79.64204150878906,34.629276250000004,79.59213150878907Q34.46473625,79.54222150878907,34.29609625,79.50867150878906Q34.12745625,79.47513150878906,33.95634625,79.45827150878907Q33.78522625,79.44142150878906,33.61328625,79.44142150878906Q33.47347625,79.44142150878906,33.33411625,79.45257150878906Q33.19475625,79.46372150878906,33.05673625,79.48595150878906Q32.91870625,79.50818150878906,32.78289625,79.54135150878906Q32.64708625,79.57452150878906,32.51434625,79.61842150878907Q32.38161625,79.66231150878906,32.252807250000004,79.71666150878906Q32.12399725,79.77100150878906,31.99993125,79.83544150878906Q31.87586625,79.89989150878907,31.75733625,79.97402150878906Q31.638806250000002,80.04815150878906,31.52656725,80.13150150878906Q31.41432795,80.21486150878906,31.30909445,80.30689150878906Q31.20386125,80.39893150878906,31.10630425,80.49907150878906Q31.00874625,80.59921150878907,30.91948725,80.70681150878906Q30.83022825,80.81441150878906,30.74983525,80.92879150878906Q30.66944325,81.04317150878906,30.59842925,81.16359150878907Q30.52741625,81.28402150878907,30.46623425,81.40972150878906Q30.40505225,81.53543150878906,30.35408625,81.66561150878906Q30.30312625,81.79580150878907,30.26271625,81.92963150878906L30.26250625,81.93034150878906L28.02867625,89.32774150878906L28.02833625,89.32885150878906Q27.87890625,89.82371150878906,27.87890625,90.34064150878906Q27.87890625,90.51258150878907,27.895756249999998,90.68370150878906Q27.91261625,90.85481150878906,27.94615625,91.02345150878907Q27.97970625,91.19209150878906,28.02961625,91.35663150878906Q28.07952625,91.52117150878907,28.14532625,91.68003150878906Q28.21112625,91.83888150878906,28.29218625,91.99053150878906Q28.37323625,92.14217150878906,28.46876625,92.28513150878906Q28.56428625,92.42810150878907,28.67336625,92.56101150878906Q28.78244625,92.69393150878906,28.90403625,92.81551150878906Q29.02561625,92.93709150878907,29.15852625,93.04622150878906Q29.29144625,93.15522150878907,29.43440625,93.25082150878906Q29.57737625,93.34632150878906,29.72901625,93.42732150878906Q29.88065625,93.50842150878907,30.03951625,93.57422150878907Q30.19836625,93.64002150878906,30.36290625,93.68992150878907Q30.52745025,93.73982150878906,30.69609025,93.77342150878906Q30.86473025,93.80692150878906,31.03584625,93.82382150878907Q31.20696225,93.84062150878907,31.37890625,93.84062150878907Q31.51871025,93.84062150878907,31.65806925,93.82952150878906Q31.79742725,93.81832150878907,31.93545225,93.79612150878906Q32.07347825,93.77392150878906,32.20929025,93.74072150878906Q32.34510225,93.70752150878906,32.47783625,93.66362150878906Q32.61056625,93.61972150878907,32.73937625,93.56542150878906Q32.86818625,93.51102150878906,32.99225625,93.44662150878906Q33.11631625,93.38222150878906,33.23484625,93.30802150878907Q33.35337625,93.23392150878907,33.46561625,93.15052150878907Q33.577856249999996,93.06722150878906,33.68309625,92.97512150878906Q33.78832625,92.88312150878906,33.88588625,92.78299150878907Q33.98343625,92.68285150878906,34.07269625,92.57525150878907Q34.16195625,92.46764150878906,34.24235625,92.35327150878906Q34.32274625,92.23889150878907,34.39375625,92.11846150878907Q34.46477625,91.99804150878906,34.52595625,91.87233150878906Q34.58713625,91.74663150878906,34.63809625,91.61644150878907Q34.68905625,91.48626150878906,34.72947625,91.35242150878906L34.72980625,91.35131150878907L36.96351625,83.95431150878906L36.96384625,83.95321150878907Z" fill-rule="evenodd" fill="#000000" fill-opacity="0.106926329433918"/></g></g><g><g><path d="M59.73761875,81.93074150878907L61.97132875,89.32774150878906L61.97165875,89.32885150878906Q62.12109875,89.82371150878906,62.12109875,90.34064150878906Q62.12109875,90.51258150878907,62.10423875,90.68370150878906Q62.08738875,90.85481150878906,62.05383875,91.02345150878907Q62.02029875,91.19209150878906,61.97038875,91.35663150878906Q61.92046875,91.52117150878907,61.85466875,91.68003150878906Q61.78886875,91.83888150878906,61.70781875,91.99053150878906Q61.62676875,92.14217150878906,61.53123875,92.28513150878906Q61.43570875,92.42810150878907,61.32662875,92.56101150878906Q61.21754875,92.69393150878906,61.09596875,92.81551150878906Q60.97438875,92.93709150878907,60.84146875,93.04622150878906Q60.70855875,93.15522150878907,60.56558875,93.25082150878906Q60.42261875,93.34632150878906,60.27097875,93.42732150878906Q60.11933875,93.50842150878907,59.96048875,93.57422150878907Q59.80162875,93.64002150878906,59.637088750000004,93.68992150878907Q59.47254875,93.73982150878906,59.30390875,93.77342150878906Q59.13526875,93.80692150878906,58.96415875,93.82382150878907Q58.79303875,93.84062150878907,58.62109875,93.84062150878907Q58.48128875,93.84062150878907,58.34192875,93.82952150878906Q58.20256875,93.81832150878907,58.06454875,93.79612150878906Q57.92651875,93.77392150878906,57.79070875,93.74072150878906Q57.65489875,93.70752150878906,57.52215875,93.66362150878906Q57.38942875,93.61972150878907,57.260619750000004,93.56542150878906Q57.13180975,93.51102150878906,57.00774375,93.44662150878906Q56.88367875,93.38222150878906,56.76514875,93.30802150878907Q56.64661875,93.23392150878907,56.53437975,93.15052150878907Q56.42214045,93.06722150878906,56.31690695,92.97512150878906Q56.21167375,92.88312150878906,56.11411675,92.78299150878907Q56.01655875,92.68285150878906,55.92729975,92.57525150878907Q55.83804075,92.46764150878906,55.75764775,92.35327150878906Q55.67725575,92.23889150878907,55.60624175,92.11846150878907Q55.53522875,91.99804150878906,55.47404675,91.87233150878906Q55.41286475,91.74663150878906,55.36189875,91.61644150878907Q55.31093875,91.48626150878906,55.27052875,91.35242150878906L55.27031875,91.35172150878907L53.036488750000004,83.95431150878906L53.03614875,83.95321150878907Q52.88671875,83.45834950878907,52.88671875,82.94142150878906Q52.88671875,82.76947750878907,52.90356875,82.59836150878907Q52.92042875,82.42724550878906,52.95396875,82.25860550878906Q52.98751875,82.08996550878906,53.037428750000004,81.92542150878906Q53.08733875,81.76088150878907,53.15313875,81.60203150878907Q53.21893875,81.44317150878906,53.29999875,81.29153150878906Q53.38104875,81.13989150878906,53.47657875,80.99692150878906Q53.57209875,80.85396150878907,53.68117875,80.72104150878906Q53.79025875,80.58813150878906,53.91184875,80.46655150878907Q54.03342875,80.34496150878907,54.16633875,80.23588150878906Q54.29925875,80.12680150878906,54.44221875,80.03128150878906Q54.58518875,79.93575150878907,54.73682875,79.85470150878906Q54.88846875,79.77364150878907,55.04732875,79.70784150878906Q55.20617875,79.64204150878906,55.37071875,79.59213150878907Q55.53526275,79.54222150878907,55.70390275,79.50867150878906Q55.87254275,79.47513150878906,56.04365875,79.45827150878907Q56.21477475,79.44142150878906,56.38671875,79.44142150878906Q56.52652275,79.44142150878906,56.66588175,79.45257150878906Q56.80523975,79.46372150878906,56.94326475,79.48595150878906Q57.08129075,79.50818150878906,57.21710275,79.54135150878906Q57.35291475,79.57452150878906,57.48564875,79.61842150878907Q57.61837875,79.66231150878906,57.74718875,79.71666150878906Q57.87599875,79.77100150878906,58.00006875,79.83544150878906Q58.12412875,79.89989150878907,58.24265875,79.97402150878906Q58.36118875,80.04815150878906,58.47342875,80.13150150878906Q58.585668749999996,80.21486150878906,58.69090875,80.30689150878906Q58.79613875,80.39893150878906,58.89369875,80.49907150878906Q58.99124875,80.59921150878907,59.08050875,80.70681150878906Q59.16976875,80.81441150878906,59.25016875,80.92879150878906Q59.33055875,81.04317150878906,59.40156875,81.16359150878907Q59.47258875,81.28402150878907,59.53376875,81.40972150878906Q59.59494875,81.53543150878906,59.64590875,81.66561150878906Q59.69686875,81.79580150878907,59.73728875,81.92963150878906L59.73761875,81.93074150878907Z" fill-rule="evenodd" fill="#000000" fill-opacity="0.106926329433918"/></g></g><g><path d="M52.00397426757812,26.394514741210937L51.978174267578126,27.047644741210938L51.90077426757813,27.674984741210938L51.77187426757813,28.285144741210935L51.60007426757812,28.878134741210935L51.38517426757812,29.462534741210938L51.127374267578126,30.012534741210935L50.826574267578124,30.536734741210935L50.482874267578126,31.03513474121094L50.11327426757813,31.516434741210936L49.700774267578126,31.95463474121094L49.262574267578124,32.36713474121094L48.78127426757813,32.73673474121094L48.28287426757812,33.08043474121094L47.758574267578126,33.38123474121094L47.208674267578125,33.639034741210935L46.62427426757812,33.853934741210935L46.03128426757812,34.02573474121094L45.42112426757812,34.15463474121094L44.793784267578125,34.23203474121094L44.14065426757813,34.257834741210935L43.48753426757813,34.23203474121094L42.86018426757813,34.15463474121094L42.25003426757812,34.02573474121094L41.65706426757812,33.853934741210935L41.072684267578126,33.639034741210935L40.52268426757813,33.38123474121094L39.99846426757812,33.08043474121094L39.50003426757812,32.73673474121094L39.01878426757813,32.36713474121094L38.580494267578125,31.95463474121094L38.16799426757812,31.516434741210936L37.798464267578126,31.03513474121094L37.454714267578126,30.536734741210935L37.15393826757813,30.012534741210935L36.89612526757813,29.462534741210938L36.68128126757812,28.878134741210935L36.50940626757812,28.285144741210935L36.38050026757813,27.674984741210938L36.303154467578125,27.047644741210938L36.277374267578125,26.394514741210937L36.303154467578125,25.74139474121094L36.38050026757813,25.11404474121094L36.50940626757812,24.50389474121094L36.68128126757812,23.910924741210938L36.89612526757813,23.326544741210938L37.15393826757813,22.776544741210937L37.454714267578126,22.252324741210938L37.798464267578126,21.75389474121094L38.16799426757812,21.27264474121094L38.580494267578125,20.834364741210937L39.01878426757813,20.421854741210936L39.50003426757812,20.05232474121094L39.99846426757812,19.70857474121094L40.52268426757813,19.407796741210937L41.072684267578126,19.149984741210936L41.65706426757812,18.935140741210937L42.25003426757812,18.763265741210937L42.86018426757813,18.634359741210936L43.48753426757813,18.55701624121094L44.14065426757813,18.531234741210938L44.793784267578125,18.55701624121094L45.42112426757812,18.634359741210936L46.03128426757812,18.763265741210937L46.62427426757812,18.935140741210937L47.208674267578125,19.149984741210936L47.758574267578126,19.407796741210937L48.28287426757812,19.70857474121094L48.78127426757813,20.05232474121094L49.262574267578124,20.421854741210936L49.700774267578126,20.834364741210937L50.11327426757813,21.27264474121094L50.482874267578126,21.75389474121094L50.826574267578124,22.252324741210938L51.127374267578126,22.776544741210937L51.38517426757812,23.326544741210938L51.60007426757812,23.910924741210938L51.77187426757813,24.50389474121094L51.90077426757813,25.11404474121094L51.978174267578126,25.74139474121094L52.00397426757812,26.394514741210937Z" fill-rule="evenodd" fill="#242424" fill-opacity="1"/></g><g><path d="M23.292263095703124,48.82417849121094L26.764143095703126,47.18277849121094L29.814923095703126,45.69607849121094L32.49622309570312,44.338278491210936L34.816523095703126,43.10937849121093L36.827423095703125,42.00077849121094L38.54622309570313,41.00387849121094L39.99852309570312,40.10157849121094L41.227423095703124,39.29377849121094L42.24152309570313,38.57187849121094L43.07512309570312,37.935878491210936L43.754023095703126,37.36017849121094L44.28682309570313,36.85307849121094L44.69072309570312,36.40627849121094L45.000123095703124,36.00237849121093L47.16572309570313,37.789878491210935L49.202423095703125,39.39687849121094L51.101623095703125,40.840578491210934L52.871923095703124,42.12967849121094L54.530523095703124,43.28127849121094L56.077423095703125,44.286678491210935L57.52122309570313,45.17187849121093L58.86182309570312,45.93667849121094L60.10792309570313,46.59837849121094L61.26802309570313,47.156978491210936L62.35082309570313,47.62967849121094L63.347723095703124,48.00777849121094L64.27582309570312,48.31717849121094L65.14382309570313,48.54917849121094L65.94302309570313,48.72107849121094L66.69072309570313,48.82417849121094L70.99612309570313,35.58982849121094L53.95472309570312,26.695298491210938L48.82432309570312,25.621078491210938L44.14072309570312,25.621078491210938L23.086013095703123,30.330448491210937L18.952423095703125,38.906978491210936L23.292263095703124,48.82417849121094Z" fill-rule="evenodd" fill="#242424" fill-opacity="1"/></g><g><g><path d="M72.71461748046875,37.82413532714844L72.40521748046875,38.27103532714844L72.07011748046875,38.692135327148435L71.69201748046875,39.07023532714844L71.28811748046874,39.42263532714844L70.84121748046874,39.74913532714844L70.37711748046875,40.04133532714844L69.88731748046875,40.299135327148434L69.36311748046874,40.522635327148436L68.80451748046875,40.72883532714844L68.22011748046876,40.90073532714844L67.48101748046875,41.05543532714844L66.70761748046874,41.17573532714844L65.89121748046875,41.24453532714844L65.03181748046875,41.26163532714844L64.18961748046875,41.23593532714844L63.31311748046875,41.15853532714844L62.402117480468746,41.03823532714844L61.46541748046875,40.85773532714843L60.54591748046875,40.634335327148435L59.60921748046875,40.36793532714844L58.66381748046875,40.04993532714843L57.69271748046875,39.671835327148436L56.74741748046875,39.259335327148435L55.79351748046875,38.79523532714843L54.84821748046875,38.27963532714844L53.88573748046875,37.71243532714844L52.95760748046875,37.10233532714844L52.08104748046875,36.47493532714844L51.24744748046875,35.821835327148435L50.46541748046875,35.16013532714844L49.70057748046875,34.446835327148435L48.99588748046875,33.73353532714844L48.34276748046875,33.01163532714844L47.74119748046875,32.28123532714844L47.17400748046875,31.51633532714844L46.65838748046875,30.76013532714844L46.21150748046875,30.003835327148437L45.81619748046875,29.25623532714844L45.45526148046875,28.47413532714844L45.15447948046875,27.709335327148438L44.92245048046875,26.961675327148438L44.75057548046875,26.231205327148437L44.63885498046875,25.629645327148438L44.57870028046875,25.036675327148437L44.55291748046875,24.469495327148437L44.57010598046875,23.910895327148438L44.63026328046875,23.36948532714844L44.72479248046875,22.828085327148436L44.86229348046875,22.303865327148436L45.04276248046875,21.805425327148438L45.26619748046875,21.315585327148437L45.53260748046875,20.842925327148436L45.84197748046875,20.39605532714844L46.18572748046875,19.974955327148436L46.55525748046875,19.596835327148437L46.96776748046875,19.235895327148437L47.41463748046875,18.91792532714844L47.87869748046875,18.625745327148437L48.36854748046875,18.36792932714844L48.89275748046875,18.144491327148437L49.44276748046875,17.938242327148437L50.03572748046875,17.766367327148437L50.76619748046875,17.603084327148437L51.53963748046875,17.49136582714844L52.35603748046875,17.42261682714844L53.21541748046875,17.396835327148438L54.06619748046875,17.431209827148436L54.94271748046875,17.50855432714844L55.85371748046875,17.628866327148437L56.79041748046875,17.80933532714844L57.70991748046875,18.032772327148436L58.63811748046875,18.299179327148437L59.59201748046875,18.61714532714844L60.56311748046875,18.995275327148438L61.50841748046875,19.40777532714844L62.453717480468754,19.87183532714844L63.40761748046875,20.37886532714844L64.36151748046875,20.954645327148437L65.29821748046875,21.564805327148438L66.17481748046875,22.192145327148438L67.00841748046875,22.836675327148438L67.79041748046875,23.506995327148438L68.55521748046876,24.220275327148435L69.25991748046874,24.933555327148436L69.91311748046874,25.655425327148436L70.50601748046876,26.38589532714844L71.08181748046874,27.150745327148435L71.58881748046875,27.907035327148435L72.04431748046875,28.66323532714844L72.43961748046875,29.410935327148437L72.80061748046874,30.192935327148437L73.09271748046875,30.957735327148438L73.32481748046875,31.705435327148436L73.50521748046876,32.435935327148435L73.60841748046874,33.03743532714844L73.67711748046875,33.63043532714843L73.69431748046875,34.19763532714843L73.67711748046875,34.75623532714844L73.62561748046875,35.29763532714844L73.53101748046875,35.83903532714844L73.39351748046874,36.354635327148436L73.21311748046875,36.861635327148434L72.98961748046875,37.35153532714844L72.71461748046875,37.82413532714844Z" fill-rule="evenodd" fill="#242424" fill-opacity="1"/></g></g><g><path d="M14.681133533203125,37.99601032714844L14.990506533203124,38.44291032714844L15.334256533203124,38.864010327148435L15.703786533203125,39.24211032714844L16.116286533203123,39.59451032714844L16.563166533203123,39.92101032714844L17.027226533203127,40.21321032714844L17.517066533203124,40.471010327148434L18.041286533203124,40.694510327148436L18.591286533203125,40.90071032714844L19.184256533203126,41.07261032714844L19.914726533203126,41.22731032714844L20.688166533203123,41.34761032714844L21.504566533203125,41.41641032714844L22.363946533203126,41.43351032714844L23.214726533203127,41.40781032714844L24.091246533203126,41.33041032714844L25.002246533203127,41.21011032714844L25.938946533203126,41.02961032714843L26.858446533203125,40.806210327148435L27.786646533203125,40.53981032714844L28.740546533203123,40.22181032714843L29.711646533203126,39.843710327148436L30.656946533203126,39.431210327148435L31.602246533203125,38.96711032714843L32.556146533203126,38.45151032714844L33.51004653320312,37.88431032714844L34.446746533203125,37.27421032714844L35.32334653320312,36.64681032714844L36.156946533203126,35.993710327148435L36.93894653320312,35.33201032714844L37.70374653320313,34.618710327148435L38.408446533203126,33.90541032714844L39.061646533203124,33.18351032714844L39.654546533203124,32.45311032714844L40.230346533203125,31.68821032714844L40.73734653320312,30.93201032714844L41.192846533203124,30.175710327148437L41.58814653320313,29.42811032714844L41.94914653320312,28.64601032714844L42.241246533203125,27.881210327148438L42.47334653320313,27.133550327148438L42.653746533203126,26.403080327148437L42.75694653320312,25.801520327148438L42.82564653320313,25.208550327148437L42.84284653320313,24.641370327148437L42.82564653320313,24.082770327148438L42.77414653320312,23.54136032714844L42.67954653320312,22.999960327148436L42.54204653320312,22.475740327148436L42.36164653320313,21.977300327148438L42.13814653320313,21.487460327148437L41.86314653320312,21.014800327148436L41.553746533203125,20.56793032714844L41.21864653320313,20.146830327148436L40.840546533203124,19.768710327148437L40.436646533203124,19.407770327148437L39.989746533203125,19.08980032714844L39.52564653320313,18.797620327148437L39.03584653320313,18.53980432714844L38.51164653320312,18.316366327148437L37.95304653320312,18.110117327148437L37.368646533203126,17.938242327148437L36.629546533203126,17.774959327148437L35.85614653320312,17.66324082714844L35.03974653320313,17.59449182714844L34.18034653320312,17.568710327148438L33.33814653320313,17.603084827148436L32.46164653320312,17.68042932714844L31.550646533203125,17.800741327148437L30.613946533203126,17.98121032714844L29.694446533203127,18.204647327148436L28.757746533203125,18.471054327148437L27.812346533203126,18.78902032714844L26.841246533203126,19.167150327148438L25.895946533203123,19.57965032714844L24.942046533203126,20.04371032714844L23.996746533203122,20.55074032714844L23.034256533203127,21.126520327148437L22.106136533203127,21.736680327148438L21.229566533203126,22.364020327148438L20.395976533203125,23.008550327148438L19.613946533203126,23.678870327148438L18.849106533203127,24.392150327148435L18.144416533203124,25.105430327148436L17.491286533203123,25.827300327148436L16.889726533203124,26.55777032714844L16.322536533203124,27.322620327148435L15.806916533203125,28.078910327148435L15.360036533203125,28.83511032714844L14.964726533203125,29.582810327148437L14.603790533203124,30.364810327148437L14.303008533203124,31.129610327148438L14.070978533203125,31.877310327148436L13.899103533203125,32.607810327148435L13.787384033203125,33.20931032714844L13.727228033203126,33.80231032714843L13.701446533203125,34.36951032714843L13.718633733203125,34.92811032714844L13.778789733203125,35.46951032714844L13.873321533203125,36.01091032714844L14.010820533203125,36.526510327148436L14.191289533203125,37.033510327148434L14.414728533203125,37.52341032714844L14.681133533203125,37.99601032714844Z" fill-rule="evenodd" fill="#242424" fill-opacity="1"/></g></g></g></g><rect x="1" y="1" width="88" height="88" rx="8" fill-opacity="0" stroke-opacity="1" stroke="#242424" fill="none" stroke-width="2"/></g></g></svg>